<svg xmlns="http://www.w3.org/2000/svg" xmlns:xlink="http://www.w3.org/1999/xlink" width="1497.713" height="1365.938" viewBox="0 0 1497.713 1365.938"><defs><clipPath id="a"><rect width="1215.323" height="913.791" transform="translate(0 0)" fill="none"/></clipPath></defs><g transform="matrix(-0.891, 0.454, -0.454, -0.891, 1497.713, 814.194)" opacity="0.147"><g transform="translate(0 0)" clip-path="url(#a)"><path d="M8.945.5c2.4-.567,2.854-.683,1-.17C8.076.818,4.583,1.788,2.133,2.375c-2.426.6-2.843.618-.942.071S6.552,1.061,8.945.5" transform="translate(0 247.187)" fill="#65abc9"/><path d="M8.968.985C11.558.161,12.22-.233,10.443.143s-5.353,1.44-7.979,2.3c-2.606.865-3.249,1.168-1.43.751,1.8-.433,5.357-1.4,7.933-2.209" transform="translate(29.354 238.462)" fill="#63a9c9"/><path d="M7.885,1.3C10.3.394,11.05-.184,9.554.054A48.528,48.528,0,0,0,2.436,2.209C.007,3.156-.728,3.669.789,3.393a48.581,48.581,0,0,0,7.1-2.1" transform="translate(60.891 227.422)" fill="#72b0ce"/><path d="M7.926,1.7C10.475.646,11.384-.1,9.951.012A34,34,0,0,0,2.695,2.247C.132,3.331-.757,4.068.7,3.892A34.291,34.291,0,0,0,7.926,1.7" transform="translate(92.911 214.266)" fill="#72aece"/><path d="M8.43,2.2C11.253.964,12.368-.033,10.915,0s-4.952,1.123-7.8,2.4S-.823,4.622.66,4.558A29.245,29.245,0,0,0,8.43,2.2" transform="translate(125.621 199.574)" fill="#66a9c9"/><path d="M9.38,2.846C12.636,1.375,14.03.084,12.486,0s-5.473,1.117-8.76,2.63S-.924,5.387.654,5.422s5.476-1.1,8.725-2.576" transform="translate(158.864 183.759)" fill="#58a0c1"/><path d="M9.416,3.2C12.8,1.656,14.338.229,12.858.022S7.4.964,3.994,2.563C.589,4.144-.927,5.556.586,5.708s5.463-.953,8.83-2.5" transform="translate(193.482 167.569)" fill="#589ec1"/><path d="M9.76,3.658C13.362,2.01,15.1.4,13.635.059s-5.614.8-9.248,2.479S-.956,5.816.542,6.1,6.164,5.3,9.76,3.658" transform="translate(228.562 150.95)" fill="#519bbd"/><path d="M9.664,3.912C13.332,2.272,15.186.556,13.8.1S8.274.671,4.58,2.359-.936,5.727.479,6.135,6,5.558,9.664,3.912" transform="translate(264.591 134.404)" fill="#509bbd"/><path d="M8.132,3.517C11.294,2.134,12.962.624,11.844.143s-4.612.28-7.8,1.688S-.778,4.74.36,5.189s4.612-.294,7.772-1.672" transform="translate(302.309 118.476)" fill="#68a7c9"/><path d="M7.931,3.636C11.092,2.321,12.819.779,11.778.208S7.312.269,4.132,1.62-.746,4.5.315,5.037s4.46-.08,7.617-1.4" transform="translate(339.654 102.469)" fill="#6aa7cb"/><path d="M7.741,3.754C10.894,2.512,12.683.948,11.715.3c-.965-.67-4.328-.161-7.5,1.112S-.711,4.218.273,4.851s4.315.141,7.469-1.1" transform="translate(377.607 86.984)" fill="#6ca9cc"/><path d="M7.848,4c3.267-1.2,5.172-2.807,4.246-3.588S7.749,0,4.462,1.224-.7,4.056.244,4.806,4.582,5.19,7.848,4" transform="translate(415.965 72.121)" fill="#6aa7cb"/><path d="M10.239,5.483C14.581,4.018,17.2,1.9,16.068.719c-1.14-1.163-5.623-.887-10,.622S-.884,4.982.279,6.094s5.614.838,9.96-.611" transform="translate(453.158 57.371)" fill="#4890b8"/><path d="M9.926,5.593c4.3-1.3,6.975-3.374,5.938-4.665S10.457-.3,6.126,1.047-.828,4.482.237,5.705s5.388,1.169,9.69-.113" transform="translate(493.179 44.562)" fill="#4c94ba"/><path d="M9.913,5.883C14.3,4.736,17.1,2.646,16.127,1.211S10.786-.411,6.367.8-.787,4.1.2,5.473s5.325,1.555,9.711.411" transform="translate(533.706 32.877)" fill="#4a94ba"/><path d="M9.058,5.687c4.092-.9,6.765-2.792,5.954-4.26S10.179-.441,6.064.515-.684,3.384.156,4.78s4.814,1.8,8.9.907" transform="translate(575.723 22.886)" fill="#569dbf"/><path d="M9.051,6.05c4.179-.727,6.982-2.6,6.243-4.214S10.519-.461,6.314.326-.629,3,.125,4.556C.912,6.1,4.881,6.773,9.051,6.05" transform="translate(617.879 14.225)" fill="#569bbf"/><path d="M8.207,5.878c3.871-.476,6.544-2.157,5.925-3.761C13.529.512,9.865-.377,5.975.154S-.529,2.38.091,3.936s4.255,2.42,8.116,1.942" transform="translate(661.651 7.705)" fill="#65a2c9"/><path d="M8.209,6.347c3.952-.271,6.748-1.906,6.217-3.675S10.221-.279,6.244.057C2.274.376-.489,2.05.072,3.755S4.262,6.62,8.209,6.347" transform="translate(705.637 2.984)" fill="#65a2c9"/><path d="M9.743,8.208c4.81-.021,8.306-1.912,7.771-4.225S12.6-.109,7.76.005-.5,2.053.059,4.271C.634,6.506,4.948,8.265,9.743,8.208" transform="translate(749.221 0)" fill="#5094ba"/><path d="M10.006,9.258c5.061.28,8.85-1.553,8.41-4.158C17.985,2.514,13.473.227,8.369.013,3.275-.18-.425,1.73.039,4.23c.492,2.514,4.921,4.757,9.967,5.028" transform="translate(794.93 0.165)" fill="#4c90b8"/><path d="M8.992,9.193c4.664.6,8.251-.97,7.973-3.526S12.633.616,7.925.093C3.232-.415-.3,1.217.02,3.687S4.339,8.622,8.992,9.193" transform="translate(842.864 4.007)" fill="#599bbf"/><path d="M10.465,11.925c5.588,1.12,10.032-.528,9.847-3.808-.141-3.26-4.9-6.794-10.555-7.826C4.129-.739-.217,1.057.008,4.2c.258,3.161,4.9,6.575,10.456,7.723" transform="translate(889.475 10.01)" fill="#448db4"/><path d="M10.356,13.239c5.706,1.623,10.34.167,10.376-3.406.02-3.552-4.684-7.738-10.46-9.264C4.523-.944-.067.674,0,4.1c.052,3.45,4.687,7.488,10.355,9.138" transform="translate(938.594 20.761)" fill="#438bb4"/><path d="M8.442,12.2c4.8,1.832,8.85.776,9.032-2.423C17.688,6.6,13.828,2.551,8.966.8,4.124-.929.106.241,0,3.338c-.141,3.1,3.658,7.039,8.438,8.862" transform="translate(990.549 37.348)" fill="#5d9dc5"/><path d="M8.258,13.587c4.876,2.388,9.166,1.541,9.526-1.932.4-3.449-3.36-8.17-8.318-10.432C4.533-1.026.324-.077.015,3.282-.266,6.655,3.4,11.241,8.258,13.587" transform="translate(1041.651 57.933)" fill="#5b9dc5"/><path d="M8.015,15.158c4.948,2.968,9.426,2.422,10.042-1.333.591-3.736-3-9.194-8.037-12.058C5.025-1.105.561-.383.049,3.255c-.511,3.654,3.051,8.933,7.967,11.9" transform="translate(1093.539 84.355)" fill="#5e9bc3"/><path d="M7.688,16.888c4.995,3.648,9.7,3.438,10.579-.614C19.131,12.24,15.7,5.98,10.62,2.425,5.574-1.12.857-.715.109,3.225-.661,7.17,2.738,13.244,7.688,16.888" transform="translate(1146.02 117.436)" fill="#5e9bc3"/><path d="M5.644,14.567c3.866,3.422,7.74,3.546,8.607.175.917-3.343-1.576-8.858-5.508-12.223C4.843-.838.948-.827.173,2.475-.7,5.764,1.8,11.153,5.644,14.567" transform="translate(1200.881 160.479)" fill="#7ab2ce"/><path d="M8.675.374c2.285-.444,2.667-.511.839-.1S4.305,1.45,1.984,1.933s-2.648.462-.78,0C3.07,1.487,6.409.817,8.675.374" transform="translate(22.345 241.833)" fill="#65abc9"/><path d="M8.707.884C11.18.172,11.784-.191,10.041.1A74.06,74.06,0,0,0,2.323,2.014c-2.5.725-3.068,1.036-1.282.694S6.249,1.578,8.707.884" transform="translate(50.303 234.557)" fill="#63a9c9"/><path d="M7.666,1.226C9.982.41,10.684-.132,9.223.028A38.883,38.883,0,0,0,2.315,1.845C-.022,2.677-.7,3.176.789,2.986a43.178,43.178,0,0,0,6.877-1.76" transform="translate(80.539 224.881)" fill="#72b0ce"/><path d="M7.712,1.663C10.174.709,11.033-.05,9.632,0a27.8,27.8,0,0,0-7.046,1.9C.1,2.874-.733,3.6.7,3.507A29.776,29.776,0,0,0,7.712,1.663" transform="translate(111.388 213.057)" fill="#72aece"/><path d="M8.207,2.177C10.942,1.039,12.02.041,10.593,0,9.17-.061,5.765.874,3,2.042S-.8,4.165.652,4.167a24.737,24.737,0,0,0,7.555-1.99" transform="translate(143.03 199.666)" fill="#66a9c9"/><path d="M9.138,2.84C12.3,1.478,13.659.2,12.147.023S6.809.844,3.616,2.252-.9,4.878.643,5.016s5.336-.821,8.5-2.176" transform="translate(175.293 185.115)" fill="#58a0c1"/><path d="M9.182,3.23C12.476,1.8,13.977.368,12.535.06S7.21.72,3.89,2.2-.906,5.068.573,5.322,5.9,4.658,9.182,3.23" transform="translate(208.992 170.138)" fill="#589ec1"/><path d="M9.52,3.7c3.517-1.525,5.225-3.129,3.8-3.585s-5.479.48-9.03,2.053S-.933,5.3.527,5.71C1.983,6.1,6,5.212,9.52,3.7" transform="translate(243.22 154.728)" fill="#519bbd"/><path d="M9.428,3.983C13.017,2.46,14.843.757,13.5.178c-1.348-.562-5.387.25-9,1.829C.883,3.569-.914,5.245.463,5.771S5.849,5.5,9.428,3.983" transform="translate(278.441 139.36)" fill="#509bbd"/><path d="M7.935,3.6C11.041,2.334,12.684.815,11.6.225S7.1.236,3.983,1.543-.758,4.351.345,4.9s4.493-.019,7.59-1.3" transform="translate(315.375 124.595)" fill="#68a7c9"/><path d="M7.74,3.743c3.1-1.214,4.812-2.76,3.811-3.433S7.2.1,4.081,1.351-.721,4.115.3,4.763s4.348.2,7.444-1.02" transform="translate(351.993 109.779)" fill="#6aa7cb"/><path d="M7.552,3.867c3.095-1.133,4.867-2.684,3.943-3.458s-4.206-.429-7.321.739S-.686,3.861.254,4.593s4.2.415,7.3-.726" transform="translate(389.248 95.513)" fill="#6ca9cc"/><path d="M7.655,4.148c3.208-1.088,5.106-2.7,4.219-3.59s-4.226-.7-7.451.425-5.1,2.733-4.2,3.584,4.218.675,7.428-.419" transform="translate(426.927 81.886)" fill="#6aa7cb"/><path d="M9.968,5.722c4.272-1.31,6.886-3.439,5.808-4.763s-5.457-1.272-9.76.1S-.849,4.546.256,5.807,5.7,7.025,9.968,5.722" transform="translate(463.491 68.422)" fill="#4890b8"/><path d="M9.655,5.863c4.23-1.144,6.9-3.226,5.927-4.658S10.344-.41,6.084.793-.785,4.075.212,5.447s5.225,1.561,9.443.415" transform="translate(502.832 56.933)" fill="#4c94ba"/><path d="M9.625,6.2c4.313-.989,7.107-3.07,6.208-4.66S10.672-.479,6.333.574-.743,3.712.178,5.24,5.317,7.2,9.625,6.2" transform="translate(542.677 46.627)" fill="#4a94ba"/><path d="M8.78,6.03c4.021-.744,6.7-2.643,5.947-4.24C13.993.194,10.077-.462,6.035.347S-.635,3.057.134,4.6,4.765,6.779,8.78,6.03" transform="translate(583.972 38.09)" fill="#569dbf"/><path d="M8.761,6.442C12.867,5.871,15.671,4.01,15,2.253S10.424-.423,6.294.188-.6,2.711.111,4.4c.7,1.7,4.56,2.61,8.65,2.044" transform="translate(625.374 30.968)" fill="#569bbf"/><path d="M7.92,6.281c3.795-.318,6.45-1.978,5.921-3.729C13.293.822,9.77-.3,5.951.07S-.474,2.129.072,3.816s4.061,2.8,7.848,2.465" transform="translate(668.341 26.095)" fill="#65a2c9"/><path d="M7.894,6.8c3.872-.1,6.668-1.718,6.217-3.626S10.122-.148,6.22.012-.418,1.817.052,3.667,4.033,6.915,7.894,6.8" transform="translate(711.466 23.116)" fill="#65a2c9"/><path d="M9.345,8.823c4.7.169,8.179-1.661,7.767-4.152C16.687,2.205,12.477.081,7.738,0c-4.731-.1-8.17,1.816-7.694,4.2.47,2.4,4.613,4.459,9.3,4.615" transform="translate(754.129 21.937)" fill="#5094ba"/><path d="M9.554,9.951c4.932.528,8.717-1.276,8.4-4.06C17.636,3.122,13.323.488,8.342.059S-.332,1.509.024,4.188C.4,6.881,4.633,9.436,9.554,9.951" transform="translate(798.795 24.084)" fill="#4c90b8"/><path d="M8.542,9.874c4.539.808,8.117-.7,7.956-3.425S12.478.911,7.894.174C3.326-.546-.162,1.033.006,3.666c.227,2.641,4.012,5.4,8.536,6.208" transform="translate(845.525 30.106)" fill="#599bbf"/><path d="M9.885,12.781c5.413,1.4,9.814-.176,9.814-3.655C19.685,5.671,15.206,1.733,9.72.438,4.258-.871-.091.862,0,4.205c.084,3.361,4.492,7.149,9.884,8.576" transform="translate(890.837 38.327)" fill="#448db4"/><path d="M9.712,14.135c5.5,1.942,10.161.55,10.323-3.216C20.223,7.17,15.808,2.6,10.224.752,4.662-1.042.108.489,0,4.114-.1,7.76,4.238,12.2,9.712,14.135" transform="translate(938.429 51.536)" fill="#438bb4"/><path d="M7.85,12.968c4.621,2.083,8.664,1.122,8.972-2.239C17.139,7.384,13.6,3,8.915.994,4.252-.99.274.1.013,3.351s3.24,7.537,7.837,9.617" transform="translate(988.565 70.843)" fill="#5d9dc5"/><path d="M7.615,14.38c4.67,2.638,8.915,1.917,9.435-1.713C17.609,9.062,14.162,4,9.418,1.454,4.689-1.07.52-.215.047,3.3-.443,6.827,2.969,11.75,7.615,14.38" transform="translate(1037.623 94.206)" fill="#5b9dc5"/><path d="M7.295,15.952c4.7,3.26,9.155,2.824,9.918-1.08.787-3.886-2.472-9.7-7.265-12.848C5.192-1.121.819-.519.091,3.265c-.683,3.809,2.536,9.435,7.2,12.687" transform="translate(1087.163 123.563)" fill="#5e9bc3"/><path d="M6.89,17.672c4.69,3.966,9.4,3.88,10.41-.323,1.1-4.161-1.981-10.771-6.776-14.637C5.755-1.116,1.112-.845.168,3.231c-.923,4.1,2.058,10.5,6.723,14.441" transform="translate(1136.92 159.688)" fill="#5e9bc3"/><path d="M4.961,15.141c3.613,3.649,7.369,3.874,8.44.425,1.051-3.447-1.074-9.212-4.748-12.813C4.982-.8,1.2-.931.243,2.469-.744,5.86,1.368,11.511,4.961,15.141" transform="translate(1188.509 205.983)" fill="#7ab2ce"/><path d="M4.131.112c1.07-.144,1.213-.153.329,0C3.571.286,1.978.541.9.718S-.305.874.592.7C1.492.541,3.071.261,4.131.112" transform="translate(46.913 237.982)" fill="#a4dce0"/><path d="M4.376.4c1.227-.3,1.5-.463.6-.369A36.5,36.5,0,0,0,1.127.8c-1.232.3-1.493.467-.59.342S3.155.686,4.376.4" transform="translate(73.447 232.304)" fill="#9ed8de"/><path d="M4.021.623C5.233.269,5.57-.031,4.8,0A18.135,18.135,0,0,0,1.185.79c-1.206.389-1.549.646-.761.6a18.277,18.277,0,0,0,3.6-.766" transform="translate(102.039 224.031)" fill="#a7d8e2"/><path d="M4.116.882C5.418.41,5.868.025,5.108,0a13.664,13.664,0,0,0-3.75.848c-1.311.471-1.745.878-.98.871A13.507,13.507,0,0,0,4.116.882" transform="translate(131.749 213.658)" fill="#a4d8e2"/><path d="M4.935,1.341C6.58.71,7.209.106,6.344.01A13.139,13.139,0,0,0,1.788,1.039C.142,1.695-.479,2.269.4,2.344a13.443,13.443,0,0,0,4.538-1" transform="translate(162.148 201.594)" fill="#92ced8"/><path d="M5.311,1.7C7.152.959,7.93.187,7.045.033A12.176,12.176,0,0,0,2.09,1.107C.248,1.871-.522,2.608.374,2.751A11.908,11.908,0,0,0,5.311,1.7" transform="translate(193.851 188.543)" fill="#8dcbd6"/><path d="M4.826,1.753c1.737-.7,2.525-1.481,1.762-1.7A9.614,9.614,0,0,0,2.044.976C.3,1.693-.475,2.452.3,2.663a9.885,9.885,0,0,0,4.526-.91" transform="translate(227.047 175.021)" fill="#96ccd8"/><path d="M5.061,2.052C6.936,1.284,7.844.405,7.086.1s-2.908.1-4.8.872C.406,1.767-.494,2.624.275,2.906c.769.3,2.914-.077,4.786-.854" transform="translate(260.541 160.917)" fill="#92c9d8"/><path d="M6.127,2.723C8.461,1.774,9.662.642,8.788.189S5.291.136,2.941,1.1C.584,2.05-.587,3.17.292,3.62s3.494.033,5.834-.9" transform="translate(294.145 146.441)" fill="#7bbfce"/><path d="M6.356,3.043C8.851,2.081,10.182.844,9.328.273s-3.592-.216-6.1.765S-.605,3.263.27,3.8s3.592.211,6.086-.754" transform="translate(329.042 132.361)" fill="#78bbcc"/><path d="M5.205,2.674C7.3,1.911,8.476.844,7.809.3S4.89-.028,2.784.752-.48,2.59.19,3.117s2.917.334,5.015-.443" transform="translate(365.663 119.082)" fill="#8dc5d6"/><path d="M5.311,2.912c2.194-.748,3.465-1.874,2.823-2.5S5.187-.113,2.986.657-.48,2.544.172,3.153s2.951.51,5.14-.241" transform="translate(401.99 105.973)" fill="#8dc3d6"/><path d="M5.411,3.153C7.7,2.442,9.073,1.267,8.463.536S5.486-.178,3.189.555-.473,2.457.152,3.163s2.97.708,5.259-.01" transform="translate(438.981 93.631)" fill="#88c1d6"/><path d="M7.4,4.594c3.208-.884,5.191-2.516,4.417-3.64S7.786-.323,4.563.606-.617,3.165.176,4.242,4.2,5.491,7.4,4.594" transform="translate(475.109 81.575)" fill="#66adc1"/><path d="M7.626,5.039c3.39-.8,5.546-2.5,4.806-3.792C11.7-.031,8.328-.385,4.921.458S-.6,3.009.152,4.254s4.1,1.6,7.474.784" transform="translate(513.316 71.272)" fill="#63a9c1"/><path d="M6.8,4.795c3.087-.613,5.11-2.127,4.507-3.395S7.693-.362,4.591.276s-5.1,2.165-4.479,3.4S3.717,5.41,6.8,4.795" transform="translate(553.112 62.697)" fill="#70b0c7"/><path d="M7.03,5.322c3.264-.495,5.465-2.049,4.915-3.5C11.383.389,8.259-.364,4.972.174S-.486,2.282.093,3.68,3.77,5.816,7.03,5.322" transform="translate(592.757 55.287)" fill="#6dadc7"/><path d="M6.338,5.173c3.015-.306,5.1-1.7,4.668-3.124C10.558.627,7.732-.265,4.7.071S-.4,1.824.066,3.214c.447,1.4,3.26,2.264,6.272,1.959" transform="translate(633.95 50.035)" fill="#7bb2cc"/><path d="M6.435,5.692c3.133-.145,5.367-1.529,4.991-3.122S8.167-.157,5.011.018-.346,1.6.045,3.157C.454,4.708,3.3,5.838,6.435,5.692" transform="translate(675.242 46.516)" fill="#78b0cc"/><path d="M6.52,6.311c3.262.05,5.654-1.326,5.349-3.1C11.544,1.463,8.628.008,5.342,0S-.3,1.394.03,3.115c.345,1.724,3.232,3.147,6.49,3.2" transform="translate(717.324 45.295)" fill="#75aecc"/><path d="M7.886,8.385c4.053.335,7.135-1.266,6.852-3.611S10.911.3,6.824.027-.3,1.414.023,3.682s3.824,4.368,7.863,4.7" transform="translate(758.999 46.018)" fill="#5fa0bd"/><path d="M8.31,9.779c4.4.676,7.846-.922,7.67-3.634S12.056.729,7.619.122-.2,1.195.01,3.814c.225,2.636,3.919,5.3,8.3,5.965" transform="translate(802.291 50.091)" fill="#5899bb"/><path d="M7.312,9.587c3.987.928,7.2-.394,7.183-3.009-.033-2.606-3.335-5.46-7.364-6.321S-.062.781,0,3.322c.1,2.55,3.335,5.331,7.311,6.266" transform="translate(847.722 58.372)" fill="#66a2c1"/><path d="M7.418,10.921c4.19,1.351,7.673.117,7.807-2.811.1-2.914-3.238-6.356-7.479-7.629C3.524-.781.059.527,0,3.368s3.247,6.2,7.418,7.554" transform="translate(892.774 69.741)" fill="#639ec1"/><path d="M8.678,14.442c5.09,2.129,9.511.883,9.844-2.917.358-3.776-3.587-8.555-8.75-10.6C4.63-1.09.26.3.013,3.971-.256,7.658,3.623,12.3,8.678,14.442" transform="translate(937.192 84.309)" fill="#4c8fb2"/><path d="M8.515,16.163c5.194,2.792,9.91,1.74,10.484-2.412.607-4.12-3.263-9.7-8.561-12.354C5.166-1.226.541-.037.041,3.969-.438,8,3.342,13.42,8.515,16.163" transform="translate(983.545 104.7)" fill="#498db2"/><path d="M6.714,14.673c4.306,2.8,8.37,2.2,9.03-1.453.687-3.634-2.317-8.847-6.689-11.583C4.7-1.073.692-.331.076,3.217c-.6,3.571,2.36,8.656,6.637,11.457" transform="translate(1032.12 132.364)" fill="#659ec1"/><path d="M6.458,16.457c4.366,3.477,8.644,3.147,9.619-.819.94-3.958-1.894-10-6.353-13.381C5.3-1.121.969-.638.156,3.24-.71,7.121,2.119,13,6.458,16.457" transform="translate(1079.01 164.445)" fill="#639bc1"/><path d="M6.3,19c4.526,4.381,9.228,4.394,10.557-.045,1.3-4.433-1.423-11.582-6.061-15.866C6.168-1.144,1.476-.994.285,3.339S1.8,14.653,6.3,19" transform="translate(1125.462 203.009)" fill="#5e96bf"/><path d="M4.468,16.322c3.472,4.045,7.337,4.379,8.6.691,1.274-3.665-.566-9.938-4.135-13.9C5.4-.843,1.576-1.033.356,2.566-.813,6.2.984,12.342,4.468,16.322" transform="translate(1173.63 252.296)" fill="#7aadc9"/><path d="M2.075.03C2.6-.021,2.652,0,2.2.048,1.747.115.952.206.43.256S-.143.326.307.234C.761.168,1.555.1,2.075.03" transform="translate(69.57 234.777)" fill="#c9f1e6"/><path d="M2.048.162c.565-.1.681-.177.254-.159A12.985,12.985,0,0,0,.508.272c-.567.1-.673.214-.25.157A12.012,12.012,0,0,0,2.048.162" transform="translate(94.936 230.706)" fill="#ceefe8"/><path d="M2.6.4c.771-.206.983-.384.47-.4A10.635,10.635,0,0,0,.746.393c-.768.232-.979.4-.466.394A10.856,10.856,0,0,0,2.6.4" transform="translate(121.718 223.801)" fill="#bde9e2"/><path d="M3,.659c.941-.3,1.256-.6.694-.654A9.481,9.481,0,0,0,.971.488c-.944.323-1.25.584-.693.643A8.794,8.794,0,0,0,3,.659" transform="translate(150.082 214.794)" fill="#b6e4e2"/><path d="M3.245.907c1.073-.39,1.484-.8.912-.886A7.645,7.645,0,0,0,1.168.554c-1.077.391-1.483.8-.9.875A7.673,7.673,0,0,0,3.245.907" transform="translate(179.8 204.234)" fill="#b2e0de"/><path d="M3.484,1.168C4.694.717,5.2.208,4.618.048A7.072,7.072,0,0,0,1.366.6C.159,1.061-.341,1.543.245,1.707a7.117,7.117,0,0,0,3.239-.539" transform="translate(210.614 192.545)" fill="#aedcdc"/><path d="M3.586,1.381C4.878.879,5.465.3,4.9.087A6.254,6.254,0,0,0,1.52.6C.231,1.114-.353,1.689.221,1.894a6.545,6.545,0,0,0,3.365-.513" transform="translate(242.477 180.153)" fill="#abdadc"/><path d="M3.832,1.637C5.257,1.106,5.941.417,5.366.125S3.171.056,1.744.608-.375,1.839.206,2.113c.576.292,2.2.069,3.626-.476" transform="translate(275.094 167.323)" fill="#a7d6d8"/><path d="M4.606,2.175C6.37,1.5,7.278.64,6.628.218S4,0,2.23.681-.443,2.224.217,2.631s2.622.2,4.389-.456" transform="translate(308.088 154.192)" fill="#97ced4"/><path d="M4.832,2.473C6.747,1.792,7.774.817,7.128.3,6.475-.2,4.4-.059,2.479.637S-.455,2.3.2,2.8s2.725.359,4.635-.326" transform="translate(342.201 141.371)" fill="#92cbce"/><path d="M4.525,2.5C6.364,1.878,7.4.92,6.833.369S4.3-.105,2.454.526-.411,2.1.157,2.647s2.53.469,4.368-.144" transform="translate(377.419 129.08)" fill="#97ccd6"/><path d="M4.495,2.659C6.37,2.072,7.462,1.094,6.934.47S4.451-.16,2.569.44-.4,2.006.135,2.618s2.484.63,4.359.041" transform="translate(413.104 117.3)" fill="#9bcbd4"/><path d="M4.463,2.831C6.372,2.294,7.53,1.289,7.043.6S4.6-.2,2.682.353-.38,1.9.115,2.576s2.441.789,4.348.255" transform="translate(449.452 106.31)" fill="#9dcbd8"/><path d="M5.344,3.628C7.686,3.05,9.157,1.834,8.622.905S5.727-.281,3.373.323-.432,2.138.116,3.038,3,4.214,5.344,3.628" transform="translate(485.727 95.99)" fill="#8bbfce"/><path d="M5.7,4.14c2.559-.533,4.229-1.845,3.695-2.935S6.347-.311,3.774.239-.434,2.107.1,3.169s3.041,1.506,5.6.97" transform="translate(523.085 87.052)" fill="#86bacc"/><path d="M6.05,4.722C8.833,4.268,10.7,2.871,10.2,1.6S7.007-.324,4.207.161-.431,2.047.087,3.287,3.268,5.18,6.05,4.722" transform="translate(561.113 79.513)" fill="#7eb6c9"/><path d="M6.265,5.267c2.953-.333,4.984-1.776,4.533-3.228S7.552-.284,4.582.084-.406,1.91.069,3.321s3.241,2.285,6.2,1.946" transform="translate(599.94 73.653)" fill="#7ab2c9"/><path d="M6.466,5.9c3.128-.2,5.344-1.664,4.95-3.311S8.122-.2,4.972.029C1.823.245-.367,1.752.051,3.35S3.34,6.082,6.466,5.9" transform="translate(639.472 69.649)" fill="#75aec3"/><path d="M6.786,6.749c3.374-.006,5.85-1.53,5.5-3.416S8.9-.053,5.5,0C2.106.04-.341,1.6.039,3.436.4,5.283,3.419,6.762,6.786,6.749" transform="translate(679.587 67.707)" fill="#6fabbf"/><path d="M6.958,7.592c3.561.211,6.253-1.3,5.985-3.422C12.69,2.06,9.549.188,5.962.014S-.275,1.4.023,3.461C.3,5.536,3.409,7.368,6.958,7.592" transform="translate(720.527 68.221)" fill="#68a7bf"/><path d="M7.237,8.707c3.807.5,6.775-1.017,6.612-3.437S10.42.5,6.575.073-.188,1.2.009,3.548,3.439,8.2,7.237,8.707" transform="translate(762.04 71.381)" fill="#65a2bb"/><path d="M6.521,8.707c3.538.736,6.373-.568,6.346-2.954C12.822,3.372,9.878.868,6.307.176S-.074.846,0,3.171s2.985,4.8,6.519,5.536" transform="translate(805.172 78.236)" fill="#70a9c5"/><path d="M7.091,10.6c3.985,1.172,7.3-.144,7.4-3.015.1-2.847-3.117-6.1-7.146-7.209S.05.682,0,3.46,3.119,9.427,7.091,10.6" transform="translate(847.624 87.668)" fill="#659ebd"/><path d="M7.02,11.827c4.087,1.613,7.66.4,7.888-2.731C15.19,5.977,11.995,2.157,7.844.644,3.708-.887.212.414.008,3.454c-.187,3.062,2.922,6.8,7.012,8.373" transform="translate(891.222 101.42)" fill="#619dbd"/><path d="M7.893,15.1c4.8,2.385,9.116,1.225,9.633-2.7.51-3.9-3.047-9-7.934-11.278C4.728-1.151.477.153.032,3.952c-.4,3.822,3.082,8.776,7.861,11.147" transform="translate(934.155 118.565)" fill="#4f90b0"/><path d="M7.776,17.041c4.955,3.057,9.572,2.121,10.375-2.2.752-4.307-2.714-10.26-7.766-13.208C5.356-1.275.754-.187.087,3.993-.6,8.2,2.858,13.988,7.776,17.041" transform="translate(978.349 141.406)" fill="#4a8db0"/><path d="M6.448,16.417c4.334,3.262,8.583,2.709,9.51-1.332.92-4.022-1.935-9.936-6.359-13.1C5.192-1.171.975-.476.142,3.455c-.818,3.956,1.991,9.714,6.306,12.962" transform="translate(1024.025 171.26)" fill="#5e97ba"/><path d="M6.2,18.558c4.415,4.058,9.018,3.819,10.241-.622C17.713,13.53,14.994,6.649,10.457,2.7,5.954-1.218,1.365-.81.268,3.516-.886,7.845,1.8,14.551,6.2,18.558" transform="translate(1068.121 205.839)" fill="#5a96ba"/><path d="M5.474,19.677c4.221,4.622,8.875,4.809,10.343.231,1.5-4.548-.775-12-5.1-16.544C6.4-1.13,1.842-1.1.409,3.333c-1.4,4.47.9,11.719,5.065,16.344" transform="translate(1112.197 247.93)" fill="#5f96bb"/><path d="M3.337,14.782c2.8,3.736,6.119,4.113,7.384.817,1.227-3.3-.04-8.968-2.914-12.646C4.932-.689,1.628-1.005.439,2.243c-1.175,3.271.08,8.865,2.9,12.539" transform="translate(1157.553 301.214)" fill="#8bb6d0"/><path d="M1.293,0c.318,0,.343.008.055.025C1.063.063.571.066.251.087-.062.084-.088.076.2.066.488.034.978.013,1.293,0" transform="translate(91.086 232.553)" fill="#e0f7e6"/><path d="M1.423.111C1.8.037,1.869-.011,1.573,0A9.633,9.633,0,0,0,.337.122C-.05.171-.109.24.187.227A10.22,10.22,0,0,0,1.423.111" transform="translate(114.996 230.004)" fill="#def3e9"/><path d="M1.965.308c.57-.132.719-.263.333-.3a7.167,7.167,0,0,0-1.747.2c-.576.133-.726.267-.33.3a7.607,7.607,0,0,0,1.744-.2" transform="translate(140.522 224.594)" fill="#d2ede2"/><path d="M2.353.547c.733-.219.973-.452.534-.521A5.711,5.711,0,0,0,.752.3C.018.513-.22.73.223.811A6.469,6.469,0,0,0,2.353.547" transform="translate(167.718 217.007)" fill="#c9e9e2"/><path d="M2.6.774C3.459.5,3.778.174,3.317.049a5.282,5.282,0,0,0-2.394.3c-.857.284-1.172.6-.71.723A5.835,5.835,0,0,0,2.6.774" transform="translate(196.353 207.82)" fill="#c3e6de"/><path d="M2.437.874c.842-.285,1.2-.669.781-.807A4.355,4.355,0,0,0,.948.332c-.842.3-1.184.639-.777.8A4.385,4.385,0,0,0,2.437.874" transform="translate(226.436 197.566)" fill="#c5e6e2"/><path d="M2.812,1.153C3.823.788,4.278.337,3.837.1A4.576,4.576,0,0,0,1.192.371C.179.738-.274,1.186.17,1.418a4.629,4.629,0,0,0,2.642-.265" transform="translate(257.158 186.423)" fill="#bfe0de"/><path d="M3.318,1.527C4.554,1.085,5.154.48,4.663.169A4.865,4.865,0,0,0,1.517.417C.275.864-.324,1.463.177,1.768a4.831,4.831,0,0,0,3.141-.241" transform="translate(288.682 174.797)" fill="#b2dadc"/><path d="M3.676,1.88C5.1,1.385,5.836.658,5.314.263,4.8-.148,3.219-.068,1.8.439S-.347,1.648.164,2.05c.53.392,2.093.314,3.512-.169" transform="translate(321.124 163.06)" fill="#add6d8"/><path d="M3.9,2.174C5.456,1.663,6.3.845,5.788.35s-2.2-.465-3.761.064S-.361,1.74.151,2.229s2.2.452,3.752-.055" transform="translate(354.419 151.513)" fill="#a7d2d6"/><path d="M4,2.406C5.639,1.9,6.578,1.025,6.078.456S3.849-.162,2.206.362-.36,1.747.133,2.307s2.228.6,3.868.1" transform="translate(388.524 140.392)" fill="#a4d0d6"/><path d="M4.1,2.652C5.814,2.161,6.846,1.244,6.372.587S4.118-.193,2.386.305-.355,1.726.116,2.369s2.252.769,3.98.283" transform="translate(423.318 129.88)" fill="#a4ccd4"/><path d="M4.064,2.83C5.817,2.39,6.9,1.445,6.474.725S4.264-.218,2.5.236s-2.838,1.4-2.4,2.1,2.2.932,3.966.492" transform="translate(458.88 120.244)" fill="#a4ccd8"/><path d="M4.788,3.584C6.911,3.131,8.271,2,7.806,1.057S5.238-.266,3.1.2-.375,1.8.093,2.725s2.567,1.3,4.695.859" transform="translate(494.477 111.354)" fill="#94c3ce"/><path d="M5.617,4.525c2.562-.438,4.25-1.78,3.765-3.008S6.414-.3,3.833.15c-2.57.469-4.241,1.811-3.747,3s2.97,1.817,5.53,1.373" transform="translate(530.611 103.655)" fill="#81bac7"/><path d="M5.813,5.06c2.72-.35,4.583-1.735,4.137-3.13S6.918-.273,4.18.084C1.448.46-.389,1.856.07,3.217S3.1,5.386,5.813,5.06" transform="translate(567.911 97.66)" fill="#7bb6c3"/><path d="M4.779,4.5c2.3-.17,3.913-1.313,3.6-2.564S5.934-.164,3.626.027-.281,1.377.041,2.6,2.485,4.68,4.779,4.5" transform="translate(606.936 93.941)" fill="#94c1d2"/><path d="M4.967,5.1c2.456-.049,4.248-1.229,3.975-2.653S6.448-.069,3.976,0-.249,1.27.029,2.665,2.516,5.151,4.967,5.1" transform="translate(645.541 91.632)" fill="#8fbbd0"/><path d="M6.343,7.117c3.22.145,5.635-1.335,5.39-3.328C11.466,1.807,8.624.108,5.377,0S-.252,1.416.021,3.353C.31,5.3,3.125,6.964,6.343,7.117" transform="translate(683.668 90.881)" fill="#70abc3"/><path d="M6.478,8c3.395.378,6.034-1.09,5.865-3.32C12.188,2.46,9.257.37,5.83.045S-.181,1.22.01,3.39,3.092,7.609,6.478,8" transform="translate(723.507 93.249)" fill="#6ca7bf"/><path d="M6.595,9.015c3.564.672,6.426-.772,6.373-3.263S9.931.749,6.328.136-.08,1.021,0,3.441C.1,5.874,3.038,8.357,6.595,9.015" transform="translate(763.925 98.433)" fill="#68a4bf"/><path d="M6,9.131c3.358.889,6.145-.348,6.2-2.833S9.562,1.106,6.168.256.022.708,0,3.131s2.648,5.095,6,6" transform="translate(805.572 107.326)" fill="#72abc5"/><path d="M6.484,11.09c3.769,1.374,7.015.1,7.241-2.866S11.018,1.779,7.195.49.185.533,0,3.421c-.139,2.9,2.725,6.306,6.48,7.669" transform="translate(846.54 118.931)" fill="#66a0bf"/><path d="M6.686,12.938c4.048,1.886,7.685.7,8.092-2.692.4-3.38-2.6-7.629-6.714-9.438C3.961-.972.4.294.026,3.588c-.338,3.321,2.625,7.476,6.66,9.35" transform="translate(888.093 134.671)" fill="#5f9bba"/><path d="M6.7,14.809c4.252,2.47,8.237,1.453,8.869-2.354.644-3.783-2.367-8.837-6.693-11.223C4.563-1.124.621.007.069,3.7c-.563,3.714,2.4,8.648,6.635,11.1" transform="translate(929.983 154.957)" fill="#5a96b8"/><path d="M6.339,16.185c4.242,3.024,8.363,2.25,9.268-1.8.83-4.044-1.926-9.764-6.262-12.679C5.038-1.2.92-.292.13,3.653-.645,7.615,2.12,13.19,6.339,16.185" transform="translate(972.271 180.601)" fill="#5996ba"/><path d="M6.084,18.2c4.317,3.746,8.749,3.251,9.956-1.181,1.178-4.414-1.47-11.033-5.9-14.673C5.725-1.261,1.285-.629.233,3.694-.817,8.044,1.781,14.486,6.084,18.2" transform="translate(1014.118 211.559)" fill="#5692b6"/><path d="M5.318,18.968c4.067,4.221,8.509,4.121,9.9-.374,1.448-4.451-.813-11.539-4.981-15.68C6.094-1.208,1.682-.9.373,3.475c-1.3,4.4.917,11.282,4.945,15.493" transform="translate(1056.039 249.465)" fill="#5e96bb"/><path d="M4.669,20.286c3.887,4.862,8.362,5.141,10.108.506,1.7-4.638-.142-12.344-4.118-17.157C6.676-1.113,2.182-1.208.572,3.339c-1.593,4.574.256,12.094,4.1,16.947" transform="translate(1096.803 293.943)" fill="#6196bd"/><path d="M2.786,15.133c2.567,3.859,5.714,4.326,7.178,1.02,1.4-3.339.449-9.183-2.174-13.018C5.191-.683,1.961-1.052.611,2.24S.244,11.283,2.786,15.133" transform="translate(1138.42 349.785)" fill="#8bb6d0"/><path d="M1.114.012c.263,0,.274.015.027.026S.469.036.2.03C-.057-.007-.072.006.186,0s.665,0,.928.009" transform="translate(111.893 231.463)" fill="#e6f7e6"/><path d="M1.237.1c.327-.051.378-.083.116-.09A7.35,7.35,0,0,0,.281.046C-.039.1-.1.121.169.136A10.149,10.149,0,0,0,1.237.1" transform="translate(134.422 230.474)" fill="#e0f5e8"/><path d="M1.493.239c.425-.092.534-.179.234-.233A6.656,6.656,0,0,0,.4.082C-.027.167-.127.272.172.308A5.216,5.216,0,0,0,1.493.239" transform="translate(158.851 226.602)" fill="#daf1e6"/><path d="M1.874.463c.577-.156.76-.324.409-.425a4.592,4.592,0,0,0-1.7.114C0,.3-.173.473.184.575A4.821,4.821,0,0,0,1.874.463" transform="translate(184.866 220.458)" fill="#d4ebe6"/><path d="M1.987.638c.655-.183.9-.452.539-.572A3.739,3.739,0,0,0,.7.192C.049.385-.192.635.166.76A3.836,3.836,0,0,0,1.987.638" transform="translate(212.48 212.686)" fill="#d0e9e2"/><path d="M2.228.865C3,.613,3.314.287,2.94.106A3.563,3.563,0,0,0,.866.228C.095.47-.217.8.159.985A3.714,3.714,0,0,0,2.228.865" transform="translate(241.246 203.69)" fill="#cbe6e2"/><path d="M2.6,1.169C3.53.87,3.956.409,3.544.161A3.687,3.687,0,0,0,1.1.272c-.938.3-1.354.745-.941,1a3.746,3.746,0,0,0,2.437-.1" transform="translate(270.993 193.857)" fill="#c3e2e0"/><path d="M3.081,1.555C4.236,1.187,4.8.588,4.342.242A4.038,4.038,0,0,0,1.417.3C.261.68-.3,1.26.161,1.6a4.105,4.105,0,0,0,2.92-.05" transform="translate(301.598 183.541)" fill="#b4dcda"/><path d="M3.436,1.919C4.768,1.5,5.469.794,4.991.347S3.04-.115,1.7.312-.335,1.449.159,1.879c.477.446,1.945.453,3.277.04" transform="translate(333.147 173.109)" fill="#b0d6da"/><path d="M3.9,2.384C5.471,1.908,6.336,1.074,5.829.493S3.635-.168,2.064.312-.361,1.629.147,2.2s2.187.636,3.755.186" transform="translate(365.392 162.776)" fill="#a5ced4"/><path d="M4.24,2.815C6,2.34,7.016,1.361,6.5.662S4.147-.211,2.383.284-.38,1.748.135,2.438s2.354.858,4.1.377" transform="translate(398.461 152.874)" fill="#9ecbd4"/><path d="M4.078,2.924C5.818,2.5,6.864,1.53,6.413.777S4.177-.226,2.434.22-.35,1.625.108,2.365s2.232,1,3.969.559" transform="translate(432.614 143.787)" fill="#a0ccd4"/><path d="M4.283,3.316C6.16,2.909,7.336,1.875,6.906,1S4.591-.247,2.708.174-.346,1.632.092,2.49s2.314,1.231,4.191.826" transform="translate(467.141 135.426)" fill="#9bc9d4"/><path d="M5.084,4.247C7.377,3.839,8.87,2.58,8.407,1.437S5.7-.284,3.4.138-.384,1.819.088,2.944s2.7,1.7,5,1.3" transform="translate(501.809 127.892)" fill="#8bbdcb"/><path d="M5.029,4.536c2.338-.31,3.911-1.567,3.508-2.811S5.9-.253,3.552.08-.347,1.671.067,2.892,2.7,4.848,5.029,4.536" transform="translate(537.8 122.01)" fill="#8bbbce"/><path d="M5.217,5.1C7.7,4.882,9.439,3.574,9.076,2.16,8.728.753,6.394-.2,3.892.036S-.327,1.594.052,2.976,2.73,5.307,5.217,5.1" transform="translate(574.201 117.556)" fill="#88b8cb"/><path d="M5.146,5.466C7.667,5.395,9.49,4.1,9.2,2.573S6.606-.094,4.069.006-.273,1.42.034,2.911s2.59,2.651,5.111,2.555" transform="translate(611.418 115.003)" fill="#88b8ce"/><path d="M5.3,6.149c2.679.08,4.674-1.247,4.447-2.963S7.145.052,4.445,0C1.752-.034-.228,1.3.021,2.977S2.631,6.062,5.3,6.149" transform="translate(649 114.359)" fill="#81b6cc"/><path d="M5.212,6.638c2.719.238,4.8-1.027,4.664-2.874S7.387.239,4.647.023-.156,1.11.009,2.911,2.5,6.375,5.212,6.638" transform="translate(687.354 116.159)" fill="#83b4ce"/><path d="M5.218,7.331c2.81.466,5.042-.787,5-2.812C10.14,2.5,7.8.505,4.968.077,2.138-.333-.088.929,0,2.91S2.414,6.867,5.218,7.331" transform="translate(726.119 120.516)" fill="#81b0cc"/><path d="M5.421,8.451c3.02.732,5.539-.51,5.561-2.818.059-2.3-2.4-4.75-5.448-5.447S.011.779,0,3.039,2.405,7.717,5.421,8.451" transform="translate(765.134 127.64)" fill="#7badcc"/><path d="M5.47,9.55c3.17,1.038,5.892-.145,6.058-2.717S9.232,1.354,6.027.35.156.6,0,3.1C-.12,5.626,2.311,8.479,5.47,9.55" transform="translate(804.656 138.125)" fill="#76abc9"/><path d="M5.478,10.774c3.306,1.431,6.287.312,6.58-2.541.328-2.841-2.143-6.293-5.5-7.664S.313.38.02,3.167c-.269,2.79,2.163,6.178,5.458,7.607" transform="translate(844.471 152.291)" fill="#72a7c9"/><path d="M6.2,13.885c3.916,2.149,7.594,1.005,8.153-2.6S12.153,3.041,8.161.991C4.188-1.061.571.185.056,3.7-.43,7.227,2.3,11.757,6.2,13.885" transform="translate(883.56 169.631)" fill="#5d99bb"/><path d="M6.14,15.8c4.09,2.752,8.094,1.8,8.907-2.225.838-4-1.89-9.477-6.072-12.131C4.825-1.2.874-.1.122,3.809c-.739,3.931,1.95,9.259,6.018,12" transform="translate(923.428 192.227)" fill="#5892ba"/><path d="M6.163,18.447c4.355,3.551,8.8,2.82,9.977-1.758,1.147-4.559-1.523-11.141-5.98-14.605C5.719-1.34,1.287-.441.24,4.017-.843,8.482,1.844,14.9,6.163,18.447" transform="translate(962.838 219.569)" fill="#4e8db4"/><path d="M5.81,20.581c4.389,4.338,9.136,3.928,10.653-1.036,1.5-4.958-.939-12.5-5.454-16.739C6.522-1.4,1.756-.79.4,4.056c-1.418,4.849,1.063,12.2,5.41,16.525" transform="translate(1002.101 252.832)" fill="#4a8ab0"/><path d="M4.912,21.082c4.04,4.8,8.741,4.815,10.446-.144,1.749-4.921-.2-12.843-4.37-17.547C6.858-1.291,2.167-1.082.573,3.755-1.057,8.6.914,16.3,4.912,21.082" transform="translate(1041.214 293.236)" fill="#538fb8"/><path d="M4.377,23.4c3.961,5.737,8.932,6.181,11.092.864,2.181-5.288.609-14.27-3.516-19.906-4.088-5.6-9.078-5.809-11.081-.6C-1.138,8.991.449,17.71,4.377,23.4" transform="translate(1078.364 339.352)" fill="#4e8bb6"/><path d="M2.492,17.134c2.551,4.455,5.989,5.068,7.757,1.344,1.734-3.743,1.039-10.4-1.6-14.814C6.038-.731,2.571-1.225.885,2.467-.756,6.184-.055,12.716,2.492,17.134" transform="translate(1116.541 397.913)" fill="#7daecc"/><path d="M1.081.086c.246.006.242.031,0,.031S.427.085.183.05s-.246-.066,0-.034c.25,0,.647.045.894.071" transform="translate(132.282 231.57)" fill="#e2f7e6"/><path d="M1.2.132c.306,0,.345-.048.087-.086A5.125,5.125,0,0,0,.26.013C-.049.009-.088.045.172.1A7.947,7.947,0,0,0,1.2.132" transform="translate(153.41 232.205)" fill="#e0f5e8"/><path d="M1.442.282c.4-.066.5-.157.209-.23A4.4,4.4,0,0,0,.378.041C-.032.1-.12.176.171.263A4.228,4.228,0,0,0,1.442.282" transform="translate(176.538 229.841)" fill="#daf1e6"/><path d="M1.686.478c.516-.1.667-.28.349-.395A3.339,3.339,0,0,0,.515.091C0,.2-.154.37.169.48a3.361,3.361,0,0,0,1.517,0" transform="translate(201.426 225.174)" fill="#d4efe6"/><path d="M1.924.684c.623-.164.855-.42.508-.574A3.426,3.426,0,0,0,.671.118C.046.283-.185.529.161.688a3.324,3.324,0,0,0,1.763,0" transform="translate(227.823 218.8)" fill="#d0ebe6"/><path d="M2.153.925C2.891.723,3.2.374,2.838.16A3.206,3.206,0,0,0,.831.154C.089.353-.209.7.155.911a3.17,3.17,0,0,0,2,.014" transform="translate(255.522 211.169)" fill="#cbe6e2"/><path d="M2.258,1.118c.807-.25,1.186-.65.828-.908A3.032,3.032,0,0,0,.958.16C.145.4-.219.8.136,1.066a3.013,3.013,0,0,0,2.122.051" transform="translate(284.446 202.759)" fill="#c9e4e4"/><path d="M2.606,1.453C3.586,1.165,4.067.654,3.689.3A3.141,3.141,0,0,0,1.21.183C.228.475-.253.981.133,1.335a3.183,3.183,0,0,0,2.473.117" transform="translate(314.187 193.806)" fill="#c1e0e0"/><path d="M3.193,1.982C4.436,1.627,5.091.949,4.657.455S2.851-.147,1.6.213-.305,1.252.14,1.733s1.8.592,3.053.249" transform="translate(344.642 184.618)" fill="#b4d8da"/><path d="M3.278,2.23C4.605,1.876,5.347,1.132,4.93.566S3.093-.172,1.765.19-.3,1.292.119,1.856s1.832.715,3.159.375" transform="translate(376.275 175.741)" fill="#b0d6da"/><path d="M3.846,2.846C5.455,2.46,6.4,1.538,5.953.8S3.825-.22,2.208.188-.343,1.5.117,2.233s2.124,1.014,3.729.612" transform="translate(408.279 167.091)" fill="#a2ced4"/><path d="M3.681,2.951C5.27,2.612,6.245,1.7,5.859.916S3.853-.21,2.25.133-.307,1.39.089,2.165s2,1.12,3.592.786" transform="translate(441.559 159.391)" fill="#a4d0d8"/><path d="M3.878,3.364C5.6,3.052,6.7,2.068,6.329,1.159S4.252-.22,2.519.1-.3,1.407.074,2.3s2.076,1.363,3.8,1.063" transform="translate(475.209 152.433)" fill="#a0ccd4"/><path d="M4.525,4.25C6.6,3.971,7.984,2.784,7.6,1.621S5.215-.236,3.125.074-.323,1.552.066,2.7,2.455,4.546,4.525,4.25" transform="translate(509.093 146.384)" fill="#8fc3ce"/><path d="M4.694,4.771c2.218-.21,3.75-1.443,3.412-2.762S5.673-.187,3.441.034-.3,1.5.049,2.8,2.481,4.987,4.694,4.771" transform="translate(543.964 141.901)" fill="#8bbfcb"/><path d="M4.513,4.985c2.2-.109,3.762-1.288,3.5-2.675S5.725-.11,3.516.009C1.305.114-.249,1.327.033,2.687s2.284,2.38,4.48,2.3" transform="translate(579.711 139.197)" fill="#8dc1d0"/><path d="M4.772,5.749c2.4.032,4.175-1.235,3.953-2.832S6.364.013,3.95,0-.218,1.269.022,2.843s2.356,2.878,4.75,2.906" transform="translate(615.602 138.095)" fill="#88bad0"/><path d="M4.791,6.32c2.485.206,4.376-1.07,4.244-2.829C8.879,1.742,6.735.187,4.227.014S-.166,1.134.012,2.859c.155,1.729,2.3,3.287,4.78,3.461" transform="translate(652.202 139.231)" fill="#8ab8ce"/><path d="M4.585,6.652C7.041,7.012,9,5.817,8.933,3.979,8.882,2.144,6.807.371,4.331.051S-.085.935,0,2.74,2.134,6.288,4.585,6.652" transform="translate(689.477 142.922)" fill="#88bad2"/><path d="M4.671,7.511c2.6.58,4.742-.607,4.766-2.667S7.362.679,4.737.132.03.8,0,2.818C0,4.843,2.08,6.925,4.671,7.511" transform="translate(726.863 149.088)" fill="#86b6ce"/><path d="M4.633,8.29c2.676.813,4.96-.311,5.1-2.554S7.775,1.037,5.076.242C2.376-.536.113.626,0,2.827S1.965,7.463,4.633,8.29" transform="translate(764.69 158.369)" fill="#80b4ce"/><path d="M4.654,9.351c2.8,1.135,5.3.047,5.559-2.451S8.385,1.491,5.548.405C2.714-.662.243.451.017,2.9s1.84,5.341,4.637,6.452" transform="translate(802.665 170.944)" fill="#7db0cc"/><path d="M4.539,10.337c2.865,1.459,5.517.476,5.924-2.228.428-2.7-1.62-6.064-4.525-7.476C3.049-.783.417.261.039,2.918c-.348,2.666,1.65,5.957,4.5,7.419" transform="translate(840.873 187.376)" fill="#7baecc"/><path d="M4.633,12.094c3.085,1.939,6.062,1.04,6.681-2.061.6-3.1-1.45-7.179-4.583-9.078C3.6-.922.67.059.078,3.093c-.5,3.067,1.483,7.059,4.555,9" transform="translate(878.74 207.654)" fill="#73a9cb"/><path d="M4.907,14.809c3.457,2.655,6.983,1.863,7.879-1.862.908-3.708-1.236-8.885-4.761-11.479C4.513-1.108,1.021-.2.179,3.443s1.294,8.711,4.728,11.365" transform="translate(916.028 232.087)" fill="#639ec3"/><path d="M4.65,16.538c3.509,3.265,7.286,2.7,8.454-1.354S12.3,5.212,8.721,2C5.146-1.179,1.371-.486.293,3.492s.872,9.786,4.357,13.045" transform="translate(953.402 262.2)" fill="#5f9bc3"/><path d="M4.376,18.685c3.563,4.035,7.683,3.744,9.181-.721S13.312,6.628,9.636,2.682C5.979-1.243,1.917-.787.478,3.572c-1.39,4.388.351,11.11,3.9,15.112" transform="translate(989.88 297.71)" fill="#5a97bd"/><path d="M3.893,20.42c3.484,4.735,7.8,4.832,9.623.088,1.843-4.728.446-12.427-3.163-17.085C6.784-1.21,2.455-1.111.744,3.545-1,8.2.429,15.725,3.893,20.42" transform="translate(1025.395 339.56)" fill="#5894bf"/><path d="M3.434,22.868c3.427,5.676,8.047,6.215,10.339,1.074,2.268-5.147,1.286-13.931-2.293-19.536C7.93-1.156,3.289-1.478,1.134,3.586-1.04,8.644.012,17.248,3.434,22.868" transform="translate(1059.073 387.576)" fill="#5390bb"/><path d="M1.888,16.633c2.173,4.377,5.388,5.056,7.2,1.463S10.572,8.025,8.334,3.668C6.1-.651,2.849-1.237,1.118,2.342-.644,5.9-.275,12.284,1.888,16.633" transform="translate(1093.297 447.851)" fill="#81b2d0"/><path d="M1.566.234c.339.075.321.117-.045.054A9.857,9.857,0,0,1,.245.089C-.1.017-.077-.033.288.025A9.184,9.184,0,0,1,1.566.234" transform="translate(152.043 232.976)" fill="#d4f3e4"/><path d="M1.283.215c.324.011.355-.036.071-.092A5.7,5.7,0,0,0,.261,0C-.058,0-.089.028.193.09a8.612,8.612,0,0,0,1.09.124" transform="translate(171.967 235.272)" fill="#daf3e9"/><path d="M1.643.4c.458-.05.552-.145.215-.267A4.643,4.643,0,0,0,.417.017C-.043.044-.135.171.2.28A4.835,4.835,0,0,0,1.643.4" transform="translate(193.687 234.435)" fill="#d4efe8"/><path d="M1.752.582c.524-.091.684-.3.341-.428A3.236,3.236,0,0,0,.523.047C-.011.115-.156.308.181.469A3.424,3.424,0,0,0,1.752.582" transform="translate(217.416 231.269)" fill="#d0ede8"/><path d="M1.73.717C2.288.6,2.491.35,2.176.178A2.61,2.61,0,0,0,.591.069C.031.185-.162.414.146.607A2.827,2.827,0,0,0,1.73.717" transform="translate(242.817 226.371)" fill="#ceede8"/><path d="M1.953.957c.671-.163.948-.48.619-.729A2.666,2.666,0,0,0,.753.091C.081.263-.189.569.139.815A2.675,2.675,0,0,0,1.953.957" transform="translate(269.42 220.149)" fill="#c9e9e4"/><path d="M2.3,1.287c.833-.2,1.211-.642.85-.968A2.749,2.749,0,0,0,.987.116C.155.324-.227.768.139,1.079A2.706,2.706,0,0,0,2.3,1.287" transform="translate(297.123 213.034)" fill="#c3e6e2"/><path d="M2.387,1.5C3.291,1.274,3.737.785,3.4.395A2.61,2.61,0,0,0,1.121.124C.212.351-.23.85.12,1.226A2.679,2.679,0,0,0,2.387,1.5" transform="translate(326.052 205.51)" fill="#c1e2e2"/><path d="M2.6,1.811C3.621,1.556,4.172.974,3.818.5A2.656,2.656,0,0,0,1.325.122C.3.371-.246.955.108,1.416a2.693,2.693,0,0,0,2.489.4" transform="translate(355.822 197.807)" fill="#b8e2e0"/><path d="M2.8,2.137C3.948,1.877,4.6,1.2,4.249.64S2.693-.159,1.543.112-.258,1.044.1,1.6s1.563.8,2.706.536" transform="translate(386.43 190.25)" fill="#b2dedc"/><path d="M2.767,2.3c1.168-.235,1.87-.939,1.561-1.555S2.809-.16,1.63.088-.241,1.026.077,1.636s1.519.91,2.689.667" transform="translate(417.989 183.22)" fill="#b4dce0"/><path d="M3.416,3.091C4.912,2.834,5.847,1.939,5.5,1.1S3.653-.2,2.153.083-.277,1.248.074,2.066,1.919,3.353,3.416,3.091" transform="translate(449.693 176.562)" fill="#a2d2d8"/><path d="M3.149,3.075C4.57,2.867,5.5,2.028,5.218,1.188S3.552-.156,2.122.044-.237,1.1.053,1.925s1.672,1.344,3.1,1.149" transform="translate(482.788 171.268)" fill="#a7d6d8"/><path d="M3.323,3.524c1.553-.148,2.61-1.068,2.351-2.042S3.945-.133,2.382.023-.22,1.1.04,2.06,1.771,3.674,3.323,3.524" transform="translate(516.122 166.921)" fill="#a4d4d8"/><path d="M3.487,4.014c1.684-.079,2.867-1.054,2.649-2.173S4.362-.087,2.668.007-.2,1.079.028,2.176,1.807,4.1,3.487,4.014" transform="translate(550.021 163.991)" fill="#9ed0d8"/><path d="M3.85,4.834c1.917.015,3.323-1.077,3.138-2.423S5.074,0,3.142,0C1.215.029-.185,1.106.02,2.425s1.909,2.413,3.83,2.41" transform="translate(584.255 162.582)" fill="#92cbd2"/><path d="M3.982,5.461c2.05.124,3.62-1,3.481-2.51S5.542.115,3.471.008-.134,1.036.009,2.526s1.922,2.8,3.972,2.935" transform="translate(619.161 163.211)" fill="#8fc7d0"/><path d="M3.275,4.934c1.747.227,3.143-.7,3.075-2.063S4.824.239,3.065.029-.064.753,0,2.1,1.531,4.7,3.275,4.934" transform="translate(655.294 166.636)" fill="#a0cedc"/><path d="M3.283,5.458c1.82.371,3.309-.544,3.325-2.044S5.137.428,3.307.071C1.478-.27-.005.647,0,2.123S1.464,5.1,3.283,5.458" transform="translate(691.117 172.046)" fill="#9dccdc"/><path d="M3.375,6.233c1.946.542,3.6-.365,3.689-2.064C7.166,2.485,5.638.674,3.677.153,1.724-.388.083.556,0,2.217A4.463,4.463,0,0,0,3.375,6.233" transform="translate(727.138 180.147)" fill="#9bc9d8"/><path d="M3.337,6.894C5.347,7.641,7.12,6.77,7.3,4.921A4.966,4.966,0,0,0,3.959.256C1.94-.48.184.43.01,2.245A5.028,5.028,0,0,0,3.337,6.894" transform="translate(763.478 191.456)" fill="#97c7d8"/><path d="M3.366,7.833C5.481,8.847,7.432,8,7.73,5.933A5.817,5.817,0,0,0,4.383.4C2.245-.573.3.292.03,2.328A5.833,5.833,0,0,0,3.366,7.833" transform="translate(799.807 206.133)" fill="#8dc5d6"/><path d="M3.435,9.11c2.281,1.336,4.454.543,4.914-1.815A6.953,6.953,0,0,0,4.963.621C2.661-.691.477.146.067,2.47A7.053,7.053,0,0,0,3.435,9.11" transform="translate(835.983 224.516)" fill="#8abfd4"/><path d="M3.275,10.044c2.3,1.681,4.651.984,5.238-1.568A8.027,8.027,0,0,0,5.331.87C2.991-.761.673-.028.111,2.48a8.153,8.153,0,0,0,3.165,7.564" transform="translate(872.144 247.365)" fill="#86bdd2"/><path d="M3.382,12.092c2.543,2.232,5.237,1.637,6.087-1.368.816-3-.594-7.249-3.185-9.435C3.715-.9,1-.227.217,2.728S.86,9.865,3.382,12.092" transform="translate(907.419 274.302)" fill="#7db6ce"/><path d="M3.051,12.991c2.474,2.617,5.294,2.231,6.305-.922S9.141,4.243,6.624,1.661C4.106-.9,1.282-.444.335,2.664-.643,5.772.6,10.374,3.051,12.991" transform="translate(942.492 307.013)" fill="#78b6ce"/><path d="M3.142,16.295c2.772,3.564,6.164,3.368,7.613-.474,1.411-3.845.278-9.847-2.573-13.363C5.348-1.049,1.909-.758.58,3.04-.8,6.835.374,12.752,3.142,16.295" transform="translate(975.673 343.917)" fill="#68abc3"/><path d="M2.74,18.028c2.717,4.241,6.3,4.343,8.112.226,1.738-4.131.9-10.917-1.9-15.117C6.143-1.026,2.5-1.035.842,3.048-.8,7.158.026,13.817,2.74,18.028" transform="translate(1008.037 387.677)" fill="#65a7c3"/><path d="M2.093,17.826c2.364,4.464,5.8,4.937,7.711.97,1.921-3.943,1.473-10.791-.942-15.243C6.4-.835,2.942-1.211,1.139,2.718-.716,6.636-.24,13.376,2.093,17.826" transform="translate(1039.035 438.944)" fill="#6cadcb"/><path d="M1.007,11.748c1.323,3.134,3.5,3.625,4.887,1.12,1.356-2.513,1.358-7.085,0-10.2S2.362-.879,1,1.6c-1.324,2.516-1.35,7.052,0,10.147" transform="translate(1069.234 500.528)" fill="#a0cbde"/><path d="M2.016.469c.419.129.37.173-.107.085C1.432.451.7.275.285.146S-.084-.046.4.051C.871.169,1.6.316,2.016.469" transform="translate(171.502 235.751)" fill="#c5ede0"/><path d="M1.734.433c.418.05.443.011.059-.124A13.953,13.953,0,0,0,.329.018C-.087-.033-.114.028.277.137a10.567,10.567,0,0,0,1.457.3" transform="translate(189.951 239.719)" fill="#ceefe8"/><path d="M1.708.534c.462,0,.552-.161.2-.287A4.339,4.339,0,0,0,.413,0C-.054.01-.135.134.221.281A4.11,4.11,0,0,0,1.708.534" transform="translate(210.536 240.518)" fill="#ccede8"/><path d="M1.8.714C2.343.66,2.5.448,2.14.254A3.215,3.215,0,0,0,.526.013C-.013.076-.162.276.192.467A3.11,3.11,0,0,0,1.8.714" transform="translate(232.988 238.874)" fill="#cbede8"/><path d="M1.78.861c.575-.091.776-.352.451-.585A2.526,2.526,0,0,0,.6.037C.026.136-.165.387.154.618A2.6,2.6,0,0,0,1.78.861" transform="translate(257.185 235.433)" fill="#c9ede8"/><path d="M2,1.119c.683-.132.967-.482.626-.784A2.574,2.574,0,0,0,.773.048C.084.192-.193.526.142.826A2.577,2.577,0,0,0,2,1.119" transform="translate(282.654 230.634)" fill="#c3e9e6"/><path d="M2.089,1.34c.755-.159,1.1-.574.778-.934A2.375,2.375,0,0,0,.9.066C.139.228-.205.635.126.991a2.406,2.406,0,0,0,1.963.349" transform="translate(309.451 224.978)" fill="#c1e9e4"/><path d="M2.522,1.812C3.479,1.607,3.974,1.042,3.6.569A2.61,2.61,0,0,0,1.2.08C.237.287-.244.849.123,1.316a2.631,2.631,0,0,0,2.4.5" transform="translate(337.087 218.711)" fill="#b4e2de"/><path d="M2.6,2.059C3.639,1.846,4.189,1.239,3.858.676a2.559,2.559,0,0,0-2.5-.6C.312.285-.247.914.105,1.457a2.548,2.548,0,0,0,2.5.6" transform="translate(365.938 212.417)" fill="#b0e2de"/><path d="M2.456,2.135c1.017-.2,1.614-.82,1.31-1.391A2.313,2.313,0,0,0,1.381.059C.364.269-.221.883.078,1.45a2.333,2.333,0,0,0,2.378.685" transform="translate(395.828 206.383)" fill="#b4e2e0"/><path d="M2.419,2.292C3.466,2.12,4.1,1.471,3.838.848S2.517-.13,1.469.044-.2.867.059,1.486a2.236,2.236,0,0,0,2.36.805" transform="translate(426.409 200.758)" fill="#b8e2e2"/><path d="M2.931,3.007C4.239,2.833,5.077,2.015,4.8,1.191S3.229-.144,1.917.036-.231,1.031.057,1.844,1.626,3.182,2.931,3.007" transform="translate(457.245 195.574)" fill="#a5dadc"/><path d="M2.668,2.974C3.9,2.856,4.726,2.089,4.507,1.269S3.107-.108,1.868.018-.184.914.036,1.725,1.433,3.1,2.668,2.974" transform="translate(489.353 191.743)" fill="#abdedc"/><path d="M2.728,3.3c1.3-.058,2.212-.869,2.027-1.786S3.353-.069,2.043.006-.165.883.025,1.79A2.5,2.5,0,0,0,2.728,3.3" transform="translate(521.771 188.969)" fill="#a9dedc"/><path d="M2.47,3.25c1.22,0,2.107-.744,1.981-1.648A2.362,2.362,0,0,0,1.987,0C.76.009-.118.755.013,1.643A2.369,2.369,0,0,0,2.47,3.25" transform="translate(554.997 187.862)" fill="#b0dee0"/><path d="M2.516,3.611c1.289.068,2.26-.694,2.172-1.7A2.505,2.505,0,0,0,2.168,0C.877-.049-.081.707.005,1.7a2.554,2.554,0,0,0,2.51,1.911" transform="translate(588.429 188.292)" fill="#addee0"/><path d="M2.452,3.856C3.759,3.992,4.77,3.264,4.735,2.2A2.626,2.626,0,0,0,2.274.017C.963-.126-.053.63,0,1.683a2.633,2.633,0,0,0,2.45,2.173" transform="translate(622.374 190.783)" fill="#addce2"/><path d="M2.48,4.287a1.9,1.9,0,0,0,2.489-1.68A2.883,2.883,0,0,0,2.482.046C1.107-.2-.006.558,0,1.72A2.926,2.926,0,0,0,2.48,4.287" transform="translate(656.573 195.473)" fill="#abdce0"/><path d="M2.491,4.768C3.927,5.133,5.138,4.4,5.2,3.1A3.23,3.23,0,0,0,2.7.091,1.978,1.978,0,0,0,0,1.764a3.264,3.264,0,0,0,2.489,3" transform="translate(691.054 202.707)" fill="#a9d8de"/><path d="M2.393,5.108A1.963,1.963,0,0,0,5.223,3.531,3.5,3.5,0,0,0,2.828.156,1.961,1.961,0,0,0,.008,1.744,3.554,3.554,0,0,0,2.393,5.108" transform="translate(725.821 212.895)" fill="#a7d8de"/><path d="M2.456,5.88A2.093,2.093,0,0,0,5.633,4.305,4.169,4.169,0,0,0,3.189.254,2.1,2.1,0,0,0,.026,1.838,4.177,4.177,0,0,0,2.456,5.88" transform="translate(760.465 226.081)" fill="#a4d4de"/><path d="M2.392,6.526c1.591.879,3.134.23,3.423-1.478A4.728,4.728,0,0,0,3.455.381,2.154,2.154,0,0,0,.04,1.87,4.882,4.882,0,0,0,2.392,6.526" transform="translate(795.16 242.888)" fill="#9ed4dc"/><path d="M2.4,7.451C4.077,8.595,5.77,7.994,6.2,6.08A5.716,5.716,0,0,0,3.875.561C2.19-.57.486.064.09,1.96A5.765,5.765,0,0,0,2.4,7.451" transform="translate(829.509 263.458)" fill="#9bd0dc"/><path d="M2.618,9.48C4.57,11.114,6.666,10.511,7.3,8.122A7.688,7.688,0,0,0,4.838.883C2.854-.713.758-.086.168,2.276a7.746,7.746,0,0,0,2.45,7.2" transform="translate(863.046 287.733)" fill="#8ac9d4"/><path d="M2.428,10.405c1.963,1.958,4.163,1.482,4.978-1.069A8.94,8.94,0,0,0,5.225,1.17C3.234-.754,1.02-.251.261,2.279a9.011,9.011,0,0,0,2.167,8.126" transform="translate(896.397 317.282)" fill="#86c7d2"/><path d="M1.93,9.976c1.694,2.051,3.727,1.764,4.607-.616A9.081,9.081,0,0,0,4.95,1.341C3.239-.684,1.162-.376.349,2A9.14,9.14,0,0,0,1.93,9.976" transform="translate(929.267 352.657)" fill="#94ccd8"/><path d="M1.658,10.614c1.6,2.361,3.751,2.266,4.74-.226A10.217,10.217,0,0,0,5.236,1.662C3.576-.65,1.462-.54.5,1.928a10.306,10.306,0,0,0,1.156,8.686" transform="translate(960.42 392.904)" fill="#90ccd8"/><path d="M1.7,14.15c1.894,3.357,4.624,3.51,6.094.287C9.249,11.208,8.91,5.888,6.961,2.552c-1.927-3.328-4.684-3.4-6.1-.21S-.186,10.81,1.7,14.15" transform="translate(988.96 437.236)" fill="#7bbfce"/><path d="M1.217,13.566c1.588,3.42,4.117,3.839,5.64.836,1.569-2.98,1.494-8.2-.1-11.628C5.114-.613,2.62-.94,1.1,2.022s-1.445,8.13.119,11.544" transform="translate(1016.542 490.073)" fill="#83c5d6"/><path d="M.552,8.9c.872,2.389,2.465,2.8,3.571.919a10.441,10.441,0,0,0,.391-7.751C3.63-.3,2.019-.692.94,1.195A10.437,10.437,0,0,0,.552,8.9" transform="translate(1042.503 551.747)" fill="#b0dae4"/><path d="M2.314.754c.443.23.367.251-.189.109A10.738,10.738,0,0,1,.291.2C-.168,0-.071-.072.487.082A12.866,12.866,0,0,1,2.314.754" transform="translate(190.731 240.015)" fill="#bfe8e2"/><path d="M2.622.905c.6.15.62.042.032-.19A16.914,16.914,0,0,0,.463.063C-.148-.066-.154.008.445.238A15.969,15.969,0,0,0,2.622.905" transform="translate(207.32 245.588)" fill="#b2e6dc"/><path d="M2.106.859c.558.024.654-.142.208-.375A5.164,5.164,0,0,0,.485,0c-.559-.036-.648.139-.2.366a4.908,4.908,0,0,0,1.82.488" transform="translate(226.773 248.086)" fill="#bfe9e4"/><path d="M2.192,1.069c.644-.011.821-.3.386-.588A3.876,3.876,0,0,0,.617,0C-.023.045-.193.29.239.584a3.977,3.977,0,0,0,1.953.485" transform="translate(247.902 247.98)" fill="#bfe8e4"/><path d="M2.391,1.369C3.158,1.3,3.406.936,2.985.535A3.307,3.307,0,0,0,.807.019C.04.1-.233.486.218.838a3.192,3.192,0,0,0,2.172.531" transform="translate(270.69 245.961)" fill="#b8e4e0"/><path d="M2.475,1.628c.848-.114,1.195-.584.78-1.031A2.975,2.975,0,0,0,.956.03C.1.165-.245.625.183,1.056a2.907,2.907,0,0,0,2.292.573" transform="translate(295.056 242.613)" fill="#b4e4e0"/><path d="M2.553,1.892c.924-.162,1.358-.694.962-1.21A2.819,2.819,0,0,0,1.11.039C.178.209-.252.741.151,1.247a2.78,2.78,0,0,0,2.4.645" transform="translate(320.724 238.368)" fill="#b2e2e0"/><path d="M2.409,2C3.327,1.824,3.8,1.273,3.465.73a2.448,2.448,0,0,0-2.3-.686C.238.212-.23.773.112,1.308A2.433,2.433,0,0,0,2.409,2" transform="translate(347.689 233.699)" fill="#b4e2e2"/><path d="M2.482,2.26c1-.171,1.549-.8,1.232-1.414a2.357,2.357,0,0,0-2.4-.8C.314.211-.23.836.093,1.447a2.379,2.379,0,0,0,2.389.813" transform="translate(375.488 228.806)" fill="#b2e2e2"/><path d="M2.763,2.748c1.16-.168,1.848-.92,1.527-1.674A2.552,2.552,0,0,0,1.6.039C.434.218-.241.959.08,1.71A2.543,2.543,0,0,0,2.763,2.748" transform="translate(404.002 223.969)" fill="#a9dcde"/><path d="M2.614,2.833c1.144-.137,1.86-.888,1.6-1.671A2.385,2.385,0,0,0,1.643.026C.5.175-.212.919.057,1.691A2.4,2.4,0,0,0,2.614,2.833" transform="translate(433.633 219.807)" fill="#abdee0"/><path d="M2.773,3.262c1.266-.112,2.1-.94,1.852-1.847A2.527,2.527,0,0,0,1.884.016C.615.141-.2.965.044,1.855A2.548,2.548,0,0,0,2.773,3.262" transform="translate(463.713 216.215)" fill="#a5dcde"/><path d="M2.927,3.733c1.381-.075,2.33-.97,2.121-2.008A2.711,2.711,0,0,0,2.143.007C.752.077-.191.992.033,2.009A2.73,2.73,0,0,0,2.927,3.733" transform="translate(494.408 213.613)" fill="#9dd8dc"/><path d="M2.963,4.109C4.417,4.1,5.47,3.168,5.3,2.027A2.826,2.826,0,0,0,2.342,0C.88.013-.157.959.02,2.083A2.853,2.853,0,0,0,2.963,4.109" transform="translate(525.748 212.331)" fill="#9bd6dc"/><path d="M2.509,3.792c1.283.056,2.234-.75,2.137-1.8A2.538,2.538,0,0,0,2.134,0C.85-.046-.1.764.008,1.807a2.561,2.561,0,0,0,2.5,1.986" transform="translate(558.027 212.92)" fill="#a9dce2"/><path d="M2.445,4.039a1.85,1.85,0,0,0,2.25-1.785A2.615,2.615,0,0,0,2.243.013,1.833,1.833,0,0,0,0,1.8,2.64,2.64,0,0,0,2.445,4.039" transform="translate(590.373 215.024)" fill="#a7dce0"/><path d="M3.012,5.453a2.365,2.365,0,0,0,3-2.207A3.526,3.526,0,0,0,3,.043a2.365,2.365,0,0,0-3,2.21,3.56,3.56,0,0,0,3.012,3.2" transform="translate(622.429 218.598)" fill="#94d2d8"/><path d="M2.907,5.815A2.369,2.369,0,0,0,6.058,3.679,3.779,3.779,0,0,0,3.142.088,2.369,2.369,0,0,0,0,2.228a3.812,3.812,0,0,0,2.9,3.586" transform="translate(655.395 225.036)" fill="#90d2d8"/><path d="M2.282,5.071A1.926,1.926,0,0,0,4.98,3.4,3.354,3.354,0,0,0,2.7.125,1.934,1.934,0,0,0,.007,1.8a3.37,3.37,0,0,0,2.274,3.27" transform="translate(689.091 234.66)" fill="#a5dae0"/><path d="M2.257,5.6A1.987,1.987,0,0,0,5.18,3.973,3.816,3.816,0,0,0,2.93.2,1.994,1.994,0,0,0,.021,1.838,3.834,3.834,0,0,0,2.257,5.6" transform="translate(722.213 246.576)" fill="#a5d8e2"/><path d="M2.363,6.623A2.178,2.178,0,0,0,5.732,4.96,4.68,4.68,0,0,0,3.4.32,2.192,2.192,0,0,0,.045,2,4.741,4.741,0,0,0,2.363,6.623" transform="translate(755.087 261.486)" fill="#97d4dc"/><path d="M2.2,7.066A2.155,2.155,0,0,0,5.71,5.57,5.258,5.258,0,0,0,3.574.449a2.161,2.161,0,0,0-3.5,1.514A5.311,5.311,0,0,0,2.2,7.066" transform="translate(788.027 280.276)" fill="#97d4dc"/><path d="M2.23,8.264c1.671,1.317,3.459.688,4-1.42A6.469,6.469,0,0,0,4.12.664C2.433-.628.646.023.139,2.111A6.528,6.528,0,0,0,2.23,8.264" transform="translate(820.279 302.583)" fill="#8fd0da"/><path d="M1.852,8.03C3.34,9.442,5.017,8.965,5.62,6.963A6.637,6.637,0,0,0,3.967.792C2.457-.6.755-.112.2,1.881A6.692,6.692,0,0,0,1.852,8.03" transform="translate(852.463 329.942)" fill="#9bd2de"/><path d="M1.7,8.811c1.487,1.695,3.274,1.331,4.018-.816a7.72,7.72,0,0,0-1.4-6.948C2.82-.638,1.014-.242.306,1.894A7.779,7.779,0,0,0,1.7,8.811" transform="translate(883.388 361.371)" fill="#97d2de"/><path d="M1.55,9.925c1.5,2.067,3.427,1.821,4.387-.529a9.306,9.306,0,0,0-1.1-8.017C3.305-.669,1.36-.4.449,1.944a9.4,9.4,0,0,0,1.1,7.981" transform="translate(913.031 397.577)" fill="#8fd0dc"/><path d="M1.352,11.108c1.494,2.488,3.633,2.45,4.754-.142a11.192,11.192,0,0,0-.7-9.177C3.885-.682,1.759-.571.644,1.983a11.375,11.375,0,0,0,.708,9.125" transform="translate(941.117 439.004)" fill="#8dccdc"/><path d="M1.131,12.333c1.459,2.949,3.749,3.132,5.116.337a13.125,13.125,0,0,0-.177-10.4C4.567-.657,2.31-.759.945,2a13.43,13.43,0,0,0,.186,10.336" transform="translate(967.194 485.94)" fill="#85cbda"/><path d="M.946,14.287c1.426,3.641,3.968,4.085,5.729.978C8.384,12.123,8.646,6.641,7.183,3,5.716-.624,3.112-1.018,1.438,2.11-.257,5.22-.5,10.67.946,14.287" transform="translate(990.598 538.158)" fill="#7dc3d6"/><path d="M.361,8.838c.757,2.382,2.287,2.852,3.43.972a10.458,10.458,0,0,0,.767-7.716C3.821-.295,2.291-.686,1.12,1.159A11.049,11.049,0,0,0,.361,8.838" transform="translate(1013.132 600.77)" fill="#addce6"/><path d="M2.23.973c.4.279.278.356-.258.112A9.693,9.693,0,0,1,.239.247C-.168-.017-.041-.087.513.122A9.771,9.771,0,0,1,2.23.973" transform="translate(209.849 245.939)" fill="#bde6e4"/><path d="M2.742,1.27c.614.187.592.117-.039-.215A18.429,18.429,0,0,0,.44.118C-.168-.094-.143-.014.5.312c.646.288,1.649.733,2.245.958" transform="translate(224.772 253.166)" fill="#abe2dc"/><path d="M2.351,1.221c.606.089.7-.121.184-.45A5.712,5.712,0,0,0,.513.019C-.1-.062-.172.121.339.452a6.418,6.418,0,0,0,2.013.768" transform="translate(242.687 257.336)" fill="#bae4e4"/><path d="M2.318,1.385c.667.005.841-.3.376-.668A3.86,3.86,0,0,0,.638,0C-.033-.015-.2.285.266.655a4.057,4.057,0,0,0,2.052.73" transform="translate(262.517 258.84)" fill="#bae4e4"/><path d="M2.5,1.721c.79-.026,1.063-.456.6-.936A3.216,3.216,0,0,0,.824.006c-.8.033-1.057.446-.6.919a3.436,3.436,0,0,0,2.27.8" transform="translate(284.026 258.331)" fill="#aee2e0"/><path d="M2.456,1.914c.845-.072,1.187-.566.778-1.1A2.876,2.876,0,0,0,.945.01C.1.088-.237.57.177,1.1a2.886,2.886,0,0,0,2.279.811" transform="translate(307.241 256.502)" fill="#aee2e0"/><path d="M2.741,2.389c1-.12,1.474-.75,1.057-1.405A2.885,2.885,0,0,0,1.2.02C.194.136-.267.762.158,1.416a2.964,2.964,0,0,0,2.583.973" transform="translate(331.579 253.601)" fill="#a7dede"/><path d="M2.807,2.7c1.082-.136,1.658-.849,1.261-1.593A2.768,2.768,0,0,0,1.379.026C.288.173-.266.869.126,1.606A2.851,2.851,0,0,0,2.807,2.7" transform="translate(357.245 250.263)" fill="#a5dcde"/><path d="M2.862,3.021C4.03,2.881,4.687,2.1,4.335,1.263A2.735,2.735,0,0,0,1.559.02C.386.171-.259.951.1,1.775A2.787,2.787,0,0,0,2.862,3.021" transform="translate(383.936 246.763)" fill="#a4dadc"/><path d="M2.919,3.355c1.247-.117,1.992-.98,1.681-1.913A2.712,2.712,0,0,0,1.748.019C.5.158-.25,1.005.077,1.92A2.758,2.758,0,0,0,2.919,3.355" transform="translate(411.522 243.435)" fill="#9edadc"/><path d="M2.568,3.209c1.144-.088,1.886-.886,1.639-1.771A2.382,2.382,0,0,0,1.678.01C.53.1-.2.9.048,1.779a2.4,2.4,0,0,0,2.52,1.431" transform="translate(440.227 240.824)" fill="#a7dce0"/><path d="M2.71,3.674c1.262-.053,2.116-.931,1.9-1.95A2.567,2.567,0,0,0,1.929,0C.661.079-.18.943.033,1.947A2.589,2.589,0,0,0,2.71,3.674" transform="translate(469.219 238.676)" fill="#a2dade"/><path d="M2.938,4.327c1.425-.013,2.434-.989,2.256-2.187A2.863,2.863,0,0,0,2.268,0C.834.029-.167,1,.023,2.184A2.9,2.9,0,0,0,2.938,4.327" transform="translate(498.726 237.472)" fill="#99d6dc"/><path d="M2.865,4.588A2.1,2.1,0,0,0,5.259,2.4,2.937,2.937,0,0,0,2.393,0,2.1,2.1,0,0,0,.012,2.2a2.946,2.946,0,0,0,2.853,2.39" transform="translate(529.016 237.766)" fill="#97d6dc"/><path d="M2.7,4.7a2.086,2.086,0,0,0,2.459-2.11A2.952,2.952,0,0,0,2.45.009,2.082,2.082,0,0,0,0,2.114,2.961,2.961,0,0,0,2.7,4.7" transform="translate(559.827 239.709)" fill="#9bd6dc"/><path d="M2.264,4.325A1.82,1.82,0,0,0,4.506,2.531a2.68,2.68,0,0,0-2.27-2.5A1.83,1.83,0,0,0,0,1.833,2.707,2.707,0,0,0,2.264,4.325" transform="translate(591.271 243.717)" fill="#a9dae4"/><path d="M2.27,4.764A1.9,1.9,0,0,0,4.718,2.944,2.961,2.961,0,0,0,2.442.055,1.913,1.913,0,0,0,0,1.882,2.994,2.994,0,0,0,2.27,4.764" transform="translate(622.562 249.434)" fill="#a7dae4"/><path d="M2.417,5.619A2.112,2.112,0,0,0,5.269,3.67,3.536,3.536,0,0,0,2.849.112,2.119,2.119,0,0,0,.009,2.067,3.6,3.6,0,0,0,2.417,5.619" transform="translate(653.857 257.313)" fill="#9bd6e0"/><path d="M2.076,5.367A1.9,1.9,0,0,0,4.759,3.691,3.528,3.528,0,0,0,2.7.154,1.905,1.905,0,0,0,.02,1.833,3.533,3.533,0,0,0,2.076,5.367" transform="translate(685.75 268.424)" fill="#a5dae4"/><path d="M1.958,5.71a1.879,1.879,0,0,0,2.8-1.571A3.868,3.868,0,0,0,2.83.236,1.874,1.874,0,0,0,.04,1.811a3.919,3.919,0,0,0,1.918,3.9" transform="translate(717.334 282.191)" fill="#a5d8e4"/><path d="M2.105,6.957c1.479.906,3,.184,3.345-1.648A4.956,4.956,0,0,0,3.42.375C1.927-.513.413.228.082,2.041A4.992,4.992,0,0,0,2.105,6.957" transform="translate(748.357 298.755)" fill="#97d4e0"/><path d="M1.938,7.382C3.4,8.46,4.962,7.821,5.412,5.909A5.548,5.548,0,0,0,3.591.5C2.117-.556.575.109.121,2A5.638,5.638,0,0,0,1.938,7.382" transform="translate(779.375 319.328)" fill="#97d4e0"/><path d="M1.934,8.584c1.559,1.4,3.344.806,3.944-1.384A6.867,6.867,0,0,0,4.143.732C2.567-.649.794-.018.2,2.142A6.92,6.92,0,0,0,1.934,8.584" transform="translate(809.543 343.376)" fill="#8fd0de"/><path d="M1.77,9.357c1.551,1.683,3.424,1.177,4.193-1.148A8.035,8.035,0,0,0,4.5.964C2.925-.7,1.051-.152.308,2.15A8.043,8.043,0,0,0,1.77,9.357" transform="translate(839.081 371.863)" fill="#8fcedc"/><path d="M1.625,10.454c1.565,2.05,3.6,1.658,4.563-.882A9.539,9.539,0,0,0,5.021,1.28C3.429-.743,1.378-.321.462,2.21a9.567,9.567,0,0,0,1.163,8.244" transform="translate(867.434 404.683)" fill="#88ccda"/><path d="M1.351,11c1.491,2.32,3.57,2.12,4.672-.5A10.769,10.769,0,0,0,5.3,1.566C3.79-.73,1.721-.464.624,2.12A10.9,10.9,0,0,0,1.351,11" transform="translate(894.574 442.612)" fill="#88ccda"/><path d="M1.058,11.243c1.327,2.555,3.41,2.526,4.64-.076a11.654,11.654,0,0,0-.219-9.308C4.123-.672,2.044-.606.836,1.981a11.838,11.838,0,0,0,.222,9.261" transform="translate(920.002 485.766)" fill="#8accdc"/><path d="M.827,12.066c1.218,2.924,3.357,3.094,4.832.4A13.3,13.3,0,0,0,6,2.275C4.745-.631,2.568-.761,1.151,1.932A13.564,13.564,0,0,0,.827,12.066" transform="translate(943.058 533.818)" fill="#86ccdc"/><path d="M.645,13.883c1.2,3.559,3.605,4.062,5.395,1.033,1.817-3.011,2.3-8.372,1.074-11.943S3.452-1.006,1.7,2.012C-.1,5-.5,10.316.645,13.883" transform="translate(963.158 586.611)" fill="#7dc7d8"/><path d="M.241,8.713c.594,2.38,2.028,2.8,3.3,1.011A10.867,10.867,0,0,0,4.658,2.095C4.019-.27,2.6-.684,1.354,1.115a11.1,11.1,0,0,0-1.113,7.6" transform="translate(982.054 649.053)" fill="#addce8"/><path d="M2.261,1.267c.368.351.212.4-.347.119A9.389,9.389,0,0,1,.2.3C-.173-.037-.012-.1.559.168a7.7,7.7,0,0,1,1.7,1.1" transform="translate(228.571 253.56)" fill="#bae6de"/><path d="M1.863,1.091c.4.175.359.115-.083-.155C1.331.683.655.314.269.1c-.4-.169-.347-.127.095.146s1.117.637,1.5.845" transform="translate(242.405 262.83)" fill="#c5e9e4"/><path d="M2.032,1.33c.5.121.563-.073.113-.417A5.121,5.121,0,0,0,.411.043c-.5-.133-.551.051-.1.406a5.8,5.8,0,0,0,1.725.881" transform="translate(258.5 268.525)" fill="#bfe6e4"/><path d="M2,1.47c.561.048.7-.217.294-.624A3.23,3.23,0,0,0,.529.011C-.037-.06-.174.232.241.626A3.451,3.451,0,0,0,2,1.47" transform="translate(276.915 271.661)" fill="#bfe6e4"/><path d="M2.165,1.8c.68.037.922-.4.51-.874A2.809,2.809,0,0,0,.7,0C.02-.016-.207.383.207.87A2.877,2.877,0,0,0,2.165,1.8" transform="translate(297.091 272.718)" fill="#b6e4e0"/><path d="M2.234,2.067C3,2.04,3.323,1.555,2.938.983A2.6,2.6,0,0,0,.862,0C.1.032-.224.524.168,1.078a2.643,2.643,0,0,0,2.066.989" transform="translate(318.958 272.358)" fill="#b4e2e0"/><path d="M2.095,2.151c.771-.049,1.137-.568.822-1.168A2.244,2.244,0,0,0,.93,0C.156.049-.2.57.118,1.164a2.233,2.233,0,0,0,1.977.987" transform="translate(342.379 271.128)" fill="#b6e4e4"/><path d="M2.156,2.429C3,2.373,3.463,1.767,3.162,1.1A2.183,2.183,0,0,0,1.088.006C.237.065-.207.66.094,1.327a2.193,2.193,0,0,0,2.062,1.1" transform="translate(366.868 269.259)" fill="#b4e2e4"/><path d="M2.119,2.605C3,2.539,3.51,1.908,3.251,1.187A2.064,2.064,0,0,0,1.192.006C.311.074-.187.7.066,1.415a2.077,2.077,0,0,0,2.053,1.19" transform="translate(392.488 267.271)" fill="#b6e2e4"/><path d="M2.08,2.776A1.2,1.2,0,0,0,3.34,1.294,2.006,2.006,0,0,0,1.3,0C.39.049-.17.712.046,1.48a2.061,2.061,0,0,0,2.034,1.3" transform="translate(419.016 265.462)" fill="#b4e2e4"/><path d="M2.775,4.031A1.763,1.763,0,0,0,4.651,1.94,2.719,2.719,0,0,0,1.9,0,1.765,1.765,0,0,0,.042,2.094,2.738,2.738,0,0,0,2.775,4.031" transform="translate(445.715 263.598)" fill="#9bd8da"/><path d="M2.446,3.843A1.683,1.683,0,0,0,4.268,1.921,2.455,2.455,0,0,0,1.838,0,1.68,1.68,0,0,0,.022,1.918,2.471,2.471,0,0,0,2.446,3.843" transform="translate(473.951 263.241)" fill="#a4dae0"/><path d="M2.738,4.667A2.026,2.026,0,0,0,4.978,2.437,2.889,2.889,0,0,0,2.245,0,2.023,2.023,0,0,0,.013,2.226,2.908,2.908,0,0,0,2.738,4.667" transform="translate(502.218 263.439)" fill="#97d6dc"/><path d="M2.485,4.618A1.953,1.953,0,0,0,4.717,2.53,2.774,2.774,0,0,0,2.227.01,1.943,1.943,0,0,0,.006,2.1a2.8,2.8,0,0,0,2.48,2.522" transform="translate(531.456 265.406)" fill="#a0d6de"/><path d="M2.491,5.049a2.061,2.061,0,0,0,2.446-2.14A3.046,3.046,0,0,0,2.44.023,2.077,2.077,0,0,0,0,2.169a3.069,3.069,0,0,0,2.491,2.88" transform="translate(560.848 268.73)" fill="#9dd6de"/><path d="M2.557,5.695A2.238,2.238,0,0,0,5.313,3.453,3.423,3.423,0,0,0,2.741.057,2.222,2.222,0,0,0,0,2.31,3.448,3.448,0,0,0,2.557,5.695" transform="translate(590.462 273.812)" fill="#96d4da"/><path d="M2.451,6.022a2.238,2.238,0,0,0,2.9-2.187A3.691,3.691,0,0,0,2.892.1,2.236,2.236,0,0,0,.009,2.291,3.708,3.708,0,0,0,2.451,6.022" transform="translate(620.441 281.191)" fill="#92d4da"/><path d="M2.11,5.768A2.024,2.024,0,0,0,4.855,3.863,3.655,3.655,0,0,0,2.751.137,2.021,2.021,0,0,0,.017,2.053,3.7,3.7,0,0,0,2.11,5.768" transform="translate(650.771 291.277)" fill="#a4d6e0"/><path d="M2,6.094c1.332.626,2.594-.176,2.868-1.8A3.992,3.992,0,0,0,2.906.208C1.569-.412.3.4.046,2.022A4.008,4.008,0,0,0,2,6.094" transform="translate(680.802 303.753)" fill="#a0d6e0"/><path d="M1.8,6.227c1.271.746,2.542.02,2.883-1.622A4.271,4.271,0,0,0,2.944.288C1.665-.453.361.285.066,1.924A4.339,4.339,0,0,0,1.8,6.227" transform="translate(710.768 319.299)" fill="#a2d8e0"/><path d="M1.895,7.516c1.429,1.023,2.986.276,3.429-1.691A5.436,5.436,0,0,0,3.535.443C2.092-.566.56.21.12,2.155a5.53,5.53,0,0,0,1.774,5.36" transform="translate(739.967 337.504)" fill="#94d4dc"/><path d="M1.788,8.17c1.434,1.246,3.061.547,3.657-1.541A6.342,6.342,0,0,0,3.849.6C2.384-.619.751.08.193,2.168a6.366,6.366,0,0,0,1.594,6" transform="translate(768.891 359.59)" fill="#94d0dc"/><path d="M1.449,7.834c1.27,1.317,2.819.779,3.44-1.2A6.5,6.5,0,0,0,3.687.7C2.394-.588.861-.046.256,1.918A6.5,6.5,0,0,0,1.449,7.834" transform="translate(797.425 386.048)" fill="#9dd4e0"/><path d="M1.31,8.519C2.572,10.077,4.2,9.64,4.967,7.537A7.519,7.519,0,0,0,4.028.918C2.751-.626,1.085-.177.372,1.928A7.523,7.523,0,0,0,1.31,8.519" transform="translate(824.627 416.068)" fill="#99d4e0"/><path d="M1.058,8.659c1.154,1.711,2.766,1.407,3.626-.677a8.074,8.074,0,0,0-.578-6.891C2.943-.612,1.306-.282.48,1.8a8.28,8.28,0,0,0,.578,6.854" transform="translate(850.746 450.772)" fill="#9ed4e2"/><path d="M.892,9.353c1.118,1.986,2.818,1.836,3.828-.371a9.411,9.411,0,0,0-.213-7.609C3.384-.61,1.65-.421.674,1.786A9.562,9.562,0,0,0,.892,9.353" transform="translate(875.072 489.765)" fill="#9bd2e2"/><path d="M.8,11.312c1.178,2.571,3.145,2.554,4.519-.016A12.228,12.228,0,0,0,5.567,1.9c-1.2-2.561-3.222-2.533-4.523.066A12.371,12.371,0,0,0,.8,11.312" transform="translate(897.077 532.8)" fill="#8bccdc"/><path d="M.6,12.034c1.081,2.922,3.137,3.142,4.683.463A13.779,13.779,0,0,0,6.112,2.3C5.022-.615,2.943-.771,1.415,1.9A13.989,13.989,0,0,0,.6,12.034" transform="translate(917.057 581.412)" fill="#88ccdc"/><path d="M.432,13.726c.978,3.551,3.306,4.068,5.2,1.091A16.4,16.4,0,0,0,7.258,2.973C6.238-.572,3.922-.992,2.032,1.957a16.953,16.953,0,0,0-1.6,11.769" transform="translate(933.941 634.336)" fill="#7dc7d8"/><path d="M.134,7.865c.425,2.161,1.736,2.592,2.9.953a9.9,9.9,0,0,0,1.34-6.9C3.947-.24,2.645-.623,1.458,1A10.27,10.27,0,0,0,.134,7.865" transform="translate(949.689 696.727)" fill="#b4dee9"/><path d="M1.417.975c.205.264.1.276-.272.078A4.026,4.026,0,0,1,.11.211C-.115-.029.02-.074.387.127a4.447,4.447,0,0,1,1.03.848" transform="translate(247.409 263.411)" fill="#cef1e2"/><path d="M1.255.933c.235.184.194.122-.1-.12C.837.613.407.257.153.1c-.232-.181-.2-.1.1.111a9.8,9.8,0,0,0,1,.721" transform="translate(259.466 274.396)" fill="#d6efe8"/><path d="M1.315,1.081c.318.114.342-.026.037-.295A3.739,3.739,0,0,0,.242.054C-.064-.087-.085.062.207.345a3.775,3.775,0,0,0,1.108.735" transform="translate(274.069 281.859)" fill="#d0efe6"/><path d="M1.386,1.257c.384.094.46-.124.184-.479A2.547,2.547,0,0,0,.35.018C-.035-.065-.113.146.17.488a2.588,2.588,0,0,0,1.216.769" transform="translate(290.956 286.627)" fill="#ceede6"/><path d="M1.556,1.553c.487.05.646-.259.353-.692A2.338,2.338,0,0,0,.5,0C.01-.027-.147.266.152.686a2.126,2.126,0,0,0,1.4.866" transform="translate(309.745 289.28)" fill="#c5ebe4"/><path d="M1.716,1.9c.591.028.828-.381.544-.917A2.112,2.112,0,0,0,.663,0C.073-.02-.169.387.126.91a2.036,2.036,0,0,0,1.59.989" transform="translate(330.227 290.411)" fill="#c1e8e4"/><path d="M1.784,2.166A.714.714,0,0,0,2.5,1.077,1.958,1.958,0,0,0,.806,0,.711.711,0,0,0,.1,1.08,2.036,2.036,0,0,0,1.784,2.166" transform="translate(352.225 290.582)" fill="#bde8e4"/><path d="M2.022,2.685a.971.971,0,0,0,.971-1.374A2.14,2.14,0,0,0,1.045,0,.964.964,0,0,0,.076,1.362,2.161,2.161,0,0,0,2.022,2.685" transform="translate(375.34 290.055)" fill="#b6e2dc"/><path d="M2.074,2.994A1.15,1.15,0,0,0,3.236,1.465,2.159,2.159,0,0,0,1.216,0,1.141,1.141,0,0,0,.058,1.518,2.174,2.174,0,0,0,2.074,2.994" transform="translate(399.663 289.45)" fill="#b2e2dc"/><path d="M1.943,3.035A1.219,1.219,0,0,0,3.182,1.5,2.015,2.015,0,0,0,1.27,0,1.2,1.2,0,0,0,.037,1.517,2.034,2.034,0,0,0,1.943,3.035" transform="translate(425.06 289.151)" fill="#b4e4de"/><path d="M2.239,3.8A1.543,1.543,0,0,0,3.847,1.934,2.363,2.363,0,0,0,1.626,0a1.54,1.54,0,0,0-1.6,1.856A2.394,2.394,0,0,0,2.239,3.8" transform="translate(450.88 288.981)" fill="#abdcda"/><path d="M2.017,3.7a1.5,1.5,0,0,0,1.6-1.755A2.209,2.209,0,0,0,1.617,0a1.505,1.505,0,0,0-1.6,1.744,2.242,2.242,0,0,0,2,1.955" transform="translate(477.819 290.035)" fill="#b0e0e0"/><path d="M2.12,4.23A1.711,1.711,0,0,0,3.989,2.314,2.474,2.474,0,0,0,1.871.009,1.7,1.7,0,0,0,0,1.921,2.518,2.518,0,0,0,2.12,4.23" transform="translate(505.018 291.854)" fill="#a4dedc"/><path d="M1.97,4.281A1.686,1.686,0,0,0,3.888,2.439,2.49,2.49,0,0,0,1.91.018,1.68,1.68,0,0,0,0,1.854,2.5,2.5,0,0,0,1.97,4.281" transform="translate(532.9 295.268)" fill="#abdee0"/><path d="M1.74,4.15A1.588,1.588,0,0,0,3.612,2.472,2.454,2.454,0,0,0,1.862.033,1.581,1.581,0,0,0,0,1.709,2.451,2.451,0,0,0,1.74,4.15" transform="translate(561.211 300.397)" fill="#b0e0e2"/><path d="M1.741,4.551c1.042.3,1.967-.469,2.057-1.716A2.714,2.714,0,0,0,2.056.057,1.669,1.669,0,0,0,.005,1.77,2.724,2.724,0,0,0,1.741,4.551" transform="translate(589.526 307.151)" fill="#ade0e2"/><path d="M1.658,4.794c1.043.4,2.014-.361,2.159-1.664A2.907,2.907,0,0,0,2.172.1C1.12-.279.15.466.018,1.758A2.946,2.946,0,0,0,1.658,4.794" transform="translate(618.042 316.135)" fill="#b0dee4"/><path d="M1.562,5.047c1.042.482,2.06-.237,2.263-1.6A3.2,3.2,0,0,0,2.287.143C1.239-.324.229.39.033,1.739A3.258,3.258,0,0,0,1.562,5.047" transform="translate(646.564 327.54)" fill="#b0dee4"/><path d="M1.588,5.75c1.119.633,2.253-.1,2.556-1.634A3.848,3.848,0,0,0,2.618.218C1.485-.4.347.339.066,1.855a3.856,3.856,0,0,0,1.522,3.9" transform="translate(674.782 341.405)" fill="#a9dae4"/><path d="M1.517,6.286c1.15.776,2.379.08,2.76-1.577a4.431,4.431,0,0,0-1.42-4.4C1.7-.463.459.257.1,1.9A4.485,4.485,0,0,0,1.517,6.286" transform="translate(702.799 358.31)" fill="#a7dae4"/><path d="M1.487,7.091c1.208.991,2.569.3,3.076-1.534A5.332,5.332,0,0,0,3.237.45C2.019-.538.622.156.166,1.992a5.358,5.358,0,0,0,1.321,5.1" transform="translate(730.26 378.306)" fill="#9ed6e0"/><path d="M1.42,7.948c1.253,1.235,2.781.59,3.4-1.445A6.352,6.352,0,0,0,3.648.607C2.375-.6.871.051.253,2.067A6.422,6.422,0,0,0,1.42,7.948" transform="translate(757.06 401.763)" fill="#9bd4e0"/><path d="M1.154,7.8c1.134,1.321,2.589.824,3.276-1.141A6.566,6.566,0,0,0,3.593.727C2.454-.59.975-.067.321,1.881A6.787,6.787,0,0,0,1.154,7.8" transform="translate(783.305 429.504)" fill="#a0d6e4"/><path d="M1.154,9.557c1.26,1.76,3.017,1.294,3.948-1.06s.644-5.7-.638-7.451S1.452-.195.524,2.126a8.881,8.881,0,0,0,.63,7.431" transform="translate(807.807 460.188)" fill="#8fd0dc"/><path d="M1.007,10.545c1.246,2.1,3.138,1.77,4.269-.775a10.289,10.289,0,0,0-.262-8.417C3.743-.729,1.817-.371.746,2.168a10.463,10.463,0,0,0,.26,8.377" transform="translate(831.116 495.46)" fill="#8bccdc"/><path d="M.856,11.862c1.227,2.545,3.314,2.362,4.706-.43a12.329,12.329,0,0,0,.212-9.669C4.51-.763,2.395-.548,1.066,2.236a12.6,12.6,0,0,0-.21,9.627" transform="translate(852.572 534.893)" fill="#80c9da"/><path d="M.667,12.885c1.149,2.959,3.363,2.971,5,.029A14.355,14.355,0,0,0,6.477,2.2C5.291-.746,3.039-.726,1.466,2.22a14.512,14.512,0,0,0-.8,10.665" transform="translate(871.976 578.938)" fill="#7dc7da"/><path d="M.425,11.944c.853,2.933,2.87,3.125,4.536.5a14.112,14.112,0,0,0,1.3-10.123C5.341-.591,3.3-.786,1.714,1.87A14.063,14.063,0,0,0,.425,11.944" transform="translate(889.396 628.628)" fill="#8acbde"/><path d="M.262,13.162c.774,3.418,2.947,3.934,4.888,1.1A16.539,16.539,0,0,0,7.229,2.9C6.41-.519,4.223-.976,2.323,1.856A16.844,16.844,0,0,0,.262,13.162" transform="translate(903.307 681.452)" fill="#7dc7dc"/><path d="M.079,7.662c.309,2.114,1.577,2.56,2.784.96A10.017,10.017,0,0,0,4.47,1.905C4.159-.209,2.878-.625,1.681.965a10.048,10.048,0,0,0-1.6,6.7" transform="translate(915.818 742.679)" fill="#b4dee9"/><path d="M.725.625C.8.8.747.8.553.667A2.2,2.2,0,0,1,.033.131C-.044-.039.013-.034.213.092A2.129,2.129,0,0,1,.725.625" transform="translate(265.805 275.301)" fill="#e8f7eb"/><path d="M.9.818c.168.136.1.115-.11-.1A7.647,7.647,0,0,1,.1.083c-.179-.127-.1-.118.11.1A7.651,7.651,0,0,1,.9.818" transform="translate(275.931 288.016)" fill="#e0f7e4"/><path d="M.672.672C.826.751.82.683.67.5A2.685,2.685,0,0,0,.115.033C-.037-.051-.04.031.116.2A2.628,2.628,0,0,0,.672.672" transform="translate(289.073 297.395)" fill="#e6f9e9"/><path d="M.935,1.021c.256.072.312-.086.1-.354A1.984,1.984,0,0,0,.227.018C-.03-.052-.073.085.12.365a2.032,2.032,0,0,0,.815.655" transform="translate(304.316 303.744)" fill="#dcf3e4"/><path d="M1.008,1.215c.309.056.407-.165.218-.494A1.668,1.668,0,0,0,.319.009C.007-.05-.1.179.1.5a1.594,1.594,0,0,0,.91.715" transform="translate(321.717 308.048)" fill="#d8f3e4"/><path d="M.887,1.178c.308.027.431-.195.285-.53A1.167,1.167,0,0,0,.346,0C.041-.027-.087.2.063.526a1.244,1.244,0,0,0,.824.653" transform="translate(341.005 310.92)" fill="#dcf3e9"/><path d="M.88,1.264c.327.03.5-.248.358-.6A1.028,1.028,0,0,0,.409,0C.082-.028-.091.245.048.59a1.069,1.069,0,0,0,.832.674" transform="translate(361.734 312.681)" fill="#daf3e9"/><path d="M1.2,1.881c.484.013.745-.378.6-.9A1.36,1.36,0,0,0,.648,0C.157-.031-.113.384.045.9A1.414,1.414,0,0,0,1.2,1.881" transform="translate(383.503 313.573)" fill="#d0ede6"/><path d="M1.249,2.135c.548.037.875-.43.745-1.028A1.414,1.414,0,0,0,.768,0a.756.756,0,0,0-.74,1.021A1.432,1.432,0,0,0,1.249,2.135" transform="translate(406.566 314.447)" fill="#ccede6"/><path d="M1.3,2.408a.889.889,0,0,0,.891-1.145A1.523,1.523,0,0,0,.906,0,.888.888,0,0,0,.02,1.143,1.544,1.544,0,0,0,1.3,2.408" transform="translate(430.561 315.467)" fill="#c7ebe4"/><path d="M1.272,2.537a.961.961,0,0,0,.977-1.181A1.494,1.494,0,0,0,.987,0,.952.952,0,0,0,.01,1.181,1.512,1.512,0,0,0,1.272,2.537" transform="translate(455.421 317.053)" fill="#c5ebe4"/><path d="M1.308,2.836A1.083,1.083,0,0,0,2.441,1.559,1.635,1.635,0,0,0,1.131.006,1.079,1.079,0,0,0,0,1.279,1.657,1.657,0,0,0,1.308,2.836" transform="translate(480.87 319.354)" fill="#c7e9e6"/><path d="M1.486,3.5c.8.125,1.448-.547,1.431-1.515A2.016,2.016,0,0,0,1.429.012C.615-.1-.021.561,0,1.522A1.986,1.986,0,0,0,1.486,3.5" transform="translate(506.706 322.561)" fill="#bae6e0"/><path d="M1.5,3.855c.855.166,1.563-.526,1.6-1.586A2.221,2.221,0,0,0,1.6.025C.735-.144.022.551,0,1.6A2.24,2.24,0,0,0,1.5,3.855" transform="translate(533.095 327.287)" fill="#b6e4e0"/><path d="M1.432,4.043c.864.243,1.626-.461,1.7-1.566A2.367,2.367,0,0,0,1.7.043C.83-.185.093.508,0,1.607A2.382,2.382,0,0,0,1.432,4.043" transform="translate(559.86 333.732)" fill="#b6e4e2"/><path d="M1.429,4.445c.908.322,1.756-.395,1.88-1.606A2.644,2.644,0,0,0,1.889.076C.976-.245.124.478.015,1.68A2.675,2.675,0,0,0,1.429,4.445" transform="translate(586.72 341.967)" fill="#b2e4e2"/><path d="M1.532,5.285c1.028.455,2.039-.327,2.242-1.76A3.282,3.282,0,0,0,2.269.125C1.23-.323.249.474.032,1.89a3.283,3.283,0,0,0,1.5,3.4" transform="translate(613.478 352.14)" fill="#addee0"/><path d="M1.438,5.537c1.026.549,2.066-.194,2.346-1.685A3.589,3.589,0,0,0,2.4.177C1.378-.369.319.39.066,1.869A3.582,3.582,0,0,0,1.438,5.537" transform="translate(640.364 365.029)" fill="#abdee0"/><path d="M1.33,5.8c1.015.65,2.1-.045,2.446-1.586A3.978,3.978,0,0,0,2.54.243C1.524-.413.428.309.1,1.836A3.97,3.97,0,0,0,1.33,5.8" transform="translate(667.02 380.589)" fill="#abdce2"/><path d="M1.355,6.791c1.111.871,2.379.136,2.844-1.645C4.64,3.364,4.12,1.219,3,.357S.621.242.162,2.009A4.976,4.976,0,0,0,1.355,6.791" transform="translate(693.045 398.696)" fill="#a2dae0"/><path d="M1.174,6.848c1.049.969,2.306.336,2.84-1.432S4.122,1.411,3.057.451.724.128.222,1.9a5.352,5.352,0,0,0,.952,4.951" transform="translate(718.782 420.454)" fill="#a7dae0"/><path d="M.908,6.349c.883,1.008,2.066.5,2.6-1.117A5.333,5.333,0,0,0,2.862.51C1.963-.486.8.023.261,1.631A5.354,5.354,0,0,0,.908,6.349" transform="translate(743.895 445.929)" fill="#addee4"/><path d="M.847,7.16c.918,1.228,2.2.768,2.9-1.019A6.38,6.38,0,0,0,3.285.681C2.351-.538,1.057-.074.393,1.7A6.426,6.426,0,0,0,.847,7.16" transform="translate(767.566 474.323)" fill="#a9dae4"/><path d="M.818,8.583c1,1.594,2.513,1.186,3.422-.913A8.174,8.174,0,0,0,4.024.963C3.009-.621,1.461-.21.607,1.895a8.2,8.2,0,0,0,.21,6.689" transform="translate(789.779 506.178)" fill="#9dd6e0"/><path d="M.672,9.176c.946,1.845,2.558,1.561,3.6-.644A9.306,9.306,0,0,0,4.416,1.2c-.97-1.832-2.591-1.529-3.6.675a9.39,9.39,0,0,0-.142,7.3" transform="translate(810.659 542.447)" fill="#99d4e0"/><path d="M.516,9.747c.872,2.107,2.565,1.979,3.763-.32A10.415,10.415,0,0,0,4.84,1.466c-.889-2.1-2.564-1.914-3.766.359A10.771,10.771,0,0,0,.516,9.747" transform="translate(829.647 582.797)" fill="#96d4e0"/><path d="M.394,10.308c.783,2.374,2.521,2.4,3.908.048A11.86,11.86,0,0,0,5.349,1.782C4.533-.591,2.785-.591,1.432,1.762A11.806,11.806,0,0,0,.394,10.308" transform="translate(846.364 627.257)" fill="#92d0e0"/><path d="M.242,10.49c.638,2.577,2.416,2.819,3.91.468A12.7,12.7,0,0,0,5.7,2.058C5.035-.518,3.287-.692,1.782,1.629A13.085,13.085,0,0,0,.242,10.49" transform="translate(860.612 675.993)" fill="#94d0e0"/><path d="M.157,12.842c.56,3.354,2.672,3.855,4.7,1.11A16.6,16.6,0,0,0,7.4,2.847C6.767-.507,4.668-.951,2.671,1.8A16.624,16.624,0,0,0,.157,12.842" transform="translate(871.23 727.316)" fill="#81c7dc"/><path d="M.026,8.018c.261,2.226,1.527,2.706,2.892,1.049A10.8,10.8,0,0,0,4.935,2C4.725-.234,3.428-.632,2.032.984A11.412,11.412,0,0,0,.026,8.018" transform="translate(880.668 786.714)" fill="#aedce8"/><path d="M.6.628C.659.785.59.788.421.656A2.176,2.176,0,0,1,.02.128C-.039-.032.036-.043.194.1A1.18,1.18,0,0,1,.6.628" transform="translate(283.516 289.162)" fill="#ebf9ed"/><path d="M.747.852c.117.163.068.11-.125-.1C.444.542.193.244.056.1c-.1-.172-.07-.112.128.09C.368.41.631.7.747.852" transform="translate(291.827 303.776)" fill="#e4f7e8"/><path d="M.546.663C.669.728.656.681.527.508A4.163,4.163,0,0,0,.085.034C-.031-.048-.031.025.1.19A4.691,4.691,0,0,0,.546.663" transform="translate(303.225 314.993)" fill="#e8f9ed"/><path d="M.778,1.06c.2.089.231-.056.069-.339A1.923,1.923,0,0,0,.17.034C-.031-.072-.053.079.1.368a2.309,2.309,0,0,0,.679.692" transform="translate(316.871 323.016)" fill="#e0f5e8"/><path d="M.757,1.122C.992,1.187,1.067,1,.918.7A1.448,1.448,0,0,0,.228.016C0-.059-.065.13.073.443a1.458,1.458,0,0,0,.684.678" transform="translate(332.793 329.011)" fill="#e0f5e9"/><path d="M.738,1.193c.254.039.368-.176.24-.5A1.1,1.1,0,0,0,.288.011C.035-.054-.072.178.051.5a1.139,1.139,0,0,0,.688.689" transform="translate(350.548 333.388)" fill="#e0f5e9"/><path d="M.722,1.264c.278.054.415-.2.313-.556a1,1,0,0,0-.688-.7C.074-.044-.072.214.036.562a1.019,1.019,0,0,0,.687.7" transform="translate(369.864 336.661)" fill="#e0f5e9"/><path d="M.784,1.478c.327.035.521-.262.42-.666A1.04,1.04,0,0,0,.442,0C.116-.027-.068.265.024.673a1.09,1.09,0,0,0,.76.8" transform="translate(390.46 339.224)" fill="#dcf3e9"/><path d="M.915,1.871c.41.049.669-.33.584-.853A1.209,1.209,0,0,0,.6,0C.188-.043-.066.341.015.856a1.215,1.215,0,0,0,.9,1.015" transform="translate(412.121 341.469)" fill="#d6f1e4"/><path d="M.969,2.135c.459.057.777-.374.713-.964A1.313,1.313,0,0,0,.721,0C.262-.046-.07.385.013.969A1.286,1.286,0,0,0,.969,2.135" transform="translate(434.79 343.92)" fill="#d2f1e4"/><path d="M1.01,2.4c.51.063.9-.407.85-1.067A1.4,1.4,0,0,0,.852.007C.339-.062-.038.41,0,1.073A1.4,1.4,0,0,0,1.01,2.4" transform="translate(458.254 346.852)" fill="#d0ede6"/><path d="M.907,2.338c.487.1.865-.364.861-1.007A1.35,1.35,0,0,0,.858.008C.366-.065-.014.37,0,1.014A1.324,1.324,0,0,0,.907,2.338" transform="translate(482.496 350.747)" fill="#d4efe9"/><path d="M1.07,3.007c.608.129,1.117-.417,1.139-1.246A1.726,1.726,0,0,0,1.137.02C.524-.115.024.436,0,1.265A1.7,1.7,0,0,0,1.07,3.007" transform="translate(506.978 355.36)" fill="#c7ede4"/><path d="M1.09,3.345c.659.171,1.245-.4,1.293-1.321A1.9,1.9,0,0,0,1.295.038C.641-.162.075.45,0,1.36A1.956,1.956,0,0,0,1.09,3.345" transform="translate(531.964 361.505)" fill="#c3e9e4"/><path d="M1.036,3.494c.659.228,1.278-.354,1.372-1.306A2.023,2.023,0,0,0,1.381.05C.72-.181.109.407.013,1.352A2.083,2.083,0,0,0,1.036,3.494" transform="translate(557.267 369.39)" fill="#c3e9e4"/><path d="M.8,3c.546.233,1.08-.231,1.193-1.046A1.8,1.8,0,0,0,1.206.062C.663-.178.142.3.018,1.11A1.841,1.841,0,0,0,.8,3" transform="translate(582.903 379.492)" fill="#ccede9"/><path d="M.812,3.35c.581.294,1.177-.183,1.339-1.083A2.17,2.17,0,0,0,1.377.09C.8-.213.183.274.042,1.171A2.133,2.133,0,0,0,.812,3.35" transform="translate(608.216 391.32)" fill="#c9ede6"/><path d="M.938,4.408c.726.456,1.508-.119,1.772-1.3A2.968,2.968,0,0,0,1.835.153C1.105-.3.334.289.068,1.455A3.026,3.026,0,0,0,.938,4.408" transform="translate(633.148 405.176)" fill="#c3e6e2"/><path d="M.769,4.121c.636.484,1.378-.013,1.652-1.1A2.923,2.923,0,0,0,1.745.182C1.1-.294.355.194.1,1.281a2.948,2.948,0,0,0,.672,2.84" transform="translate(658.172 422.365)" fill="#c7e9e6"/><path d="M.853,5.282c.772.7,1.716.135,2.117-1.245A3.986,3.986,0,0,0,2.279.29C1.5-.39.563.166.167,1.541A4.03,4.03,0,0,0,.853,5.282" transform="translate(682.243 441.659)" fill="#b6e6e0"/><path d="M.717,5.237c.7.763,1.652.285,2.081-1.07A4.222,4.222,0,0,0,2.3.356C1.585-.4.647.086.219,1.433a4.274,4.274,0,0,0,.5,3.8" transform="translate(705.981 464.671)" fill="#bbe4e4"/><path d="M.59,5.15c.644.819,1.564.432,2.033-.887A4.423,4.423,0,0,0,2.317.419C1.66-.391.765.011.282,1.309A4.481,4.481,0,0,0,.59,5.15" transform="translate(728.8 491.003)" fill="#bfe6e6"/><path d="M.511,5.607c.639.977,1.625.626,2.2-.778A5.2,5.2,0,0,0,2.576.538C1.931-.422.97-.06.384,1.329A5.285,5.285,0,0,0,.511,5.607" transform="translate(750.324 520.502)" fill="#bbe6e6"/><path d="M.436,6.074c.623,1.134,1.67.856,2.351-.632A5.992,5.992,0,0,0,2.875.688C2.258-.448,1.217-.139.523,1.333A6.129,6.129,0,0,0,.436,6.074" transform="translate(770.427 553.601)" fill="#bae2e4"/><path d="M.383,7.132c.626,1.444,1.879,1.226,2.729-.493A7.445,7.445,0,0,0,3.5.934C2.845-.492,1.635-.257.77,1.447A7.689,7.689,0,0,0,.383,7.132" transform="translate(788.673 590.074)" fill="#abe0e2"/><path d="M.3,7.591C.877,9.238,2.167,9.12,3.171,7.349A8.636,8.636,0,0,0,3.9,1.157C3.292-.474,1.99-.375,1.028,1.421A8.425,8.425,0,0,0,.3,7.591" transform="translate(805.068 630.618)" fill="#a9dee2"/><path d="M.181,7.106c.445,1.637,1.653,1.675,2.643.037a8.392,8.392,0,0,0,.99-5.9C3.338-.39,2.133-.429,1.165,1.218A8.4,8.4,0,0,0,.181,7.106" transform="translate(819.441 675.439)" fill="#b0e0e2"/><path d="M.108,7.47c.371,1.833,1.567,1.96,2.75.34A9.7,9.7,0,0,0,4.251,1.474C3.869-.367,2.639-.5,1.495,1.156A9.349,9.349,0,0,0,.108,7.47" transform="translate(830.919 723.374)" fill="#aee0e2"/><path d="M.062,9.329c.29,2.446,1.813,2.8,3.389.825A12.381,12.381,0,0,0,5.663,2.09C5.313-.36,3.815-.7,2.259,1.3a12.46,12.46,0,0,0-2.2,8.033" transform="translate(838.966 773.768)" fill="#9bd6dc"/><path d="M0,5.536C.142,7.076.981,7.393,2,6.271A7.629,7.629,0,0,0,3.618,1.4c-.125-1.548-.983-1.846-2-.723A8.192,8.192,0,0,0,0,5.536" transform="translate(845.514 830.705)" fill="#c1e6e9"/><path d="M.577.723C.608.9.542.889.374.745a1.741,1.741,0,0,1-.363-.6C-.035-.03.069-.056.217.12a2.361,2.361,0,0,1,.361.6" transform="translate(300.764 305.333)" fill="#ebf9ed"/><path d="M.548.718C.628.85.572.813.43.638A3.261,3.261,0,0,1,.046.068c-.1-.111-.029-.087.117.081.115.206.31.437.386.569" transform="translate(307.23 322.064)" fill="#ebf9eb"/><path d="M.513.751C.6.869.619.756.474.585A2.23,2.23,0,0,0,.069.04c-.1-.1-.1-.011.042.167a2.126,2.126,0,0,0,.4.545" transform="translate(316.73 334.993)" fill="#ebf9eb"/><path d="M.557.925C.7,1.026.7.9.593.647A1.7,1.7,0,0,0,.115.033c-.142-.1-.15.026-.035.281A1.622,1.622,0,0,0,.557.925" transform="translate(328.778 344.858)" fill="#e8f7e8"/><path d="M.46.845C.6.909.644.773.552.543S.283.069.137.02C0-.054-.04.087.043.317A1,1,0,0,0,.46.845" transform="translate(343.138 352.563)" fill="#e9f9ed"/><path d="M.454.886C.61.941.662.782.6.534.521.295.341.043.182.009.025-.04-.049.118.035.361A.9.9,0,0,0,.454.886" transform="translate(359.346 358.514)" fill="#e9f9ed"/><path d="M.506,1.08c.206.027.3-.154.238-.453S.454.037.252.006-.046.16.02.457a.937.937,0,0,0,.486.623" transform="translate(377.134 363.227)" fill="#e4f9e9"/><path d="M.5,1.144c.21.046.329-.177.285-.5S.514.042.3.01C.086-.052-.038.183.01.5A.8.8,0,0,0,.5,1.144" transform="translate(396.347 367.319)" fill="#e2f9e9"/><path d="M.552,1.369c.257.04.435-.218.382-.594A.886.886,0,0,0,.386.006C.132-.044-.041.23.008.6a.888.888,0,0,0,.543.764" transform="translate(416.663 371.065)" fill="#e4f7e9"/><path d="M.6,1.607c.3.04.52-.259.487-.7a.948.948,0,0,0-.6-.9C.185-.048-.02.261,0,.7c.043.438.3.847.6.905" transform="translate(437.945 374.929)" fill="#e0f5e9"/><path d="M.645,1.856c.345.066.611-.28.6-.788A1.081,1.081,0,0,0,.6.007C.255-.053-.02.292,0,.8A1.1,1.1,0,0,0,.645,1.856" transform="translate(460.015 379.246)" fill="#dcf3e8"/><path d="M.684,2.13c.385.109.724-.3.724-.887A1.238,1.238,0,0,0,.719.012C.333-.074.016.31,0,.893A1.245,1.245,0,0,0,.684,2.13" transform="translate(482.718 384.338)" fill="#daf3e6"/><path d="M.654,2.214c.394.118.744-.28.777-.886A1.284,1.284,0,0,0,.782.015C.384-.083.043.3,0,.9A1.29,1.29,0,0,0,.654,2.214" transform="translate(505.97 390.601)" fill="#d6f3e2"/><path d="M.621,2.306c.4.154.777-.255.832-.881A1.354,1.354,0,0,0,.837.029c-.4-.143-.78.253-.831.88a1.38,1.38,0,0,0,.614,1.4" transform="translate(529.56 398.217)" fill="#d8f3e6"/><path d="M.639,2.607c.442.177.872-.237.965-.947A1.565,1.565,0,0,0,.981.041C.539-.136.109.271.017.984A1.618,1.618,0,0,0,.639,2.607" transform="translate(553.279 407.354)" fill="#d6f1e6"/><path d="M.5,2.263c.356.206.736-.152.849-.764A1.442,1.442,0,0,0,.878.053C.517-.141.137.218.029.822A1.391,1.391,0,0,0,.5,2.263" transform="translate(577.248 418.689)" fill="#dcf3e9"/><path d="M.462,2.338c.366.214.763-.1.888-.736A1.554,1.554,0,0,0,.926.06C.557-.141.171.175.038.8A1.564,1.564,0,0,0,.462,2.338" transform="translate(600.996 431.945)" fill="#dcf3e9"/><path d="M.428,2.433c.344.28.779-.047.926-.7A1.677,1.677,0,0,0,.987.091C.633-.169.2.149.062.795A1.651,1.651,0,0,0,.428,2.433" transform="translate(624.477 447.534)" fill="#daf3e9"/><path d="M.418,2.771c.379.329.865.006,1.063-.725A2.1,2.1,0,0,0,1.151.127C.764-.2.307.13.088.85a2.044,2.044,0,0,0,.33,1.921" transform="translate(647.471 465.582)" fill="#d8f3e9"/><path d="M.475,3.637c.479.478,1.1.111,1.4-.84A2.917,2.917,0,0,0,1.556.205C1.073-.264.44.094.159,1.049A2.878,2.878,0,0,0,.475,3.637" transform="translate(669.701 486.126)" fill="#ceefe4"/><path d="M.322,2.956c.356.432.865.163,1.134-.6A2.5,2.5,0,0,0,1.3.2C.937-.227.447.049.162.8a2.507,2.507,0,0,0,.16,2.156" transform="translate(691.569 510.46)" fill="#d6f3e9"/><path d="M.3,3.317c.376.523.931.274,1.268-.565A3.048,3.048,0,0,0,1.5.274C1.124-.25.568,0,.229.839A3.02,3.02,0,0,0,.3,3.317" transform="translate(712.124 537.382)" fill="#d6f1e9"/><path d="M.28,3.978c.4.682,1.076.444,1.513-.549A3.949,3.949,0,0,0,1.856.386C1.448-.3.776-.053.343.938A3.879,3.879,0,0,0,.28,3.978" transform="translate(731.345 567.411)" fill="#ceefe6"/><path d="M.221,4.075c.354.766,1.034.56,1.537-.426A4.347,4.347,0,0,0,1.973.465C1.6-.294.915-.105.434.894A4.233,4.233,0,0,0,.221,4.075" transform="translate(749.21 601.116)" fill="#ceede6"/><path d="M.173,4.155c.31.844,1.017.7,1.557-.288A4.488,4.488,0,0,0,2.109.552C1.793-.285,1.075-.156.555.847A4.4,4.4,0,0,0,.173,4.155" transform="translate(765.295 638.247)" fill="#ceede4"/><path d="M.114,4.522c.3.967,1.026.882,1.676-.156A5.348,5.348,0,0,0,2.393.69C2.1-.289,1.334-.218.712.85a5.451,5.451,0,0,0-.6,3.672" transform="translate(779.273 678.621)" fill="#cbede4"/><path d="M.08,5.148c.248,1.191,1.132,1.217,1.894.029A6.4,6.4,0,0,0,2.887.9C2.618-.289,1.742-.305.985.887a6.392,6.392,0,0,0-.9,4.261" transform="translate(790.808 722.14)" fill="#c3ebe0"/><path d="M.034,5.131c.229,1.256,1.053,1.387,1.879.236A6.418,6.418,0,0,0,3.068,1.009C2.828-.249,2.027-.34,1.179.788A6.972,6.972,0,0,0,.034,5.131" transform="translate(799.893 769.171)" fill="#c1ebe0"/><path d="M.021,5.681c.143,1.486,1.031,1.684,2.065.506A7.731,7.731,0,0,0,3.662,1.272C3.518-.222,2.607-.42,1.585.783a7.827,7.827,0,0,0-1.564,4.9" transform="translate(805.868 818.702)" fill="#bfe8de"/><path d="M0,3.219c.025.9.523,1.065,1.164.433A4.566,4.566,0,0,0,2.243.817c0-.9-.541-1.079-1.166-.426A4.652,4.652,0,0,0,0,3.219" transform="translate(809.71 872.564)" fill="#daf1ed"/><path d="M.463.68C.468.842.407.833.27.69A1.126,1.126,0,0,1,0,.118C0-.043.056-.033.2.111A1.172,1.172,0,0,1,.463.68" transform="translate(317.629 324.172)" fill="#f3f9ed"/><path d="M.423.689C.459.822.418.784.309.613A1.587,1.587,0,0,1,.023.074C-.033-.052.017-.01.142.151A5,5,0,0,1,.423.689" transform="translate(322.057 342.908)" fill="#f3f9ed"/><path d="M.384.72C.453.82.442.745.336.571S.105.149.036.05C-.014-.065-.023.03.084.2a2.921,2.921,0,0,0,.3.517" transform="translate(329.648 357.708)" fill="#f1f9eb"/><path d="M.441.892C.547.982.54.87.453.635a1.558,1.558,0,0,0-.367-.6C-.021-.06-.03.053.07.287a2.112,2.112,0,0,0,.371.6" transform="translate(339.884 369.328)" fill="#eff7e8"/><path d="M.413.933C.53,1.022.581.864.5.618A1.48,1.48,0,0,0,.122.02C-.011-.054-.03.082.04.34A1.4,1.4,0,0,0,.413.933" transform="translate(352.492 378.607)" fill="#eff7eb"/><path d="M.339.814C.456.872.5.732.456.508a.907.907,0,0,0-.317-.5C.017-.034-.036.1.027.318a.829.829,0,0,0,.313.5" transform="translate(367.118 386.191)" fill="#eff9eb"/><path d="M.326.855C.454.911.532.748.486.513S.3.045.169.007-.032.12.014.354c.023.232.179.473.312.5" transform="translate(383.396 392.461)" fill="#eff9eb"/><path d="M.381,1.067C.551,1.123.666.92.62.632S.416.055.246.009-.033.16.008.451a.771.771,0,0,0,.373.616" transform="translate(401.04 397.905)" fill="#edf9e9"/><path d="M.367,1.11c.174.054.31-.163.278-.466S.46.053.28.006-.02.166,0,.471s.179.617.364.638" transform="translate(419.931 403.134)" fill="#edf9e9"/><path d="M.416,1.348C.632,1.407.8,1.157.79.786S.594.059.377.009,0,.2,0,.57c.02.372.2.728.416.778" transform="translate(439.747 408.344)" fill="#ebf7e9"/><path d="M.4,1.406c.226.058.411-.191.418-.578S.643.075.415.013s-.4.2-.415.579a.837.837,0,0,0,.4.815" transform="translate(460.419 414.081)" fill="#ebf7e9"/><path d="M.382,1.454c.232.075.439-.185.455-.586S.694.078.46.013.029.2,0,.6s.146.8.379.856" transform="translate(481.71 420.585)" fill="#e8f7e8"/><path d="M.418,1.718c.269.077.515-.2.561-.67A1.035,1.035,0,0,0,.57.017C.3-.076.065.216,0,.688a1.042,1.042,0,0,0,.413,1.03" transform="translate(503.407 428.035)" fill="#e6f7e8"/><path d="M.349,1.559C.588,1.664.826,1.4.875.978S.785.12.545.023.066.178.015.6a.933.933,0,0,0,.334.958" transform="translate(525.522 437.033)" fill="#e9f7e9"/><path d="M.363,1.832c.28.127.567-.149.643-.645A1.157,1.157,0,0,0,.659.027C.377-.09.11.179.018.681A1.213,1.213,0,0,0,.363,1.832" transform="translate(547.679 447.41)" fill="#e6f7e8"/><path d="M.335,1.9c.272.165.564-.12.676-.629C1.105.753.981.2.706.046S.129.164.028.682A1.3,1.3,0,0,0,.335,1.9" transform="translate(569.887 459.724)" fill="#e4f7e8"/><path d="M.235,1.467c.208.136.456-.059.534-.452A1.015,1.015,0,0,0,.57.043C.366-.092.128.1.038.5a1.021,1.021,0,0,0,.2.97" transform="translate(592.056 474.376)" fill="#e9f9ed"/><path d="M.2,1.515c.2.159.441-.029.556-.424A1.108,1.108,0,0,0,.6.055C.4-.1.165.09.043.493A1.14,1.14,0,0,0,.2,1.515" transform="translate(613.781 491.066)" fill="#e9f9ed"/><path d="M.224,1.816c.229.216.531.011.673-.471A1.49,1.49,0,0,0,.759.079C.518-.121.23.068.085.549A1.4,1.4,0,0,0,.224,1.816" transform="translate(634.91 510.122)" fill="#e8f7e9"/><path d="M.21,2.141C.463,2.419.8,2.2,1,1.651A1.768,1.768,0,0,0,.9.122C.656-.159.312.062.111.621a1.833,1.833,0,0,0,.1,1.52" transform="translate(655.371 531.82)" fill="#e2f7e8"/><path d="M.161,1.926c.214.274.509.1.714-.385a1.658,1.658,0,0,0-.03-1.4C.652-.15.319.028.134.526a1.709,1.709,0,0,0,.027,1.4" transform="translate(675.062 556.642)" fill="#e6f9ed"/><path d="M.139,1.966c.188.319.5.154.734-.336A2.013,2.013,0,0,0,.907.16C.709-.145.383,0,.175.5A1.8,1.8,0,0,0,.139,1.966" transform="translate(693.579 584.291)" fill="#e6f9eb"/><path d="M.116,2.289c.2.4.6.267.851-.315A2.275,2.275,0,0,0,1.089.219C.878-.17.514-.029.239.546A2.361,2.361,0,0,0,.116,2.289" transform="translate(710.704 614.832)" fill="#e2f7e8"/><path d="M.1,2.619c.21.484.641.363.968-.279A2.854,2.854,0,0,0,1.3.3C1.091-.186.667-.07.333.575A2.868,2.868,0,0,0,.1,2.619" transform="translate(726.244 648.476)" fill="#e2f5e6"/><path d="M.067,2.644c.186.53.593.426.976-.189A3.1,3.1,0,0,0,1.383.342C1.2-.185.786-.089.4.535A3.112,3.112,0,0,0,.067,2.644" transform="translate(740.042 685.382)" fill="#e0f5e6"/><path d="M.043,2.659c.131.575.611.548.98-.092A3.18,3.18,0,0,0,1.472.4C1.324-.169.885-.128.491.5A3.3,3.3,0,0,0,.043,2.659" transform="translate(751.76 725.319)" fill="#def5e6"/><path d="M.021,2.663c.111.607.563.621.975.008a3.582,3.582,0,0,0,.569-2.2C1.439-.141.988-.169.586.462a3.554,3.554,0,0,0-.564,2.2" transform="translate(761.149 768.145)" fill="#def5e6"/><path d="M.014,3.2c.079.79.595.824,1.175.139A4.319,4.319,0,0,0,2.033.629C1.959-.158,1.424-.212.856.5A4.482,4.482,0,0,0,.014,3.2" transform="translate(767.772 813.297)" fill="#daf3e2"/><path d="M0,3.145c.088.817.55.937,1.15.273A4.247,4.247,0,0,0,2.145.712C2.078-.111,1.58-.246.992.441A4.487,4.487,0,0,0,0,3.145" transform="translate(771.772 861.114)" fill="#daf3e2"/><path d="M0,1.662c.007.466.268.565.606.231A2.608,2.608,0,0,0,1.236.435C1.23-.03.95-.15.623.211A2.532,2.532,0,0,0,0,1.662" transform="translate(773.277 911.701)" fill="#e9f9ef"/></g></g></svg>