<svg id="Group_2659" data-name="Group 2659" xmlns="http://www.w3.org/2000/svg" xmlns:xlink="http://www.w3.org/1999/xlink" width="330" height="40.973" viewBox="0 0 330 40.973">
  <defs>
    <clipPath id="clip-path">
      <rect id="Rectangle_1434" data-name="Rectangle 1434" width="330" height="40.973" fill="none"/>
    </clipPath>
  </defs>
  <g id="Group_2658" data-name="Group 2658" clip-path="url(#clip-path)">
    <path id="Path_8821" data-name="Path 8821" d="M272.2,35.871a13.931,13.931,0,0,1-6.1,4.069,25.67,25.67,0,0,1-8.768,1.492,17.388,17.388,0,0,1-8.887-2.147,14.724,14.724,0,0,1-5.931-6.369,22.561,22.561,0,0,1-2.2-9.861l-.018-2.649a23.972,23.972,0,0,1,1.9-10.116,14.556,14.556,0,0,1,5.629-6.569,16.342,16.342,0,0,1,8.669-2.32q6.931-.047,10.861,3.231t4.694,9.589l-7.814.053a7.772,7.772,0,0,0-2.4-4.881,7.565,7.565,0,0,0-5.055-1.518A7.12,7.12,0,0,0,250.564,11q-2.12,3.092-2.105,9.167l.017,2.489q.042,6.129,2.392,9.244a7.972,7.972,0,0,0,6.845,3.084q4.522-.031,6.436-1.971l-.046-6.717-7.305.05-.041-5.914,15.334-.1Z" transform="translate(-78.889 -0.46)" fill="#0089d2"/>
    <path id="Path_8822" data-name="Path 8822" d="M374.159,32.315l-14.077.1-2.62,8.047-8.537.058L363.164,1.452l7.44-.05,14.851,38.865-8.537.058Zm-11.953-6.421,9.742-.066-5-14.552Z" transform="translate(-114.552 -0.46)" fill="#0089d2"/>
    <path id="Path_8823" data-name="Path 8823" d="M414.787,33.663l17.047-.116.044,6.45-25.076.171L406.536,1.2l8.028-.054Z" transform="translate(-133.465 -0.377)" fill="#0089d2"/>
    <path id="Path_8824" data-name="Path 8824" d="M468.618,29.235a4.12,4.12,0,0,0-1.63-3.481,21.075,21.075,0,0,0-5.8-2.53,40.979,40.979,0,0,1-6.629-2.618q-6.661-3.541-6.7-9.616A9.408,9.408,0,0,1,449.6,5.345a11.613,11.613,0,0,1,5.085-3.9A19.251,19.251,0,0,1,462.157,0a17.516,17.516,0,0,1,7.449,1.461,11.845,11.845,0,0,1,5.1,4.234,11.174,11.174,0,0,1,1.849,6.25L468.527,12a5.254,5.254,0,0,0-1.714-4.15A6.936,6.936,0,0,0,462.066,6.4,7.4,7.4,0,0,0,457.5,7.674a3.922,3.922,0,0,0-1.61,3.289,3.757,3.757,0,0,0,1.935,3.171,21.622,21.622,0,0,0,5.649,2.37q6.865,2.014,10.018,5.043a10.181,10.181,0,0,1,3.183,7.579,9.374,9.374,0,0,1-3.773,7.96q-3.808,2.9-10.284,2.947a19.91,19.91,0,0,1-8.2-1.59,12.961,12.961,0,0,1-5.664-4.471,11.547,11.547,0,0,1-1.986-6.624l8.056-.055q.044,6.449,7.751,6.4a7.5,7.5,0,0,0,4.461-1.195,3.785,3.785,0,0,0,1.583-3.262" transform="translate(-146.673 0)" fill="#0089d2"/>
    <path id="Path_8825" data-name="Path 8825" d="M344.489,18.839l-7.727,3.852a11.056,11.056,0,0,1,.774,2.73l8.6-.811a19.613,19.613,0,0,0-1.642-5.77" transform="translate(-110.559 -6.185)" fill="#b7001e"/>
    <path id="Path_8826" data-name="Path 8826" d="M337.967,30.491a11,11,0,0,1-.256,2.372l8.3,2.385a19.7,19.7,0,0,0,.58-4.757c0-.408-.013-.811-.038-1.214l-8.6.812c0,.134.007.268.007.4" transform="translate(-110.87 -9.612)" fill="#e01f10"/>
    <path id="Path_8827" data-name="Path 8827" d="M336.63,36.406a11.153,11.153,0,0,1-1.208,2.485l6.894,5.2a19.67,19.67,0,0,0,2.609-5.3Z" transform="translate(-110.119 -11.952)" fill="#0098d1"/>
    <path id="Path_8828" data-name="Path 8828" d="M303.394,18.46a11.236,11.236,0,0,1,1.773-2.28L299.354,9.8a19.867,19.867,0,0,0-3.691,4.8Z" transform="translate(-97.066 -3.219)" fill="#3a9927"/>
    <path id="Path_8829" data-name="Path 8829" d="M328.389,12.046a11.072,11.072,0,0,1,2.438,1.527l5.83-6.365a19.847,19.847,0,0,0-5.167-3.223Z" transform="translate(-107.81 -1.308)" fill="#d39400"/>
    <path id="Path_8830" data-name="Path 8830" d="M335.1,18.686l7.725-3.851a19.865,19.865,0,0,0-3.61-4.794l-5.83,6.364a11.219,11.219,0,0,1,1.714,2.281" transform="translate(-109.45 -3.296)" fill="#25862a"/>
    <path id="Path_8831" data-name="Path 8831" d="M300.671,30.454c0-.174.005-.348.013-.521l-8.6-.77c-.027.427-.043.856-.043,1.29a19.789,19.789,0,0,0,.585,4.782l8.3-2.382a11.173,11.173,0,0,1-.261-2.4" transform="translate(-95.878 -9.575)" fill="#3d6726"/>
    <path id="Path_8832" data-name="Path 8832" d="M333.3,41.6a11.309,11.309,0,0,1-2.1,1.972l4.539,7.349a19.943,19.943,0,0,0,4.445-4.128Z" transform="translate(-108.734 -13.659)" fill="#ffad00"/>
    <path id="Path_8833" data-name="Path 8833" d="M305.5,41.849l-6.871,5.222a19.953,19.953,0,0,0,4.488,4.065l4.538-7.342a11.236,11.236,0,0,1-2.154-1.946" transform="translate(-98.04 -13.739)" fill="#f68e00"/>
    <path id="Path_8834" data-name="Path 8834" d="M300.888,25.23a11.02,11.02,0,0,1,.823-2.769l-7.724-3.847a19.638,19.638,0,0,0-1.7,5.845Z" transform="translate(-95.957 -6.111)" fill="#0064ae"/>
    <path id="Path_8835" data-name="Path 8835" d="M332.882,52.885l-4.533-7.34A11.115,11.115,0,0,1,325.7,46.62l1.6,8.49a19.654,19.654,0,0,0,5.578-2.225" transform="translate(-106.928 -14.952)" fill="#830025"/>
    <path id="Path_8836" data-name="Path 8836" d="M321.682,47.514a11.087,11.087,0,0,1-2.906.04l-1.6,8.49a19.893,19.893,0,0,0,6.1-.048Z" transform="translate(-104.129 -15.599)" fill="#e85200"/>
    <path id="Path_8837" data-name="Path 8837" d="M322.551,10.295a11.1,11.1,0,0,1,2.76.533l3.1-8.058a19.639,19.639,0,0,0-5.861-1.109Z" transform="translate(-105.893 -0.545)" fill="#db0015"/>
    <path id="Path_8838" data-name="Path 8838" d="M314.169,46.752a11.073,11.073,0,0,1-2.738-1.035l-4.541,7.345a19.706,19.706,0,0,0,5.681,2.172Z" transform="translate(-100.752 -15.009)" fill="#cd0068"/>
    <path id="Path_8839" data-name="Path 8839" d="M314.974,10.784a11.059,11.059,0,0,1,2.817-.5V1.65a19.7,19.7,0,0,0-5.939,1.081Z" transform="translate(-102.381 -0.542)" fill="#002555"/>
    <path id="Path_8840" data-name="Path 8840" d="M303.037,39.083a11.064,11.064,0,0,1-1.315-2.637l-8.3,2.381a19.712,19.712,0,0,0,2.741,5.478Z" transform="translate(-96.331 -11.965)" fill="#cd7d00"/>
    <path id="Path_8841" data-name="Path 8841" d="M308.36,13.421a11.153,11.153,0,0,1,2.392-1.447l-3.12-8.049a19.745,19.745,0,0,0-5.089,3.117Z" transform="translate(-99.325 -1.289)" fill="#003d76"/>
    <path id="Path_8842" data-name="Path 8842" d="M9.094,14.435a1.645,1.645,0,0,0-.622-1.369A7.722,7.722,0,0,0,6.287,12.05a20.929,20.929,0,0,1-2.556-1.016Q.5,9.449.5,6.676a3.908,3.908,0,0,1,.8-2.436A5.2,5.2,0,0,1,3.583,2.6a8.863,8.863,0,0,1,3.309-.588,7.748,7.748,0,0,1,3.211.639,5.085,5.085,0,0,1,2.208,1.82,4.75,4.75,0,0,1,.787,2.7H9.106a2.007,2.007,0,0,0-.622-1.574A2.426,2.426,0,0,0,6.8,5.033a2.733,2.733,0,0,0-1.695.474,1.453,1.453,0,0,0-.622,1.2,1.463,1.463,0,0,0,.684,1.158A8.663,8.663,0,0,0,7.577,8.941a14.776,14.776,0,0,1,2.83,1.192A4.756,4.756,0,0,1,13.1,14.412a4.056,4.056,0,0,1-1.643,3.423,7.3,7.3,0,0,1-4.507,1.244,8.943,8.943,0,0,1-3.657-.725A5.514,5.514,0,0,1,.828,16.369,5.176,5.176,0,0,1,0,13.465H4.017a2.547,2.547,0,0,0,.691,1.969,3.263,3.263,0,0,0,2.241.633,2.576,2.576,0,0,0,1.569-.428,1.412,1.412,0,0,0,.576-1.2" transform="translate(0 -0.66)" fill="#0089d2"/>
    <path id="Path_8843" data-name="Path 8843" d="M35.909,2.349V13.223a6.249,6.249,0,0,1-.787,3.2,5.1,5.1,0,0,1-2.26,2.06,7.959,7.959,0,0,1-3.48.707A6.878,6.878,0,0,1,24.6,17.616a5.617,5.617,0,0,1-1.78-4.314V2.349H26.85V13.382q.069,2.727,2.533,2.727a2.451,2.451,0,0,0,1.883-.684A3.2,3.2,0,0,0,31.9,13.2V2.349Z" transform="translate(-7.492 -0.771)" fill="#0089d2"/>
    <path id="Path_8844" data-name="Path 8844" d="M54.686,14.435a1.646,1.646,0,0,0-.622-1.369,7.722,7.722,0,0,0-2.185-1.016,20.93,20.93,0,0,1-2.556-1.016q-3.229-1.586-3.229-4.359a3.908,3.908,0,0,1,.8-2.436A5.2,5.2,0,0,1,49.175,2.6a8.863,8.863,0,0,1,3.309-.588,7.748,7.748,0,0,1,3.211.639A5.085,5.085,0,0,1,57.9,4.468a4.75,4.75,0,0,1,.787,2.7H54.7a2.009,2.009,0,0,0-.622-1.574,2.426,2.426,0,0,0-1.683-.559,2.733,2.733,0,0,0-1.695.474,1.453,1.453,0,0,0-.622,1.2,1.462,1.462,0,0,0,.685,1.158,8.647,8.647,0,0,0,2.407,1.073A14.776,14.776,0,0,1,56,10.133a4.756,4.756,0,0,1,2.692,4.279,4.056,4.056,0,0,1-1.643,3.423,7.3,7.3,0,0,1-4.507,1.244,8.943,8.943,0,0,1-3.657-.725,5.514,5.514,0,0,1-2.464-1.985,5.176,5.176,0,0,1-.828-2.9h4.017a2.547,2.547,0,0,0,.691,1.969,3.263,3.263,0,0,0,2.241.633,2.576,2.576,0,0,0,1.569-.428,1.412,1.412,0,0,0,.576-1.2" transform="translate(-14.968 -0.66)" fill="#0089d2"/>
    <path id="Path_8845" data-name="Path 8845" d="M81.128,5.441H76.142V18.962H72.137V5.441H67.242V2.349H81.128Z" transform="translate(-22.076 -0.771)" fill="#0089d2"/>
    <path id="Path_8846" data-name="Path 8846" d="M97.545,15.858H92.056l-.959,3.1H86.819L92.912,2.349h3.766l6.139,16.613h-4.3Zm-4.53-3.092h3.571L94.795,7Z" transform="translate(-28.503 -0.771)" fill="#0089d2"/>
    <rect id="Rectangle_1433" data-name="Rectangle 1433" width="3.993" height="16.613" transform="translate(76.031 1.578)" fill="#0089d2"/>
    <path id="Path_8847" data-name="Path 8847" d="M137.5,18.962h-3.982L127.634,8.625V18.962h-4V2.349h4l5.877,10.337V2.349H137.5Z" transform="translate(-40.587 -0.771)" fill="#0089d2"/>
    <path id="Path_8848" data-name="Path 8848" d="M157.516,15.858h-5.488l-.959,3.1H146.79l6.093-16.613h3.766l6.139,16.613h-4.3Zm-4.53-3.092h3.571L154.766,7Z" transform="translate(-48.191 -0.771)" fill="#0089d2"/>
    <path id="Path_8849" data-name="Path 8849" d="M172.755,18.962V2.349h5.967A8.453,8.453,0,0,1,183.6,3.524a3.91,3.91,0,0,1,1.671,3.412,3.956,3.956,0,0,1-.593,2.2,3.46,3.46,0,0,1-1.746,1.347,3.5,3.5,0,0,1,2,1.278,3.721,3.721,0,0,1,.7,2.282,4.4,4.4,0,0,1-1.546,3.668,7.36,7.36,0,0,1-4.581,1.249Zm4-9.687h2.088a2.962,2.962,0,0,0,1.871-.481,1.7,1.7,0,0,0,.56-1.384,1.793,1.793,0,0,0-.6-1.517,3.244,3.244,0,0,0-1.951-.463H176.76Zm0,2.624v3.982h2.624a2.5,2.5,0,0,0,1.666-.5,1.737,1.737,0,0,0,.582-1.4,1.842,1.842,0,0,0-2.065-2.088Z" transform="translate(-56.715 -0.771)" fill="#0089d2"/>
    <path id="Path_8850" data-name="Path 8850" d="M199.547,15.881h6.971v3.081H195.543V2.348h4Z" transform="translate(-64.196 -0.771)" fill="#0089d2"/>
    <path id="Path_8851" data-name="Path 8851" d="M225.049,11.911h-6.3v3.97h7.44v3.081H214.745V2.349h11.467V5.441h-7.462v3.5h6.3Z" transform="translate(-70.501 -0.771)" fill="#0089d2"/>
    <path id="Path_8852" data-name="Path 8852" d="M.757,52.577V36.3H6a7.717,7.717,0,0,1,3.88.978,6.878,6.878,0,0,1,2.688,2.761,8.343,8.343,0,0,1,.979,4v.749a8.382,8.382,0,0,1-.945,4.008,6.907,6.907,0,0,1-2.661,2.773,7.546,7.546,0,0,1-3.829,1.012ZM4.681,39.329V49.559H6.045a3.053,3.053,0,0,0,2.593-1.2,5.888,5.888,0,0,0,.905-3.572v-.7a5.841,5.841,0,0,0-.905-3.555A3.106,3.106,0,0,0,6,39.329Z" transform="translate(-0.249 -11.917)" fill="#0089d2"/>
    <path id="Path_8853" data-name="Path 8853" d="M31.808,45.668H26.046v3.89h6.88v3.019h-10.8V36.3H32.948v3.03h-6.9v3.432h5.762Z" transform="translate(-7.263 -11.917)" fill="#0089d2"/>
    <path id="Path_8854" data-name="Path 8854" d="M47.312,48.15,50.555,36.3h4.382L49.459,52.577H45.166L39.733,36.3h4.349Z" transform="translate(-13.044 -11.917)" fill="#0089d2"/>
    <path id="Path_8855" data-name="Path 8855" d="M73.762,45.668H68.056v3.89h6.824v3.019H64.132V36.3H74.9v3.03H68.056v3.432h5.706Z" transform="translate(-21.054 -11.917)" fill="#0089d2"/>
    <path id="Path_8856" data-name="Path 8856" d="M86.066,49.559h6.211v3.019H82.141V36.3h3.924Z" transform="translate(-26.967 -11.917)" fill="#0089d2"/>
    <path id="Path_8857" data-name="Path 8857" d="M112,44.664a9.6,9.6,0,0,1-.883,4.215,6.527,6.527,0,0,1-2.51,2.823,6.986,6.986,0,0,1-3.706.989,7.087,7.087,0,0,1-3.69-.956A6.518,6.518,0,0,1,98.7,49a9.32,9.32,0,0,1-.945-4.081v-.916a9.633,9.633,0,0,1,.878-4.221,6.511,6.511,0,0,1,2.516-2.822,7.448,7.448,0,0,1,7.418-.011,6.627,6.627,0,0,1,2.521,2.8A9.373,9.373,0,0,1,112,43.915Zm-3.991-.682A6.848,6.848,0,0,0,107.2,40.3a2.6,2.6,0,0,0-2.319-1.257q-2.952,0-3.119,4.427l-.011,1.2a7.042,7.042,0,0,0,.794,3.679,2.6,2.6,0,0,0,2.359,1.285,2.564,2.564,0,0,0,2.292-1.263,6.848,6.848,0,0,0,.816-3.634Z" transform="translate(-32.094 -11.808)" fill="#0089d2"/>
    <path id="Path_8858" data-name="Path 8858" d="M125.208,47.054v5.523h-3.924V36.3h6.5a7.559,7.559,0,0,1,3.3.688,5.179,5.179,0,0,1,2.225,1.956,5.34,5.34,0,0,1,.789,2.879,4.708,4.708,0,0,1-1.705,3.807,7.071,7.071,0,0,1-4.678,1.425Zm0-3.029h2.571a2.425,2.425,0,0,0,1.738-.57,2.12,2.12,0,0,0,.6-1.61,2.619,2.619,0,0,0-.615-1.822,2.179,2.179,0,0,0-1.677-.694h-2.616Z" transform="translate(-39.817 -11.917)" fill="#0089d2"/>
    <path id="Path_8859" data-name="Path 8859" d="M147.654,36.3l3.633,11.325L154.91,36.3h5.165V52.577h-3.935v-3.8L156.52,41l-3.936,11.581h-2.594l-3.946-11.593.38,7.792v3.8H142.5V36.3Z" transform="translate(-46.783 -11.917)" fill="#0089d2"/>
    <path id="Path_8860" data-name="Path 8860" d="M180.969,45.668h-5.779v3.89h6.9v3.019H171.267V36.3H182.11v3.03h-6.919v3.432h5.779Z" transform="translate(-56.227 -11.917)" fill="#0089d2"/>
    <path id="Path_8861" data-name="Path 8861" d="M202.936,52.577h-3.9l-5.769-10.129V52.577h-3.924V36.3h3.924l5.758,10.129V36.3h3.913Z" transform="translate(-62.161 -11.917)" fill="#0089d2"/>
    <path id="Path_8862" data-name="Path 8862" d="M225.167,39.329h-4.886V52.577h-3.924V39.329h-4.8V36.3h13.606Z" transform="translate(-69.455 -11.917)" fill="#0089d2"/>
  </g>
</svg>
