<svg xmlns="http://www.w3.org/2000/svg" xmlns:xlink="http://www.w3.org/1999/xlink" width="650" height="330" viewBox="0 0 650 330"><defs><clipPath id="a"><rect width="650" height="330" transform="translate(-18076 2097)" fill="none" stroke="#707070" stroke-width="1"/></clipPath><clipPath id="b"><rect width="646.648" height="329.431" transform="translate(237.14 343.256)" fill="none"/></clipPath><clipPath id="c"><rect width="883.788" height="826.432" fill="none"/></clipPath><clipPath id="d"><rect width="16.636" height="23.494" transform="translate(583.622 461.568)" fill="none"/></clipPath><clipPath id="f"><rect width="35.632" height="30.817" transform="translate(572.234 512.603)" fill="none"/></clipPath><clipPath id="h"><rect width="16.636" height="23.494" transform="translate(724.94 446.074)" fill="none"/></clipPath><clipPath id="i"><rect width="80" height="30.816" transform="translate(694.94 406.591)" fill="none"/></clipPath><clipPath id="k"><rect width="85.246" height="46.964" transform="translate(693.526 528.929)" fill="none"/></clipPath><clipPath id="l"><rect width="85.246" height="26.964" transform="translate(693.526 528.929)" fill="none"/></clipPath><clipPath id="m"><rect width="85.246" height="26.964" transform="translate(693.526 548.929)" fill="none"/></clipPath><clipPath id="n"><rect width="42" height="26.965" transform="translate(806.776 617.384)" fill="none"/></clipPath><clipPath id="p"><rect width="56" height="26.965" transform="translate(806.776 642.593)" fill="none"/></clipPath><clipPath id="r"><rect width="84" height="26.964" transform="translate(434.94 508.593)" fill="none"/></clipPath><clipPath id="t"><rect width="85.246" height="46.965" transform="translate(282.94 602.959)" fill="none"/></clipPath><clipPath id="u"><rect width="85.246" height="26.965" transform="translate(282.94 602.959)" fill="none"/></clipPath><clipPath id="v"><rect width="85.246" height="26.965" transform="translate(282.94 622.959)" fill="none"/></clipPath><clipPath id="w"><rect width="45" height="28.891" transform="translate(305.44 560.482)" fill="none"/></clipPath><clipPath id="y"><rect width="30" height="28.891" transform="translate(723.94 484.35)" fill="none"/></clipPath><clipPath id="aa"><rect width="42" height="26.965" transform="translate(807.384 594.207)" fill="none"/></clipPath><clipPath id="ac"><rect width="30" height="28.891" transform="translate(560.804 446.663)" fill="none"/></clipPath><clipPath id="ae"><rect width="30" height="28.891" transform="translate(458.804 399.663)" fill="none"/></clipPath><clipPath id="ag"><rect width="90" height="28.891" transform="translate(428.804 581.663)" fill="none"/></clipPath></defs><g transform="translate(18076 -2097)" clip-path="url(#a)"><g transform="translate(-72 -45)"><g transform="translate(-18239 1800)"><g clip-path="url(#b)"><path d="M718.548,119.756l-14.914-17.81L711.5,86.62V63.432L733.039,51.42l3.729-8.009L713.575,23.146V8.346L693.694.746,692.241,0l-.2.471-3.314,4.142L677.962,36.089l-10.768,38.1-13.67,12.837v4.558h-7.872l-43.894,31.062-2.486,7.869-4.555,5.8-5.385,23.191c-13.251,21.539-38.926,46.177-42.863,48.871s-20.708,18.844-20.708,18.844H505.466l-17.809,14.7s-29.612,13.462-37.894,15.538-23.608,5.177-23.608,5.177l-5.8,6.007v6.832l-2.9,2.9-1.655,6.413-19.259,10.974-5.8-5.386-6.626-1.447L368.9,277.955l2.161-10.562,3.323-4.553V245.246l-1.658-3.933h-3.817l-5.7,2.483v1.45l-6.479-3.933h-5.326l3.521-2.072V222.872l6.413-3.933,9.94,5.817,15.945-13.9v-4.764l1.864,3.108h4.349l6.21-10.559V186.217h10.763l5.177-6.413v-5.591l-4.555-4.588H398.4l-7.038,2.932-34.641,14.7-9.053,2.072-13.734,10.9L323.72,223.42v8.009l3.314,3.59h4.7v13.254l5.518,9.937-3.311,8.006V276.7l.828,4.418S324,298.8,320.412,304.876s-21.812,31.47-21.812,31.47l-6.626,3.317-22.092,24.3-1.655,6.629-4.142-1.38-12.7,4.968v9.666l-6.628,8.009-5.518,9.94-4.142,5.247-1.654,3.3-5.245,5.8v4.694L234,429.4l4.142,14.914,8.837,9.388-4.416,2.759v12.7l-5.518-3.038v-9.388h-6.631l-2.21,3.59v9.11l3.314,3.314-3.314,2.21L224.06,473.3H214.4l-.276,5.518-3.864,4.418-.555,5.244-4.14.276L195.9,497.04l-4.692-1.939H180.161l-2.207-1.939-5.248,1.1-1.655-3.314-5.518-.276-5.25,9.674,7.869,15.326,12.84,4.552H200.03l10.768-8.7,7.041.828,8.282-17.809,8.285,4.555,14.5-8.421v-7.736l6.21,3.729,2.073-13.667-2.073-6.216,16.359,8.285,3.108,9.94,9.526,4.555V499.1l6.626,8.285V520.22l-7.869,19.465,6.425,5.749,15.939-1.6c11.186,10.142,26.508,34.094,26.508,34.094h5.8l15.186-10.762-5.245,5.518-6.35,8.561v18.028l4.856,4.922-2.1,4.664V618.8l9.94,11.036h2.91l4.547-7.175-7.457-6.9,2.91-7.73s5.93,6.628,7.585,7.457,8.282,3.311,8.282,3.311h16.843l6.076-9.11c8.282,3.313,16.012,13.527,16.012,13.527l-5.8,2.483-7.457-2.207L382.812,635.9l-9.113-2.483-4.787,7.728v6.072H373.7l58.754-15.739v-9.661l15.789-7.172v5.8l-2.759,4.692v5.245l5.518,4.7h44.444l18.777,7.457h7.457l6.352-5.8v-8.282l14.356-15.184s1.939-15.464,3.311-17.672,20.432-16.567,20.432-16.567l-2.765-5.8,11.32-10.768h4.969l10.771-4.968,5.8,3.588,3.038.828c3.034.831,16.012,9.664,16.012,9.664l-8.837-.831-7.175,6.352v8.282l4.689,6.076-3.861,5.8,1.1,6.074-2.758,3.038v9.109l-2.486,3.59v11.317l12.976,14.36h3.05s11.036-4.421,13.526-6.076,7.456-11.324,7.456-11.324V617.132l9.4-8.282,1.939-4.7,6.626-8.282V581.79l-10.213-13.527,5.8-7.178v-4.139l-15.74-13.116V515.686l-2.486-4.558,7.457-9.524,10.771-14.914V471.775l-20.938-15.109L619.98,441.34l-27.335-9.11V418.636l-11.186-8.145V399.306L577.73,393.1l3.729-8.286-3.314-10.972,5.746-12.379-6.573-10.614H558.676l-7.308-14.082V322.446l14.765-12.61v-4.69l20.177-7.32v-7.588l10.477,4.416h7.457l15.736-11.736v-8.143h7.73V261.523l11.323-7.177a105.929,105.929,0,0,0,20.579,13.687V241.1l-8.165-8.009,5.8-3.866v-4.465l-10.213-11.825,9.664-12.975v-3.311l-5.518-7.733,5.518-7.457h12.426l8-3.593,4.142-6.069H695.9l4.693-9.4-4.681-15.441,22.64-22.544Z" fill="#b0cce8"/><path d="M22.44,616.6l6.686-5.22v-1.962l4.416,4.969H52.319l4.969-2.762h7.175l38.107,24.85h4.971l19.881-13.254h10.492l11.044,7.73v19.881l-3.864,11.047L126.6,680.652l-16.292,3.035-7.727,8.006L120.517,711.3l-10.768,11.32V728.7l3.314,2.762-3.314,4.417v6.075l-2.483,4.417V754.1l9.94,6.623s3.864,8.837,8.831,12.7,17.4,10.216,17.4,10.216l-4.693,6.35,5.245,6.075s.828,8.282,10.492,13.254,45.278,17.115,45.278,17.115L225.7,808.214l-3.038-6.35,6.628-6.905,3.588-11.6,10.492-22.085c3.59-4.418,13.806-7.178,13.806-7.178l5.244-4.7v-5.511l-1.38-2.486,4.418-3.311v-4.972l-5.518-6.623,6.9-6.625,9.664-11.6,10.768-2.762,4.416-4.142h13.254l15.736-14.356h7.731l-4.7,5.518,6.9,5.518,10.768-7.178,7.181,5.8,5.518-4.692v-6.629l-6.076-6.072h8.707V672.1l-4.01-2.765h-4.4c-.828-5.8-13.8-16.015-18.222-17.943s-27.937-12.7-27.937-12.7l1.708-3.59V621.016l7.181-4.969V608.31l11.6-17.118v-8.279l-1.11-1.939h8.837l1.383-3.038s-15.335-23.951-26.518-34.1l-15.939,1.6-6.425-5.746,7.869-19.466V507.4l-6.626-8.285v-9.523l-9.526-4.555-3.108-9.937-16.359-8.285,2.073,6.213L255.108,486.7l-6.21-3.729v7.73l-14.5,8.419-8.285-4.552-8.282,17.807-7.041-.825-10.768,8.695H180.98l-12.84-4.555-7.869-15.323,5.248-9.664,1.939-1.656.552-5.248-3.866-4.692h-5.518l-10.216,6.347v6.086l4.969,6.626-4.969-2.486-3.866,4.7V492.09l-8.558-5.518-9.94-.828,18.225-20.156-9.113-14.914h-11.87l-19.329,12.151-16.567,4.96-12.422-1.93H36.859l-14.418,2.76-2.607,2.313.447,1.828,16.844,41.693v13.527l-16.832,7.63v11.139L0,572.317v24.541l11.46,15.323,7.181,4.416Z" fill="#b0cce8"/><path d="M837.2,259.741l-21.536,23.191-25.475-20.914h-3.729V252.7s-7.457-9.667-13.806-14.085-25.124-6.347-25.124-6.347h-8.965l-58.681,39.062h-9.1a31.33,31.33,0,0,1-11.171-3.281,105.967,105.967,0,0,1-20.582-13.69l-11.32,7.178V274.8h-7.73v8.14l-15.734,11.74h-7.457l-10.477-4.416v7.588l-20.177,7.317v4.692l-14.765,12.605v14.314l7.317,14.082h18.643l6.574,10.616-5.749,12.379,3.314,10.972-3.729,8.289,3.729,6.206v11.186l11.186,8.145v13.587l27.324,9.1,5.59,15.326,20.92,15.117v14.914l-10.773,14.914-7.457,9.527,2.486,4.555v28.162l15.74,13.115,5.8-4.968-1.939-11.875c9.113-11.6,27.612-12.012,31.339-12.012,20.866,0,24.845,8.491,24.845,8.491v3.933l2.073,2.9,2.685,8.905,4.35-.831,11.6-11.6-.625-4.968s-5.8-3.521-7.245-4.142-4.969-5.177-4.969-5.177v-14.08a38.868,38.868,0,0,1,4.142-5.591l-1.453-3.933s3.108.413,4.35.413A19.63,19.63,0,0,0,726,500.979s5.177-5.8,6.413-7.457-.831-4.349-.831-4.349l-5.59-4.763s6.413-1.653,7.869-2.692,1.468-4.759,1.468-4.759l-5.2-5.385,5.2,3.521c3.33-1.044,9.714,1.032,9.714,1.032l3.314.626A66.634,66.634,0,0,1,755.4,469.3c2.069-1.45,6.626-.622,8.073,1.032s11.8,14.707,11.8,14.707l-26.094,24.024s.415,7.457-.415,8.9-12.213,10.267-12.213,10.267,6.829,6.5,6.829,9.611-4.817,10.771-4.817,10.771v6.7L741.721,560l-3.162.276v9.115l5.369,4.965h-3.035l-7.733,6.631v5.244l10.216,4.693s5.518,1.658,7.457,0,29.818-32.3,29.818-32.3l9.113-4.418c10.768-1.38,22.918-8.006,22.918-8.006s4.693-13.53,4.693-18.493V511.682l2.206-2.207s1.939-15.46,5.248-22.64,25.126-26.5,25.126-26.5h22.174l2.692-9.4-4.693-4.692-2.207-7.457c-25.951-22.371-34.238-69.579-34.238-71.51s6.352-12.975,6.352-12.975l1.309-16.5-2.486-4.558c1.034-2.072,21.536-61.5,21.536-61.5Z" fill="#b0cce8"/><path d="M340.015,368a.561.561,0,0,1-.559-.559v-.831a.56.56,0,1,1,1.119,0v.831a.561.561,0,0,1-.559.559m0-3.814a.559.559,0,0,1-.559-.559v-2.983a.559.559,0,1,1,1.119,0v2.983a.559.559,0,0,1-.559.559m0-5.966a.559.559,0,0,1-.559-.559v-2.983a.559.559,0,1,1,1.119,0v2.984a.559.559,0,0,1-.559.559m-.416-5.851a.561.561,0,0,1-.482-.27l-1.533-2.558a.56.56,0,0,1,.959-.577l1.535,2.558a.559.559,0,0,1-.479.847m-1.417-5.281a.556.556,0,0,1-.527-.743v0l1-2.81a.559.559,0,1,1,1.054.373l-1,2.81a.56.56,0,0,1-.528.373m1.994-5.621a.54.54,0,0,1-.186-.033.558.558,0,0,1-.34-.712h0l1-2.811a.559.559,0,1,1,1.054.373l-1,2.811a.561.561,0,0,1-.528.373m1.91-5.638a.559.559,0,0,1-.559-.559v-2.983a.559.559,0,1,1,1.119,0v2.983a.559.559,0,0,1-.559.559m0-5.966a.559.559,0,0,1-.559-.559v-2.983a.559.559,0,1,1,1.119,0v2.983a.559.559,0,0,1-.559.559m0-5.966a.559.559,0,0,1-.559-.559v-2.983a.559.559,0,1,1,1.119,0v2.983a.559.559,0,0,1-.559.559m0-5.966a.56.56,0,0,1-.559-.559v-.483a.558.558,0,0,1,.106-.328l1.471-2.022a.56.56,0,0,1,.925.632l-.02.027-1.363,1.873v.3a.561.561,0,0,1-.559.559m3.223-4.917a.559.559,0,0,1-.468-.862v-2.65a.56.56,0,1,1,1.119,0v2.831a.56.56,0,0,1-.107.33l-.089.122a.56.56,0,0,1-.453.23m-.237-5.87a.561.561,0,0,1-.516-.342l-1.157-2.75a.559.559,0,0,1,1.024-.449l.007.017,1.159,2.749a.56.56,0,0,1-.3.732.6.6,0,0,1-.218.043m-2.316-5.5a.559.559,0,0,1-.515-.342l-.671-1.594a.562.562,0,0,1,.109-.6l.861-.911a.56.56,0,0,1,.813.77l-.61.646.529,1.257a.56.56,0,0,1-.3.732h0a.546.546,0,0,1-.218.045M345,296.979a.552.552,0,0,1-.383-.154.558.558,0,0,1-.024-.79l2.048-2.169a.56.56,0,0,1,.813.77l-2.048,2.168a.552.552,0,0,1-.406.175m4.1-4.367a.532.532,0,0,1-.368-.14.541.541,0,0,1-.118-.679l.656-2.731a.559.559,0,1,1,1.087.263l-.683,2.849a.546.546,0,0,1-.134.249.6.6,0,0,1-.44.189m1.409-5.758a.529.529,0,0,1-.131-.016.559.559,0,0,1-.413-.674l.7-2.9a.559.559,0,0,1,1.087.261l-.7,2.9a.557.557,0,0,1-.543.428m1.393-5.8a.448.448,0,0,1-.131-.016.555.555,0,0,1-.414-.668v-.006l.7-2.9a.56.56,0,0,1,1.089.261l-.7,2.9a.558.558,0,0,1-.543.428m1.392-5.8a.527.527,0,0,1-.131-.016.558.558,0,0,1-.413-.672h0l.7-2.9a.559.559,0,1,1,1.087.262l-.7,2.9a.56.56,0,0,1-.544.43m3.253-3.922a.561.561,0,0,1-.125-1.107l2.9-.674a.56.56,0,1,1,.295,1.08l-.041.01-2.9.674a.555.555,0,0,1-.128.016m5.812-1.35a.559.559,0,0,1-.125-1.1l2.9-.671a.558.558,0,1,1,.271,1.083l-.019,0-2.9.674a.6.6,0,0,1-.127.013m5.812-1.345a.559.559,0,0,1-.125-1.1l2.9-.673a.559.559,0,1,1,.274,1.084l-.022.005-2.9.673a.544.544,0,0,1-.127.015" fill="#fff"/><path d="M272.895,473.312a.547.547,0,0,1-.289-.082.555.555,0,0,1-.19-.762l0-.006,1.55-2.549a.559.559,0,1,1,.955.582l-1.551,2.549a.557.557,0,0,1-.477.268m3.1-5.1a.547.547,0,0,1-.289-.082.559.559,0,0,1-.187-.767h0l1.55-2.549a.559.559,0,1,1,.955.582l-1.55,2.549a.561.561,0,0,1-.479.268m3.1-5.1a.538.538,0,0,1-.289-.082.558.558,0,0,1-.19-.766v0l1.553-2.547a.559.559,0,0,1,.954.582l-1.55,2.547a.558.558,0,0,1-.479.268m23.763-4.844h-2.983a.56.56,0,1,1,0-1.119h2.983a.56.56,0,1,1,0,1.119m-20.666-.246a.547.547,0,0,1-.289-.082.557.557,0,0,1-.188-.766h0l1.55-2.549a.56.56,0,1,1,.981.541c-.008.013-.015.026-.024.039l-1.551,2.549a.556.556,0,0,1-.479.268m14.954-.655a.558.558,0,0,1-.3-.085l-2.532-1.575a.558.558,0,0,1,.561-.965l.027.017,2.534,1.573a.559.559,0,0,1,.18.77h0a.551.551,0,0,1-.473.264m7.165-.934a.56.56,0,0,1-.561-.559.588.588,0,0,1,.009-.1l.5-2.723a.556.556,0,0,1,.549-.458h.216a.559.559,0,0,1,.262,1.053l-.424,2.33a.561.561,0,0,1-.55.459m-12.233-2.215a.576.576,0,0,1-.3-.084l-2.532-1.573a.559.559,0,1,1,.57-.962l.019.012,2.535,1.573a.558.558,0,0,1-.3,1.034m30.841-.509h-2.983a.56.56,0,1,1,0-1.119h2.983a.56.56,0,0,1,0,1.119m-5.966,0h-2.983a.56.56,0,1,1,0-1.119h2.983a.56.56,0,0,1,0,1.119m-5.966,0H308a.56.56,0,1,1,0-1.119h3a.56.56,0,1,1,0,1.119m-25.7-.784a.558.558,0,0,1-.475-.851l1.289-2.119a.559.559,0,0,1,.77-.185l0,0,.427.265a.559.559,0,0,1-.534.98l-1,1.641a.563.563,0,0,1-.479.267m39.764-1.251a.558.558,0,0,1-.4-.953l.45-.452a.569.569,0,0,1,.4-.164h2.343a.559.559,0,0,1,0,1.119h-2.112l-.286.286a.56.56,0,0,1-.4.164m12.474-.45H336.8a.559.559,0,1,1,0-1.119h.47l1.3-1.518a.559.559,0,1,1,.849.728l-1.469,1.714a.563.563,0,0,1-.424.2m-3.712,0h-2.983a.559.559,0,1,1,0-1.119h2.983a.559.559,0,1,1,0,1.119m7.12-3.976a.559.559,0,0,1-.422-.925l1.942-2.264a.559.559,0,1,1,.849.728l-1.942,2.266a.559.559,0,0,1-.427.2m3.885-4.529a.56.56,0,0,1-.426-.923l.031-.033v-2.526a.559.559,0,1,1,1.119,0v2.722a.571.571,0,0,1-.134.364l-.164.191a.56.56,0,0,1-.425.194m-.309-5.737a.555.555,0,0,1-.431-.206l-1.885-2.306a.559.559,0,0,1,.838-.741l.027.034,1.89,2.306a.56.56,0,0,1-.434.914m-3.776-4.616a.555.555,0,0,1-.434-.206l-1.89-2.307a.559.559,0,0,1,.852-.724l.013.016,1.89,2.309a.557.557,0,0,1-.077.785h0a.543.543,0,0,1-.353.127m-3.779-4.617a.563.563,0,0,1-.434-.2l-1.888-2.307a.559.559,0,1,1,.852-.724l.013.016,1.89,2.307a.559.559,0,0,1-.079.786.543.543,0,0,1-.353.127m-3.781-4.614a.555.555,0,0,1-.431-.206l-1.89-2.309a.559.559,0,0,1,.865-.708l1.89,2.309a.56.56,0,0,1-.434.914m-2.623-4.74a.576.576,0,0,1-.254-.061.562.562,0,0,1-.242-.755l1.363-2.652a.559.559,0,0,1,1.012.475c-.006.013-.012.025-.019.037l-1.362,2.653a.558.558,0,0,1-.5.3m2.729-5.307a.575.575,0,0,1-.257-.061.562.562,0,0,1-.234-.759v0l1.363-2.652a.562.562,0,1,1,1,.513l-1.363,2.652a.561.561,0,0,1-.5.3m2.726-5.3a.558.558,0,0,1-.5-.816l.34-.667-1-1a.56.56,0,0,1,.793-.791l1.289,1.293a.56.56,0,0,1,.1.65l-.529,1.029a.563.563,0,0,1-.5.3m-11.747-2.411a.56.56,0,0,1-.106-1.11l2.929-.567a.554.554,0,0,1,.653.432l0,.009a.56.56,0,0,1-.443.656l-2.928.568a.545.545,0,0,1-.107.01m-2.6-.3a.551.551,0,0,1-.441-.216l-1.828-2.357a.559.559,0,1,1,.884-.685l1.828,2.356a.559.559,0,0,1-.443.9m8.459-.837a.559.559,0,0,1-.106-1.108l2.929-.568a.56.56,0,1,1,.212,1.1l-2.929.568a.535.535,0,0,1-.106.01m-12.115-3.876a.557.557,0,0,1-.443-.216l-1.828-2.358a.56.56,0,0,1,.878-.7l.008.011,1.827,2.358a.557.557,0,0,1-.1.782h0a.544.544,0,0,1-.342.118m-3.657-4.714a.56.56,0,0,1-.441-.216l-1.828-2.358a.559.559,0,0,1,.884-.685l1.828,2.358a.559.559,0,0,1-.443.9m-4.379-3.39h-.048l-2.972-.263a.56.56,0,0,1-.509-.607.569.569,0,0,1,.607-.509l2.971.263a.56.56,0,0,1-.049,1.117m-5.942-.525h-.049l-2.972-.263a.56.56,0,0,1,.1-1.116l2.974.262a.56.56,0,0,1-.051,1.117m-5.943-.525h-.049l-2.969-.263a.558.558,0,0,1-.509-.605v0a.548.548,0,0,1,.583-.511l.022,0,2.969.261a.56.56,0,0,1-.048,1.117m-5.94-.523H292.1l-2.969-.263a.558.558,0,0,1-.509-.6v0a.551.551,0,0,1,.589-.51h.016l2.972.262a.56.56,0,0,1-.048,1.117m-5.943-.526h-.051l-2.514-.221a.561.561,0,0,1-.382-.2l-.292-.353a.559.559,0,0,1,.864-.711l.142.174,2.282.2a.56.56,0,0,1-.048,1.117m-4.7-2.877a.563.563,0,0,1-.434-.2l-1.894-2.3a.559.559,0,0,1,.862-.711l1.9,2.3a.561.561,0,0,1-.078.787.555.555,0,0,1-.353.128m-3.793-4.606a.563.563,0,0,1-.434-.2l-1.894-2.3a.558.558,0,0,1,.862-.71l1.9,2.3a.56.56,0,0,1-.431.914m-3.793-4.6a.563.563,0,0,1-.434-.2l-1.894-2.3a.558.558,0,0,1,.862-.71l1.9,2.3a.556.556,0,0,1-.076.784l0,0a.549.549,0,0,1-.353.128m-3.793-4.606a.563.563,0,0,1-.434-.2l-1.894-2.3a.558.558,0,1,1,.862-.71l1.9,2.3a.559.559,0,0,1-.079.786.549.549,0,0,1-.353.128" fill="#fff"/><path d="M329.074,404.431a.559.559,0,0,1-.56-.558.564.564,0,0,1,.066-.264l1.4-2.634a.559.559,0,1,1,1.009.482c-.007.014-.014.028-.022.041l-1.4,2.635a.557.557,0,0,1-.494.3m2.8-5.268a.553.553,0,0,1-.261-.066.56.56,0,0,1-.233-.756l1.4-2.634a.559.559,0,0,1,.989.523l-1.4,2.635a.558.558,0,0,1-.5.3m2.8-5.269a.548.548,0,0,1-.262-.066.559.559,0,0,1-.231-.756l1.4-2.634a.559.559,0,0,1,.987.525l-1.4,2.632a.557.557,0,0,1-.494.3m2.8-5.269a.539.539,0,0,1-.261-.064.559.559,0,0,1-.231-.756l1.4-2.635a.56.56,0,0,1,.989.525l-1.4,2.634a.558.558,0,0,1-.5.3m2.8-5.269A.53.53,0,0,1,340,383.3a.559.559,0,0,1-.233-.755h0l1.4-2.632a.559.559,0,0,1,.987.523l-1.4,2.634a.555.555,0,0,1-.494.3m1.582-5.223a.554.554,0,0,1-.473-.26l-1.593-2.522a.56.56,0,1,1,.946-.6l1.591,2.521a.557.557,0,0,1-.168.77.549.549,0,0,1-.3.088M338.66,373.1a.557.557,0,0,1-.474-.26l-1.135-1.8a.561.561,0,0,1,.055-.671l.57-.638a.559.559,0,0,1,.852.724.153.153,0,0,1-.017.019l-.289.324.91,1.442a.557.557,0,0,1-.471.858m25.441-4.47a.559.559,0,0,1-.436-.91l1.869-2.325a.559.559,0,0,1,.871.7l-1.869,2.325a.553.553,0,0,1-.435.207m-24.022-.192a.559.559,0,0,1-.418-.931l1.985-2.228a.558.558,0,0,1,.834.743l-1.984,2.228a.553.553,0,0,1-.418.188m22.966-1.332a.557.557,0,0,1-.54-.415l-.77-2.883a.559.559,0,0,1,1.081-.288l.77,2.881a.56.56,0,0,1-.4.685h0a.507.507,0,0,1-.145.019m-19-3.123a.548.548,0,0,1-.371-.142.561.561,0,0,1-.046-.79l1.985-2.225a.56.56,0,0,1,.853.727l-.018.019-1.985,2.225a.555.555,0,0,1-.418.186m23.791,0a.559.559,0,0,1-.435-.91l1.869-2.325a.56.56,0,0,1,.872.7l-1.869,2.325a.565.565,0,0,1-.437.207m-6.331-2.637a.561.561,0,0,1-.54-.416l-.186-.7-1.508-.225a.56.56,0,0,1,.164-1.107l1.872.279a.556.556,0,0,1,.458.409l.282,1.055a.56.56,0,0,1-.4.685.545.545,0,0,1-.145.019m-5.1-1.773a.594.594,0,0,1-.084-.006l-2.95-.438a.56.56,0,0,1,.164-1.107l2.95.438a.559.559,0,0,1-.081,1.113m-8.389-.039a.558.558,0,0,1-.418-.931l.952-1.068a.553.553,0,0,1,.5-.182l1.536.228a.561.561,0,0,1,.471.637.567.567,0,0,1-.637.47l-1.238-.185-.75.843a.549.549,0,0,1-.416.188m23.56-.2a.552.552,0,0,1-.35-.124.559.559,0,0,1-.087-.786L373,356.087a.56.56,0,0,1,.872.7L372,359.111a.558.558,0,0,1-.435.209m3.736-4.649a.561.561,0,0,1-.436-.91l1.869-2.327a.56.56,0,0,1,.912.651c-.013.017-.026.033-.04.049l-1.869,2.325a.561.561,0,0,1-.437.209m72.375-2.428a.557.557,0,0,1-.091-.007l-2.862-.465a.561.561,0,0,1-.462-.643.567.567,0,0,1,.641-.462l2.862.467a.559.559,0,0,1-.088,1.111m-5.806-.946a.557.557,0,0,1-.091-.007l-2.944-.48a.559.559,0,0,1,.094-1.114.5.5,0,0,1,.086.014l2.944.48a.559.559,0,0,1-.089,1.111m-5.888-.959a.557.557,0,0,1-.091-.007l-2.943-.48a.556.556,0,0,1-.462-.638v0a.565.565,0,0,1,.641-.462l2.944.479a.56.56,0,0,1-.089,1.113m-56.942-.318a.561.561,0,0,1-.437-.911l1.542-1.918a.612.612,0,0,1,.163-.137l.455-.254a.559.559,0,1,1,.557.969l-.01.006-.359.2-1.475,1.833a.559.559,0,0,1-.436.209m51.169-1.083a.582.582,0,0,1-.194-.034l-2.8-1.035a.559.559,0,0,1,.388-1.048l2.8,1.035a.559.559,0,0,1-.194,1.083M394.3,347.67a.56.56,0,0,1-.207-1.08l2.77-1.108a.56.56,0,0,1,.415,1.039l-2.77,1.108a.565.565,0,0,1-.207.04m13.567-.45a.559.559,0,0,1-.262-.066l-2.632-1.4a.56.56,0,0,1,.528-.987l2.631,1.4a.559.559,0,0,1-.264,1.053m2.747-.21a.559.559,0,0,1-.191-1.084l2.8-1.02a.559.559,0,1,1,.382,1.051l-2.8,1.02a.565.565,0,0,1-.191.033m14-.139a.558.558,0,0,1-.194-.034l-2.8-1.034a.559.559,0,1,1,.386-1.05l2.8,1.035a.559.559,0,0,1-.194,1.083m-33.018-.431a.541.541,0,0,1-.237-.054l-2.7-1.269a.559.559,0,1,1,.461-1.018l.016.007,2.7,1.269a.559.559,0,0,1-.239,1.065m-7.958-.055a.559.559,0,0,1-.274-1.047l2.6-1.462a.56.56,0,0,1,.55.975l-2.6,1.462a.554.554,0,0,1-.273.072m16.2-.931a.559.559,0,0,1-.207-1.078l2.7-1.08a.563.563,0,0,1,.468.025.592.592,0,0,1,.268.773.572.572,0,0,1-.5.313l-2.516,1.008a.608.608,0,0,1-.207.039m16.382-.483a.56.56,0,0,1-.191-1.086l1.641-.6a.566.566,0,0,1,.385,0l1.16.428a.559.559,0,0,1-.337,1.066.411.411,0,0,1-.049-.018l-.969-.356-1.448.526a.564.564,0,0,1-.191.033" fill="#fff"/><path d="M870.125,446.809a.563.563,0,0,1-.31-.1l-2.479-1.657a.559.559,0,1,1,.622-.929l2.479,1.657a.56.56,0,0,1-.312,1.025m-4.959-3.317a.557.557,0,0,1-.309-.094l-2.482-1.658a.559.559,0,1,1,.622-.929l2.48,1.658a.559.559,0,0,1-.312,1.023m-4.959-3.314a.563.563,0,0,1-.31-.1l-2.48-1.657a.559.559,0,1,1,.622-.929l2.48,1.657a.56.56,0,0,1-.312,1.025m-4.96-3.317a.557.557,0,0,1-.309-.1l-2.482-1.657a.559.559,0,1,1,.622-.929l2.48,1.657a.56.56,0,0,1-.312,1.025m-75.838-.1a.565.565,0,0,1-.215-.043c-.516-.215-1.475-.62-2.759-1.193a.56.56,0,1,1,.456-1.023c1.272.568,2.221.969,2.734,1.183a.56.56,0,0,1-.216,1.077m2.887-.4a.559.559,0,0,1-.127-1.1l2.9-.679a.559.559,0,0,1,.255,1.089l-2.905.679a.544.544,0,0,1-.127.015M788.1,435a.559.559,0,0,1-.127-1.1l2.9-.679a.559.559,0,0,1,.255,1.089l-2.9.678a.552.552,0,0,1-.128.015m-14.159-.683a.57.57,0,0,1-.237-.054c-.837-.4-1.742-.834-2.7-1.308a.56.56,0,0,1,.5-1c.948.471,1.846.9,2.677,1.3a.559.559,0,0,1-.24,1.065m19.969-.674a.56.56,0,0,1-.127-1.105l2.9-.678a.56.56,0,0,1,.255,1.09l-2.9.679a.552.552,0,0,1-.128.015m56.374-.1a.562.562,0,0,1-.31-.094l-2.48-1.657a.56.56,0,0,1,.622-.931l2.48,1.658a.559.559,0,0,1-.312,1.023m-50.565-1.254a.56.56,0,0,1-.127-1.1l2.9-.679a.56.56,0,0,1,.255,1.09l-2.9.679a.554.554,0,0,1-.128.015m-31.127-.628a.551.551,0,0,1-.258-.064q-1.289-.674-2.643-1.418a.558.558,0,1,1,.538-.978c.895.491,1.772.96,2.622,1.406a.559.559,0,0,1-.26,1.054m36.936-.731a.559.559,0,0,1-.127-1.1l2.9-.678a.56.56,0,0,1,.289,1.082l-.034.008-2.9.679a.612.612,0,0,1-.128.014m39.8-.7a.563.563,0,0,1-.31-.1l-2.48-1.657a.559.559,0,1,1,.622-.929l2.48,1.657a.56.56,0,0,1-.312,1.025m-33.988-.655a.559.559,0,0,1-.127-1.1l2.9-.679a.559.559,0,0,1,.255,1.089l-2.9.679a.552.552,0,0,1-.128.015m-47.977-.8a.563.563,0,0,1-.28-.076c-.853-.5-1.714-1.01-2.574-1.539a.559.559,0,1,1,.585-.953q1.283.787,2.552,1.526a.559.559,0,0,1-.282,1.043m53.786-.562a.559.559,0,0,1-.127-1.1l2.9-.679a.559.559,0,0,1,.255,1.089l-2.9.679a.571.571,0,0,1-.13.015m23.22-1.3a.544.544,0,0,1-.31-.094l-2.479-1.658a.559.559,0,1,1,.579-.956.363.363,0,0,1,.041.027l2.479,1.657a.559.559,0,0,1-.31,1.025m-17.411-.054a.559.559,0,0,1-.125-1.1l1.087-.255,1.348-.947a.559.559,0,0,1,.643.914l-1.436,1.01a.578.578,0,0,1-.194.088l-1.2.279a.554.554,0,0,1-.128.015m-64.68-1.217a.546.546,0,0,1-.306-.091c-.835-.549-1.666-1.114-2.485-1.691a.56.56,0,0,1,.646-.914c.808.571,1.629,1.128,2.453,1.67a.559.559,0,0,1-.309,1.026m69.755-1.788a.559.559,0,0,1-.324-1.016l2.44-1.715a.559.559,0,0,1,.643.914l-2.44,1.715a.561.561,0,0,1-.319.1m7.375-.258a.562.562,0,0,1-.31-.094l-2.479-1.657a.559.559,0,1,1,.622-.929l2.479,1.657a.559.559,0,0,1-.312,1.023m-82.005-1.4a.553.553,0,0,1-.339-.115q-1.206-.924-2.349-1.885a.56.56,0,0,1,.722-.856q1.121.947,2.307,1.852a.56.56,0,0,1-.342,1m-4.555-3.855a.559.559,0,0,1-.385-.154c-.759-.717-1.474-1.441-2.125-2.151a.56.56,0,0,1,.825-.758c.634.692,1.329,1.4,2.07,2.1a.559.559,0,0,1-.385.965m-4.521-3.356h-2.983a.559.559,0,1,1,0-1.119h2.992a.559.559,0,1,1,0,1.119m-5.966,0h-.522a.559.559,0,1,1,0-1.119h.522a.559.559,0,1,1,0,1.119" fill="#fff"/><path d="M323.453,554.488H320.58a.559.559,0,0,1,0-1.119h2.647a.536.536,0,0,1,.724.23.524.524,0,0,1,.059.216.667.667,0,0,1-.559.673m-5.854,0h-2.983a.559.559,0,0,1,0-1.119H317.6a.559.559,0,1,1,0,1.119m5.854-3.1a.559.559,0,0,1-.559-.559v-2.983a.559.559,0,1,1,1.119,0v2.983a.559.559,0,0,1-.559.559m0-5.966a.559.559,0,0,1-.559-.559v-2.975a.559.559,0,1,1,1.119,0v2.983a.559.559,0,0,1-.559.559m103.817-1.987h-1.922a.56.56,0,0,1,0-1.119h1.775l.79-.45a.559.559,0,1,1,.593.947l-.037.022-.922.527a.549.549,0,0,1-.277.073m-4.9,0h-2.276a.56.56,0,0,1-.31-.092l-.589-.392a.56.56,0,0,1,.62-.932l.447.3h2.107a.559.559,0,1,1,0,1.119m8.416-2a.559.559,0,0,1-.277-1.044l2.591-1.481a.559.559,0,1,1,.555.971l-2.591,1.479a.548.548,0,0,1-.277.075m-13.763-.042a.569.569,0,0,1-.31-.093l-2.482-1.654a.56.56,0,0,1,.62-.932l2.482,1.655a.559.559,0,0,1-.31,1.023m-93.348-1.866a.564.564,0,0,1-.461-.877l1.679-2.464a.559.559,0,1,1,.925.629l-1.679,2.464a.556.556,0,0,1-.464.245m66.153-.562a.534.534,0,0,1-.173-.027l-2.837-.925a.559.559,0,0,1,.348-1.063l2.835.925a.559.559,0,0,1-.173,1.09m46.137-.491a.558.558,0,0,1-.277-1.044l2.589-1.479a.558.558,0,1,1,.555.969l-2.589,1.481a.56.56,0,0,1-.277.073m-43.254-.163a.559.559,0,0,1-.143-1.1l2.886-.756a.558.558,0,1,1,.283,1.08l-2.884.756a.523.523,0,0,1-.142.019m19.348-.227a.562.562,0,0,1-.31-.094l-2.482-1.654a.559.559,0,0,1,.62-.931l2.482,1.654a.559.559,0,0,1-.31,1.025m-27.9-.969a.594.594,0,0,1-.173-.027l-2.835-.926a.559.559,0,1,1,.331-1.068l.015.005,2.837.926a.559.559,0,0,1-.174,1.09m14.324-.319a.559.559,0,0,1-.142-1.1l2.886-.756a.559.559,0,0,1,.318,1.072l-.035.009-2.884.756a.579.579,0,0,1-.143.018m42.666-1.283a.559.559,0,0,1-.279-1.044l1.5-.859.676-.807a.56.56,0,0,1,.858.719l-.74.883a.573.573,0,0,1-.152.125l-1.59.908a.545.545,0,0,1-.276.075m-36.9-.23a.559.559,0,0,1-.142-1.1l2.591-.679a.556.556,0,0,1,.452.075l.254.17a.559.559,0,1,1-.62.931l-.045-.03-2.347.614a.523.523,0,0,1-.142.019m-25.769-.02a.536.536,0,0,1-.173-.028l-2.016-.658a.55.55,0,0,1-.254-.17l-.558-.659a.56.56,0,1,1,.855-.722l.453.537,1.866.61a.559.559,0,0,1-.173,1.09m-51.449-.665a.562.562,0,0,1-.462-.874l1.681-2.465a.559.559,0,0,1,.925.629l-1.681,2.465a.559.559,0,0,1-.462.245m46.947-2.926a.555.555,0,0,1-.427-.2l-1.927-2.276a.559.559,0,0,1,.853-.723l1.928,2.277a.559.559,0,0,1-.428.92m71.407-.234a.552.552,0,0,1-.358-.131.561.561,0,0,1-.07-.789l1.915-2.286a.561.561,0,0,1,.859.72l-1.916,2.286a.562.562,0,0,1-.43.2m-114.994-1.769a.558.558,0,0,1-.461-.874l1.681-2.464a.559.559,0,1,1,.95.589.346.346,0,0,1-.027.04l-1.681,2.464a.559.559,0,0,1-.462.245m39.731-2.549a.559.559,0,0,1-.427-.2l-1.928-2.276a.559.559,0,0,1,.853-.723l1.928,2.277a.557.557,0,0,1-.064.786l0,0a.553.553,0,0,1-.361.133m79.1-.255a.555.555,0,0,1-.359-.131.561.561,0,0,1-.069-.787l.453-.54-.691-1.381a.56.56,0,1,1,.971-.559.459.459,0,0,1,.029.059l.853,1.709a.561.561,0,0,1-.072.612l-.689.82a.556.556,0,0,1-.428.2m-115.467-2.125a.558.558,0,0,1-.461-.874l1.681-2.465a.559.559,0,0,1,.925.629l-1.681,2.465a.561.561,0,0,1-.464.245m32.516-2.173a.564.564,0,0,1-.428-.2l-1.928-2.274a.56.56,0,1,1,.855-.722l1.928,2.274a.559.559,0,0,1-.427.92m81.454-.9a.563.563,0,0,1-.5-.309l-1.333-2.668a.56.56,0,0,1,.971-.56.654.654,0,0,1,.029.06l1.333,2.668a.558.558,0,0,1-.249.749h0a.551.551,0,0,1-.249.06m-109.735-.653a.559.559,0,0,1-.155-1.1l2.864-.834a.56.56,0,0,1,.312,1.075l-2.864.834a.639.639,0,0,1-.157.021m5.729-1.664a.559.559,0,0,1-.157-1.1l2.863-.834a.56.56,0,0,1,.313,1.075l-2.864.832a.6.6,0,0,1-.157.022m18.7-1.332a.561.561,0,0,1-.428-.2l-1.927-2.277a.559.559,0,1,1,.832-.747l.021.025,1.928,2.276a.56.56,0,0,1-.427.922m-12.969-.323a.559.559,0,0,1-.155-1.1l2.864-.832a.56.56,0,1,1,.348,1.064l-.036.011-2.864.831a.556.556,0,0,1-.157.022m98.421-1.2a.558.558,0,0,1-.468-.864l1.627-2.5a.559.559,0,1,1,.938.609l-1.627,2.5a.555.555,0,0,1-.47.255m-92.693-.47a.56.56,0,0,1-.155-1.1l2.863-.831a.559.559,0,1,1,.312,1.074l-2.863.832a.558.558,0,0,1-.157.022m93.967-4.753a.56.56,0,0,1-.523-.365l-1.034-2.8a.56.56,0,0,1,1.05-.388l1.032,2.8a.558.558,0,0,1-.328.718h0a.583.583,0,0,1-.194.034m-.521-5.441a.56.56,0,0,1-.475-.854l1.566-2.54a.56.56,0,0,1,.953.588l-1.566,2.54a.559.559,0,0,1-.477.267m3.13-5.08a.558.558,0,0,1-.474-.853l1.565-2.538a.56.56,0,0,1,.953.589l-1.566,2.538a.562.562,0,0,1-.477.264m.413-4.831a.558.558,0,0,1-.415-.185l-2-2.215a.559.559,0,0,1,.8-.779.193.193,0,0,1,.027.03l2,2.215a.559.559,0,0,1-.416.934m-4-4.429a.55.55,0,0,1-.415-.186l-2-2.213a.559.559,0,0,1,.831-.749l2,2.215a.559.559,0,0,1-.415.934m-4-4.43a.558.558,0,0,1-.415-.185l-2-2.216a.559.559,0,0,1,.829-.749l2,2.216a.561.561,0,0,1-.416.934m-3.994-4.431a.56.56,0,0,1-.416-.185l-2-2.215a.559.559,0,0,1,.831-.749l2,2.215a.559.559,0,0,1-.415.934m-1.107-4.628a.563.563,0,0,1-.462-.874l1.678-2.467a.559.559,0,0,1,.925.629l-1.676,2.467a.562.562,0,0,1-.464.245m3.354-4.953a.527.527,0,0,1-.3-.091.574.574,0,0,1-.24-.342c-.169-.309-.647-1.168-1.409-2.394a.561.561,0,1,1,.952-.592c.981,1.584,1.494,2.547,1.515,2.588a.561.561,0,0,1-.031.574.587.587,0,0,1-.485.256m-3.1-5.069a.561.561,0,0,1-.464-.246c-.509-.753-1.078-1.567-1.708-2.424a.559.559,0,0,1,.876-.7.4.4,0,0,1,.024.033c.638.868,1.217,1.694,1.733,2.459a.559.559,0,0,1-.153.777.565.565,0,0,1-.309.1m-3.529-4.816a.563.563,0,0,1-.44-.212c-.591-.747-1.22-1.512-1.884-2.288a.56.56,0,0,1,.837-.745l.013.016q1.011,1.184,1.911,2.324a.559.559,0,0,1-.437.9m-3.888-4.531a.564.564,0,0,1-.41-.177q-.988-1.063-2.064-2.119a.56.56,0,1,1,.783-.8c.728.714,1.429,1.435,2.1,2.154a.557.557,0,0,1-.409.941m-4.262-4.179a.57.57,0,0,1-.373-.14q-1.092-.975-2.257-1.906a.56.56,0,0,1,.7-.874c.793.631,1.56,1.283,2.3,1.943a.559.559,0,0,1-.371.977m-4.667-3.717a.569.569,0,0,1-.321-.1c-.813-.574-1.641-1.12-2.459-1.623a.559.559,0,0,1,.585-.953c.84.515,1.688,1.074,2.519,1.661a.559.559,0,0,1-.324,1.016m-5.083-3.111a.551.551,0,0,1-.257-.063q-.816-.421-1.655-.807a.557.557,0,0,1-.327-.547l.079-1.109a.57.57,0,0,1,.6-.519.56.56,0,0,1,.519.6l-.052.725q.686.322,1.353.667a.56.56,0,0,1-.258,1.056m-1.386-4.9h-.042a.558.558,0,0,1-.518-.6v-.005l.213-2.975a.565.565,0,0,1,.6-.519.558.558,0,0,1,.519.6v.005l-.213,2.975a.557.557,0,0,1-.556.519m11.517-3.648h-2.983a.559.559,0,0,1,0-1.119h2.983a.559.559,0,1,1,0,1.119m-5.966,0H419.08a.559.559,0,0,1,0-1.119h2.983a.559.559,0,1,1,0,1.119m8.419-.88a.559.559,0,0,1-.559-.558.552.552,0,0,1,.065-.264c.336-.631.84-1.558,1.463-2.628a.559.559,0,1,1,.981.536.172.172,0,0,1-.015.026c-.615,1.056-1.111,1.967-1.441,2.591a.562.562,0,0,1-.5.3m3.008-5.16a.558.558,0,0,1-.47-.86c.534-.834,1.107-1.681,1.7-2.5a.56.56,0,0,1,.947.6.506.506,0,0,1-.047.064c-.582.795-1.141,1.624-1.663,2.437a.557.557,0,0,1-.471.258m3.551-4.8a.559.559,0,0,1-.416-.934c.245-.271.489-.532.735-.777a16.4,16.4,0,0,0,1.227-1.421.56.56,0,0,1,.881.691,17.163,17.163,0,0,1-1.318,1.521c-.23.231-.462.477-.7.735a.555.555,0,0,1-.415.185m3.736-4.652a.558.558,0,0,1-.462-.874c.528-.777,1.075-1.617,1.626-2.486a.56.56,0,1,1,.945.6c-.558.881-1.111,1.729-1.646,2.518a.556.556,0,0,1-.462.245m3.207-5.044a.558.558,0,0,1-.477-.849c.519-.859,1.031-1.721,1.521-2.564a.56.56,0,0,1,.966.565c-.494.846-1.008,1.714-1.532,2.579a.556.556,0,0,1-.479.268m3.019-5.16a.557.557,0,0,1-.559-.555.551.551,0,0,1,.074-.28c.546-.962,1.041-1.843,1.462-2.6a.559.559,0,0,1,.992.517l-.014.024c-.422.761-.919,1.648-1.469,2.613a.56.56,0,0,1-.486.282m2.9-5.233a.566.566,0,0,1-.473-.26l-1.6-2.521a.56.56,0,0,1,.946-.6l1.6,2.519a.559.559,0,0,1-.173.772h0a.548.548,0,0,1-.3.088m-3.195-5.038a.566.566,0,0,1-.473-.26l-1.6-2.52a.56.56,0,1,1,.946-.6l1.6,2.521a.559.559,0,0,1-.174.771.548.548,0,0,1-.3.088m-3.2-5.038a.563.563,0,0,1-.474-.26l-.783-1.235a.562.562,0,0,1-.03-.543l.662-1.369a.558.558,0,1,1,1.005.486l-.526,1.089.617.972a.557.557,0,0,1-.171.77h0a.557.557,0,0,1-.3.088m1.177-5.29a.558.558,0,0,1-.5-.8l1.3-2.685a.559.559,0,1,1,1.007.486l-1.3,2.685a.56.56,0,0,1-.5.316m2.6-5.371a.568.568,0,0,1-.243-.055.56.56,0,0,1-.259-.747l1.3-2.685a.559.559,0,0,1,1.024.45l-.019.038-1.3,2.683a.557.557,0,0,1-.5.316m2.6-5.369a.568.568,0,0,1-.243-.055.562.562,0,0,1-.259-.747l1.3-2.686a.559.559,0,1,1,1.007.486l-1.3,2.686a.559.559,0,0,1-.5.316m271.836-.817a.56.56,0,0,1-.337-1.007l2.385-1.793a.56.56,0,0,1,.673.895l-2.385,1.793a.572.572,0,0,1-.336.112m4.759-3.585a.56.56,0,0,1-.337-1.007l2.383-1.793a.56.56,0,1,1,.715.862c-.013.011-.027.021-.041.031l-2.385,1.793a.555.555,0,0,1-.336.113m-274-.967a.56.56,0,0,1-.5-.8l1.3-2.686a.559.559,0,1,1,1.007.486l-1.3,2.686a.557.557,0,0,1-.5.316m278.774-2.619a.558.558,0,0,1-.337-1.005l2.385-1.793a.559.559,0,0,1,.671.895l-2.385,1.791a.55.55,0,0,1-.334.112M455.085,371.3a.566.566,0,0,1-.543-.71l-1.016-2.368a.56.56,0,0,1,1.029-.44l1.111,2.592a.557.557,0,0,1-.01.464l-.072.148a.565.565,0,0,1-.5.315m279.8-1.678a.561.561,0,0,1-.557-.565.573.573,0,0,1,.034-.188l1.036-2.8a.559.559,0,1,1,1.06.356l-.012.032-1.036,2.8a.56.56,0,0,1-.525.365m-282.026-3.8a.561.561,0,0,1-.515-.34l-1.175-2.741a.56.56,0,0,1,1.029-.44l1.175,2.741a.562.562,0,0,1-.294.735.6.6,0,0,1-.221.045m284.1-1.788a.561.561,0,0,1-.557-.565.573.573,0,0,1,.034-.188l.434-1.171a.563.563,0,0,1,.41-.355l1.7-.353a.559.559,0,1,1,.23,1.1l-1.4.292-.327.878a.56.56,0,0,1-.525.367M742,361.9a.559.559,0,0,1-.113-1.107l2.919-.61a.559.559,0,1,1,.23,1.1l-2.92.61a.738.738,0,0,1-.115.012m-291.5-1.558a.558.558,0,0,1-.513-.34l-1.175-2.741a.559.559,0,1,1,1.028-.44l1.175,2.743a.559.559,0,0,1-.294.734.6.6,0,0,1-.221.045m296.347-1.21a.558.558,0,0,1-.452-.889l1.761-2.407a.56.56,0,0,1,.951.591.5.5,0,0,1-.051.07L747.3,358.9a.558.558,0,0,1-.452.228m-298.7-4.274a.561.561,0,0,1-.513-.339l-.468-1.092a.558.558,0,0,1,.069-.559l1.087-1.429a.56.56,0,0,1,.89.679l-.89,1.169.34.792a.558.558,0,0,1-.292.733h0a.578.578,0,0,1-.221.045m302.22-.54a.559.559,0,0,1-.451-.89l1.761-2.406a.559.559,0,0,1,.9.661l-1.761,2.407a.563.563,0,0,1-.452.228m-299.8-4.353a.558.558,0,0,1-.444-.9l1.823-2.378a.558.558,0,1,1,.889.676l-1.8,2.374a.561.561,0,0,1-.446.221m303.5-.181a.559.559,0,0,1-.121-1.105l2.91-.653a.56.56,0,0,1,.245,1.093l-2.91.652a.576.576,0,0,1-.124.013m5.821-1.306a.559.559,0,0,1-.121-1.1l2.91-.655a.567.567,0,0,1,.668.424.561.561,0,0,1-.424.67l-2.91.653a.645.645,0,0,1-.124.013m5.821-1.308a.559.559,0,0,1-.122-1.105l2.911-.653a.56.56,0,1,1,.245,1.093l-2.911.652a.555.555,0,0,1-.122.013m5.821-1.306a.56.56,0,0,1-.122-1.105l2.911-.655a.56.56,0,0,1,.245,1.093l-2.911.653a.555.555,0,0,1-.122.013M454.2,345.21a.568.568,0,0,1-.339-.113.559.559,0,0,1-.107-.782h0l1.806-2.374a.559.559,0,1,1,.911.649c-.007.009-.014.019-.022.028l-1.806,2.373a.549.549,0,0,1-.444.221m323.173-.661a.559.559,0,0,1-.122-1.1l.665-.149c.2-.2.656-.7,1.274-1.447a.559.559,0,1,1,.864.711c-1.323,1.608-1.576,1.806-1.811,1.809l-.747.167a.625.625,0,0,1-.122.013M457.81,340.463a.572.572,0,0,1-.337-.113.558.558,0,0,1-.106-.783h0l1.806-2.376a.56.56,0,0,1,.914.647.4.4,0,0,1-.025.033l-1.806,2.373a.554.554,0,0,1-.446.221m323.607-.086a.555.555,0,0,1-.318-.1.562.562,0,0,1-.143-.778c.567-.82,1.09-1.657,1.559-2.486a.559.559,0,0,1,.974.55c-.485.859-1.026,1.724-1.611,2.571a.558.558,0,0,1-.461.242m-319.995-4.662a.558.558,0,0,1-.443-.9l1-1.327-.224-.7a.56.56,0,0,1,1.066-.34l.312.977a.562.562,0,0,1-.088.51l-1.186,1.557a.562.562,0,0,1-.446.219m322.915-.529a.544.544,0,0,1-.224-.048.56.56,0,0,1-.288-.737,23.763,23.763,0,0,0,1.007-2.735.559.559,0,0,1,1.071.321,24.548,24.548,0,0,1-1.053,2.864.558.558,0,0,1-.513.336M461.38,330.341a.564.564,0,0,1-.534-.389l-.719-2.257a.559.559,0,0,1,.225-.637l.515-.339a.559.559,0,1,1,.614.935l-.16.1.591,1.851a.56.56,0,0,1-.362.7.575.575,0,0,1-.17.027M786,329.465a.558.558,0,0,1-.56-.556.631.631,0,0,1,.005-.075,18.232,18.232,0,0,0,.128-2.276c0-.2,0-.409-.007-.617a.56.56,0,1,1,1.119-.025c.006.216.007.431.007.643a19.367,19.367,0,0,1-.137,2.419.561.561,0,0,1-.555.488M463.668,326.1a.559.559,0,0,1-.307-1.028l2.494-1.636a.559.559,0,1,1,.614.935l-2.5,1.636a.553.553,0,0,1-.306.092m322.26-2.592a.561.561,0,0,1-.556-.5c-.1-.955-.227-1.937-.379-2.934a.56.56,0,0,1,1.1-.195l0,.027c.155,1.013.286,2.016.385,2.987a.561.561,0,0,1-.5.614h-.057m-317.533-.821a.559.559,0,0,1-.559-.559v-2.983a.56.56,0,1,1,1.119,0v2.983a.559.559,0,0,1-.559.559m316.651-5.08a.562.562,0,0,1-.549-.455c-.186-.981-.388-1.957-.6-2.91a.559.559,0,0,1,1.088-.258l0,.019c.212.962.415,1.948.6,2.938a.56.56,0,0,1-.444.655.535.535,0,0,1-.106.01m-316.651-.886a.559.559,0,0,1-.559-.559v-2.974a.559.559,0,1,1,1.119,0v2.983a.559.559,0,0,1-.559.559m315.379-4.952a.56.56,0,0,1-.543-.426c-.249-1.023-.5-1.994-.731-2.884a.557.557,0,0,1,.4-.682h0a.551.551,0,0,1,.679.383l0,.017c.237.9.486,1.876.737,2.907a.56.56,0,0,1-.41.676h0a.494.494,0,0,1-.133.015M468.39,310.761a.559.559,0,0,1-.559-.559v-2.983a.56.56,0,1,1,1.119,0V310.2a.559.559,0,0,1-.559.559M782.246,306a.56.56,0,0,1-.538-.406c-.438-1.541-.732-2.479-.734-2.483a.559.559,0,0,1,.086-.5l.231-.31a.561.561,0,0,1,.9.67l-.061.084c.118.388.353,1.168.658,2.237a.559.559,0,0,1-.385.69.572.572,0,0,1-.154.021m-313.855-1.2a.559.559,0,0,1-.559-.559v-1.833a.561.561,0,0,1,.031-.182l.374-1.087a.559.559,0,1,1,1.061.352l0,.012-.345,1v1.739a.559.559,0,0,1-.559.559m315.137-3.992a.559.559,0,0,1-.447-.895l1.79-2.386a.559.559,0,1,1,.9.67l-1.79,2.388a.558.558,0,0,1-.447.224m-313.792-1.749a.626.626,0,0,1-.182-.03.562.562,0,0,1-.348-.711l.971-2.82a.564.564,0,0,1,.711-.346.558.558,0,0,1,.347.709v0l-.971,2.819a.557.557,0,0,1-.528.377m317.37-3.023a.572.572,0,0,1-.336-.112.562.562,0,0,1-.112-.783l.847-1.13-.312-.937a.559.559,0,1,1,1.062-.352l.4,1.215a.555.555,0,0,1-.082.51l-1.022,1.363a.561.561,0,0,1-.449.225m-182.85-.813H603.18a.559.559,0,0,1,0-1.119h.889l1.381-1.031a.56.56,0,1,1,.668.9l-1.53,1.141a.562.562,0,0,1-.334.11m-4.057,0h-2.983a.56.56,0,0,1,0-1.119H600.2a.56.56,0,1,1,0,1.119m-5.764-1a.609.609,0,0,1-.218-.043l-2.749-1.159a.559.559,0,0,1,.432-1.032l2.749,1.157a.559.559,0,0,1-.216,1.075m-122.6-.735a.561.561,0,0,1-.557-.565.571.571,0,0,1,.083-.29l1.575-2.534a.56.56,0,0,1,.95.592l-1.575,2.532a.56.56,0,0,1-.476.264m136.35-1.193a.559.559,0,0,1-.336-1.008l2.391-1.782a.56.56,0,1,1,.668.9l-2.391,1.784a.554.554,0,0,1-.333.11m-19.242-.388a.6.6,0,0,1-.216-.043l-2.749-1.156a.561.561,0,0,1,.434-1.034l2.749,1.157a.559.559,0,0,1-.218,1.074m-86.466-.265a.563.563,0,0,1-.333-.112l-.729-.54a.56.56,0,1,1,.668-.9l.461.343,1.584-.732a.559.559,0,0,1,.468,1.016l-1.885.871a.57.57,0,0,1-.234.052m284.311-1.018a.563.563,0,0,1-.531-.383l-.307-.925a.553.553,0,0,1-.028-.176V287.13a.56.56,0,1,1,1.119,0v1.918l.279.84a.557.557,0,0,1-.353.7h0a.524.524,0,0,1-.176.03m-203.343-1.035a.562.562,0,0,1-.218-.043l-1.053-.444a.56.56,0,0,1-.343-.515v-1.84a.56.56,0,1,1,1.119,0v1.469l.711.3a.559.559,0,0,1-.216,1.074m-76.375-.072a.56.56,0,0,1-.234-1.068l2.707-1.251a.56.56,0,1,1,.5,1l-.03.014-2.707,1.25a.555.555,0,0,1-.234.052m-7.717-.2a.563.563,0,0,1-.333-.11l-2.4-1.779a.56.56,0,1,1,.668-.9l2.394,1.778a.559.559,0,0,1-.334,1.008m113.613-.594a.558.558,0,0,1-.334-1.007l2.391-1.784a.56.56,0,0,1,.668.9l-2.391,1.782a.564.564,0,0,1-.334.11m-137.974-.3a.56.56,0,0,1-.559-.559.572.572,0,0,1,.085-.3l1.575-2.532a.559.559,0,1,1,.95.591l-1.575,2.534a.557.557,0,0,1-.476.263m37.5-1.4a.56.56,0,0,1-.234-1.068l2.707-1.251a.56.56,0,1,1,.47,1.017l-2.708,1.251a.554.554,0,0,1-.234.051m21.992-1.251a.552.552,0,0,1-.4-.164.56.56,0,0,1,0-.791h0l2.109-2.109a.56.56,0,0,1,.79.793l-2.109,2.109a.555.555,0,0,1-.4.163m-39.913,0a.554.554,0,0,1-.333-.11l-2.127-1.581a.552.552,0,0,1-.227-.447v-.343a.559.559,0,1,1,1.119,0v.052l1.9,1.412a.559.559,0,0,1-.334,1.008m123.183-.6a.559.559,0,0,1-.334-1.008l2.037-1.521a.559.559,0,0,1,1.107.116v.174a.562.562,0,0,1-.225.449l-2.251,1.679a.573.573,0,0,1-.334.11m-86.046-.318a.578.578,0,0,1-.192-.036l-2.8-1.032a.559.559,0,0,1,.357-1.06l.031.012,2.8,1.032a.559.559,0,0,1-.194,1.084m254.793-.135a.561.561,0,0,1-.559-.559v-2.983a.559.559,0,1,1,1.119,0v2.983a.559.559,0,0,1-.559.559M517.9,284.515a.56.56,0,0,1-.236-1.068l2.708-1.25a.56.56,0,1,1,.47,1.017l-2.708,1.25a.569.569,0,0,1-.234.051m64.489-.191a.559.559,0,0,1-.559-.559v-2.983a.559.559,0,1,1,1.119,0v2.983a.559.559,0,0,1-.559.559m-104.256-.971a.567.567,0,0,1-.3-.085.559.559,0,0,1-.179-.77l1.575-2.534a.56.56,0,0,1,.95.592l-1.575,2.532a.56.56,0,0,1-.476.264m47.97-.576a.6.6,0,0,1-.192-.034l-2.252-.831-.109.051a.559.559,0,0,1-.468-1.016l.319-.148a.576.576,0,0,1,.428-.016l2.468.911a.558.558,0,0,1-.194,1.083m12.08-1.441a.559.559,0,0,1-.559-.559v-2.983a.56.56,0,1,1,1.119,0v2.983a.559.559,0,0,1-.559.559m-45.748-.471a.561.561,0,0,1-.559-.559v-2.983a.56.56,0,1,1,1.119,0V280.3a.56.56,0,0,1-.559.559m127.561-.541a.559.559,0,0,1-.559-.559v-2.983a.56.56,0,1,1,1.119,0v2.983a.559.559,0,0,1-.559.559m-39.54-1.165a.555.555,0,0,1-.4-.163l-2.109-2.109a.559.559,0,0,1,.79-.792l2.109,2.109a.559.559,0,0,1-.4.955m206.035-.417a.561.561,0,0,1-.559-.559V275.2a.559.559,0,1,1,1.119,0v2.983a.559.559,0,0,1-.559.559m-305.2-.453a.559.559,0,0,1-.474-.855l1.575-2.532a.559.559,0,1,1,.95.591l-1.575,2.534a.56.56,0,0,1-.476.263m56.9-2.914a.559.559,0,0,1-.559-.559v-2.983a.56.56,0,1,1,1.119,0v2.983a.56.56,0,0,1-.559.559m89.546-.033h-.787a.56.56,0,0,1,0-1.119h.228v-1.638a.559.559,0,1,1,1.119,0v2.2a.559.559,0,0,1-.559.559m-3.77,0h-2.983a.559.559,0,0,1,0-1.119h2.983a.559.559,0,1,1,0,1.119m-47.721-.4a.552.552,0,0,1-.4-.164l-2.11-2.11a.559.559,0,0,1,.79-.79l2.11,2.112a.558.558,0,0,1-.4.953m-83.8-.042a.559.559,0,0,1-.559-.559v-.656h-1.216a.559.559,0,0,1,0-1.119h1.775a.559.559,0,0,1,.559.559v1.208a.559.559,0,0,1-.559.559m-4.754-1.207H484.69a.559.559,0,0,1,0-1.119h2.983a.559.559,0,1,1,0,1.119m298.8-.917a.561.561,0,0,1-.559-.559v-2.983a.56.56,0,1,1,1.119,0v2.983a.559.559,0,0,1-.559.559M679.9,271.888h-1.393a.559.559,0,0,1,0-1.119h1.224l1.181-.787a.56.56,0,0,1,.62.932l-1.323.881a.568.568,0,0,1-.31.092m-4.376,0h-2.983a.559.559,0,0,1,0-1.119h2.983a.559.559,0,1,1,0,1.119m-5.96-.11q-.035,0-.069,0a24.283,24.283,0,0,1-3-.577.56.56,0,0,1,.241-1.094l.038.01a22.954,22.954,0,0,0,2.858.552.559.559,0,0,1-.069,1.114m-97.552-1.053a.555.555,0,0,1-.4-.163l-2.109-2.109a.56.56,0,1,1,.764-.819.312.312,0,0,1,.026.026l2.109,2.109a.559.559,0,0,1-.4.956m91.773-.392a.575.575,0,0,1-.188-.031c-.893-.318-1.839-.694-2.81-1.117a.56.56,0,0,1,.407-1.044c.014.006.027.011.04.018.947.415,1.869.78,2.737,1.089a.559.559,0,0,1-.186,1.086m-36.062-.172a.561.561,0,0,1-.559-.559v-2.983a.559.559,0,1,1,1.119,0v2.983a.559.559,0,0,1-.559.559m-89.334-.7a.558.558,0,0,1-.48-.844,23.958,23.958,0,0,1,1.748-2.515.559.559,0,1,1,.88.69,23.238,23.238,0,0,0-1.667,2.4.553.553,0,0,1-.48.273m145.319-.106a.559.559,0,0,1-.312-1.025l2.483-1.654a.56.56,0,0,1,.62.932l-2.483,1.654a.563.563,0,0,1-.309.092m-25.4-1.394a.567.567,0,0,1-.249-.06c-.9-.449-1.784-.923-2.661-1.412a.559.559,0,0,1,.493-1,.419.419,0,0,1,.051.029c.862.48,1.736.945,2.617,1.388a.559.559,0,0,1-.252,1.059m128.183-1.16a.561.561,0,0,1-.559-.559v-2.983a.559.559,0,1,1,1.119,0v2.983a.559.559,0,0,1-.559.559m-97.8-.764a.559.559,0,0,1-.31-1.025l2.483-1.654a.56.56,0,0,1,.62.932l-2.483,1.654a.568.568,0,0,1-.31.092M569.254,265.9a.559.559,0,0,1-.559-.559V262.36a.56.56,0,1,1,1.119,0v2.983a.559.559,0,0,1-.559.559m83.841-.85a.562.562,0,0,1-.288-.079c-.87-.526-1.721-1.062-2.546-1.6a.559.559,0,0,1,.61-.938c.816.531,1.656,1.06,2.513,1.578a.559.559,0,0,1-.289,1.038m-111.031-.3a.556.556,0,0,1-.388-.155.562.562,0,0,1-.016-.792c.7-.726,1.439-1.429,2.206-2.086a.559.559,0,1,1,.754.825l-.025.022c-.74.635-1.456,1.314-2.128,2.015a.56.56,0,0,1-.4.172m85.667-.561a.561.561,0,0,1-.559-.559v-2.1a.557.557,0,0,1,.26-.471l.741-.47a.559.559,0,0,1,.6.944l-.48.3v1.8a.559.559,0,0,1-.559.559m65.916-1.451a.56.56,0,0,1-.312-1.026l2.483-1.652a.56.56,0,0,1,.62.932l-2.483,1.653a.564.564,0,0,1-.309.094M648.09,261.8a.559.559,0,0,1-.316-.1c-.861-.594-1.681-1.177-2.449-1.737a.558.558,0,1,1,.618-.93l.04.03c.762.555,1.573,1.13,2.425,1.72a.56.56,0,0,1-.318,1.02m-101.5-.94a.559.559,0,0,1-.324-1.016c.828-.588,1.688-1.136,2.558-1.636a.559.559,0,1,1,.556.971c-.838.482-1.669,1.011-2.467,1.576a.559.559,0,0,1-.324.1m239.9-.022a.561.561,0,0,1-.559-.559V257.3a.56.56,0,1,1,1.119,0v2.991a.559.559,0,0,1-.559.559m-155.51-.826a.559.559,0,0,1-.3-1.031l2.52-1.6a.559.559,0,1,1,.6.943l-2.519,1.6a.547.547,0,0,1-.3.087m-61.737-.082a.559.559,0,0,1-.559-.559V257.74l-.626-.464a.559.559,0,1,1,.664-.9l.855.631a.558.558,0,0,1,.227.45v1.921a.559.559,0,0,1-.559.559m129.359-.5a.56.56,0,0,1-.312-1.026l2.483-1.652a.56.56,0,0,1,.62.932l-2.483,1.652a.556.556,0,0,1-.309.094m-55.359-1.149a.555.555,0,0,1-.339-.115c-.922-.7-1.72-1.335-2.364-1.855a.559.559,0,0,1,.673-.893l.027.022c.638.516,1.429,1.141,2.34,1.837a.559.559,0,0,1-.34,1m-91.507-.392a.559.559,0,0,1-.231-1.068c.916-.416,1.864-.8,2.816-1.125a.559.559,0,0,1,.365,1.057c-.919.319-1.834.685-2.719,1.086a.554.554,0,0,1-.231.049m84.284-1.069a.559.559,0,0,1-.3-1.032l2.519-1.6a.559.559,0,1,1,.6.944l-2.519,1.6a.548.548,0,0,1-.3.088m67.551-.7a.56.56,0,0,1-.312-1.026l2.483-1.653a.56.56,0,0,1,.62.932l-2.483,1.653a.565.565,0,0,1-.309.094m-146.211-.185a.559.559,0,0,1-.134-1.1c.974-.24,1.973-.443,2.968-.6a.559.559,0,1,1,.174,1.1c-.963.152-1.93.348-2.872.582a.617.617,0,0,1-.136.016m8.631-.328a.553.553,0,0,1-.333-.109l-.793-.586c-.537.016-1.063.048-1.581.086a.56.56,0,0,1-.087-1.116c.6-.045,1.208-.079,1.83-.1a.55.55,0,0,1,.346.11l.95.7a.559.559,0,0,1-.333,1.01m220.492-.729a.561.561,0,0,1-.559-.559v-1.431c-.134-.172-.382-.485-.725-.91a.559.559,0,0,1,.836-.743c.012.014.023.028.034.043.547.677.858,1.08.858,1.08a.544.544,0,0,1,.116.34v1.624a.559.559,0,0,1-.559.559m-77.938-2.055a.559.559,0,0,1-.31-1.025l2.482-1.654a.56.56,0,0,1,.62.932l-2.482,1.654a.568.568,0,0,1-.31.092m75.179-2.937a.562.562,0,0,1-.427-.2c-.585-.688-1.244-1.444-1.957-2.236a.559.559,0,0,1,.831-.749c.72.8,1.387,1.564,1.979,2.258a.559.559,0,0,1-.427.922m-70.213-.37a.559.559,0,0,1-.312-1.025l2.483-1.654a.56.56,0,0,1,.62.932l-2.483,1.654a.563.563,0,0,1-.309.093m4.965-3.3a.56.56,0,0,1-.31-1.026l2.483-1.651a.559.559,0,1,1,.619.932l-2.484,1.65a.556.556,0,0,1-.309.094m61.249-.761a.56.56,0,0,1-.4-.172c-.676-.706-1.377-1.412-2.092-2.1a.559.559,0,0,1,.777-.8c.725.7,1.436,1.417,2.122,2.131a.559.559,0,0,1-.4.947m-56.283-2.544a.56.56,0,0,1-.312-1.026l2.483-1.652a.56.56,0,0,1,.62.932l-2.483,1.652a.564.564,0,0,1-.309.094m51.973-1.587a.563.563,0,0,1-.365-.136c-.805-.693-1.578-1.309-2.3-1.831a.56.56,0,0,1,.658-.907c.744.54,1.542,1.177,2.371,1.891a.559.559,0,0,1-.365.983m-47.006-1.72a.56.56,0,0,1-.312-1.026l2.483-1.653a.56.56,0,0,1,.62.932l-2.483,1.653a.564.564,0,0,1-.309.094m42.1-1.645a.538.538,0,0,1-.236-.052,28.438,28.438,0,0,0-2.72-1.08.559.559,0,0,1,.352-1.061l.012,0a29.2,29.2,0,0,1,2.828,1.125.558.558,0,0,1-.236,1.065m-37.13-1.661a.559.559,0,0,1-.312-1.025l2.483-1.654a.56.56,0,0,1,.62.932l-2.483,1.654a.565.565,0,0,1-.309.092m31.5-.324a.58.58,0,0,1-.149-.019c-.938-.261-1.9-.5-2.872-.732a.559.559,0,0,1,.255-1.089c.984.23,1.963.479,2.916.743a.559.559,0,0,1-.149,1.1m-5.815-1.369a.578.578,0,0,1-.11-.01c-1-.2-1.979-.382-2.923-.549a.557.557,0,0,1-.454-.642v0a.563.563,0,0,1,.646-.455c.953.166,1.945.35,2.95.553a.559.559,0,0,1-.109,1.107m-5.887-1.034a.608.608,0,0,1-.085-.006c-1.11-.172-2.11-.312-2.947-.421a.56.56,0,0,1,.145-1.11c.846.112,1.854.252,2.972.425a.559.559,0,0,1-.085,1.111m-14.835-.58a.559.559,0,0,1-.31-1.025l.251-.166a.541.541,0,0,1,.309-.094h2.683a.559.559,0,1,1,0,1.119H738.76l-.109.073a.565.565,0,0,1-.309.092m8.9-.166h-2.983a.56.56,0,0,1,0-1.119h2.983a.56.56,0,1,1,0,1.119" fill="#fff"/><path d="M711.245,378.134a.558.558,0,0,1-.477-.267l-1.556-2.546a.559.559,0,0,1,.931-.619c.008.012.015.024.022.036l1.557,2.546a.557.557,0,0,1-.477.85m-12.2-4.494h-2.983a.56.56,0,1,1,0-1.119h2.983a.56.56,0,0,1,0,1.119m-5.966,0H690.1a.56.56,0,1,1,0-1.119h2.983a.56.56,0,0,1,0,1.119m-5.76-.412a.556.556,0,0,1-.448-.222l-1.794-2.383a.559.559,0,0,1,.87-.7l.022.029,1.8,2.383a.558.558,0,0,1-.446.895m20.814-.185a.557.557,0,0,1-.479-.267l-1.556-2.544a.559.559,0,0,1,.931-.619c.008.012.015.024.022.036l1.557,2.544a.557.557,0,0,1-.476.85m-6.462-.774a.559.559,0,0,1-.274-1.047l2.6-1.459a.559.559,0,0,1,.546.975l-2.6,1.459a.56.56,0,0,1-.273.072m-17.942-3.8a.56.56,0,0,1-.447-.222l-1.8-2.383a.559.559,0,1,1,.893-.673l1.8,2.382a.559.559,0,0,1-.446.9m-3.59-4.764a.558.558,0,0,1-.447-.224l-1.8-2.382a.56.56,0,0,1,.862-.715c.011.013.021.027.031.041l1.794,2.383a.559.559,0,0,1-.444.9m-3.591-4.766a.552.552,0,0,1-.446-.222l-1.8-2.382a.559.559,0,1,1,.893-.673l1.794,2.382a.559.559,0,0,1-.108.782h0a.546.546,0,0,1-.336.112m-3.06-4.822a.583.583,0,0,1-.233-.049.562.562,0,0,1-.277-.741l1.235-2.716a.56.56,0,0,1,1.03.44l-.011.024L673.99,353.8a.559.559,0,0,1-.509.328m2.468-5.432a.539.539,0,0,1-.231-.049.56.56,0,0,1-.277-.741l1.235-2.714a.559.559,0,1,1,1.036.419c-.006.015-.012.029-.019.043l-1.233,2.716a.563.563,0,0,1-.51.327m2.47-5.429a.573.573,0,0,1-.231-.049.56.56,0,0,1-.277-.743l1.233-2.716a.56.56,0,1,1,1.03.44l-.011.024-1.235,2.716a.559.559,0,0,1-.509.328m2.468-5.432a.573.573,0,0,1-.231-.049.562.562,0,0,1-.277-.741l1.235-2.714a.559.559,0,0,1,1.019.462L681.4,337.5a.561.561,0,0,1-.51.328m2.47-5.43a.56.56,0,0,1-.508-.791h0l1.235-2.714a.559.559,0,0,1,1.019.462l-1.236,2.716a.563.563,0,0,1-.509.328m2.47-5.43a.574.574,0,0,1-.231-.049.558.558,0,0,1-.277-.74h0l1.233-2.717a.56.56,0,0,1,1.019.464l-1.235,2.716a.558.558,0,0,1-.509.328m.316-4.637a.564.564,0,0,1-.236-.052l-2.7-1.26a.559.559,0,1,1,.473-1.014l2.7,1.262a.559.559,0,0,1-.237,1.065m-5.408-2.52a.555.555,0,0,1-.234-.052l-2.7-1.26a.559.559,0,1,1,.473-1.014l2.7,1.26a.559.559,0,0,1-.237,1.066m-5.4-2.521a.533.533,0,0,1-.236-.054l-2.7-1.259a.56.56,0,1,1,.427-1.035.386.386,0,0,1,.046.021l2.7,1.26a.559.559,0,0,1-.236,1.066m-5.408-2.522a.549.549,0,0,1-.236-.052l-1.629-.759a.557.557,0,0,1-.316-.586l.172-1.174a.555.555,0,0,1,.623-.476l.011,0a.56.56,0,0,1,.473.634l-.112.764,1.251.582a.56.56,0,0,1-.237,1.066m-1.025-4.884a.552.552,0,0,1-.081-.006.56.56,0,0,1-.473-.634l.43-2.95a.559.559,0,1,1,1.107.16l-.43,2.952a.562.562,0,0,1-.553.479m.862-5.9a.56.56,0,0,1-.555-.64l.431-2.95a.559.559,0,0,1,1.107.16l-.43,2.951a.562.562,0,0,1-.553.479m.862-5.9a.566.566,0,0,1-.082-.006.56.56,0,0,1-.473-.635l.431-2.95a.559.559,0,0,1,1.107.163l-.431,2.95a.557.557,0,0,1-.552.479m.861-5.9a.553.553,0,0,1-.081-.006.559.559,0,0,1-.473-.633h0l.318-2.18a.571.571,0,0,1,.164-.322l.561-.541a.559.559,0,0,1,.777.8l-.422.41-.291,1.991a.562.562,0,0,1-.553.479m3.022-4.8a.554.554,0,0,1-.4-.17.561.561,0,0,1,.012-.792l2.143-2.073a.56.56,0,0,1,.841.739.6.6,0,0,1-.062.061l-2.143,2.075a.559.559,0,0,1-.389.157m3.7-4.122a.553.553,0,0,1-.351-.124l-2.325-1.867a.559.559,0,1,1,.672-.894l.028.023,2.327,1.867a.559.559,0,0,1-.35.995m-4.652-3.736a.558.558,0,0,1-.35-.124l-2.325-1.867a.559.559,0,0,1,.672-.894l.028.023,2.325,1.867a.559.559,0,0,1-.351,1m-2.776-4.634a.559.559,0,0,1-.559-.559v-2.983a.56.56,0,1,1,1.119,0v2.983a.559.559,0,0,1-.559.559" fill="#fff"/><path d="M444.787,548.157a.563.563,0,0,1-.525-.365l-.356-.958a.559.559,0,1,1,1.048-.391l.146.4,1.235-.565a.56.56,0,0,1,.467,1.017l-1.782.814a.554.554,0,0,1-.233.052m29.761-1.205a.526.526,0,0,1-.158-.024l-2.862-.843a.559.559,0,1,1,.288-1.08l.028.008,2.862.844a.559.559,0,0,1-.158,1.095m-25.266-.857a.559.559,0,0,1-.233-1.068l2.711-1.241a.56.56,0,0,1,.467,1.017l-2.713,1.241a.553.553,0,0,1-.233.051m19.545-.835a.563.563,0,0,1-.158-.022l-2.861-.844a.559.559,0,0,1,.288-1.08l.028.008,2.861.844a.559.559,0,0,1-.158,1.1M443.39,544.4a.56.56,0,0,1-.525-.364l-1.039-2.795a.559.559,0,1,1,1.048-.391l1.041,2.795a.561.561,0,0,1-.33.72.592.592,0,0,1-.2.034m11.315-.786a.559.559,0,0,1-.233-1.068l2.711-1.242a.559.559,0,0,1,.467,1.016l-2.713,1.244a.568.568,0,0,1-.233.051m8.4-.04a.563.563,0,0,1-.158-.022l-2.862-.844a.558.558,0,1,1,.316-1.071l2.862.843a.559.559,0,0,1-.158,1.1m-21.8-4.765a.56.56,0,0,1-.525-.364l-1.039-2.795a.559.559,0,0,1,1.048-.391l1.041,2.795a.562.562,0,0,1-.33.72.592.592,0,0,1-.2.034" fill="#fff"/><path d="M527.208,482.933a.559.559,0,0,1-.559-.559v-2.979a.56.56,0,1,1,1.119,0v2.983a.559.559,0,0,1-.559.559m0-5.966a.561.561,0,0,1-.559-.559v-2.987a.559.559,0,1,1,1.119,0v2.983a.56.56,0,0,1-.559.559m0-5.966a.56.56,0,0,1-.559-.559v-2.983a.56.56,0,1,1,1.119,0v2.983a.56.56,0,0,1-.559.559m0-5.966a.56.56,0,0,1-.559-.559v-1.387a.56.56,0,0,1,.164-.4l1.128-1.128a.56.56,0,0,1,.792.792l-.965.963v1.156a.561.561,0,0,1-.559.559m3.238-4.625a.56.56,0,0,1-.4-.956l2.11-2.109a.559.559,0,0,1,.79.792l-2.109,2.109a.556.556,0,0,1-.4.164m1.019-4.325a.558.558,0,0,1-.421-.191l-1.964-2.243a.56.56,0,0,1,.843-.738l1.963,2.245a.558.558,0,0,1-.421.928m-3.928-4.489a.557.557,0,0,1-.421-.191l-.328-.374a.559.559,0,0,1,0-.737l1.635-1.872a.56.56,0,0,1,.843.737l-1.314,1.5.006.006a.559.559,0,0,1-.421.928M530.8,447.1a.559.559,0,0,1-.421-.926v0l1.961-2.247a.56.56,0,0,1,.843.737l-1.963,2.248a.557.557,0,0,1-.421.191m3.925-4.494a.552.552,0,0,1-.368-.139.559.559,0,0,1-.054-.789l1.963-2.246a.559.559,0,1,1,.841.737l-1.961,2.246a.557.557,0,0,1-.421.191m51.287-.893a.559.559,0,0,1-.349-.122.583.583,0,0,1-.109-.8.534.534,0,0,1,.137-.127l1.712-2.142a.56.56,0,1,1,.888.682l-.014.018-1.828,2.285a.559.559,0,0,1-.437.21m-2.382-1.887a.564.564,0,0,1-.348-.121l-2.339-1.851a.561.561,0,0,1,.7-.877l2.339,1.851a.56.56,0,0,1-.347,1m-23.549-1.6a.56.56,0,0,1-.289-1.04l2.558-1.535a.559.559,0,1,1,.576.959l-2.558,1.535a.564.564,0,0,1-.286.081m-21.432-.109a.56.56,0,0,1-.421-.929l1.963-2.245a.559.559,0,0,1,.841.737l-1.963,2.246a.557.557,0,0,1-.421.191m19.056-.494a.566.566,0,0,1-.365-.134l-2.26-1.949a.559.559,0,0,1,.731-.847l2.259,1.948a.559.559,0,0,1-.365.983m32-.523a.548.548,0,0,1-.349-.122.561.561,0,0,1-.088-.787l1.863-2.328a.56.56,0,0,1,.888.682l-.014.018-1.863,2.328a.559.559,0,0,1-.437.21m-10.752-.972a.559.559,0,0,1-.348-.122l-2.339-1.851a.559.559,0,0,1,.693-.877l2.34,1.852a.56.56,0,0,1-.347,1m-13.758-.972a.559.559,0,0,1-.288-1.038l2.18-1.31a.554.554,0,0,1,.288-.08h.44a.559.559,0,1,1,0,1.119h-.285l-2.048,1.229a.552.552,0,0,1-.288.081m8.586-1.309H570.8a.559.559,0,0,1,0-1.119h2.983a.559.559,0,1,1,0,1.119m-20.593-.118a.556.556,0,0,1-.365-.136l-2.26-1.948a.56.56,0,0,1,.732-.849l2.258,1.949a.559.559,0,0,1-.365.983m-10.614-.1a.552.552,0,0,1-.367-.139.559.559,0,0,1-.054-.789l1.963-2.246a.559.559,0,0,1,.841.737L543,433.447a.561.561,0,0,1-.422.191m50.065-1.46a.561.561,0,0,1-.559-.559v-2.983a.56.56,0,1,1,1.119,0v2.983a.56.56,0,0,1-.559.559m-43.968-2.331a.561.561,0,0,1-.365-.136l-1.166-1.007-.218.249a.559.559,0,0,1-.844-.734l.585-.668a.559.559,0,0,1,.786-.057l1.588,1.369a.559.559,0,0,1-.365.983m43.968-3.635a.561.561,0,0,1-.559-.559v-2.983a.56.56,0,1,1,1.119,0v2.983a.56.56,0,0,1-.559.559m0-5.966a.561.561,0,0,1-.559-.559v-.734l-1.357-.989a.558.558,0,1,1,.618-.93.384.384,0,0,1,.04.03l1.588,1.156a.555.555,0,0,1,.23.452v1.017a.56.56,0,0,1-.559.559m-4-3.928a.561.561,0,0,1-.328-.109l-2.412-1.755a.559.559,0,0,1,.659-.9l2.41,1.757a.559.559,0,0,1-.33,1.011m-4.825-3.528a.552.552,0,0,1-.328-.107l-2.364-1.723a.553.553,0,0,1-.23-.45.585.585,0,0,1,.559-.589.565.565,0,0,1,.477.243l2.215,1.615a.559.559,0,0,1-.33,1.011m-2.362-4.764a.559.559,0,0,1-.559-.559v-2.983a.56.56,0,1,1,1.119,0v2.983a.559.559,0,0,1-.559.559m0-5.966a.559.559,0,0,1-.559-.559v-2.024l-.334-.556a.56.56,0,0,1,.959-.577l.415.691a.563.563,0,0,1,.079.289v2.177a.559.559,0,0,1-.559.559m-1.949-5.424a.555.555,0,0,1-.48-.271l-1.536-2.556a.56.56,0,0,1,.938-.613l.021.036,1.532,2.558a.56.56,0,0,1-.477.847m-.747-5.251a.562.562,0,0,1-.51-.789l1.223-2.72a.559.559,0,0,1,1.02.458l-1.224,2.72a.557.557,0,0,1-.509.331m2.446-5.442a.569.569,0,0,1-.23-.049.558.558,0,0,1-.28-.739h0l.166-.365-.626-2.07a.559.559,0,1,1,1.071-.324l.686,2.271a.561.561,0,0,1-.025.391l-.251.556a.559.559,0,0,1-.51.33m-1.3-5.682a.56.56,0,0,1-.535-.4l-.862-2.855a.559.559,0,1,1,1.055-.369.385.385,0,0,1,.014.045l.863,2.855a.559.559,0,0,1-.372.7.565.565,0,0,1-.163.024m-1.726-5.712a.562.562,0,0,1-.535-.4l-.04-.134a.564.564,0,0,1,.028-.4l1.2-2.577a.56.56,0,0,1,1.016.471l-1.111,2.392a.559.559,0,0,1-.389.619.505.505,0,0,1-.164.024m2.413-5.415a.529.529,0,0,1-.234-.054.56.56,0,0,1-.274-.742h0l1.256-2.7a.56.56,0,0,1,1.016.471l-1.256,2.707a.561.561,0,0,1-.509.324m2.513-5.411a.533.533,0,0,1-.236-.054.557.557,0,0,1-.272-.741v0l.656-1.411-.434-.7a.558.558,0,0,1,.179-.768l0,0a.564.564,0,0,1,.77.182l.592.958a.561.561,0,0,1,.031.529l-.783,1.685a.56.56,0,0,1-.507.324m-1.38-5.178a.559.559,0,0,1-.476-.265l-1.57-2.535a.559.559,0,0,1,.952-.588l1.57,2.535a.561.561,0,0,1-.476.853m-3.141-5.071a.561.561,0,0,1-.476-.265l-1.107-1.787h-.258a.559.559,0,1,1,0-1.119h.57a.558.558,0,0,1,.476.264l1.271,2.052a.56.56,0,0,1-.476.855m-4.823-2.052h-2.983a.559.559,0,1,1,0-1.119h2.983a.559.559,0,0,1,0,1.119m-5.966,0h-2.983a.559.559,0,1,1,0-1.119H567.8a.559.559,0,0,1,0,1.119m-5.966,0h-2.983a.559.559,0,1,1,0-1.119h2.983a.559.559,0,0,1,0,1.119m-4.447-2.5a.555.555,0,0,1-.5-.3l-1.375-2.649a.559.559,0,1,1,.993-.514l1.375,2.647a.561.561,0,0,1-.5.818m-2.75-5.294a.558.558,0,0,1-.5-.3l-1.377-2.649a.559.559,0,1,1,.993-.514l1.377,2.647a.562.562,0,0,1-.239.755.578.578,0,0,1-.258.063m-2.75-5.3a.555.555,0,0,1-.5-.3l-.518-1a.554.554,0,0,1-.064-.258v-1.86a.559.559,0,1,1,1.119,0v1.723l.455.875a.558.558,0,0,1-.237.754h0a.546.546,0,0,1-.257.063m-.519-5.839a.559.559,0,0,1-.559-.559v-2.983a.559.559,0,0,1,1.119,0v2.983a.559.559,0,0,1-.559.559m0-5.966a.559.559,0,0,1-.559-.559v-2.975a.56.56,0,0,1,1.119,0v2.983a.559.559,0,0,1-.559.559m1.869-5.1a.559.559,0,0,1-.362-.984l2.268-1.936a.56.56,0,0,1,.726.852l-2.268,1.934a.551.551,0,0,1-.364.134m4.537-3.872a.56.56,0,0,1-.362-.986l2.268-1.936a.559.559,0,0,1,.726.85l-2.268,1.937a.56.56,0,0,1-.364.134m4.537-3.875a.559.559,0,0,1-.362-.984l2.268-1.937a.559.559,0,0,1,.726.85l-2.268,1.937a.553.553,0,0,1-.364.134m3.823-4.2a.56.56,0,0,1-.559-.559v-2.983a.56.56,0,1,1,1.119,0v2.983a.561.561,0,0,1-.559.559m2.079-4.509a.559.559,0,0,1-.191-1.084l2.8-1.019a.559.559,0,0,1,.382,1.051l-2.8,1.019a.564.564,0,0,1-.191.033m5.608-2.036a.56.56,0,0,1-.191-1.086l2.8-1.017a.559.559,0,0,1,.382,1.051l-2.8,1.017a.542.542,0,0,1-.191.034m5.612-2.043a.56.56,0,0,1-.191-1.086l2.8-1.019a.559.559,0,0,1,.382,1.051l-2.8,1.019a.542.542,0,0,1-.191.034m5.608-2.039a.559.559,0,0,1-.191-1.084l.913-.331v-1.227a.56.56,0,0,1,1.119,0v1.62a.558.558,0,0,1-.368.525l-1.281.465a.541.541,0,0,1-.191.033m1.281-5.061a.559.559,0,0,1-.559-.559v-2.983a.56.56,0,1,1,1.119,0v2.983a.559.559,0,0,1-.559.559" fill="#fff"/><path d="M432.453,620.194a.559.559,0,0,1-.559-.559v-2.983a.559.559,0,1,1,1.119,0v2.983a.559.559,0,0,1-.559.559m0-5.966a.561.561,0,0,1-.559-.559v-2.983a.56.56,0,1,1,1.119,0v2.983a.561.561,0,0,1-.559.559m.607-5.656a.559.559,0,0,1-.327-1.014l2.424-1.739a.559.559,0,0,1,.666.9l-.014.01-2.424,1.74a.562.562,0,0,1-.325.1m4.847-3.478a.559.559,0,0,1-.328-1.014l2.426-1.729a.559.559,0,1,1,.653.908l-2.424,1.739a.549.549,0,0,1-.325.106m4.847-3.478a.559.559,0,0,1-.328-1.014l2.424-1.739a.559.559,0,1,1,.653.908l-2.424,1.739a.552.552,0,0,1-.325.106m4.846-3.478a.56.56,0,0,1-.327-1.014l2.058-1.476.087-.166a.56.56,0,0,1,.99.522l-.148.282a.577.577,0,0,1-.169.192l-2.167,1.554a.549.549,0,0,1-.325.106m3.7-4.474a.559.559,0,0,1-.494-.82l1.39-2.638a.559.559,0,1,1,.989.522l-1.39,2.638a.558.558,0,0,1-.5.3m2.781-5.277a.566.566,0,0,1-.261-.064.56.56,0,0,1-.233-.756l1.39-2.64a.559.559,0,1,1,.989.522l-1.39,2.638a.558.558,0,0,1-.5.3m2.781-5.278a.558.558,0,0,1-.5-.82l1.391-2.64a.559.559,0,1,1,.989.522l-1.39,2.638a.56.56,0,0,1-.5.3m2.782-5.278a.556.556,0,0,1-.5-.819l1.391-2.64a.559.559,0,1,1,.989.522l-1.39,2.638a.558.558,0,0,1-.5.3m2.781-5.278a.558.558,0,0,1-.495-.819l1.391-2.64a.559.559,0,1,1,.989.522l-1.39,2.638a.558.558,0,0,1-.5.3m2.78-5.278a.558.558,0,0,1-.493-.819l1.392-2.638a.559.559,0,1,1,.989.522l-1.391,2.637a.558.558,0,0,1-.5.3m2.782-5.276a.547.547,0,0,1-.26-.064.559.559,0,0,1-.234-.755h0l1.391-2.638a.559.559,0,1,1,.989.522l-1.391,2.638a.558.558,0,0,1-.5.3m2.781-5.278a.559.559,0,0,1-.494-.82l1.39-2.638a.559.559,0,1,1,1,.5l-.009.017-1.388,2.64a.562.562,0,0,1-.5.3m2.781-5.278a.559.559,0,0,1-.494-.82L474.4,548a.559.559,0,1,1,1,.5l-.009.017L474,551.161a.557.557,0,0,1-.5.3m82.231-3.294a.555.555,0,0,1-.5-.315.623.623,0,0,1,.231-.81.558.558,0,0,1,.327-.069l2.322-1.025a.558.558,0,1,1,.45,1.021l-2.6,1.151a.543.543,0,0,1-.225.047M477.2,546.956a.559.559,0,0,1-.342-1l2.364-1.818a.559.559,0,0,1,.682.886l-2.364,1.818a.55.55,0,0,1-.34.116m83.861-1.143a.56.56,0,0,1-.227-1.071l2.728-1.2a.559.559,0,1,1,.468,1.015l-.015.006-2.68,1.181a.554.554,0,0,1-.227.048m-6.68-.459a.558.558,0,0,1-.5-.316l-1.293-2.689a.559.559,0,0,1,1.008-.483l1.292,2.688a.557.557,0,0,1-.258.744l0,0a.534.534,0,0,1-.242.055M481.986,543.3a.559.559,0,0,1-.342-1l2.364-1.817a.558.558,0,0,1,.682.884l-2.364,1.818a.557.557,0,0,1-.34.116m84.156-.2a.561.561,0,0,1-.559-.559v-2.983a.56.56,0,1,1,1.119,0v2.985a.561.561,0,0,1-.559.559m-14.288-3.141a.557.557,0,0,1-.5-.318l-1.292-2.69a.559.559,0,0,1,1-.505l.011.022,1.29,2.69a.558.558,0,0,1-.259.745h0a.563.563,0,0,1-.242.055m-65.139-.292a.559.559,0,0,1-.342-1l2.365-1.818a.559.559,0,1,1,.682.886l-2.365,1.818a.557.557,0,0,1-.34.116m79.427-2.532a.561.561,0,0,1-.559-.559V533.6a.56.56,0,0,1,1.119,0v2.983a.559.559,0,0,1-.559.559m-74.7-1.105a.559.559,0,0,1-.341-1l2.365-1.817a.558.558,0,0,1,.682.884l-2.365,1.818a.545.545,0,0,1-.34.116m57.827-1.448a.557.557,0,0,1-.5-.318l-1.292-2.689a.559.559,0,1,1,1-.505l.011.022,1.292,2.688a.559.559,0,0,1-.262.746h0a.549.549,0,0,1-.242.057m-53.1-2.186a.559.559,0,0,1-.342-1l2.364-1.818a.559.559,0,0,1,.682.886l-2.364,1.818a.559.559,0,0,1-.34.116m69.967-1.226a.559.559,0,0,1-.559-.559v-2.983a.56.56,0,0,1,1.119,0v2.983a.559.559,0,0,1-.559.559m-19.453-1.966a.56.56,0,0,1-.506-.318l-1.214-2.526a.558.558,0,0,1-.1-.537.53.53,0,0,1,.664-.348l.016.005.081.03a.56.56,0,0,1,.307.283l1.254,2.61a.558.558,0,0,1-.5.8m-45.785-.445a.559.559,0,0,1-.341-1l2.364-1.818a.558.558,0,1,1,.682.884l-2.364,1.819a.545.545,0,0,1-.34.116m41.66-3.253a.551.551,0,0,1-.2-.037l-2.789-1.059a.559.559,0,0,1,.4-1.045l2.789,1.059a.56.56,0,0,1-.2,1.083m23.578-.3a.56.56,0,0,1-.559-.559v-1.1a.564.564,0,0,1,.082-.294l.99-1.6a.56.56,0,0,1,.953.588l-.907,1.469v.938a.559.559,0,0,1-.559.559m-60.508-.081a.559.559,0,0,1-.342-1l2.365-1.818a.559.559,0,1,1,.682.886l-2.365,1.818a.557.557,0,0,1-.34.116m31.353-1.733a.529.529,0,0,1-.2-.037L534,522.314a.559.559,0,0,1,.4-1.045l2.789,1.057a.56.56,0,0,1-.2,1.083m-26.623-1.9a.559.559,0,0,1-.341-1l2.365-1.818a.558.558,0,0,1,.682.884l-2.365,1.82a.544.544,0,0,1-.34.116M568.7,519.99a.56.56,0,0,1-.476-.855l1.566-2.538a.56.56,0,1,1,.953.589l-1.568,2.538a.559.559,0,0,1-.476.265m-35.276-.082a.56.56,0,0,1-.559-.559v-3a.56.56,0,1,1,1.119,0v2.983a.561.561,0,0,1-.559.559m56.739-1.99a.568.568,0,0,1-.343-.116l-1.811-1.4a.559.559,0,0,1,.685-.884l1.609,1.248.45-.069a.56.56,0,1,1,.2,1.1l-.032.005-.688.1a.562.562,0,0,1-.082.006m3.636-.547a.559.559,0,0,1-.083-1.113l2.95-.444a.56.56,0,0,1,.166,1.107l-2.949.444a.59.59,0,0,1-.084.006m-79.525-.019a.56.56,0,0,1-.56-.558.576.576,0,0,1,.014-.124l.655-2.911a.559.559,0,1,1,1.1.2.315.315,0,0,1-.009.042l-.653,2.911a.56.56,0,0,1-.546.437m85.424-.868a.559.559,0,0,1-.082-1.113l2.95-.445a.56.56,0,1,1,.166,1.107l-2.95.445a.6.6,0,0,1-.084.006m5.9-.889a.559.559,0,0,1-.082-1.113l2.95-.444a.56.56,0,1,1,.166,1.108l-2.95.444a.57.57,0,0,1-.083,0m-33.763-.683a.553.553,0,0,1-.294-.082.561.561,0,0,1-.182-.771l1.567-2.538a.56.56,0,1,1,.97.56l-.018.029-1.563,2.546a.56.56,0,0,1-.476.264m39.663-.2a.559.559,0,0,1-.082-1.113l2.949-.445a.56.56,0,0,1,.167,1.107l-2.95.445a.584.584,0,0,1-.083.006m-25.5-.013a.55.55,0,0,1-.342-.116l-2.359-1.826a.56.56,0,0,1,.685-.886l2.359,1.826a.56.56,0,0,1-.343,1m-52.568-.753a.561.561,0,0,1-.559-.559v-2.984a.56.56,0,1,1,1.119,0v2.983a.561.561,0,0,1-.559.559M617.4,513.8a.559.559,0,0,1-.082-1.113l2.95-.444a.56.56,0,0,1,.166,1.107l-2.948.444a.6.6,0,0,1-.085.006m5.9-.889a.559.559,0,0,1-.082-1.113l2.949-.443a.56.56,0,0,1,.167,1.108l-2.95.442a.565.565,0,0,1-.083.006m-107.713-1.4a.574.574,0,0,1-.124-.013.561.561,0,0,1-.422-.668l.655-2.91a.559.559,0,1,1,1.1.2.313.313,0,0,1-.009.042l-.653,2.91a.56.56,0,0,1-.546.437m65.689-.483a.558.558,0,0,1-.342-.118l-2.359-1.824a.56.56,0,1,1,.674-.9l.011.009,2.359,1.826a.559.559,0,0,1-.343,1m-6.3-1.211a.538.538,0,0,1-.294-.084.559.559,0,0,1-.183-.769h0l1.53-2.48a.557.557,0,0,1,.379-.257.544.544,0,0,1,.443.11.59.59,0,0,1,.122.8.673.673,0,0,1-.1.1l-1.438,2.31a.557.557,0,0,1-.476.266m-41.543-1.86a.559.559,0,0,1-.559-.559V504.41a.56.56,0,1,1,1.119,0v2.983a.561.561,0,0,1-.559.559m-16.532-2.267a.644.644,0,0,1-.124-.012.559.559,0,0,1-.422-.668v0l.653-2.91a.559.559,0,1,1,1.1.2.313.313,0,0,1-.009.042l-.653,2.911a.559.559,0,0,1-.544.435m16.532-3.7a.561.561,0,0,1-.559-.559v-2.979a.56.56,0,1,1,1.119,0v2.983a.561.561,0,0,1-.559.559M518.2,499.867a.56.56,0,0,1-.56-.558.573.573,0,0,1,.014-.124l.653-2.91a.56.56,0,0,1,1.092.245l-.655,2.91a.557.557,0,0,1-.544.437m15.224-3.845a.561.561,0,0,1-.559-.559V492.48a.559.559,0,0,1,1.119,0v2.983a.559.559,0,0,1-.559.559m-13.92-1.976a.558.558,0,0,1-.547-.678v0l.653-2.91a.56.56,0,1,1,1.092.245l-.655,2.91a.558.558,0,0,1-.544.437m13.916-3.99a.561.561,0,0,1-.559-.559v-.838l-1.292-.813a.561.561,0,1,1,.6-.947l1.551.977a.554.554,0,0,1,.263.473V489.5a.561.561,0,0,1-.559.559m-12.614-1.833a.553.553,0,0,1-.562-.544.538.538,0,0,1,.015-.138l.655-2.91a.559.559,0,1,1,1.1.2.335.335,0,0,1-.009.041l-.653,2.911a.558.558,0,0,1-.544.435m8.529-1.884a.551.551,0,0,1-.3-.086l-2.523-1.59a.561.561,0,1,1,.6-.947l2.523,1.59a.56.56,0,0,1-.3,1.034m-5.047-3.181a.551.551,0,0,1-.3-.086l-1.427-.9a.568.568,0,0,1-.576.216.561.561,0,0,1-.422-.668l.122-.54a.561.561,0,0,1,.331-.4.569.569,0,0,1,.512.043l2.055,1.3a.559.559,0,0,1-.3,1.032" fill="#fff"/><path d="M646.485,557.526a.557.557,0,0,1-.358-.13l-2.291-1.911a.56.56,0,0,1,.716-.86l2.292,1.912a.56.56,0,0,1-.359.989m-4.58-3.821a.561.561,0,0,1-.359-.13l-2.291-1.911a.56.56,0,1,1,.679-.89c.013.01.026.02.038.031l2.291,1.911a.559.559,0,0,1-.358.989m-4.58-3.821a.557.557,0,0,1-.358-.13l-2.291-1.909a.56.56,0,0,1,.716-.861l2.292,1.911a.56.56,0,0,1-.359.989m-4.582-3.821a.557.557,0,0,1-.358-.13l-1.993-1.661a.558.558,0,0,1-.2-.429v-.388a.559.559,0,0,1,1.119,0v.125l1.793,1.494a.559.559,0,0,1-.359.989m-1.993-5.032a.559.559,0,0,1-.559-.559v-2.983a.56.56,0,0,1,1.119,0v2.983a.56.56,0,0,1-.559.559m0-5.966a.559.559,0,0,1-.559-.559v-2.983a.56.56,0,0,1,1.119,0v2.983a.56.56,0,0,1-.559.559m0-5.966a.559.559,0,0,1-.559-.559v-2.983a.56.56,0,0,1,1.119,0v2.983a.56.56,0,0,1-.559.559m0-5.966a.559.559,0,0,1-.559-.559v-2.983a.56.56,0,0,1,1.119,0v2.983a.56.56,0,0,1-.559.559m0-5.966a.559.559,0,0,1-.559-.559v-.78l-.919-1.684a.56.56,0,1,1,.983-.537l.986,1.809a.568.568,0,0,1,.069.268v.923a.559.559,0,0,1-.559.559m-2.415-5.35a.56.56,0,0,1-.492-.291l-.07-.131a.555.555,0,0,1,.051-.613l1.746-2.231a.56.56,0,0,1,.881.691l-1.559,1.988a.555.555,0,0,1-.291.519.531.531,0,0,1-.267.069m3.514-4.711a.559.559,0,0,1-.44-.9l1.837-2.35a.56.56,0,0,1,.881.691L632.3,506.9a.565.565,0,0,1-.441.213m3.676-4.7a.576.576,0,0,1-.343-.118.562.562,0,0,1-.1-.786l.2-.249,1.537-2.145a.559.559,0,1,1,.907.655l-1.769,2.428a.56.56,0,0,1-.441.216m3.5-4.831a.559.559,0,0,1-.453-.886l1.746-2.418a.559.559,0,1,1,.907.655l-1.745,2.418a.557.557,0,0,1-.455.231m3.493-4.835a.559.559,0,0,1-.453-.886l1.746-2.421a.56.56,0,0,1,.907.656l-1.746,2.419a.553.553,0,0,1-.453.231m48.1-.865a.507.507,0,0,1-.145-.019.559.559,0,0,1-.4-.681v0l.77-2.88a.559.559,0,0,1,1.081.288l-.77,2.881a.557.557,0,0,1-.54.415m-1.821-1.656a.55.55,0,0,1-.409-.179c-.661-.713-1.36-1.414-2.078-2.085a.559.559,0,0,1,.765-.816c.735.688,1.453,1.409,2.131,2.14a.559.559,0,0,1-.41.94M646,487.907a.559.559,0,0,1-.452-.887l.371-.513V484.52a.56.56,0,0,1,1.119,0v2.167a.555.555,0,0,1-.106.327l-.477.662a.561.561,0,0,1-.455.231m38.44-1.758a.554.554,0,0,1-.353-.127c-.741-.609-1.529-1.211-2.339-1.794a.559.559,0,0,1,.653-.908c.829.6,1.635,1.214,2.394,1.837a.559.559,0,0,1-.355.992m7.708-.033a.545.545,0,0,1-.145-.019.558.558,0,0,1-.4-.679v-.006l.282-1.059v-1.74a.56.56,0,0,1,1.119,0v1.814a.507.507,0,0,1-.019.145l-.3,1.13a.558.558,0,0,1-.54.415m33.017-1.441a.6.6,0,0,1-.183-.03l-2.819-.977a.559.559,0,1,1,.365-1.057l2.82.977a.559.559,0,0,1-.183,1.087m-5.638-1.952a.571.571,0,0,1-.183-.03l-2.817-.974a.559.559,0,0,1,.365-1.057l2.817.974a.559.559,0,0,1-.182,1.087m-39.915-.06a.551.551,0,0,1-.3-.086q-1.256-.8-2.537-1.512a.559.559,0,1,1,.537-.981l.01.006q1.3.729,2.589,1.544a.559.559,0,0,1-.3,1.031m-33.123-.565a.56.56,0,0,1-.559-.559v-2.983a.559.559,0,0,1,1.119,0v2.983a.559.559,0,0,1-.559.559m67.41-1.323a.546.546,0,0,1-.183-.031l-2.819-.975a.56.56,0,0,1-.346-.711.566.566,0,0,1,.711-.346l2.82.975a.56.56,0,0,1-.183,1.089m-21.441-.585a.559.559,0,0,1-.559-.559v-2.983a.56.56,0,0,1,1.119,0v2.983a.559.559,0,0,1-.559.559m-18.049-.446a.561.561,0,0,1-.248-.058q-1.34-.662-2.68-1.25a.559.559,0,1,1,.447-1.025c.91.4,1.821.822,2.729,1.274a.558.558,0,0,1-.249,1.059m33.852-.922a.6.6,0,0,1-.183-.03l-2.819-.975a.56.56,0,0,1,.367-1.057l2.817.975a.559.559,0,0,1-.182,1.087m-39.317-1.477a.549.549,0,0,1-.2-.037q-1.407-.542-2.787-1.008a.56.56,0,0,1,.361-1.06q1.4.477,2.826,1.025a.559.559,0,0,1-.2,1.081m33.679-.473a.572.572,0,0,1-.183-.031l-2.815-.982a.559.559,0,1,1,.365-1.057l2.819.975a.56.56,0,0,1-.182,1.089m-56.135-.741a.559.559,0,0,1-.559-.559v-2.983a.56.56,0,0,1,1.119,0v2.983a.559.559,0,0,1-.559.559m50.375-.485h-2.983a.559.559,0,1,1,0-1.119h2.983a.559.559,0,1,1,0,1.119m-33.572-.221a.545.545,0,0,1-.16-.024c-.975-.291-1.93-.552-2.858-.79a.56.56,0,0,1-.4-.682.568.568,0,0,1,.68-.4c.941.243,1.911.509,2.9.8a.559.559,0,0,1-.16,1.1m-5.784-1.487a.547.547,0,0,1-.121-.013c-1.02-.222-1.994-.415-2.908-.582a.561.561,0,0,1-.452-.65.571.571,0,0,1,.65-.45c.929.168,1.915.364,2.95.591a.559.559,0,0,1-.119,1.105m-5.878-1.065a.552.552,0,0,1-.081-.006c-1.156-.166-2.149-.282-2.944-.364a.559.559,0,0,1-.5-.612h0a.565.565,0,0,1,.613-.5c.807.082,1.817.2,2.99.37a.559.559,0,0,1-.079,1.113" fill="#fff"/><path d="M740.29,474.208a.56.56,0,0,1-.511-.787v0L741,470.7a.567.567,0,0,1,.738-.282.561.561,0,0,1,.283.74l-1.219,2.723a.56.56,0,0,1-.51.331m2.435-5.447a.576.576,0,0,1-.228-.048.561.561,0,0,1-.283-.74l1.219-2.723a.559.559,0,0,1,1.036.42c-.005.012-.01.024-.016.036l-1.217,2.725a.56.56,0,0,1-.51.33m1.915-5.557a.559.559,0,0,1-.559-.559v-2.983a.56.56,0,1,1,1.119,0v2.983a.559.559,0,0,1-.559.559m0-5.966a.559.559,0,0,1-.559-.559V454.49l-.148-.094a.558.558,0,1,1,.594-.945l.41.257a.559.559,0,0,1,.262.474v2.5a.559.559,0,0,1-.559.559m-37.69-1.67a.548.548,0,0,1-.189-.033l-.279-.1a.559.559,0,0,1-.337-.716.551.551,0,0,1,.7-.342l.016.006.151.054,2.528-.339a.56.56,0,0,1,.148,1.11l-2.662.357q-.037,0-.075,0m5.618-.747a.56.56,0,0,1-.073-1.116l2.956-.394a.56.56,0,0,1,.149,1.11l-2.956.4h-.076m-8.705-.358a.548.548,0,0,1-.189-.033l-2.809-1.008a.559.559,0,0,1,.324-1.07.482.482,0,0,1,.053.019l2.807,1.007a.558.558,0,0,1-.188,1.084m14.619-.431a.56.56,0,0,1-.073-1.114l.787-.1,1.72-.969a.56.56,0,0,1,.549.977l-1.814,1.02a.55.55,0,0,1-.2.067l-.895.119q-.038,0-.075,0m-38.03-.119a.554.554,0,0,1-.353-.127l-1.812-1.478a.559.559,0,1,1,.692-.878l.016.013,1.59,1.3.35-.092a.566.566,0,0,1,.682.4.56.56,0,0,1-.4.683h0l-.623.162a.569.569,0,0,1-.142.018m3.509-.92a.559.559,0,0,1-.142-1.1l2.884-.758a.558.558,0,0,1,.285,1.08l-2.886.758a.523.523,0,0,1-.142.019m57.742-.1a.56.56,0,0,1-.3-.087l-2.526-1.588a.56.56,0,1,1,.6-.945L742,451.859a.56.56,0,0,1-.3,1.034m-43.457-.446a.547.547,0,0,1-.188-.033l-2.808-1.005a.56.56,0,0,1,.377-1.054l2.808,1a.56.56,0,0,1-.189,1.087m-8.515-.972a.559.559,0,0,1-.142-1.1l2.886-.758a.559.559,0,1,1,.318,1.072l-.035.009-2.886.758a.57.57,0,0,1-.142.018m34.059-.049a.552.552,0,0,1-.488-.285.56.56,0,0,1,.211-.762h0l2.6-1.463a.56.56,0,1,1,.549.977l-2.6,1.462a.571.571,0,0,1-.273.072m-47.461-.88a.554.554,0,0,1-.353-.127l-2.31-1.885a.559.559,0,0,1,.673-.892.283.283,0,0,1,.034.027l2.312,1.885a.559.559,0,0,1-.355.992m60.322-.826a.551.551,0,0,1-.3-.086l-2.526-1.587a.56.56,0,0,1,.6-.946l2.525,1.585a.559.559,0,0,1-.3,1.034m-7.661-1.22a.559.559,0,0,1-.276-1.047l2.6-1.462a.56.56,0,0,1,.549.975l-2.6,1.462a.554.554,0,0,1-.273.072m-57.282-1.726a.545.545,0,0,1-.354-.127l-1.318-1.077-1.01-.288a.559.559,0,0,1,.307-1.075l1.12.321a.588.588,0,0,1,.2.1l1.408,1.15a.559.559,0,0,1-.355.992m-5.4-2.288a.535.535,0,0,1-.154-.022l-2.868-.82a.559.559,0,1,1,.307-1.074l2.868.819a.56.56,0,0,1-.154,1.1m-5.737-1.639a.536.536,0,0,1-.154-.022l-2.866-.819a.559.559,0,1,1,.3-1.076h0l2.867.82a.559.559,0,0,1-.154,1.1m-5.736-1.638a.536.536,0,0,1-.154-.022l-2.868-.82a.559.559,0,0,1,.307-1.075l2.868.82a.56.56,0,0,1-.154,1.1m-34.856-.347a.559.559,0,0,1-.368-.98l2.143-1.876a.56.56,0,0,1,.737.843l-2.143,1.875a.547.547,0,0,1-.368.139m29.12-1.293a.535.535,0,0,1-.154-.022l-2.868-.819a.558.558,0,1,1,.307-1.074l2.868.819a.559.559,0,0,1-.154,1.1m-5.736-1.639a.665.665,0,0,1-.154-.021l-2.868-.819a.559.559,0,1,1,.3-1.076h0l2.868.819a.559.559,0,0,1-.154,1.1m-18.995-.908a.559.559,0,0,1-.37-.98l2.245-1.966a.56.56,0,0,1,.738.843l-2.245,1.964a.556.556,0,0,1-.368.139m13.259-.729a.574.574,0,0,1-.154-.022l-2.868-.819a.559.559,0,1,1,.3-1.076h0l2.868.819a.56.56,0,0,1-.154,1.1m-5.736-1.639a.535.535,0,0,1-.154-.022l-2.868-.817a.559.559,0,1,1,.3-1.076h0l2.868.819a.559.559,0,0,1-.154,1.1" fill="#fff"/><path d="M738.621,446.5a.561.561,0,0,1-.5-.81l1.333-2.668a.56.56,0,0,1,1,.5l-1.333,2.668a.56.56,0,0,1-.5.309m2.667-5.335a.551.551,0,0,1-.249-.06.56.56,0,0,1-.251-.75l1.335-2.668a.56.56,0,0,1,1,.5l-1.335,2.668a.56.56,0,0,1-.5.309m2.668-5.336a.551.551,0,0,1-.249-.06.56.56,0,0,1-.251-.75l1.335-2.668a.56.56,0,0,1,1,.5l-1.335,2.668a.56.56,0,0,1-.5.309m1.23-5.351a.556.556,0,0,1-.507-.321l-1.275-2.7a.559.559,0,1,1,1-.493l.008.016,1.275,2.7a.559.559,0,0,1-.266.744.565.565,0,0,1-.239.054m-2.553-5.391a.559.559,0,0,1-.506-.321l-1.277-2.7a.559.559,0,0,1,1.011-.477l1.277,2.7a.56.56,0,0,1-.267.744.547.547,0,0,1-.239.055m-2.552-5.4a.558.558,0,0,1-.507-.319l-1.275-2.7a.559.559,0,1,1,1-.493l.008.016,1.275,2.7a.559.559,0,0,1-.264.744h0a.536.536,0,0,1-.239.054m-149.534-2.025a.559.559,0,0,1-.266-1.051l2.626-1.414a.559.559,0,0,1,.529.984l-2.626,1.414a.554.554,0,0,1-.264.067m5.253-2.829a.56.56,0,0,1-.267-1.053l2.626-1.414a.559.559,0,0,1,.531.984l-2.626,1.415a.554.554,0,0,1-.264.067m141.728-.537a.559.559,0,0,1-.506-.321l-1.275-2.7a.559.559,0,0,1,1.01-.479l1.277,2.7a.558.558,0,0,1-.265.744h0a.569.569,0,0,1-.24.054M601.049,412a.559.559,0,0,1-.266-1.051l2.626-1.414a.559.559,0,0,1,.529.984l-2.626,1.414a.554.554,0,0,1-.264.067m5.253-2.829a.56.56,0,0,1-.267-1.052l2.626-1.415a.559.559,0,0,1,.531.984l-2.623,1.424a.554.554,0,0,1-.264.067m128.672-.27a.557.557,0,0,1-.506-.321l-1.277-2.7a.559.559,0,0,1,1-.493l.007.016,1.275,2.7a.559.559,0,0,1-.505.8M611.553,406.35a.559.559,0,0,1-.266-1.051l2.626-1.415a.559.559,0,1,1,.531.984l-2.628,1.415a.554.554,0,0,1-.264.067m5.253-2.829a.559.559,0,0,1-.266-1.052l2.626-1.415a.562.562,0,0,1,.756.228.555.555,0,0,1-.221.753l-.006,0-2.626,1.415a.554.554,0,0,1-.264.067m115.616,0a.556.556,0,0,1-.507-.321l-1.186-2.506a.544.544,0,0,1-.14-.456.523.523,0,0,1,.577-.461l.023,0,.089.016a.555.555,0,0,1,.406.312l1.238,2.614a.559.559,0,0,1-.5.8m-110.363-2.826a.559.559,0,0,1-.267-1.051l2.626-1.415a.559.559,0,0,1,.567.964l-.038.02-2.625,1.415a.532.532,0,0,1-.264.067m106.1-.333a.557.557,0,0,1-.1-.009l-2.935-.53a.559.559,0,1,1,.2-1.1l2.935.528a.56.56,0,0,1-.1,1.111M722.28,399.3a.566.566,0,0,1-.1-.009l-1.457-.262a.556.556,0,0,1-.458-.516l-.1-1.5a.559.559,0,0,1,1.116-.07l.067,1.06,1.026.185a.56.56,0,0,1-.1,1.111m-94.935-1.39a.56.56,0,0,1-.257-1.057l2.653-1.362a.562.562,0,1,1,.512,1l-2.653,1.362a.564.564,0,0,1-.255.061m5.186-2.843a.551.551,0,0,1-.249-.06.558.558,0,0,1-.252-.748v0l1.333-2.668a.56.56,0,0,1,1,.5l-1.333,2.668a.566.566,0,0,1-.5.309m88.022-.507a.559.559,0,0,1-.558-.525l-.189-2.977a.557.557,0,0,1,.52-.592h0a.55.55,0,0,1,.593.5v.018l.189,2.977a.559.559,0,0,1-.522.594h-.036m-85.354-4.829a.54.54,0,0,1-.249-.061.555.555,0,0,1-.254-.743l0-.006,1.333-2.67a.56.56,0,0,1,1,.5l-1.328,2.667a.563.563,0,0,1-.5.31m84.973-1.125a.559.559,0,0,1-.558-.525l-.189-2.975a.559.559,0,0,1,.522-.594.544.544,0,0,1,.592.491c0,.011,0,.022,0,.032l.189,2.975a.559.559,0,0,1-.522.594h-.036m-82.3-4.212a.526.526,0,0,1-.249-.06.557.557,0,0,1-.253-.746l0,0,1.333-2.668a.56.56,0,0,1,1,.5l-1.333,2.668a.562.562,0,0,1-.5.309m81.9-1.721a.527.527,0,0,1-.158-.024l-2.866-.835a.559.559,0,1,1,.288-1.08l.028.008,2.861.846a.559.559,0,0,1-.158,1.1m-32.484-.874a.56.56,0,0,1-.027-1.119l2.98-.14a.593.593,0,0,1,.585.534.558.558,0,0,1-.53.585h0l-2.978.14Zm5.958-.279a.56.56,0,0,1-.025-1.119l2.98-.139a.546.546,0,0,1,.584.5v.029a.562.562,0,0,1-.532.586l-2.98.139Zm5.96-.279a.56.56,0,0,1-.025-1.119l2.978-.14a.578.578,0,0,1,.585.534.558.558,0,0,1-.53.585h0l-2.978.14Zm14.844-.256a.564.564,0,0,1-.158-.022l-1.193-.352-1.548.073a.587.587,0,0,1-.585-.532.559.559,0,0,1,.532-.586l1.642-.078a.578.578,0,0,1,.185.024l1.283.379a.559.559,0,0,1-.158,1.1m-8.886-.022a.56.56,0,0,1-.025-1.119l2.98-.139a.555.555,0,0,1,.585.522v.01a.559.559,0,0,1-.532.586l-2.98.139Zm-20.455-.3a.555.555,0,0,1-.325-.1c-.753-.538-1.582-1.075-2.464-1.6a.559.559,0,1,1,.57-.962c.908.538,1.764,1.093,2.544,1.648a.559.559,0,0,1-.325,1.014m-44.168-1.6a.526.526,0,0,1-.249-.06.557.557,0,0,1-.253-.746l0,0,1.333-2.668a.56.56,0,0,1,1.03.441.649.649,0,0,1-.03.059l-1.333,2.668a.56.56,0,0,1-.5.309m39.044-1.451a.549.549,0,0,1-.251-.06c-.872-.44-1.767-.861-2.674-1.26a.559.559,0,1,1,.41-1.04c.014.005.026.011.039.017.926.407,1.839.835,2.728,1.284a.559.559,0,0,1-.252,1.059m-5.46-2.413a.53.53,0,0,1-.2-.037q-1.391-.537-2.786-1.02a.558.558,0,0,1-.345-.711.566.566,0,0,1,.711-.346c.94.327,1.884.671,2.822,1.035a.559.559,0,0,1-.2,1.08M643.2,373.725a.561.561,0,0,1-.5-.81l.6-1.192a.558.558,0,0,1,.334-.283l1.576-.491a.56.56,0,0,1,.333,1.069l-1.35.419-.489.978a.56.56,0,0,1-.5.309m25.276-.488a.522.522,0,0,1-.166-.025c-.968-.3-1.921-.579-2.85-.838a.56.56,0,1,1,.254-1.091l.046.013c.938.263,1.9.544,2.878.849a.559.559,0,0,1-.164,1.093m-5.751-1.606a.541.541,0,0,1-.139-.018c-1.019-.257-1.988-.485-2.892-.689a.56.56,0,0,1,.246-1.092c.913.206,1.891.438,2.92.7a.559.559,0,0,1-.136,1.1m-14.5-.474a.559.559,0,0,1-.166-1.093l2.849-.886a.56.56,0,0,1,.333,1.069l-2.85.886a.585.585,0,0,1-.166.024m8.674-.844a.575.575,0,0,1-.11-.01c-1.269-.252-2.274-.431-2.925-.54a.56.56,0,0,1-.467-.64l0-.012a.569.569,0,0,1,.644-.458c.658.112,1.673.291,2.957.546a.56.56,0,0,1-.109,1.108" fill="#fff"/><path d="M644.6,470.982a.556.556,0,0,1-.327-.107l-2.418-1.746a.56.56,0,0,1,.625-.929l.031.022,2.418,1.748a.56.56,0,0,1-.33,1.013m-4.835-3.494a.558.558,0,0,1-.327-.106l-2.418-1.748a.56.56,0,0,1,.625-.929l.031.022,2.415,1.749a.56.56,0,0,1-.33,1.013m-4.834-3.5a.561.561,0,0,1-.328-.106l-2.418-1.746a.559.559,0,1,1,.638-.918l.018.013,2.418,1.745a.559.559,0,0,1-.328,1.013m-4.836-3.493a.557.557,0,0,1-.327-.106l-2.416-1.748a.559.559,0,0,1,.655-.9l2.418,1.748a.558.558,0,0,1-.33,1.011m-4.655-3.629a.561.561,0,0,1-.525-.367l-1.022-2.8a.56.56,0,0,1,1.052-.385l1.022,2.8a.559.559,0,0,1-.333.717h0a.544.544,0,0,1-.192.034m-2.043-5.6a.561.561,0,0,1-.525-.367l-1.023-2.8a.559.559,0,0,1,1.05-.385l1.023,2.8a.558.558,0,0,1-.525.752m-2.045-5.6a.56.56,0,0,1-.525-.367l-1.023-2.8a.559.559,0,0,1,1.05-.385l1.023,2.8a.558.558,0,0,1-.525.752m-3.238-4.377a.525.525,0,0,1-.176-.03l-2.831-.944a.559.559,0,0,1,.353-1.06l2.831.944a.56.56,0,0,1-.177,1.09m-5.66-1.887a.529.529,0,0,1-.176-.03l-2.831-.943a.559.559,0,0,1-.354-.707.553.553,0,0,1,.7-.358l.012,0,2.831.943a.56.56,0,0,1-.177,1.09m-5.66-1.887a.555.555,0,0,1-.176-.028l-2.831-.944a.559.559,0,0,1,.339-1.065l.016.005,2.829.944a.559.559,0,0,1-.177,1.089m-5.658-1.885a.535.535,0,0,1-.177-.03l-2.829-.944a.557.557,0,0,1-.353-.7h0a.551.551,0,0,1,.691-.36l.016.005,2.831.944a.56.56,0,0,1-.177,1.09m-5.66-1.887a.535.535,0,0,1-.177-.03l-2.829-.943a.558.558,0,0,1-.353-.707.551.551,0,0,1,.692-.358l.015.005,2.831.944a.559.559,0,0,1-.177,1.089" fill="#fff"/><path d="M238.548,617.4a.557.557,0,0,1-.534-.728l.7-2.228a.559.559,0,1,1,1.073.312l-.008.027-.7,2.228a.558.558,0,0,1-.532.389m1.6-5.072a.588.588,0,0,1-.167-.025.561.561,0,0,1-.365-.7l.261-.829a.56.56,0,0,1,.534-.391h2.113a.56.56,0,0,1,0,1.119h-1.7l-.139.438a.558.558,0,0,1-.534.391m8.131-.829h-2.773a.56.56,0,1,1,0-1.119h2.334a.588.588,0,0,1,1,.349v.21a.559.559,0,0,1-.559.559m0-3.193a.559.559,0,0,1-.559-.559v-2.983a.56.56,0,0,1,1.119,0v2.983a.559.559,0,0,1-.559.559m18.221-1.57h-2.764a.559.559,0,1,1,0-1.119l2.7-.037a.559.559,0,0,1,.515.993l-.194.1a.577.577,0,0,1-.258.063m-5.641-.333a.562.562,0,0,1-.325-.1l-2.427-1.733a.56.56,0,0,1,.65-.911l2.427,1.733a.562.562,0,0,1,.13.78.556.556,0,0,1-.455.234m8.483-1.144a.56.56,0,0,1-.259-1.056l2.647-1.376a.559.559,0,0,1,.515.993l-2.646,1.377a.564.564,0,0,1-.257.063m-13.338-2.324a.551.551,0,0,1-.324-.1l-1.782-1.274h-.436a.56.56,0,1,1,0-1.119h.614a.564.564,0,0,1,.325.1l1.927,1.377a.559.559,0,0,1-.325,1.014m18.631-.429a.56.56,0,0,1-.259-1.056l2.647-1.376a.559.559,0,1,1,.515.993l-2.646,1.377a.564.564,0,0,1-.257.063m-26.356-.166a.559.559,0,0,1-.559-.559V601a.559.559,0,0,1,.559-.559h2.2a.56.56,0,0,1,0,1.119h-1.642v.222a.559.559,0,0,1-.559.559m31.648-2.586a.559.559,0,0,1-.258-1.056l1.933-1,.172-.38a.559.559,0,0,1,1.031.431l-.012.028-.251.556a.55.55,0,0,1-.252.267l-2.1,1.095a.553.553,0,0,1-.258.063m3.581-4.37a.568.568,0,0,1-.23-.049.56.56,0,0,1-.28-.741l1.226-2.719a.56.56,0,0,1,1.02.461l-1.24,2.711a.559.559,0,0,1-.51.33m2.452-5.439a.538.538,0,0,1-.23-.049.56.56,0,0,1-.28-.74l1.226-2.719a.559.559,0,0,1,1.02.459l-1.226,2.72a.56.56,0,0,1-.51.328m2.458-5.44a.56.56,0,0,1-.51-.791l1.226-2.719a.559.559,0,0,1,1.019.461l-1.224,2.719a.56.56,0,0,1-.51.33m2.45-5.439a.526.526,0,0,1-.228-.049.558.558,0,0,1-.28-.739h0l1.224-2.72a.559.559,0,0,1,1.02.459l-1.226,2.722a.56.56,0,0,1-.51.328m40.871-.561a.558.558,0,0,1-.471-.258s-.6-.932-1.636-2.5a.559.559,0,0,1,.919-.637l.013.02c1.047,1.579,1.647,2.516,1.647,2.516a.559.559,0,0,1-.471.861m-38.423-4.88a.569.569,0,0,1-.23-.049.558.558,0,0,1-.28-.739h0l1.226-2.72a.56.56,0,0,1,1.02.461l-1.226,2.719a.559.559,0,0,1-.51.33m35.114-.115a.557.557,0,0,1-.464-.246c-.513-.759-1.075-1.585-1.681-2.464a.559.559,0,0,1,.92-.634c.608.88,1.172,1.709,1.687,2.471a.557.557,0,0,1-.148.774l0,0a.551.551,0,0,1-.312.1m-3.39-4.922a.56.56,0,0,1-.458-.237q-.828-1.181-1.724-2.434a.559.559,0,0,1,.908-.653c.6.837,1.177,1.654,1.732,2.443a.56.56,0,0,1-.458.881m-29.754-.506a.559.559,0,0,1-.559-.559v-2.983a.559.559,0,0,1,1.119,0v2.983a.559.559,0,0,1-.559.559m26.277-4.353a.564.564,0,0,1-.452-.228q-.868-1.188-1.772-2.4a.559.559,0,0,1,.893-.673l0,0q.907,1.215,1.779,2.407a.561.561,0,0,1-.121.783.551.551,0,0,1-.33.107m-26.886-1.539a.558.558,0,0,1-.543-.428l-.7-2.9a.56.56,0,0,1,1.089-.261l.7,2.9a.559.559,0,0,1-.411.674h0a.486.486,0,0,1-.131.016m23.308-3.248a.562.562,0,0,1-.444-.218q-.9-1.18-1.828-2.353a.559.559,0,0,1,.877-.692q.928,1.174,1.839,2.364a.559.559,0,0,1-.1.784h0a.547.547,0,0,1-.339.115M293.283,556.4a.558.558,0,0,1-.543-.428l-.7-2.9a.558.558,0,0,1,.408-.674h0a.55.55,0,0,1,.671.393l.005.019.7,2.9a.557.557,0,0,1-.407.673h-.005a.486.486,0,0,1-.131.016m21.005-2.134a.558.558,0,0,1-.434-.206q-.951-1.166-1.9-2.286a.56.56,0,0,1,.852-.726c.641.752,1.281,1.523,1.919,2.3a.559.559,0,0,1-.433.914m-22.407-3.664a.558.558,0,0,1-.543-.428l-.7-2.9a.557.557,0,0,1,.409-.673h0a.55.55,0,0,1,.67.4l0,.015.7,2.9a.557.557,0,0,1-.409.673h0a.485.485,0,0,1-.131.015m18.534-.886a.551.551,0,0,1-.416-.186q-1.016-1.134-2.013-2.183a.56.56,0,0,1,.81-.773q1.01,1.06,2.036,2.21a.559.559,0,0,1-.043.789.547.547,0,0,1-.373.143m-18.59-3.958a.559.559,0,0,1-.055-1.115l2.969-.3a.579.579,0,0,1,.612.5.559.559,0,0,1-.5.611l-2.968.3h-.057m14.461-.356a.562.562,0,0,1-.388-.155q-.432-.418-.859-.807l-1.286.128a.566.566,0,0,1-.611-.5.559.559,0,0,1,.5-.612h0l1.535-.154a.556.556,0,0,1,.431.143c.352.319.7.65,1.065.995a.559.559,0,0,1-.388.962m-8.525-.237a.559.559,0,0,1-.055-1.116l2.968-.3a.575.575,0,0,1,.613.5.56.56,0,0,1-.5.611l-2.968.3h-.057" fill="#fff"/></g><path d="M474.688,421.821l-118.03,149.3,5.851,4.625,114.078-144.3,96.536,54.3,145.535-19.708-1-7.391L574.6,478.021Z" fill="#001976"/><rect width="8.949" height="4.474" transform="translate(357.829 572.05) rotate(-51.702)" fill="#fff"/><path d="M378.548,553.052l-3.509-2.777L386.7,535.522l3.514,2.778Zm23.324-29.5-3.509-2.776,11.66-14.754,3.511,2.776Zm23.323-29.5-3.509-2.776,11.661-14.754,3.511,2.777Zm23.324-29.5-3.511-2.776,11.662-14.761,3.511,2.776Z" fill="#fff"/><path d="M471.843,435.039l-3.511-2.776,6.735-8.517,9.466,5.323-2.194,3.9-6.133-3.45Z" fill="#fff"/><path d="M573.418,484.2l-10.486-5.9,2.194-3.9,9.177,5.163,6.406-.868.6,4.434Zm26.216-3.548-.6-4.434,18.326-2.482.6,4.432Zm36.653-4.965-.6-4.432,18.325-2.482.6,4.432Zm36.653-4.962-.6-4.432,18.326-2.482.6,4.432Zm-126.127-1.489L530.7,460.167l2.192-3.9,16.119,9.065ZM514.58,451.1l-16.119-9.066,2.194-3.9,16.119,9.066Z" fill="#fff"/><rect width="8.948" height="4.474" transform="translate(708.992 461.324) rotate(-7.701)" fill="#fff"/><g clip-path="url(#c)"><path d="M498.946,633.7a3.531,3.531,0,0,1-.371-.019l-57.664-5.76a3.716,3.716,0,0,1-1.3-.374l-81.7-40.859,3.335-6.671,81.085,40.553,55.688,5.563,26.153-16.813,39.287-50.092a3.732,3.732,0,0,1,2.935-1.427h52.047l36.607-35.643a3.728,3.728,0,0,1,1.954-1l32.073-5.66,25.9-42.214,6.355,3.9L694.556,520.83a3.723,3.723,0,0,1-2.529,1.723L659.432,528.3l-36.871,35.9a3.726,3.726,0,0,1-2.6,1.057H568.21l-38.556,49.16a3.76,3.76,0,0,1-.917.835l-27.775,17.855a3.732,3.732,0,0,1-2.016.592" fill="#0b7500"/><path d="M499.5,632.279l-6.868-.688.443-4.45,5.317.529,9.25-5.945,2.419,3.763Zm-24.677-2.465-17.809-1.778.446-4.45,17.807,1.779Zm-36.207-4.431-16.007-8,2-4,16.007,8Zm86.5-9.572-2.419-3.763,2.5-1.606,8.747-11.151,3.52,2.761L528.253,613.8ZM406.6,609.373l-16.007-8,2-4,16.006,8Zm-32.012-16.012-16.006-8,2-4,16.006,8Zm173.917-5.391-3.52-2.761,11.044-14.083,3.521,2.762Zm72.365-24.2H606.143V559.3h12.908l2.271-2.212,3.122,3.205Zm-32.625,0h-17.9V559.3h17.9Zm49.02-15.966-3.122-3.207,12.823-12.485,3.122,3.207Zm25.855-21.668-.777-4.407,17.624-3.11.777,4.407Zm33.668-11.8L692.98,512l9.36-15.256,3.814,2.34Zm18.722-30.508-3.814-2.339,4.553-7.42,3.812,2.339Z" fill="#fff"/><path d="M498.946,622.442q-.15,0-.3-.015l-57.664-5.761a3.016,3.016,0,0,1-1.038-.3l-81.7-40.86,2.668-5.336,81.208,40.616,56.083,5.6,26.479-17.021,39.366-50.191a2.984,2.984,0,0,1,2.347-1.142h52.35l36.826-35.855a2.994,2.994,0,0,1,1.562-.8l32.4-5.718,26.08-42.5,5.084,3.12L693.92,509.924A2.978,2.978,0,0,1,691.9,511.3l-32.82,5.791-37.036,36.06a2.981,2.981,0,0,1-2.081.846H567.848l-38.781,49.444a2.994,2.994,0,0,1-.734.668L500.56,621.965a2.99,2.99,0,0,1-1.614.473" fill="#e7a24f"/><path d="M369.208,577.45l-4.37-4.064,74.393-80.013a2.992,2.992,0,0,1,2.185-.952h27.4l9.867-41.191a2.982,2.982,0,0,1,3.594-2.207,3.044,3.044,0,0,1,.586.207l90.66,43.068,140.13-25.618,1.074,5.869-141.074,25.79a2.993,2.993,0,0,1-1.817-.24l-88.2-41.9-9.558,39.9a2.979,2.979,0,0,1-2.9,2.288H442.717Z" fill="#e7a24f"/><path d="M369.966,577.9a10.382,10.382,0,1,1-10.383-10.383A10.382,10.382,0,0,1,369.966,577.9" fill="#fff"/><path d="M359.582,589.026A11.128,11.128,0,1,1,370.709,577.9v0a11.14,11.14,0,0,1-11.127,11.127m0-20.765a9.637,9.637,0,1,0,9.636,9.638,9.638,9.638,0,0,0-9.636-9.638" fill="#1a1311"/><path d="M728.542,468.3a10.382,10.382,0,1,1-10.383-10.383A10.382,10.382,0,0,1,728.542,468.3" fill="#fff"/><path d="M718.16,479.424A11.128,11.128,0,1,1,729.287,468.3v0a11.14,11.14,0,0,1-11.127,11.127m0-20.765A9.637,9.637,0,1,0,727.8,468.3a9.638,9.638,0,0,0-9.636-9.638" fill="#1a1311"/><path d="M486.515,430.422a10.382,10.382,0,1,1-10.383-10.383,10.382,10.382,0,0,1,10.383,10.383" fill="#fff"/><path d="M486.515,430.422a10.382,10.382,0,1,1-10.383-10.383,10.382,10.382,0,0,1,10.383,10.383" fill="none" stroke="#000" stroke-miterlimit="10" stroke-width="1"/><path d="M589.922,480.807a10.382,10.382,0,1,1-10.383-10.383,10.382,10.382,0,0,1,10.383,10.383" fill="#fff"/><path d="M589.922,480.807a10.382,10.382,0,1,1-10.383-10.383,10.382,10.382,0,0,1,10.383,10.383" fill="none" stroke="#000" stroke-miterlimit="10" stroke-width="1"/></g><g clip-path="url(#d)"><path d="M591.94,461.568a8.313,8.313,0,0,1,6.482,13.52l-6.482,9.974-6.485-9.974a8.313,8.313,0,0,1,6.485-13.52" fill="#df1f1c"/><path d="M591.94,473.429a3.543,3.543,0,1,0-3.543-3.543,3.543,3.543,0,0,0,3.543,3.543" fill="#971a1a"/></g><g clip-path="url(#c)"><path d="M563.115,506.687h57.651a4,4,0,0,1,4,4v20.847a4,4,0,0,1-4,4H563.115a4,4,0,0,1-4-4V510.687a4,4,0,0,1,4-4" fill="#1750a2"/><g style="isolation:isolate"><g clip-path="url(#f)"><g style="isolation:isolate"><g clip-path="url(#f)"><text transform="translate(572.233 526.684)" fill="#fff" font-size="16" font-family="SegoeUI, Segoe UI"><tspan x="0" y="0"> </tspan><tspan y="0" font-family="YuGothicUI-Regular, Yu Gothic UI"></tspan></text></g></g></g></g><path d="M592.437,492.762l5.471,13.926H586.966Z" fill="#1750a2"/></g><g clip-path="url(#h)"><path d="M733.258,446.074a8.313,8.313,0,0,1,6.482,13.52l-6.482,9.974-6.485-9.974a8.313,8.313,0,0,1,6.485-13.52" fill="#df1f1c"/><path d="M733.258,457.935a3.543,3.543,0,1,0-3.543-3.543,3.543,3.543,0,0,0,3.543,3.543" fill="#971a1a"/></g><path d="M682.94,399.681H784.353a4,4,0,0,1,4,4v22.836a4,4,0,0,1-4,4H682.94a4,4,0,0,1-4-4V403.681a4,4,0,0,1,4-4" fill="#1750a2"/><g clip-path="url(#i)"><g style="isolation:isolate"><g clip-path="url(#i)"><text transform="translate(694.939 420.671)" fill="#fff" font-size="16" font-family="YuGothicUI-Regular, Yu Gothic UI"><tspan x="0" y="0"></tspan></text></g></g></g><path d="M733.41,444.443l-5.471-15.915h10.942Z" fill="#1750a2"/><path d="M800.938,573.915H677.524a3.5,3.5,0,0,1-3.5-3.5V522.58a3.5,3.5,0,0,1,3.5-3.5h57.042l.116-.338,4.313-12.549,4.316,12.55.116.337h57.511a3.506,3.506,0,0,1,3.5,3.5v47.833a3.506,3.506,0,0,1-3.5,3.5" fill="#fff"/><path d="M800.938,573.415a3.005,3.005,0,0,0,3-3V522.58a3.005,3.005,0,0,0-3-3H743.07l-.232-.675-3.843-11.174-4.072,11.849h-57.4a3,3,0,0,0-3,3v47.833a3,3,0,0,0,3,3Zm0,1H677.524a4,4,0,0,1-4-4V522.58a4,4,0,0,1,4-4h56.685l4.786-13.925,4.789,13.925h57.154a4,4,0,0,1,4,4v47.833a4,4,0,0,1-4,4" fill="#1750a2"/><path d="M390.352,647.945H266.938a3.5,3.5,0,0,1-3.5-3.5V596.61a3.5,3.5,0,0,1,3.5-3.5H323.98l.116-.338,4.313-12.549,4.316,12.55.116.337h57.511a3.506,3.506,0,0,1,3.5,3.5v47.833a3.506,3.506,0,0,1-3.5,3.5" fill="#fff"/><path d="M390.352,647.445a3.005,3.005,0,0,0,3-3V596.609a3,3,0,0,0-3-3H332.484l-.232-.675-3.843-11.174-4.072,11.849h-57.4a3,3,0,0,0-3,3v47.834a3,3,0,0,0,3,3Zm0,1H266.938a4,4,0,0,1-4-4V596.609a4,4,0,0,1,4-4h56.685l4.786-13.925,4.789,13.925h57.154a4,4,0,0,1,4,4v47.834a4,4,0,0,1-4,4" fill="#1750a2"/><g clip-path="url(#k)"><g style="isolation:isolate"><g clip-path="url(#l)"><text transform="translate(693.525 541.249)" fill="#1750a2" font-size="14" font-family="YuGothicUI-Regular, Yu Gothic UI"><tspan x="0" y="0"></tspan><tspan y="0" letter-spacing="-0.25em"></tspan><tspan y="0"></tspan><tspan y="0" font-family="SegoeUI, Segoe UI">2</tspan><tspan y="0"></tspan></text></g></g><g style="isolation:isolate"><g clip-path="url(#m)"><text transform="translate(693.525 561.249)" fill="#1750a2" font-size="14" font-family="YuGothicUI-Regular, Yu Gothic UI"><tspan x="0" y="0"></tspan><tspan y="0" letter-spacing="-0.25em"></tspan><tspan y="0"></tspan><tspan y="0" font-family="SegoeUI, Segoe UI">2</tspan><tspan y="0"></tspan></text></g></g></g><g clip-path="url(#n)"><g style="isolation:isolate"><g clip-path="url(#n)"><text transform="translate(806.775 629.704)" fill="#1d1d1d" font-size="14" font-family="YuGothicUI-Regular, Yu Gothic UI"><tspan x="0" y="0"></tspan></text></g></g></g><g clip-path="url(#p)"><g style="isolation:isolate"><g clip-path="url(#p)"><text transform="translate(806.775 654.913)" fill="#1d1d1d" font-size="14" font-family="YuGothicUI-Regular, Yu Gothic UI"><tspan x="0" y="0"></tspan></text></g></g></g><g clip-path="url(#r)"><g style="isolation:isolate"><g clip-path="url(#r)"><text transform="translate(434.939 520.913)" fill="#1d1d1d" font-size="14" font-family="YuGothicUI-Regular, Yu Gothic UI"><tspan x="0" y="0"></tspan></text></g></g></g><g clip-path="url(#t)"><g style="isolation:isolate"><g clip-path="url(#u)"><text transform="translate(282.939 615.28)" fill="#1750a2" font-size="14" font-family="YuGothicUI-Regular, Yu Gothic UI"><tspan x="0" y="0"></tspan><tspan y="0" letter-spacing="-0.25em"></tspan><tspan y="0"></tspan><tspan y="0" font-family="SegoeUI, Segoe UI">3</tspan><tspan y="0"></tspan></text></g></g><g style="isolation:isolate"><g clip-path="url(#v)"><text transform="translate(282.939 635.28)" fill="#1750a2" font-size="14" font-family="YuGothicUI-Regular, Yu Gothic UI"><tspan x="0" y="0"></tspan><tspan y="0" letter-spacing="-0.25em"></tspan><tspan y="0"></tspan><tspan y="0" font-family="SegoeUI, Segoe UI">3</tspan><tspan y="0"></tspan></text></g></g></g><g clip-path="url(#w)"><g style="isolation:isolate"><g clip-path="url(#w)"><text transform="translate(305.439 573.683)" fill="#1d1d1d" font-size="15" font-family="YuGothicUI-Regular, Yu Gothic UI"><tspan x="0" y="0"></tspan></text></g></g></g><g clip-path="url(#y)"><g style="isolation:isolate"><g clip-path="url(#y)"><text transform="translate(723.939 497.551)" fill="#1d1d1d" font-size="15" font-family="YuGothicUI-Regular, Yu Gothic UI"><tspan x="0" y="0"></tspan></text></g></g></g><line x2="62.316" transform="translate(735.104 625.64)" fill="none" stroke="#001976" stroke-miterlimit="10" stroke-width="5"/><line x2="62.316" transform="translate(736.137 625.64)" fill="none" stroke="#fff" stroke-miterlimit="10" stroke-width="3" stroke-dasharray="12 12"/><line x2="62.316" transform="translate(735.104 648.413)" fill="none" stroke="#e7a24f" stroke-linejoin="round" stroke-width="4"/><g clip-path="url(#aa)"><g style="isolation:isolate"><g clip-path="url(#aa)"><text transform="translate(807.385 606.528)" fill="#1d1d1d" font-size="14" font-family="YuGothicUI-Regular, Yu Gothic UI"><tspan x="0" y="0"></tspan></text></g></g></g><line x2="62.316" transform="translate(735.711 602.463)" fill="none" stroke="#0b7500" stroke-miterlimit="10" stroke-width="5"/><line x2="62.316" transform="translate(736.744 602.463)" fill="none" stroke="#fff" stroke-miterlimit="10" stroke-width="3" stroke-dasharray="12 12"/><g clip-path="url(#ac)"><g style="isolation:isolate"><g clip-path="url(#ac)"><text transform="translate(560.804 459.864)" fill="#1d1d1d" font-size="15" font-family="YuGothicUI-Regular, Yu Gothic UI"><tspan x="0" y="0"></tspan></text></g></g></g><g clip-path="url(#ae)"><g style="isolation:isolate"><g clip-path="url(#ae)"><text transform="translate(458.804 412.864)" fill="#1d1d1d" font-size="15" font-family="YuGothicUI-Regular, Yu Gothic UI"><tspan x="0" y="0"></tspan></text></g></g></g><g clip-path="url(#ag)"><g style="isolation:isolate"><g clip-path="url(#ag)"><text transform="translate(428.804 594.864)" fill="#1d1d1d" font-size="15" font-family="YuGothicUI-Regular, Yu Gothic UI"><tspan x="0" y="0"></tspan></text></g></g></g><rect width="883.788" height="826.432" fill="none"/></g></g></g></svg>