<svg xmlns="http://www.w3.org/2000/svg" xmlns:xlink="http://www.w3.org/1999/xlink" width="272" height="296.446" viewBox="0 0 272 296.446"><defs><clipPath id="a"><rect width="272" height="296.446" fill="none"/></clipPath><clipPath id="c"><rect width="4.857" height="13.117" fill="none"/></clipPath><clipPath id="d"><rect width="113.872" height="66.544" fill="none"/></clipPath></defs><g clip-path="url(#a)"><g clip-path="url(#a)"><path d="M109.182,186.862a4.23,4.23,0,0,1,3.815,0l6.687,3.861,14.154-8.172-11.633-6.716c-2.948-1.7-2.948-4.487,0-6.19a11.893,11.893,0,0,1,10.72,0l11.633,6.717,4.219-2.436L135.5,166.263a1.164,1.164,0,0,1,0-2.2,4.234,4.234,0,0,1,3.815,0l13.272,7.663L177.4,157.4l42.488,24.53c-1.132-1.587-.587-3.487,1.638-4.772a12.071,12.071,0,0,1,9.178-.679l-2.977-1.719c-2.337-1.349-2.337-3.558,0-4.906h0a9.43,9.43,0,0,1,8.5,0l55.146,31.839c2.337,1.349,2.337,3.558,0,4.907a9.57,9.57,0,0,1-7.092.6l17.529,10.12c2.948,1.7,2.948,4.487,0,6.19a11.893,11.893,0,0,1-10.72,0l-31.7-18.3-3.766,2.174,29.15,16.83c1.323.764,1.323,2.014,0,2.778a5.337,5.337,0,0,1-4.811,0l-29.15-16.83-5.727,3.306,21.9,12.646a1.164,1.164,0,0,1,0,2.2,4.234,4.234,0,0,1-3.815,0l-21.9-12.647L229.084,222.7l4.513,2.605a1.164,1.164,0,0,1,0,2.2,4.234,4.234,0,0,1-3.815,0l-4.513-2.606-5.228,3.019,20.336,11.741c2.948,1.7,2.948,4.487,0,6.189h0a11.888,11.888,0,0,1-10.72,0L209.32,234.113l-7.242,4.181,20.882,12.056a1.164,1.164,0,0,1,0,2.2,4.233,4.233,0,0,1-3.814,0l-24.755-14.292-.039-.025L133.964,203.37c-.008,0-.018-.008-.027-.014l-24.755-14.292a1.164,1.164,0,0,1,0-2.2" transform="translate(-32.015 -46.49)" fill="#fcbb65"/><path d="M196.3,150.372h17.9l-8.948,5.166Z" transform="translate(-57.979 -44.414)" fill="#1c80cc"/><path d="M176.377,255.571h0a4.234,4.234,0,0,1,3.815,0l24.755,14.292a1.164,1.164,0,0,1,0,2.2h0a4.229,4.229,0,0,1-3.814,0l-24.755-14.292a1.164,1.164,0,0,1,0-2.2" transform="translate(-51.862 -75.35)" fill="#094372"/><path d="M131.209,230.473a4.23,4.23,0,0,1,3.815,0l24.754,14.292a1.164,1.164,0,0,1,0,2.2,4.233,4.233,0,0,1-3.814,0l-24.755-14.292a1.164,1.164,0,0,1,0-2.2" transform="translate(-38.521 -67.938)" fill="#094372"/><path d="M144.417,248.434a4.234,4.234,0,0,1,3.815,0l24.755,14.292a1.164,1.164,0,0,1,0,2.2,4.23,4.23,0,0,1-3.815,0l-24.755-14.292a1.164,1.164,0,0,1,0-2.2" transform="translate(-42.422 -73.242)" fill="#094372"/><path d="M173.824,150.372,120.2,181.333l80.438,46.441,62.574-36.127-71.49-41.274-8.948,5.166Z" transform="translate(-35.501 -44.414)" fill="#094372"/><path d="M364.028.04c-.021-.013-.042-.027-.063-.041Z" transform="translate(-107.5 0)" fill="#82aaff"/><path d="M364.066.065l-.013-.008.014.008Z" transform="translate(-107.526 -0.017)" fill="#5259a8"/><path d="M105.7,50.444l20.792-12c1.511-.872,2.847-.893,3.656-.214l1.43.949,3.238,2.087a2.9,2.9,0,0,0-2.421-.026,5.981,5.981,0,0,0-.941.444L129.157,43l-18.5,10.68c-2.472,1.427-4.475,4.587-4.475,7.059V83.208c0,.015,0,.03,0,.045a2.524,2.524,0,0,0,.967,2.175l-4.822-3.152,0,0a2.464,2.464,0,0,1-1.111-2.3V57.5c0-2.472,2-5.632,4.475-7.059" transform="translate(-29.896 -11.149)" fill="#7ed8fb"/><path d="M112.738,55.042l18.5-10.68,2.293-1.324a5.912,5.912,0,0,1,.941-.443,2.9,2.9,0,0,1,2.421.025l.212.137.006,0,.013.011a2.594,2.594,0,0,1,.882,2.158V67.394c0,2.472-2,5.632-4.475,7.059l-20.792,12a5.972,5.972,0,0,1-.927.439,2.879,2.879,0,0,1-2.473-.042l-.02-.011-.088-.057a2.524,2.524,0,0,1-.967-2.175c0-.016,0-.03,0-.045V62.1c0-2.472,2-5.632,4.475-7.059" transform="translate(-31.976 -12.507)" fill="#094372"/><path d="M128.62,77.2a4.285,4.285,0,0,0,1.507-1.588,3.326,3.326,0,0,0,.488-1.95l-.306-2.421a9.126,9.126,0,0,0,1.856-5.254c-.079-2.549-2.06-3.564-4.512-2.309q-.153.078-.306.166a10.237,10.237,0,0,0-4.819,7.873c0,1.571.7,2.654,1.858,2.943l-.306,2.775a1.368,1.368,0,0,0,.488,1.386,1.485,1.485,0,0,0,1.507-.152Z" transform="translate(-36.189 -18.649)" fill="#fcbb65"/><path d="M123.79,71.653a8.3,8.3,0,0,1,4.181-6.557c2-1.025,3.613-.2,3.678,1.884a7.736,7.736,0,0,1-1.916,4.808q.186,1.474.373,2.948a2.3,2.3,0,0,1-1.113,1.972l-2.544,1.469c-.674.389-1.2.066-1.113-.688q.187-1.69.373-3.379c-1.149-.061-1.918-.943-1.918-2.458" transform="translate(-36.562 -19.097)" fill="#1c80cc"/><path d="M145.978,68.443l3.167-1.829V50.563l-3.167,1.829Z" transform="translate(-43.116 -14.934)" fill="#fcbb65"/><path d="M108.263,90.218l3.167-1.829V72.338l-3.167,1.829Z" transform="translate(-31.976 -21.365)" fill="#fcbb65"/><g transform="translate(90.231 45.56)" opacity="0.2" style="mix-blend-mode:multiply;isolation:isolate"><g clip-path="url(#c)"><path d="M129.518,75.8q-.186-1.474-.373-2.948a7.732,7.732,0,0,0,1.916-4.809,2.126,2.126,0,0,0-3.01-2.159,6.433,6.433,0,0,1,1.178-.789c2-1.025,3.613-.2,3.677,1.883a7.734,7.734,0,0,1-1.916,4.809q.186,1.473.373,2.948a2.3,2.3,0,0,1-1.113,1.972l-1.845,1.065a2.3,2.3,0,0,0,1.112-1.972" transform="translate(-128.052 -64.657)" fill="#094372"/></g></g><path d="M113.689,28.5l12.393-7.155a3.744,3.744,0,0,1,3.783-.254,3.184,3.184,0,0,1,1.513,2.872v11.2a1.638,1.638,0,0,1-3.277,0V24.006a2.017,2.017,0,0,0-.381.175l-12.393,7.155a4.357,4.357,0,0,0-2.02,3.059V45.6a1.638,1.638,0,0,1-3.276,0v-11.2a7.586,7.586,0,0,1,3.657-5.9" transform="translate(-32.499 -6.11)" fill="#094372"/><path d="M306.487,143.46l26.81,15.479,26.81-15.479L333.3,127.981Z" transform="translate(-90.523 -37.8)" fill="#fd4a5f"/><path d="M306.487,143.46l26.81,15.479,26.81-15.479L333.3,127.981Z" transform="translate(-90.523 -37.8)" fill="#fcbb65"/><path d="M306.487,157.509l26.81,15.479v-7.56l-26.81-15.479Z" transform="translate(-90.523 -44.288)" fill="#fd4a5f"/><path d="M306.487,157.509l26.81,15.479v-7.56l-26.81-15.479Z" transform="translate(-90.523 -44.288)" fill="#1c80cc"/><path d="M344.535,172.988l26.81-15.479v-7.56l-26.81,15.479Z" transform="translate(-101.761 -44.288)" fill="#094372"/><path d="M306.487,115.416l26.81,15.479,26.81-15.479L333.3,99.937Z" transform="translate(-90.523 -29.517)" fill="#ffe156"/><path d="M306.487,115.416l26.81,15.479,26.81-15.479L333.3,99.937Z" transform="translate(-90.523 -29.517)" fill="#fcbb65"/><path d="M306.487,129.465l26.81,15.479v-7.56L306.487,121.9Z" transform="translate(-90.523 -36.005)" fill="#ffe156"/><path d="M306.487,129.465l26.81,15.479v-7.56L306.487,121.9Z" transform="translate(-90.523 -36.005)" fill="#1c80cc"/><path d="M344.535,144.943l26.81-15.479V121.9l-26.81,15.48Z" transform="translate(-101.761 -36.005)" fill="#094372"/><path d="M315.554,88.386a7.565,7.565,0,0,0,1.135,3.576,13.266,13.266,0,0,0,4.839,4.439c7.977,4.606,20.91,4.606,28.886,0a13.281,13.281,0,0,0,4.829-4.424,7.494,7.494,0,0,0,1.153-3.915l-.011,7.9c0-.018,0-.037,0-.056-.014,3.007-2.007,6.012-5.981,8.306-7.977,4.606-20.909,4.606-28.885,0-3.516-2.029-5.481-4.615-5.9-7.267l-.016-2.031-.051-6.53Z" transform="translate(-93.201 -26.01)" fill="#fd4a5f"/><path d="M321.53,74.781c7.976-4.606,20.908-4.606,28.885,0,3.989,2.3,5.983,5.321,5.983,8.339a7.494,7.494,0,0,1-1.154,3.914,13.273,13.273,0,0,1-4.83,4.424c-7.977,4.6-20.909,4.6-28.885,0a13.255,13.255,0,0,1-4.839-4.44,7.564,7.564,0,0,1-1.136-3.576c-.148-3.124,1.843-6.277,5.975-8.661" transform="translate(-93.199 -21.067)" fill="#fcbb65"/><path d="M332.248,23.93v9.493c0,2.506,2.032,3.365,4.538,1.917l.4-.23c.889-.514,1.611-.209,1.611.681V52.666l-2.222,1.283v3.914l2.222-1.283v1l-2.222,1.283v3.914l2.222-1.283v1l-2.222,1.283v4.219l2.222-1.284.775-.447.808-.466a8.066,8.066,0,0,0,3.889-6.134V32.632a3.342,3.342,0,0,1,1.611-2.541l.4-.23c2.506-1.447,4.538-4.652,4.538-7.158V13.21h0c0-.14-.008-.273-.021-.4,0-.039-.008-.076-.013-.113-.012-.1-.027-.187-.046-.276-.007-.034-.013-.068-.021-.1a3.031,3.031,0,0,0-.1-.32c-.011-.029-.025-.055-.036-.083a2.227,2.227,0,0,0-.1-.207c-.02-.039-.041-.075-.063-.112-.032-.053-.066-.1-.1-.152s-.048-.07-.075-.1a1.975,1.975,0,0,0-.173-.186c-.039-.037-.082-.07-.124-.1s-.059-.047-.09-.069c-.049-.034-.1-.067-.149-.1-.02-.012-.042-.022-.063-.033a2.164,2.164,0,0,0-.629-.216l-.04-.006a4.169,4.169,0,0,0-2.7.662l-9.493,5.481c-2.506,1.447-4.538,4.651-4.538,7.158m11.2-6.091a3.973,3.973,0,0,1-1.915,3.021c-1.058.611-1.915.248-1.915-.81a3.973,3.973,0,0,1,1.915-3.021c1.058-.61,1.915-.248,1.915.81" transform="translate(-98.132 -3.129)" fill="#1c80cc"/><path d="M334.3,24.8v9.492c0,2.506,2.032,3.365,4.539,1.918l.4-.231c.889-.513,1.611-.209,1.611.681V53.53l-2.222,1.283v3.914l2.222-1.283v1l-2.222,1.283V63.64l2.222-1.283v1l-2.222,1.283v4.219l2.222-1.283.775-.447.808-.467a8.064,8.064,0,0,0,3.889-6.134V33.5a3.341,3.341,0,0,1,1.612-2.541l.4-.23c2.506-1.447,4.538-4.652,4.538-7.158V14.075c0-2.506-2.031-3.365-4.538-1.918l-9.492,5.481c-2.506,1.447-4.539,4.652-4.539,7.158M345.5,18.7a3.973,3.973,0,0,1-1.915,3.021c-1.058.611-1.915.248-1.915-.81a3.973,3.973,0,0,1,1.915-3.021c1.058-.61,1.915-.248,1.915.81" transform="translate(-98.737 -3.383)" fill="#094372"/><path d="M315.559,88.386a7.573,7.573,0,0,0,1.135,3.576,13.266,13.266,0,0,0,4.839,4.439c7.977,4.606,20.91,4.606,28.886,0a13.282,13.282,0,0,0,4.829-4.424,7.494,7.494,0,0,0,1.153-3.915l-.01,7.9c0-.018,0-.037,0-.056-.013,3.007-2.006,6.012-5.98,8.306-7.977,4.606-20.909,4.606-28.885,0-3.516-2.029-5.481-4.615-5.9-7.267l-.016-2.031-.051-6.53Z" transform="translate(-93.202 -26.01)" fill="#094372"/><path d="M213.932,229.485,236.59,216.4a3.962,3.962,0,0,1,3.582,0,1.092,1.092,0,0,1,0,2.068l-22.659,13.082a3.96,3.96,0,0,1-3.582,0,1.092,1.092,0,0,1,0-2.068" transform="translate(-62.967 -63.79)" fill="#fff"/><path d="M201.75,221.522l22.658-13.082a3.962,3.962,0,0,1,3.582,0,1.092,1.092,0,0,1,0,2.068L205.332,223.59a3.962,3.962,0,0,1-3.582,0,1.092,1.092,0,0,1,0-2.068" transform="translate(-59.369 -61.438)" fill="#fff"/><path d="M188.151,213.967l22.658-13.082a3.962,3.962,0,0,1,3.582,0,1.092,1.092,0,0,1,0,2.068l-22.658,13.082a3.961,3.961,0,0,1-3.582,0,1.092,1.092,0,0,1,0-2.068" transform="translate(-55.353 -59.206)" fill="#fff"/><path d="M174.552,206.412l22.658-13.082a3.962,3.962,0,0,1,3.582,0,1.092,1.092,0,0,1,0,2.068L178.134,208.48a3.961,3.961,0,0,1-3.582,0,1.092,1.092,0,0,1,0-2.068" transform="translate(-51.336 -56.975)" fill="#fff"/><path d="M160.954,198.858l22.658-13.082a3.96,3.96,0,0,1,3.582,0,1.092,1.092,0,0,1,0,2.068l-22.657,13.082a3.961,3.961,0,0,1-3.582,0,1.092,1.092,0,0,1,0-2.068" transform="translate(-47.32 -54.744)" fill="#fff"/><path d="M147.355,191.3l22.658-13.082a3.96,3.96,0,0,1,3.582,0,1.092,1.092,0,0,1,0,2.068l-22.657,13.082a3.962,3.962,0,0,1-3.582,0,1.092,1.092,0,0,1,0-2.068" transform="translate(-43.303 -52.513)" fill="#fff"/><path d="M127.374,81.287,184.734,48.17,215.6,30.349v84.819L196.145,126.4l-11.411-6.588V74.328l-57.359,33.116v58.662L96.507,183.928V99.109Z" transform="translate(-28.504 -8.964)" fill="#094372"/><path d="M136.385,86.416,193.745,53.3l30.868-17.822V120.3l-17.4,10.043-13.473-7.778V79.457l-57.359,33.117v58.661l-30.868,17.822V104.238Z" transform="translate(-31.165 -10.479)" fill="#7ed8fb"/><path d="M102.856,216.363l-6.35-3.614V127.93l6.35,3.614Z" transform="translate(-28.504 -37.785)" fill="#094372"/><path d="M221.951,33.963l-6.35-3.614-119.1,68.76,6.35,3.614Z" transform="translate(-28.504 -8.964)" fill="#1c80cc"/><path d="M208.234,93.835l6.19-3.574a3.873,3.873,0,0,0,1.867-2.945V81.125c0-1.031-.836-1.385-1.867-.789l-6.19,3.575a3.871,3.871,0,0,0-1.867,2.945v6.19c0,1.032.836,1.385,1.867.789" transform="translate(-60.952 -23.642)" fill="#094372"/><path d="M190.376,104.145l6.19-3.574a3.873,3.873,0,0,0,1.867-2.945V91.435c0-1.031-.836-1.385-1.867-.789l-6.19,3.575a3.872,3.872,0,0,0-1.867,2.945v6.19c0,1.032.836,1.385,1.867.789" transform="translate(-55.677 -26.687)" fill="#094372"/><path d="M172.518,114.456l6.19-3.574a3.873,3.873,0,0,0,1.867-2.945v-6.191c0-1.031-.836-1.385-1.867-.789l-6.19,3.575a3.872,3.872,0,0,0-1.867,2.945v6.19c0,1.032.836,1.385,1.867.789" transform="translate(-50.403 -29.733)" fill="#094372"/><path d="M154.66,124.766l6.19-3.574a3.873,3.873,0,0,0,1.867-2.945v-6.191c0-1.031-.836-1.385-1.867-.789l-6.19,3.575a3.872,3.872,0,0,0-1.867,2.945v6.19c0,1.032.836,1.385,1.867.789" transform="translate(-45.128 -32.778)" fill="#094372"/><path d="M216.262,85.227c0,.525.426.7.951.4a1.972,1.972,0,0,0,.951-1.5c0-.525-.426-.7-.951-.4a1.972,1.972,0,0,0-.951,1.5" transform="translate(-63.874 -24.686)" fill="#f75c5c"/><path d="M212.061,87.653c0,.525.426.7.951.4a1.972,1.972,0,0,0,.951-1.5c0-.524-.426-.7-.951-.4a1.972,1.972,0,0,0-.951,1.5" transform="translate(-62.634 -25.403)" fill="#f75c5c"/><path d="M207.859,90.079c0,.525.426.7.951.4a1.972,1.972,0,0,0,.951-1.5c0-.526-.426-.705-.951-.4a1.972,1.972,0,0,0-.951,1.5" transform="translate(-61.393 -26.119)" fill="#f75c5c"/><path d="M216.262,90.813c0,.525.426.7.951.4a1.97,1.97,0,0,0,.951-1.5c0-.526-.426-.705-.951-.4a1.972,1.972,0,0,0-.951,1.5" transform="translate(-63.874 -26.336)" fill="#f75c5c"/><path d="M212.061,93.239c0,.525.426.7.951.4a1.972,1.972,0,0,0,.951-1.5c0-.525-.426-.705-.951-.4a1.972,1.972,0,0,0-.951,1.5" transform="translate(-62.634 -27.052)" fill="#f75c5c"/><path d="M207.859,95.665c0,.525.426.7.951.4a1.972,1.972,0,0,0,.951-1.5c0-.525-.426-.7-.951-.4a1.972,1.972,0,0,0-.951,1.5" transform="translate(-61.393 -27.769)" fill="#f75c5c"/><path d="M180.546,105.848c0,.525.426.7.951.4a1.97,1.97,0,0,0,.951-1.5c0-.526-.426-.705-.951-.4a1.972,1.972,0,0,0-.951,1.5" transform="translate(-53.325 -30.777)" fill="#f75c5c"/><path d="M176.345,108.274c0,.525.426.7.951.4a1.972,1.972,0,0,0,.951-1.5c0-.526-.426-.705-.951-.4a1.972,1.972,0,0,0-.951,1.5" transform="translate(-52.085 -31.493)" fill="#f75c5c"/><path d="M172.143,110.7c0,.526.426.7.951.4a1.972,1.972,0,0,0,.951-1.5c0-.525-.426-.7-.951-.4a1.97,1.97,0,0,0-.951,1.5" transform="translate(-50.844 -32.21)" fill="#f75c5c"/><path d="M180.546,111.434c0,.525.426.7.951.4a1.972,1.972,0,0,0,.951-1.5c0-.525-.426-.7-.951-.4a1.972,1.972,0,0,0-.951,1.5" transform="translate(-53.325 -32.426)" fill="#f75c5c"/><path d="M176.345,113.86c0,.525.426.7.951.4a1.972,1.972,0,0,0,.951-1.5c0-.525-.426-.7-.951-.4a1.972,1.972,0,0,0-.951,1.5" transform="translate(-52.085 -33.143)" fill="#f75c5c"/><path d="M172.143,116.286c0,.525.426.7.951.4a1.972,1.972,0,0,0,.951-1.5c0-.525-.426-.7-.951-.4a1.972,1.972,0,0,0-.951,1.5" transform="translate(-50.844 -33.859)" fill="#f75c5c"/><path d="M189.943,98.621l7.9-4.563v-.5l-7.9,4.563Z" transform="translate(-56.101 -27.633)" fill="#fff"/><path d="M197.995,95.849l.6-.347a.686.686,0,0,0,.33-.519v-.6c0-.182-.149-.245-.33-.14l-.6.347a.686.686,0,0,0-.33.519v.6c0,.182.149.244.33.14" transform="translate(-58.382 -27.82)" fill="#f75c5c"/><path d="M197.847,97.316l-7.9,4.564v.5l7.9-4.563Z" transform="translate(-56.101 -28.743)" fill="#fff"/><path d="M192.581,101.495l-.6.347a.685.685,0,0,0-.329.519v.6c0,.182.148.245.329.14l.6-.347a.685.685,0,0,0,.329-.519v-.6c0-.182-.148-.244-.329-.14" transform="translate(-56.605 -29.962)" fill="#f75c5c"/><path d="M189.943,106.182l7.9-4.564v-.5l-7.9,4.563Z" transform="translate(-56.101 -29.866)" fill="#fff"/><path d="M197.995,103.409l.6-.347a.686.686,0,0,0,.33-.519v-.6c0-.181-.149-.243-.33-.139l-.6.347a.686.686,0,0,0-.33.519v.6c0,.182.149.244.33.14" transform="translate(-58.382 -30.053)" fill="#f75c5c"/><path d="M154.227,118.658l7.9-4.564v-.5l-7.9,4.563Z" transform="translate(-45.552 -33.551)" fill="#fff"/><path d="M162.278,115.886l.6-.347a.685.685,0,0,0,.329-.519v-.6c0-.181-.148-.244-.329-.139l-.6.347a.685.685,0,0,0-.329.519v.6c0,.181.148.244.329.14" transform="translate(-47.833 -33.738)" fill="#f75c5c"/><path d="M162.131,117.353l-7.9,4.563v.5l7.9-4.563Z" transform="translate(-45.552 -34.661)" fill="#fff"/><path d="M156.865,121.532l-.6.347a.685.685,0,0,0-.329.519v.6c0,.182.148.245.329.14l.6-.347a.685.685,0,0,0,.329-.519v-.6c0-.182-.148-.244-.329-.14" transform="translate(-46.056 -35.88)" fill="#f75c5c"/><path d="M154.227,126.218l7.9-4.564v-.5l-7.9,4.563Z" transform="translate(-45.552 -35.784)" fill="#fff"/><path d="M162.278,123.446l.6-.347a.685.685,0,0,0,.329-.519v-.6c0-.181-.148-.244-.329-.139l-.6.347a.685.685,0,0,0-.329.519v.6c0,.181.148.244.329.14" transform="translate(-47.833 -35.971)" fill="#f75c5c"/><path d="M235.539,62.709l23.284-13.443v3.088L235.539,65.8Z" transform="translate(-69.568 -14.551)" fill="#f75c5c"/><path d="M258.823,53.648V86.739l-23.284,13.443V67.092Z" transform="translate(-69.568 -15.845)" fill="#094372"/><path d="M110.739,135l23.284-13.443v3.088l-23.284,13.443Z" transform="translate(-32.707 -35.903)" fill="#f75c5c"/><path d="M134.023,125.94v33.091l-23.284,13.443V139.383Z" transform="translate(-32.707 -37.197)" fill="#094372"/><path d="M285.391,58.218l3.992-2.3V54.187l-3.992,2.3Z" transform="translate(-84.292 -16.004)" fill="#f75c5c"/><path d="M278.55,62.168l3.992-2.3V58.137l-3.992,2.3Z" transform="translate(-82.272 -17.171)" fill="#f75c5c"/><path d="M271.708,66.118l3.992-2.3V62.086l-3.992,2.3Z" transform="translate(-80.251 -18.338)" fill="#f75c5c"/><path d="M267.7,68.915l2-1.153V66.037l-2,1.152Z" transform="translate(-79.067 -19.504)" fill="#f75c5c"/><path d="M263.592,71.287l2-1.153V68.407l-2,1.153Z" transform="translate(-77.854 -20.205)" fill="#f75c5c"/><path d="M259.484,73.659l2-1.153V70.78l-2,1.152Z" transform="translate(-76.64 -20.905)" fill="#f75c5c"/><path d="M252.207,77.32l4.229-2.442V73.152l-4.229,2.442Z" transform="translate(-74.491 -21.606)" fill="#f75c5c"/><path d="M256.2,78.5l-3.993,2.3V79.078l3.993-2.3Z" transform="translate(-74.491 -22.676)" fill="#f75c5c"/><path d="M263.041,74.55l-3.993,2.3V75.129l3.993-2.306Z" transform="translate(-76.512 -21.509)" fill="#f75c5c"/><path d="M269.882,70.6l-3.993,2.3V71.179l3.993-2.306Z" transform="translate(-78.532 -20.342)" fill="#f75c5c"/><path d="M274.727,68.286l-2,1.153V67.713l2-1.153Z" transform="translate(-80.553 -19.659)" fill="#f75c5c"/><path d="M278.835,65.914l-2,1.153V65.341l2-1.153Z" transform="translate(-81.766 -18.958)" fill="#f75c5c"/><path d="M282.943,63.542l-2,1.153V62.969l2-1.153Z" transform="translate(-82.98 -18.258)" fill="#f75c5c"/><path d="M289.284,59.341l-4.229,2.442V60.056l4.229-2.442Z" transform="translate(-84.193 -17.017)" fill="#f75c5c"/><path d="M285.467,65.5l3.992-2.3V61.472l-3.992,2.3Z" transform="translate(-84.315 -18.156)" fill="#f75c5c"/><path d="M278.626,69.453l3.992-2.3V65.422l-3.992,2.3Z" transform="translate(-82.294 -19.323)" fill="#f75c5c"/><path d="M271.785,73.4l3.992-2.3V69.371l-3.992,2.3Z" transform="translate(-80.274 -20.489)" fill="#f75c5c"/><path d="M267.777,76.2l2-1.153V73.321l-2,1.152Z" transform="translate(-79.09 -21.656)" fill="#f75c5c"/><path d="M263.669,78.571l2-1.153V75.692l-2,1.153Z" transform="translate(-77.876 -22.356)" fill="#f75c5c"/><path d="M259.56,80.943l2-1.153V78.064l-2,1.153Z" transform="translate(-76.663 -23.057)" fill="#f75c5c"/><path d="M252.284,84.6l4.229-2.442V80.436l-4.229,2.442Z" transform="translate(-74.514 -23.757)" fill="#f75c5c"/><path d="M256.276,85.784l-3.993,2.3V86.364l3.993-2.306Z" transform="translate(-74.514 -24.827)" fill="#f75c5c"/><path d="M263.117,81.835l-3.992,2.3V82.414l3.992-2.306Z" transform="translate(-76.534 -23.661)" fill="#f75c5c"/><path d="M269.959,77.885l-3.993,2.3V78.464l3.993-2.3Z" transform="translate(-78.555 -22.494)" fill="#f75c5c"/><path d="M274.8,75.571l-2,1.153V75l2-1.153Z" transform="translate(-80.575 -21.81)" fill="#f75c5c"/><path d="M278.912,73.2l-2,1.153V72.625l2-1.153Z" transform="translate(-81.789 -21.11)" fill="#f75c5c"/><path d="M283.02,70.827l-2,1.153V70.254l2-1.153Z" transform="translate(-83.002 -20.409)" fill="#f75c5c"/><path d="M289.361,66.626l-4.229,2.442V67.341l4.229-2.442Z" transform="translate(-84.216 -19.169)" fill="#f75c5c"/><path d="M285.544,72.788l3.992-2.3V68.757l-3.992,2.3Z" transform="translate(-84.337 -20.308)" fill="#f75c5c"/><path d="M278.7,76.738l3.992-2.3V72.706l-3.992,2.3Z" transform="translate(-82.317 -21.474)" fill="#f75c5c"/><path d="M271.861,80.687l3.992-2.3V76.656l-3.992,2.3Z" transform="translate(-80.296 -22.641)" fill="#f75c5c"/><path d="M267.853,83.484l2-1.153V80.605l-2,1.153Z" transform="translate(-79.112 -23.807)" fill="#f75c5c"/><path d="M263.745,85.856l2-1.153V82.978l-2,1.152Z" transform="translate(-77.899 -24.508)" fill="#f75c5c"/><path d="M259.637,88.228l2-1.153V85.35l-2,1.152Z" transform="translate(-76.686 -25.209)" fill="#f75c5c"/><path d="M252.36,91.889l4.229-2.442V87.721l-4.229,2.442Z" transform="translate(-74.536 -25.909)" fill="#f75c5c"/><path d="M256.353,93.069l-3.992,2.3V93.649l3.992-2.306Z" transform="translate(-74.536 -26.979)" fill="#f75c5c"/><path d="M263.194,89.12l-3.993,2.3V89.7l3.993-2.306Z" transform="translate(-76.557 -25.812)" fill="#f75c5c"/><path d="M270.035,85.17l-3.993,2.3V85.749l3.993-2.306Z" transform="translate(-78.577 -24.646)" fill="#f75c5c"/><path d="M274.88,82.856l-2,1.153V82.282l2-1.153Z" transform="translate(-80.598 -23.962)" fill="#f75c5c"/><path d="M278.988,80.484l-2,1.153V79.91l2-1.153Z" transform="translate(-81.811 -23.262)" fill="#f75c5c"/><path d="M283.1,78.112l-2,1.153V77.538l2-1.153Z" transform="translate(-83.025 -22.561)" fill="#f75c5c"/><path d="M289.437,73.911l-4.229,2.442V74.626l4.229-2.442Z" transform="translate(-84.238 -21.32)" fill="#f75c5c"/><path d="M240.521,78.314l4.84-2.795V70.68l-4.84,2.794Z" transform="translate(-71.039 -20.876)" fill="#fff"/><path d="M240.521,88.036l4.84-2.794V80.4l-4.84,2.794Z" transform="translate(-71.039 -23.747)" fill="#fff"/><path d="M240.521,97.756l4.84-2.795v-4.84l-4.84,2.795Z" transform="translate(-71.039 -26.618)" fill="#fff"/><path d="M240.521,107.478l4.84-2.795v-4.84l-4.84,2.795Z" transform="translate(-71.039 -29.489)" fill="#fff"/><path d="M265.535,52.9c0,.344.279.462.623.263a1.291,1.291,0,0,0,.622-.982c0-.344-.279-.462-.622-.264a1.292,1.292,0,0,0-.623.982" transform="translate(-78.428 -15.305)" fill="#fff"/><path d="M263.47,54.09c0,.344.279.462.623.263a1.291,1.291,0,0,0,.622-.982c0-.344-.279-.462-.622-.263a1.29,1.29,0,0,0-.623.982" transform="translate(-77.818 -15.657)" fill="#fff"/><path d="M261.4,55.282c0,.344.279.462.622.263a1.29,1.29,0,0,0,.623-.982c0-.344-.279-.462-.623-.263a1.291,1.291,0,0,0-.622.982" transform="translate(-77.207 -16.009)" fill="#fff"/><path d="M139.9,125.829c0,.344.278.462.622.263a1.29,1.29,0,0,0,.623-.982c0-.344-.279-.462-.623-.263a1.289,1.289,0,0,0-.622.982" transform="translate(-41.32 -36.846)" fill="#fff"/><path d="M137.831,127.022c0,.344.279.462.622.263a1.29,1.29,0,0,0,.623-.982c0-.344-.279-.462-.623-.264a1.293,1.293,0,0,0-.622.982" transform="translate(-40.709 -37.198)" fill="#fff"/><path d="M135.766,128.214c0,.344.278.462.621.263a1.289,1.289,0,0,0,.624-.982c0-.344-.279-.462-.624-.263a1.29,1.29,0,0,0-.621.982" transform="translate(-40.099 -37.55)" fill="#fff"/><g transform="translate(73.136 24.567)" opacity="0.56"><g clip-path="url(#d)"><path d="M261.036,38.1a3.1,3.1,0,0,0,1.528-.373,1.307,1.307,0,0,0,0-2.406,3.314,3.314,0,0,0-3.057,0,1.307,1.307,0,0,0,0,2.406,3.1,3.1,0,0,0,1.528.373" transform="translate(-149.548 -34.891)" fill="#094372"/><path d="M261.036,38.1a3.1,3.1,0,0,0,1.528-.373,1.307,1.307,0,0,0,0-2.406,3.314,3.314,0,0,0-3.057,0,1.307,1.307,0,0,0,0,2.406A3.1,3.1,0,0,0,261.036,38.1Z" transform="translate(-149.548 -34.891)" fill="none" stroke="#3d498c" stroke-miterlimit="10" stroke-width="0.174"/><path d="M260.018,36.04a.762.762,0,0,0,0,1.444,2.763,2.763,0,0,0,2.5,0,.762.762,0,0,0,0-1.444,2.763,2.763,0,0,0-2.5,0" transform="translate(-149.781 -35.124)" fill="#094372"/><path d="M250.713,44.091a3.1,3.1,0,0,0,1.528-.373,1.307,1.307,0,0,0,0-2.406,3.314,3.314,0,0,0-3.057,0,1.307,1.307,0,0,0,0,2.406,3.1,3.1,0,0,0,1.528.373" transform="translate(-146.499 -36.659)" fill="#094372"/><path d="M250.713,44.091a3.1,3.1,0,0,0,1.528-.373,1.307,1.307,0,0,0,0-2.406,3.314,3.314,0,0,0-3.057,0,1.307,1.307,0,0,0,0,2.406A3.1,3.1,0,0,0,250.713,44.091Z" transform="translate(-146.499 -36.659)" fill="none" stroke="#3d498c" stroke-miterlimit="10" stroke-width="0.174"/><path d="M249.7,42.026a.762.762,0,0,0,0,1.444,2.763,2.763,0,0,0,2.5,0,.762.762,0,0,0,0-1.444,2.763,2.763,0,0,0-2.5,0" transform="translate(-146.732 -36.892)" fill="#094372"/><path d="M240.391,50.077a3.1,3.1,0,0,0,1.528-.373,1.307,1.307,0,0,0,0-2.406,3.314,3.314,0,0,0-3.057,0,1.307,1.307,0,0,0,0,2.406,3.1,3.1,0,0,0,1.528.373" transform="translate(-143.45 -38.427)" fill="#094372"/><path d="M240.391,50.077a3.1,3.1,0,0,0,1.528-.373,1.307,1.307,0,0,0,0-2.406,3.314,3.314,0,0,0-3.057,0,1.307,1.307,0,0,0,0,2.406A3.1,3.1,0,0,0,240.391,50.077Z" transform="translate(-143.45 -38.427)" fill="none" stroke="#3d498c" stroke-miterlimit="10" stroke-width="0.174"/><path d="M239.373,48.011a.762.762,0,0,0,0,1.444,2.763,2.763,0,0,0,2.5,0,.762.762,0,0,0,0-1.444,2.763,2.763,0,0,0-2.5,0" transform="translate(-143.683 -38.659)" fill="#094372"/><path d="M230.069,56.063a3.1,3.1,0,0,0,1.528-.373,1.307,1.307,0,0,0,0-2.406,3.314,3.314,0,0,0-3.057,0,1.307,1.307,0,0,0,0,2.406,3.1,3.1,0,0,0,1.528.373" transform="translate(-140.402 -40.195)" fill="#094372"/><path d="M230.069,56.063a3.1,3.1,0,0,0,1.528-.373,1.307,1.307,0,0,0,0-2.406,3.314,3.314,0,0,0-3.057,0,1.307,1.307,0,0,0,0,2.406A3.1,3.1,0,0,0,230.069,56.063Z" transform="translate(-140.402 -40.195)" fill="none" stroke="#3d498c" stroke-miterlimit="10" stroke-width="0.174"/><path d="M229.051,54a.762.762,0,0,0,0,1.444,2.763,2.763,0,0,0,2.5,0,.762.762,0,0,0,0-1.444,2.763,2.763,0,0,0-2.5,0" transform="translate(-140.634 -40.427)" fill="#094372"/><path d="M219.747,62.049a3.1,3.1,0,0,0,1.528-.373,1.307,1.307,0,0,0,0-2.406,3.314,3.314,0,0,0-3.057,0,1.308,1.308,0,0,0,0,2.406,3.1,3.1,0,0,0,1.529.373" transform="translate(-137.353 -41.963)" fill="#094372"/><path d="M219.747,62.049a3.1,3.1,0,0,0,1.528-.373,1.307,1.307,0,0,0,0-2.406,3.314,3.314,0,0,0-3.057,0,1.308,1.308,0,0,0,0,2.406A3.1,3.1,0,0,0,219.747,62.049Z" transform="translate(-137.353 -41.963)" fill="none" stroke="#3d498c" stroke-miterlimit="10" stroke-width="0.174"/><path d="M218.729,59.983a.762.762,0,0,0,0,1.444,2.763,2.763,0,0,0,2.5,0,.762.762,0,0,0,0-1.444,2.763,2.763,0,0,0-2.5,0" transform="translate(-137.586 -42.195)" fill="#094372"/><path d="M209.424,68.034a3.1,3.1,0,0,0,1.528-.373,1.307,1.307,0,0,0,0-2.406,3.314,3.314,0,0,0-3.057,0,1.307,1.307,0,0,0,0,2.406,3.1,3.1,0,0,0,1.528.373" transform="translate(-134.304 -43.731)" fill="#094372"/><path d="M209.424,68.034a3.1,3.1,0,0,0,1.528-.373,1.307,1.307,0,0,0,0-2.406,3.314,3.314,0,0,0-3.057,0,1.307,1.307,0,0,0,0,2.406A3.1,3.1,0,0,0,209.424,68.034Z" transform="translate(-134.304 -43.731)" fill="none" stroke="#3d498c" stroke-miterlimit="10" stroke-width="0.174"/><path d="M208.407,65.969a.762.762,0,0,0,0,1.444,2.763,2.763,0,0,0,2.5,0,.762.762,0,0,0,0-1.444,2.763,2.763,0,0,0-2.5,0" transform="translate(-134.537 -43.963)" fill="#094372"/><path d="M199.1,74.02a3.1,3.1,0,0,0,1.528-.373,1.307,1.307,0,0,0,0-2.406,3.314,3.314,0,0,0-3.057,0,1.307,1.307,0,0,0,0,2.406,3.1,3.1,0,0,0,1.528.373" transform="translate(-131.255 -45.498)" fill="#094372"/><path d="M199.1,74.02a3.1,3.1,0,0,0,1.528-.373,1.307,1.307,0,0,0,0-2.406,3.314,3.314,0,0,0-3.057,0,1.307,1.307,0,0,0,0,2.406A3.1,3.1,0,0,0,199.1,74.02Z" transform="translate(-131.255 -45.498)" fill="none" stroke="#3d498c" stroke-miterlimit="10" stroke-width="0.174"/><path d="M198.084,71.955a.762.762,0,0,0,0,1.444,2.763,2.763,0,0,0,2.5,0,.762.762,0,0,0,0-1.444,2.763,2.763,0,0,0-2.5,0" transform="translate(-131.488 -45.731)" fill="#094372"/><path d="M188.78,80.006a3.1,3.1,0,0,0,1.528-.373,1.307,1.307,0,0,0,0-2.406,3.314,3.314,0,0,0-3.057,0,1.307,1.307,0,0,0,0,2.406,3.1,3.1,0,0,0,1.528.373" transform="translate(-128.207 -47.266)" fill="#094372"/><path d="M188.78,80.006a3.1,3.1,0,0,0,1.528-.373,1.307,1.307,0,0,0,0-2.406,3.314,3.314,0,0,0-3.057,0,1.307,1.307,0,0,0,0,2.406A3.1,3.1,0,0,0,188.78,80.006Z" transform="translate(-128.207 -47.266)" fill="none" stroke="#3d498c" stroke-miterlimit="10" stroke-width="0.174"/><path d="M187.762,77.941a.762.762,0,0,0,0,1.444,2.763,2.763,0,0,0,2.5,0,.762.762,0,0,0,0-1.444,2.763,2.763,0,0,0-2.5,0" transform="translate(-128.439 -47.499)" fill="#094372"/><path d="M178.458,85.992a3.1,3.1,0,0,0,1.528-.373,1.307,1.307,0,0,0,0-2.406,3.314,3.314,0,0,0-3.057,0,1.307,1.307,0,0,0,0,2.406,3.1,3.1,0,0,0,1.528.373" transform="translate(-125.158 -49.034)" fill="#094372"/><path d="M178.458,85.992a3.1,3.1,0,0,0,1.528-.373,1.307,1.307,0,0,0,0-2.406,3.314,3.314,0,0,0-3.057,0,1.307,1.307,0,0,0,0,2.406A3.1,3.1,0,0,0,178.458,85.992Z" transform="translate(-125.158 -49.034)" fill="none" stroke="#3d498c" stroke-miterlimit="10" stroke-width="0.174"/><path d="M177.44,83.927a.762.762,0,0,0,0,1.444,2.763,2.763,0,0,0,2.5,0,.762.762,0,0,0,0-1.444,2.763,2.763,0,0,0-2.5,0" transform="translate(-125.391 -49.267)" fill="#094372"/><path d="M168.135,91.978a3.1,3.1,0,0,0,1.528-.373,1.307,1.307,0,0,0,0-2.406,3.314,3.314,0,0,0-3.057,0,1.307,1.307,0,0,0,0,2.406,3.1,3.1,0,0,0,1.528.373" transform="translate(-122.109 -50.802)" fill="#094372"/><path d="M168.135,91.978a3.1,3.1,0,0,0,1.528-.373,1.307,1.307,0,0,0,0-2.406,3.314,3.314,0,0,0-3.057,0,1.307,1.307,0,0,0,0,2.406A3.1,3.1,0,0,0,168.135,91.978Z" transform="translate(-122.109 -50.802)" fill="none" stroke="#3d498c" stroke-miterlimit="10" stroke-width="0.174"/><path d="M167.118,89.912a.762.762,0,0,0,0,1.444,2.763,2.763,0,0,0,2.5,0,.762.762,0,0,0,0-1.444,2.763,2.763,0,0,0-2.5,0" transform="translate(-122.342 -51.035)" fill="#094372"/><path d="M157.813,97.964a3.1,3.1,0,0,0,1.528-.373,1.307,1.307,0,0,0,0-2.406,3.314,3.314,0,0,0-3.057,0,1.307,1.307,0,0,0,0,2.406,3.1,3.1,0,0,0,1.528.373" transform="translate(-119.06 -52.57)" fill="#094372"/><path d="M157.813,97.964a3.1,3.1,0,0,0,1.528-.373,1.307,1.307,0,0,0,0-2.406,3.314,3.314,0,0,0-3.057,0,1.307,1.307,0,0,0,0,2.406A3.1,3.1,0,0,0,157.813,97.964Z" transform="translate(-119.06 -52.57)" fill="none" stroke="#3d498c" stroke-miterlimit="10" stroke-width="0.174"/><path d="M156.795,95.9a.762.762,0,0,0,0,1.444,2.763,2.763,0,0,0,2.5,0,.762.762,0,0,0,0-1.444,2.763,2.763,0,0,0-2.5,0" transform="translate(-119.293 -52.803)" fill="#094372"/><path d="M147.491,103.95a3.1,3.1,0,0,0,1.528-.373,1.307,1.307,0,0,0,0-2.406,3.314,3.314,0,0,0-3.057,0,1.307,1.307,0,0,0,0,2.406,3.1,3.1,0,0,0,1.528.373" transform="translate(-116.012 -54.338)" fill="#094372"/><path d="M147.491,103.95a3.1,3.1,0,0,0,1.528-.373,1.307,1.307,0,0,0,0-2.406,3.314,3.314,0,0,0-3.057,0,1.307,1.307,0,0,0,0,2.406A3.1,3.1,0,0,0,147.491,103.95Z" transform="translate(-116.012 -54.338)" fill="none" stroke="#3d498c" stroke-miterlimit="10" stroke-width="0.174"/><path d="M146.473,101.884a.762.762,0,0,0,0,1.444,2.763,2.763,0,0,0,2.5,0,.762.762,0,0,0,0-1.444,2.763,2.763,0,0,0-2.5,0" transform="translate(-116.244 -54.571)" fill="#094372"/><path d="M137.168,109.936a3.1,3.1,0,0,0,1.528-.373,1.307,1.307,0,0,0,0-2.406,3.314,3.314,0,0,0-3.057,0,1.307,1.307,0,0,0,0,2.406,3.1,3.1,0,0,0,1.528.373" transform="translate(-112.963 -56.106)" fill="#094372"/><path d="M137.168,109.936a3.1,3.1,0,0,0,1.528-.373,1.307,1.307,0,0,0,0-2.406,3.314,3.314,0,0,0-3.057,0,1.307,1.307,0,0,0,0,2.406A3.1,3.1,0,0,0,137.168,109.936Z" transform="translate(-112.963 -56.106)" fill="none" stroke="#3d498c" stroke-miterlimit="10" stroke-width="0.174"/><path d="M136.151,107.87a.762.762,0,0,0,0,1.444,2.763,2.763,0,0,0,2.5,0,.762.762,0,0,0,0-1.444,2.763,2.763,0,0,0-2.5,0" transform="translate(-113.196 -56.339)" fill="#094372"/><path d="M126.846,115.921a3.1,3.1,0,0,0,1.528-.373,1.307,1.307,0,0,0,0-2.406,3.314,3.314,0,0,0-3.057,0,1.307,1.307,0,0,0,0,2.406,3.1,3.1,0,0,0,1.528.373" transform="translate(-109.914 -57.874)" fill="#094372"/><path d="M126.846,115.921a3.1,3.1,0,0,0,1.528-.373,1.307,1.307,0,0,0,0-2.406,3.314,3.314,0,0,0-3.057,0,1.307,1.307,0,0,0,0,2.406A3.1,3.1,0,0,0,126.846,115.921Z" transform="translate(-109.914 -57.874)" fill="none" stroke="#3d498c" stroke-miterlimit="10" stroke-width="0.174"/><path d="M125.829,113.856a.762.762,0,0,0,0,1.444,2.762,2.762,0,0,0,2.5,0,.762.762,0,0,0,0-1.444,2.762,2.762,0,0,0-2.5,0" transform="translate(-110.147 -58.107)" fill="#094372"/><path d="M116.524,121.907a3.1,3.1,0,0,0,1.528-.373,1.307,1.307,0,0,0,0-2.406,3.314,3.314,0,0,0-3.057,0,1.307,1.307,0,0,0,0,2.406,3.1,3.1,0,0,0,1.528.373" transform="translate(-106.865 -59.642)" fill="#094372"/><path d="M116.524,121.907a3.1,3.1,0,0,0,1.528-.373,1.307,1.307,0,0,0,0-2.406,3.314,3.314,0,0,0-3.057,0,1.307,1.307,0,0,0,0,2.406A3.1,3.1,0,0,0,116.524,121.907Z" transform="translate(-106.865 -59.642)" fill="none" stroke="#3d498c" stroke-miterlimit="10" stroke-width="0.174"/><path d="M115.506,119.842a.762.762,0,0,0,0,1.444,2.763,2.763,0,0,0,2.5,0,.762.762,0,0,0,0-1.444,2.763,2.763,0,0,0-2.5,0" transform="translate(-107.098 -59.875)" fill="#094372"/><path d="M106.2,127.893a3.1,3.1,0,0,0,1.528-.373,1.307,1.307,0,0,0,0-2.406,3.314,3.314,0,0,0-3.057,0,1.307,1.307,0,0,0,0,2.406,3.1,3.1,0,0,0,1.528.373" transform="translate(-103.817 -61.41)" fill="#094372"/><path d="M106.2,127.893a3.1,3.1,0,0,0,1.528-.373,1.307,1.307,0,0,0,0-2.406,3.314,3.314,0,0,0-3.057,0,1.307,1.307,0,0,0,0,2.406A3.1,3.1,0,0,0,106.2,127.893Z" transform="translate(-103.817 -61.41)" fill="none" stroke="#3d498c" stroke-miterlimit="10" stroke-width="0.174"/><path d="M105.184,125.827a.762.762,0,0,0,0,1.444,2.763,2.763,0,0,0,2.5,0,.762.762,0,0,0,0-1.444,2.763,2.763,0,0,0-2.5,0" transform="translate(-104.049 -61.643)" fill="#094372"/></g></g><path d="M236.08,123.237l22.851-13.194v15.6L236.08,138.838ZM258.264,111.1l-21.517,12.423v14.267l21.517-12.422Z" transform="translate(-69.728 -32.502)" fill="#fff"/><path d="M236.661,138.631l22.184-27.742-.373-.338-22.184,27.743Z" transform="translate(-69.789 -32.652)" fill="#fff"/><path d="M258.473,131.317l.373-.769-22.184-2.127-.373.769Z" transform="translate(-69.79 -37.93)" fill="#fff"/><path d="M111.046,193.421,133.9,180.228v15.6l-22.851,13.193Zm22.184-12.14L111.713,193.7v14.267l21.516-12.422Z" transform="translate(-32.798 -53.232)" fill="#fff"/><path d="M111.628,208.816l22.184-27.742-.373-.338-22.184,27.743Z" transform="translate(-32.86 -53.381)" fill="#fff"/><path d="M133.439,201.5l.373-.769-22.184-2.127-.373.769Z" transform="translate(-32.86 -58.66)" fill="#fff"/><path d="M121.224,149.731c0,2.838,2.3,3.81,5.138,2.172s5.138-5.267,5.138-8.1-2.3-3.81-5.138-2.171-5.138,5.266-5.138,8.1" transform="translate(-35.804 -41.595)" fill="#1c80cc"/><path d="M131.958,143.554v-1.588l-1.3-.729L122.9,152.462l1.626.887Z" transform="translate(-36.298 -41.715)" fill="#1c80cc"/><path d="M123.23,150.847c0,2.838,2.3,3.81,5.138,2.172s5.138-5.267,5.138-8.1-2.3-3.81-5.138-2.171-5.138,5.266-5.138,8.1" transform="translate(-36.397 -41.925)" fill="#fcbb65"/><path d="M130.2,151.517a1.307,1.307,0,0,0,.342-.691l.759-4.609c.067-.409-.1-.69-.373-.626a1.069,1.069,0,0,0-.617.858l-.537,3.263-2.231-1.879c-.2-.164-.519.011-.722.393s-.209.823-.013.987l2.872,2.42c.129.109.321.071.5-.1l.02-.02" transform="translate(-37.411 -42.999)" fill="#fff"/><path d="M131.108,169.07v-.984l4.233-4.2-4.233.707v-.984l5.338-.828v.924Z" transform="translate(-38.724 -48.079)" fill="#fff"/><path d="M126.822,172.184l.949-8.769,1.09-.1-.941,8.769Z" transform="translate(-37.458 -48.235)" fill="#fff"/><path d="M117.337,172.871l5.338-5.336v.984l-4.228,4.178,4.228-.687v.984l-5.338.8Z" transform="translate(-34.656 -49.483)" fill="#fff"/><path d="M265.78,138.165l1.923-1.111v-1.923l-1.923,1.111Z" transform="translate(-78.5 -39.912)" fill="#f75c5c"/><path d="M260.83,141.023l1.923-1.111v-1.923L260.83,139.1Z" transform="translate(-77.038 -40.756)" fill="#094372"/><path d="M255.88,143.881l1.923-1.111v-1.923l-1.923,1.111Z" transform="translate(-75.576 -41.6)" fill="#f75c5c"/><path d="M250.93,146.738l1.923-1.111V143.7l-1.923,1.111Z" transform="translate(-74.114 -42.444)" fill="#094372"/><path d="M245.98,149.6l1.923-1.111v-1.923l-1.923,1.111Z" transform="translate(-72.652 -43.288)" fill="#f75c5c"/><path d="M241.03,152.454l1.923-1.111v-1.923l-1.923,1.111Z" transform="translate(-71.19 -44.132)" fill="#094372"/><path d="M236.08,155.312,238,154.2v-1.923l-1.923,1.111Z" transform="translate(-69.728 -44.977)" fill="#f75c5c"/><path d="M140.517,209.505l1.908-1.1V206.5l-1.908,1.1Z" transform="translate(-41.503 -60.99)" fill="#f75c5c"/><path d="M135.605,212.341l1.908-1.1v-1.908l-1.908,1.1Z" transform="translate(-40.052 -61.827)" fill="#094372"/><path d="M130.693,215.177l1.908-1.1v-1.909l-1.908,1.1Z" transform="translate(-38.601 -62.665)" fill="#f75c5c"/><path d="M125.781,218.013l1.908-1.1V215l-1.908,1.1Z" transform="translate(-37.15 -63.502)" fill="#094372"/><path d="M120.87,220.849l1.908-1.1v-1.908l-1.908,1.1Z" transform="translate(-35.7 -64.34)" fill="#f75c5c"/><path d="M115.958,223.684l1.908-1.1v-1.908l-1.908,1.1Z" transform="translate(-34.249 -65.178)" fill="#094372"/><path d="M111.046,226.52l1.908-1.1V223.51l-1.908,1.1Z" transform="translate(-32.798 -66.015)" fill="#f75c5c"/><path d="M55.78,269.864,25.139,256.952l26.753-53.585Z" transform="translate(-7.425 -60.066)" fill="#1a78bf"/><path d="M84.111,408.229a1.232,1.232,0,0,1,1.133.52,5.3,5.3,0,0,0,3,2.211,27.935,27.935,0,0,1,10.685,3.757,1.256,1.256,0,0,1-.708,2.294l-17.362.007a1.241,1.241,0,0,1-1.223-.97,22.225,22.225,0,0,1-.328-6.35,1.246,1.246,0,0,1,1.132-1.128Z" transform="translate(-23.398 -120.571)" fill="#f75c5c"/><path d="M20.673,408.4a1.233,1.233,0,0,1,1.133.519c.73,1.05.949,4.195,2.537,5.3,1.016.707.89,2.843-.347,2.843l-7.231.007a1.241,1.241,0,0,1-1.223-.97c-.542-2.628.209-4.918.331-6.23A1.245,1.245,0,0,1,17,408.74Z" transform="translate(-4.533 -120.622)" fill="#f75c5c"/><path d="M59.412,191.549c1.493,1.7,8.725,18.495,8.725,18.495s5.059,5.35,4.883,6.548c-.54,3.441-4.777,8.705-8.485,5.906-2.234-1.686-12.813-22.683-13-25.387-.5-7.02,5.3-8.5,7.882-5.561" transform="translate(-15.211 -56.154)" fill="#1a78bf"/><path d="M40.237,139.342c6.77-1.514,12.157,1.387,12.7,6.211.214,1.906.037,6.822-3.1,14.338,0,0-3.985,4.155-8.017,4.031-2.545-.079-5.5-4.019-6.257-4.966-1.962-2.447-2.692-8.137-2.694-11.031,0-3.864,3.947-7.816,7.375-8.583" transform="translate(-9.706 -41.037)" fill="#094372"/><path d="M37.235,177.734s.514-.372,3.842-.7,5.915,2.981,5.915,2.981l.249,3.4-10.257.464Z" transform="translate(-10.924 -52.282)" fill="#eaeaea"/><path d="M76.094,364.526a9.415,9.415,0,0,1-7.8.817S58.075,339.558,57.1,331.683a37.322,37.322,0,0,1-.027-8.5l-8.712-23.2-2.781-7.408-1.8-4.788,6.259-32.349,6.054,1.993Z" transform="translate(-12.931 -75.445)" fill="#003e68"/><path d="M25.081,259.776c-3.964,12.43-5.667,56.278-5.994,58.787s-2.686,10.328-2.7,14.269c-.026,6.61-1.354,32.361-1.354,32.361a11.037,11.037,0,0,0,7.321.209S41.977,279.215,42.2,277.687s2.021-16.36,1.8-18.652-18.917.741-18.917.741" transform="translate(-4.44 -76.255)" fill="#094372"/><path d="M32.585,186.108S21.494,188,20.4,189.531s3.525,25.8,4.267,32.7c.6,5.56,2.287,13.87,1.948,16.258-.216,1.526,22.084,5.013,22.52-1.535s1.659-28.865,1.306-38.685c-.271-7.5-.989-8.218-2.406-9.2s-5.33-2.912-5.33-2.912Z" transform="translate(-5.977 -54.968)" fill="#fff"/><path d="M39.813,166.836c-.783,5.684-2.053,13.3-2.053,13.3l9.711,6.154s-1.112-10.446-.91-11.984.91-8.086.91-8.086-7.43-1.042-7.658.612" transform="translate(-11.153 -49)" fill="#ef9b75"/><path d="M36.683,178.037l5.608,4.247,4.4,7.595L35.115,184.5Z" transform="translate(-10.371 -52.584)" fill="#eaeaea"/><path d="M51.108,190.485l2.4-8.17-3.439-2.224Z" transform="translate(-14.79 -53.191)" fill="#f4f4f4"/><path d="M54.03,186.686C56.9,189.307,56.4,188.67,56.8,189.7c5.126,12.984,2.716,33.345,3.135,36.833s4.373,38.4,4.373,38.4h3.022s-3.639-37.66-3.74-39.263c-.326-5.178-1.293-30.145-3.437-35.14-.973-2.269-6.128-3.848-6.128-3.848" transform="translate(-15.958 -55.139)" fill="#1c80cc"/><path d="M41.744,182.283l-4.026,6.55-4.455-3.776,2.872-7.021Z" transform="translate(-9.825 -52.584)" fill="#f4f4f4"/><path d="M27.957,183.247c2.584,5.519,3.94,14.814,3.528,23.575-1.8,38.169-5.868,59.5-5.868,59.5l-14.958-.253s3.08-19.388,5.559-39.048c.643-5.1-.061-36.243.822-38.285.793-1.834,10.917-5.489,10.917-5.489" transform="translate(-3.148 -54.123)" fill="#1c80cc"/><path d="M54.549,183.247l2.124,5.439-3.091-2.156Z" transform="translate(-15.826 -54.123)" fill="#eaeaea"/><path d="M18.236,201.422c-1.687,4.511-7.22,16.985-11.356,20.058-2.034,1.512-6.328,3.567-6.848-.6-.659-5.281,9.448-27.754,13.936-31.049,5.6-4.112,7.309,3.466,4.269,11.595" transform="translate(0 -55.726)" fill="#1a78bf"/><path d="M3.549,227.511a155.362,155.362,0,0,1,27.286-.993c1.388.076.614,3.684-.853,4.281-5.507,2.241-23.012,7.13-26.856,5.927-3.162-.989-5.138-7.328.423-9.216" transform="translate(-0.012 -66.841)" fill="#1a78bf"/><path d="M51.833,226.725c-1.452-1.607-4.394-1.3-8.675-.421-1.008.207-1.267.7-1.37,1.719a3.1,3.1,0,0,0,1.191,2.906c1.949,1.862,4.664,2.142,5.424,1.642,1.325-.871,4-5.213,3.43-5.846" transform="translate(-12.334 -66.627)" fill="#f7a881"/><path d="M63.481,230.953l-14.547-.764a.775.775,0,0,1-.751-1.156l9.762-21.241a1.952,1.952,0,0,1,1.754-1.025l14.547.765A.776.776,0,0,1,75,208.688l-9.763,21.241a1.95,1.95,0,0,1-1.754,1.025" transform="translate(-14.203 -61.069)" fill="#f4f4f4"/><path d="M75.621,208.444l-6.557-.345a.349.349,0,0,1-.338-.521l.83-1.807a.878.878,0,0,1,.791-.462l6.557.344a.35.35,0,0,1,.338.521l-.83,1.806a.878.878,0,0,1-.791.462" transform="translate(-20.286 -60.64)" fill="#fcbb65"/><path d="M74.619,222.584c1.574-.319,3.509-.419,4.615,2.638a1.3,1.3,0,0,1-.039.913c-1.235,2.993-2.5,2.447-3.667,1.734-.732-.447-1.407-1.624-2.306-2.089-1.669-.862-.555-2.8,1.4-3.2" transform="translate(-21.386 -65.697)" fill="#f7a881"/><path d="M39.664,166.343c.207,1.542-.159,2.708-.631,2.854-.491.152-1.37-.462-2.271-1.956-.73-1.211-1.358-2.688.147-2.872a2.263,2.263,0,0,1,2.754,1.974" transform="translate(-10.629 -48.54)" fill="#f7a881"/><path d="M47.224,156.282c4.005-.295,3.9-2.489,5.345-.64.813,1.036,1.43,3.938,1,6.548-1.892,11.405-6.467,13.073-9.437,11.091-4.046-2.7-7.111-12.945-4.555-17.594.817-1.485,4.679.813,7.649.595" transform="translate(-11.412 -45.753)" fill="#f7a881"/></g></g></svg>