<svg xmlns="http://www.w3.org/2000/svg" width="244" height="31.238" viewBox="0 0 244 31.238"><g transform="translate(-0.099)"><path d="M276.677,5.8h2.87l-5.7,21.4H271.02l-4.591-14.1h-.123l-4.632,14.1h-2.788L252.9,5.8h2.911l4.509,16.849h.123L265.075,8.67h2.583l4.632,13.979h.123Z" transform="translate(-149.166 -3.422)" fill="#565c62"/><path d="M317.3,28.83a7.733,7.733,0,0,1,2.132-5.616A7.232,7.232,0,0,1,324.843,21a7.079,7.079,0,0,1,5.37,2.214,7.764,7.764,0,0,1,2.173,5.616,7.764,7.764,0,0,1-2.173,5.616,7.141,7.141,0,0,1-5.37,2.214,7.232,7.232,0,0,1-5.411-2.214A7.733,7.733,0,0,1,317.3,28.83Zm2.747,0h0a5.2,5.2,0,0,0,1.394,3.812,4.66,4.66,0,0,0,6.805,0,5.448,5.448,0,0,0,1.394-3.812,5.269,5.269,0,0,0-1.394-3.812,4.763,4.763,0,0,0-3.4-1.517,4.4,4.4,0,0,0-3.4,1.517,5.336,5.336,0,0,0-1.394,3.812Z" transform="translate(-187.166 -12.391)" fill="#565c62"/><path d="M361.647,36.286H358.9V21.651h2.624v2.378h.123a4.191,4.191,0,0,1,1.722-2.009,4.884,4.884,0,0,1,2.542-.82,5.229,5.229,0,0,1,2.05.369l-.861,2.665a4.844,4.844,0,0,0-1.6-.2,3.532,3.532,0,0,0-2.706,1.271,4.116,4.116,0,0,0-1.148,2.952Z" transform="translate(-211.712 -12.509)" fill="#565c62"/><path d="M397.013,27.2h-3.321L389.1,20.312l-2.255,2.214V27.2H384.1V5.8h2.747V19l6.354-6.436h3.526v.082l-5.7,5.7,5.985,8.732Z" transform="translate(-226.581 -3.422)" fill="#565c62"/><path d="M427.075,32.169a4.062,4.062,0,0,1-1.681,3.239,6.737,6.737,0,0,1-4.222,1.312,6.61,6.61,0,0,1-3.894-1.148,6.2,6.2,0,0,1-2.378-3.034l2.46-1.066a4.97,4.97,0,0,0,1.558,2.05,3.715,3.715,0,0,0,2.255.738,4.231,4.231,0,0,0,2.214-.574,1.647,1.647,0,0,0,.9-1.353c0-.943-.738-1.64-2.173-2.05l-2.5-.615c-2.87-.738-4.263-2.091-4.263-4.14a3.686,3.686,0,0,1,1.64-3.2,6.752,6.752,0,0,1,4.181-1.23,6.873,6.873,0,0,1,3.526.943,5.037,5.037,0,0,1,2.214,2.5l-2.46,1.025a3.069,3.069,0,0,0-1.353-1.435,4.288,4.288,0,0,0-2.091-.533,3.5,3.5,0,0,0-1.927.533,1.538,1.538,0,0,0-.861,1.312c0,.82.779,1.435,2.378,1.8l2.214.574c2.829.656,4.263,2.132,4.263,4.345Z" transform="translate(-244.755 -12.45)" fill="#565c62"/><path d="M456.748,36.719a6.521,6.521,0,0,1-2.952-.7,4.988,4.988,0,0,1-2.05-1.845h-.123l.123,2.05V42.7H449V21.592h2.624v2.05h.123A5.624,5.624,0,0,1,453.8,21.8a6.522,6.522,0,0,1,2.952-.7,6.335,6.335,0,0,1,4.919,2.255,7.919,7.919,0,0,1,2.05,5.534,8.037,8.037,0,0,1-2.05,5.534,6.256,6.256,0,0,1-4.919,2.3Zm-.41-2.5h0a4.235,4.235,0,0,0,3.32-1.517,5.421,5.421,0,0,0,1.353-3.812,5.563,5.563,0,0,0-1.353-3.812,4.369,4.369,0,0,0-3.32-1.517,4.259,4.259,0,0,0-3.362,1.517,5.59,5.59,0,0,0-1.312,3.812,5.59,5.59,0,0,0,1.312,3.812,4.259,4.259,0,0,0,3.362,1.517Z" transform="translate(-264.876 -12.45)" fill="#565c62"/><path d="M494.136,21.1a6.786,6.786,0,0,1,4.837,1.64,5.777,5.777,0,0,1,1.763,4.468v9.019h-2.665v-2.05h-.123a5.256,5.256,0,0,1-4.55,2.5,6.06,6.06,0,0,1-4.058-1.435,4.549,4.549,0,0,1-1.64-3.608,4.338,4.338,0,0,1,1.722-3.608,7.2,7.2,0,0,1,4.591-1.353,8.04,8.04,0,0,1,4.058.9v-.615a3.182,3.182,0,0,0-1.148-2.46,3.778,3.778,0,0,0-2.665-.984,4.286,4.286,0,0,0-3.648,1.927l-2.419-1.517a6.837,6.837,0,0,1,5.944-2.829ZM490.57,31.759h0a2.177,2.177,0,0,0,.9,1.8,3.288,3.288,0,0,0,2.132.738,4.476,4.476,0,0,0,3.116-1.271A4.084,4.084,0,0,0,498.072,30a5.56,5.56,0,0,0-3.608-1.025,4.677,4.677,0,0,0-2.788.82A2.263,2.263,0,0,0,490.57,31.759Z" transform="translate(-287.711 -12.45)" fill="#565c62"/><path d="M531.343,36.66a7.232,7.232,0,0,1-5.411-2.214A7.8,7.8,0,0,1,523.8,28.83a7.734,7.734,0,0,1,2.132-5.616A7.232,7.232,0,0,1,531.343,21a7.022,7.022,0,0,1,3.935,1.107,6.544,6.544,0,0,1,2.5,3.116l-2.5,1.066a4.11,4.11,0,0,0-4.1-2.747,4.273,4.273,0,0,0-3.28,1.517,5.458,5.458,0,0,0-1.353,3.771A5.458,5.458,0,0,0,527.9,32.6a4.213,4.213,0,0,0,3.28,1.517,4.318,4.318,0,0,0,4.263-2.747l2.46,1.066a6.778,6.778,0,0,1-2.542,3.116,7.4,7.4,0,0,1-4.017,1.107Z" transform="translate(-309.012 -12.391)" fill="#565c62"/><path d="M567.62,36.719a6.99,6.99,0,0,1-5.329-2.214,7.876,7.876,0,0,1-2.091-5.616,7.925,7.925,0,0,1,2.05-5.575,6.726,6.726,0,0,1,5.206-2.214,6.794,6.794,0,0,1,5.206,2.091,8.456,8.456,0,0,1,1.927,5.9l-.041.287H563.029a4.921,4.921,0,0,0,1.435,3.485,4.647,4.647,0,0,0,7.42-1.312l2.46,1.189a7.212,7.212,0,0,1-2.747,2.911,7.59,7.59,0,0,1-3.976,1.066Zm-4.386-9.593h8.4a3.762,3.762,0,0,0-1.23-2.542,4.389,4.389,0,0,0-2.993-.984,4.068,4.068,0,0,0-2.665.943,4.605,4.605,0,0,0-1.517,2.583Z" transform="translate(-330.49 -12.45)" fill="#565c62"/><path d="M12.439,14.389V11.069h11.11a11.22,11.22,0,0,1,.164,2.05,10.964,10.964,0,0,1-2.87,7.748,11.077,11.077,0,0,1-8.445,3.4A12.3,12.3,0,0,1,.1,12.134,12.239,12.239,0,0,1,12.357,0a11.517,11.517,0,0,1,8.322,3.362L18.342,5.7a8.609,8.609,0,0,0-5.985-2.378,8.7,8.7,0,0,0-8.691,8.814,8.7,8.7,0,0,0,8.691,8.814,8.1,8.1,0,0,0,6.108-2.419,6.939,6.939,0,0,0,1.8-4.14Z" transform="translate(0)" fill="#467cbf"/><path d="M76.36,28.83A7.83,7.83,0,1,1,68.53,21a7.726,7.726,0,0,1,7.83,7.83Zm-3.444,0h0a4.417,4.417,0,1,0-8.814,0,4.417,4.417,0,1,0,8.814,0Z" transform="translate(-35.758 -12.391)" fill="#e83626"/><path d="M118.06,28.83A7.83,7.83,0,1,1,110.23,21a7.726,7.726,0,0,1,7.83,7.83Zm-3.444,0h0a4.436,4.436,0,1,0-8.855,0,4.506,4.506,0,0,0,4.427,4.714A4.457,4.457,0,0,0,114.616,28.83Z" transform="translate(-60.363 -12.391)" fill="#f9bb00"/><path d="M159.063,21.492v14.02c0,5.78-3.4,8.117-7.42,8.117A7.455,7.455,0,0,1,144.715,39l2.993-1.23a4.342,4.342,0,0,0,3.935,2.788c2.583,0,4.181-1.6,4.181-4.591V34.856H155.7a5.349,5.349,0,0,1-4.1,1.763A7.816,7.816,0,0,1,151.6,21a5.283,5.283,0,0,1,4.1,1.763h.123V21.492h3.239Zm-3.034,7.379h0c0-2.747-1.845-4.755-4.181-4.755a4.5,4.5,0,0,0-4.345,4.755,4.492,4.492,0,0,0,4.345,4.714C154.185,33.585,156.029,31.577,156.029,28.871Z" transform="translate(-84.968 -12.391)" fill="#467cbf"/><rect width="3.444" height="22.875" transform="translate(76.473 0.902)" fill="#1ea74a"/><path d="M210.4,31.354l2.665,1.763a7.746,7.746,0,0,1-6.518,3.444,7.658,7.658,0,0,1-7.748-7.83,7.461,7.461,0,0,1,7.379-7.83c4.058,0,6.026,3.239,6.682,4.96l.369.9-10.454,4.3a3.981,3.981,0,0,0,3.772,2.378,4.223,4.223,0,0,0,3.853-2.091Zm-8.2-2.788h0l6.969-2.911a3.011,3.011,0,0,0-2.911-1.64,4.243,4.243,0,0,0-4.058,4.55Z" transform="translate(-117.244 -12.332)" fill="#e83626"/></g></svg>