<svg xmlns="http://www.w3.org/2000/svg" width="54.966" height="54.906" viewBox="0 0 54.966 54.906"><g transform="translate(-29.6 -29.7)"><path d="M79.2,64.915l1.576,2.242L83.2,65.4V78.126h2.606V61.4H83.624Z" transform="translate(-19.541 -12.489)" fill="#1e88e5"/><path d="M66.43,69a4.638,4.638,0,0,0,1.576-3.454,5.271,5.271,0,0,0-10.3-1.091l2.545.667a2.537,2.537,0,0,1,2.545-1.757,2.216,2.216,0,1,1,0,4.363H61.279V70.4h1.515a2.851,2.851,0,0,1,3.03,2.485,2.747,2.747,0,0,1-2.97,2.485,2.8,2.8,0,0,1-2.909-2.182l-2.545.424a5.511,5.511,0,0,0,5.515,4.363A5.366,5.366,0,0,0,68.49,72.82,5.066,5.066,0,0,0,66.43,69Z" transform="translate(-10.953 -12.213)" fill="#1e88e5"/><path d="M80.344,112.381H49.8V100.2H80.344Z" transform="translate(-7.958 -27.775)" fill="#fbc02d"/><path d="M112.381,80.344V49.8H100.2V80.344Z" transform="translate(-27.815 -7.919)" fill="#4caf50"/><path d="M72.385,41.881V29.7H34.206A4.6,4.6,0,0,0,29.6,34.306v38.18H41.781v-30.6Z" fill="#1e88e5"/><path d="M100.2,100.2v12.181L112.381,100.2Z" transform="translate(-27.815 -27.775)" fill="#e53935"/><path d="M107.836,29.7H100.2V41.881h12.181V34.245A4.5,4.5,0,0,0,107.836,29.7Z" transform="translate(-27.815)" fill="#1565c0"/><path d="M34.245,112.381h7.636V100.2H29.7v7.636A4.5,4.5,0,0,0,34.245,112.381Z" transform="translate(-0.039 -27.775)" fill="#1565c0"/></g></svg>