<svg xmlns="http://www.w3.org/2000/svg" width="55" height="48" viewBox="0 0 55 48"><g transform="translate(-4 -8)"><path d="M55.51,8H43.3a3.489,3.489,0,0,0-2.468,1.023L12.022,37.835A3.488,3.488,0,0,0,11,40.3V52.51A3.49,3.49,0,0,0,14.49,56H26.7a3.489,3.489,0,0,0,2.468-1.023L57.978,26.165A3.49,3.49,0,0,0,59,23.7V11.49A3.49,3.49,0,0,0,55.51,8Z" fill="#28a8ea"/><path d="M55.51,56H43.3a3.49,3.49,0,0,1-2.468-1.022L35,49.143V38.24A6.24,6.24,0,0,1,41.24,32h10.9l5.835,5.835A3.49,3.49,0,0,1,59,40.3V52.51A3.49,3.49,0,0,1,55.51,56Z" fill="#0078d4"/><path d="M14.49,8H26.7a3.49,3.49,0,0,1,2.468,1.022L35,14.857v10.9A6.24,6.24,0,0,1,28.76,32h-10.9l-5.835-5.835A3.49,3.49,0,0,1,11,23.7V11.49A3.49,3.49,0,0,1,14.49,8Z" fill="#50d9ff"/><path d="M33,20.33V46.67a1.734,1.734,0,0,1-.04.4A2.314,2.314,0,0,1,30.67,49H11V18H30.67A2.326,2.326,0,0,1,33,20.33Z" opacity="0.2"/><path d="M34,20.33V44.67A3.362,3.362,0,0,1,30.67,48H11V17H30.67A3.342,3.342,0,0,1,34,20.33Z" opacity="0.1"/><path d="M33,20.33V44.67A2.326,2.326,0,0,1,30.67,47H11V18H30.67A2.326,2.326,0,0,1,33,20.33Z" opacity="0.2"/><path d="M32,20.33V44.67A2.326,2.326,0,0,1,29.67,47H11V18H29.67A2.326,2.326,0,0,1,32,20.33Z" opacity="0.1"/><rect width="28" height="28" rx="2.333" transform="translate(4 18)" fill="#0078d4"/><path d="M22.585,26.881H16.038V30.71h6.145v2.454H16.038V37.14h6.9v2.443H13.066V24.417h9.519Z" fill="#fff"/></g></svg>