<svg xmlns="http://www.w3.org/2000/svg" xmlns:xlink="http://www.w3.org/1999/xlink" width="245.643" height="42.927" viewBox="0 0 245.643 42.927"><defs><clipPath id="a"><rect width="245.643" height="42.927" fill="none"/></clipPath></defs><path d="M89.57,90.062,70.6,89.992l.07-18.851,18.964.07Zm-.98-.852.063-17.154-17.02-.063-.064,17.154ZM88.5,74.066l-3.346,13.5-2.513-.01L80.079,76.97,77.516,87.538l-2.481-.01L71.737,74l2.657.009L76.447,83.8l2.38-9.775,2.68.011,2.252,9.825,2.227-9.807Z" transform="translate(-51.153 -51.541)" fill="#3f77bc"/><g clip-path="url(#a)"><path d="M19.393,19.834,0,19.763.07.482,19.465.553Zm-1-.871.066-17.545L1.049,1.354.985,18.9ZM15.639,12.9a3.827,3.827,0,0,1-1.646,3.2,7.1,7.1,0,0,1-4.356,1.206A13.207,13.207,0,0,1,4.49,16.237l.01-2.787.159,0A7.863,7.863,0,0,0,9.7,15.332a4.494,4.494,0,0,0,2.035-.4A1.581,1.581,0,0,0,12.7,13.47q.007-1.312-1.889-1.777-1.049-.209-2.956-.663Q4.592,10.071,4.6,7.158a3.6,3.6,0,0,1,1.6-3.015,6.78,6.78,0,0,1,4.122-1.154,12.564,12.564,0,0,1,4.783.931L15.1,6.569h-.15a7.072,7.072,0,0,0-4.528-1.606,4.128,4.128,0,0,0-1.954.415,1.491,1.491,0,0,0-.931,1.355q0,1.339,2.05,1.826,1.071.2,3.081.7,2.978.958,2.969,3.642" transform="translate(0 -0.349)" fill="#1f3377"/><path d="M66.574,64.838l-4.909-.019.018-4.8,4.909.017Z" transform="translate(-44.676 -43.483)" fill="#6caee0"/><path d="M169.7,28.589a12.06,12.06,0,0,0,7.215,2.4c4.175,0,6.353-1.906,6.353-6.353,0-3.676-1.906-5.808-6.035-7.261-6.489-2.314-9.484-5.536-9.484-9.62,0-4.674,3.494-7.759,9.575-7.759a22.7,22.7,0,0,1,8.667,1.633A1.342,1.342,0,0,1,186.852,3v.681c0,.908-.59,1.225-1.407.771a16.255,16.255,0,0,0-7.85-2.133c-3.131,0-5.264,1.543-5.264,5.445,0,3.312,2.042,5.627,5.355,6.761,7.714,2.677,10.255,5.445,10.255,10.119,0,5.536-3.63,8.758-10.8,8.758a17.667,17.667,0,0,1-8.077-1.86,1.4,1.4,0,0,1-.817-1.407v-.817c0-1,.636-1.271,1.452-.726" transform="translate(-121.532 -0.001)" fill="#1c1d1d"/><path d="M276.317,37.6,264.065,68.271a1.323,1.323,0,0,1-1.361.908H260.8c-.908,0-1.27-.545-.908-1.362l3.585-8.44-7.9-21.781c-.317-.817.091-1.361.953-1.361h2.133a1.274,1.274,0,0,1,1.316.953l5.763,16.88,6.353-16.88a1.325,1.325,0,0,1,1.361-.953h1.951c.862,0,1.225.544.908,1.361" transform="translate(-185.087 -26.252)" fill="#1c1d1d"/><path d="M360.185,34.588c5.854,0,8.168,2.9,8.168,9.665v12.57a1.055,1.055,0,0,1-1.18,1.18h-2.087a1.055,1.055,0,0,1-1.18-1.18V44.707c0-6.262-1.5-8.032-4.629-8.032-2.541,0-5.99,3.539-5.99,7.033V56.823a1.055,1.055,0,0,1-1.18,1.18H349.93a1.055,1.055,0,0,1-1.18-1.18v-20.6a1.055,1.055,0,0,1,1.18-1.18h1.951a1.055,1.055,0,0,1,1.18,1.18v1.225a10.205,10.205,0,0,1,7.124-2.859" transform="translate(-252.666 -25.059)" fill="#1c1d1d"/><path d="M451.619,57.64a20.246,20.246,0,0,1-5.718.817c-7.442,0-11.344-4.311-11.344-11.934s3.857-11.934,10.936-11.934a26.592,26.592,0,0,1,5.854.635,1.207,1.207,0,0,1,1,1.316v.136c0,.908-.544,1.225-1.361.953a16.4,16.4,0,0,0-5.264-.862c-4.22,0-6.489,3.086-6.489,9.756,0,6.9,2.36,9.756,6.9,9.756a13.142,13.142,0,0,0,5.082-1c.817-.318,1.361,0,1.361.907v.136a1.241,1.241,0,0,1-.953,1.316" transform="translate(-314.832 -25.059)" fill="#1c1d1d"/><path d="M552.666,2.964l-6.4,30.131a1.213,1.213,0,0,1-1.316,1.044h-3.494a1.213,1.213,0,0,1-1.316-1.044l-5.083-25.82-5.082,25.82a1.213,1.213,0,0,1-1.316,1.044h-3.494a1.213,1.213,0,0,1-1.316-1.044l-6.4-30.131A.971.971,0,0,1,518.5,1.648h2.315a1.17,1.17,0,0,1,1.271,1.044l4.855,26.637,5.083-26.637a1.169,1.169,0,0,1,1.27-1.044h3.63a1.169,1.169,0,0,1,1.27,1.044l5.128,26.637,4.855-26.637a1.17,1.17,0,0,1,1.271-1.044h2.178a.971.971,0,0,1,1.044,1.316" transform="translate(-374.859 -1.194)" fill="#1c1d1d"/><path d="M661.174,35.858a23.846,23.846,0,0,1,7.669-1.27c7.215,0,9.529,2.269,9.529,8.44V56.823a1.055,1.055,0,0,1-1.18,1.18h-2a1.055,1.055,0,0,1-1.18-1.18V55.371a9.944,9.944,0,0,1-7.624,3.086c-4.492,0-7.351-2.9-7.351-6.807,0-4.538,3.9-7.986,12.751-7.986h2.042V42.12c0-4.084-1.316-5.309-4.992-5.309a20.076,20.076,0,0,0-7.169,1.5c-.817.318-1.362-.045-1.362-.908v-.227a1.218,1.218,0,0,1,.862-1.316m2.4,15.519c0,3.086,1.543,4.856,3.494,4.856,3.767,0,6.761-3.086,6.761-8.259v-2.45h-2.042c-5.4,0-8.214,1.906-8.214,5.854" transform="translate(-477.469 -25.059)" fill="#1c1d1d"/><path d="M764.706,37.415v.045a1.055,1.055,0,0,1-1.18,1.18h-.272c-5.626,0-9.12,3.312-9.12,9.71v9.665a1.055,1.055,0,0,1-1.18,1.18h-2.314a1.055,1.055,0,0,1-1.18-1.18v-20.6a1.055,1.055,0,0,1,1.18-1.18h2.133a1.055,1.055,0,0,1,1.18,1.18V40a12.56,12.56,0,0,1,9.3-3.766h.726c.454,0,.726.408.726,1.18" transform="translate(-542.976 -26.252)" fill="#1c1d1d"/><path d="M835.208,57.5a22.858,22.858,0,0,1-6.444.953c-7.714,0-11.617-4.175-11.617-11.934,0-7.986,3.9-11.934,10.709-11.934,6.671,0,9.8,4.039,9.8,11.617,0,0-.454.908-1.18.908H821.686c.091,6.444,2.677,9.348,7.4,9.348a14.7,14.7,0,0,0,5.672-1.271c.862-.318,1.407,0,1.407.908v.091a1.241,1.241,0,0,1-.953,1.316m-7.351-20.919c-3.766,0-5.9,2.632-6.171,8.486h11.526c0-5.808-2-8.486-5.355-8.486" transform="translate(-592.016 -25.059)" fill="#1c1d1d"/></g></svg>