<svg xmlns="http://www.w3.org/2000/svg" xmlns:xlink="http://www.w3.org/1999/xlink" width="194" height="33.902" viewBox="0 0 194 33.902"><defs><clipPath id="a"><rect width="194" height="33.902" fill="none"/></clipPath></defs><path d="M85.583,86.084,70.6,86.029l.055-14.888,14.977.055Zm-.774-.673.05-13.548-13.442-.049-.05,13.548Zm-.071-11.961L82.1,84.113l-1.985-.008-2.024-8.361-2.024,8.346L74.1,84.083,71.5,73.4l2.1.007,1.622,7.733,1.88-7.72,2.117.009,1.779,7.759,1.759-7.745Z" transform="translate(-55.242 -55.662)" fill="#3f77bc"/><g clip-path="url(#a)"><path d="M15.316,15.766,0,15.709.055.482,15.372.538Zm-.792-.688.052-13.856L.828,1.17.778,15.026Zm-2.173-4.79a3.022,3.022,0,0,1-1.3,2.531,5.61,5.61,0,0,1-3.44.952,10.43,10.43,0,0,1-4.065-.846l.008-2.2h.126A6.21,6.21,0,0,0,7.662,12.21a3.549,3.549,0,0,0,1.607-.319,1.249,1.249,0,0,0,.762-1.152q.006-1.036-1.492-1.4Q7.71,9.171,6.2,8.813,3.627,8.055,3.635,5.754A2.841,2.841,0,0,1,4.9,3.373a5.355,5.355,0,0,1,3.256-.911,9.923,9.923,0,0,1,3.777.736l-.007,2.093h-.118A5.585,5.585,0,0,0,8.233,4.021a3.26,3.26,0,0,0-1.544.328,1.178,1.178,0,0,0-.735,1.07q0,1.057,1.619,1.442.846.154,2.434.55a2.89,2.89,0,0,1,2.345,2.877" transform="translate(0 -0.377)" fill="#1f3377"/><path d="M65.542,63.825l-3.877-.015.014-3.79,3.877.013Z" transform="translate(-48.247 -46.96)" fill="#6caee0"/><path d="M169.289,22.579a9.524,9.524,0,0,0,5.7,1.9c3.3,0,5.017-1.505,5.017-5.017,0-2.9-1.505-4.587-4.766-5.734-5.125-1.828-7.49-4.372-7.49-7.6,0-3.691,2.759-6.128,7.562-6.128a17.924,17.924,0,0,1,6.845,1.29,1.06,1.06,0,0,1,.681,1.075V2.9c0,.717-.466.968-1.111.609a12.838,12.838,0,0,0-6.2-1.684c-2.473,0-4.157,1.218-4.157,4.3,0,2.616,1.613,4.444,4.229,5.34,6.092,2.114,8.1,4.3,8.1,7.992,0,4.372-2.867,6.916-8.529,6.916a13.953,13.953,0,0,1-6.379-1.469,1.109,1.109,0,0,1-.645-1.111v-.645c0-.788.5-1,1.147-.573" transform="translate(-131.248 -0.001)" fill="#1c1d1d"/><path d="M271.935,37.31l-9.676,24.226a1.045,1.045,0,0,1-1.075.717h-1.505c-.717,0-1-.43-.717-1.075l2.831-6.666-6.236-17.2c-.251-.645.072-1.075.753-1.075h1.684a1.006,1.006,0,0,1,1.039.753l4.551,13.331L268.6,36.988a1.047,1.047,0,0,1,1.075-.753h1.541c.681,0,.968.43.717,1.075" transform="translate(-199.884 -28.351)" fill="#1c1d1d"/><path d="M357.781,34.588c4.623,0,6.451,2.294,6.451,7.633v9.927a.833.833,0,0,1-.932.932h-1.648a.833.833,0,0,1-.932-.932V42.58c0-4.946-1.183-6.343-3.655-6.343-2.007,0-4.731,2.8-4.731,5.555V52.148a.833.833,0,0,1-.932.932h-1.72a.833.833,0,0,1-.932-.932V35.878a.833.833,0,0,1,.932-.932h1.541a.833.833,0,0,1,.932.932v.968a8.06,8.06,0,0,1,5.626-2.258" transform="translate(-272.866 -27.062)" fill="#1c1d1d"/><path d="M448.032,52.793a15.99,15.99,0,0,1-4.516.645c-5.877,0-8.959-3.4-8.959-9.425s3.046-9.425,8.637-9.425a21,21,0,0,1,4.623.5.953.953,0,0,1,.788,1.039v.107c0,.717-.43.968-1.075.753a12.95,12.95,0,0,0-4.157-.681c-3.333,0-5.125,2.437-5.125,7.7,0,5.447,1.864,7.705,5.447,7.705a10.379,10.379,0,0,0,4.014-.788c.645-.251,1.075,0,1.075.717v.108a.98.98,0,0,1-.752,1.039" transform="translate(-340.003 -27.062)" fill="#1c1d1d"/><path d="M545.254,2.687l-5.053,23.8a.958.958,0,0,1-1.039.824H536.4a.958.958,0,0,1-1.039-.824L531.349,6.092l-4.014,20.391a.958.958,0,0,1-1.039.824h-2.76a.958.958,0,0,1-1.039-.824l-5.053-23.8a.767.767,0,0,1,.824-1.039H520.1a.924.924,0,0,1,1,.824l3.834,21.037,4.014-21.037a.923.923,0,0,1,1-.824h2.867a.924.924,0,0,1,1,.824l4.05,21.037,3.835-21.037a.924.924,0,0,1,1-.824h1.72a.767.767,0,0,1,.824,1.039" transform="translate(-404.828 -1.289)" fill="#1c1d1d"/><path d="M660.725,35.591a18.833,18.833,0,0,1,6.056-1c5.7,0,7.526,1.792,7.526,6.666V52.148a.833.833,0,0,1-.932.932H671.8a.833.833,0,0,1-.932-.932V51a7.854,7.854,0,0,1-6.021,2.437c-3.548,0-5.805-2.294-5.805-5.376,0-3.584,3.082-6.307,10.07-6.307h1.612V40.537c0-3.225-1.039-4.193-3.942-4.193a15.855,15.855,0,0,0-5.662,1.183c-.645.251-1.075-.036-1.075-.717v-.179a.962.962,0,0,1,.681-1.039m1.9,12.256c0,2.437,1.219,3.835,2.76,3.835,2.975,0,5.34-2.437,5.34-6.523V43.225h-1.612c-4.265,0-6.487,1.505-6.487,4.623" transform="translate(-515.642 -27.062)" fill="#1c1d1d"/><path d="M761.5,37.167V37.2a.833.833,0,0,1-.932.932h-.215c-4.443,0-7.2,2.616-7.2,7.669v7.633a.834.834,0,0,1-.932.932h-1.828a.833.833,0,0,1-.932-.932V37.167a.833.833,0,0,1,.932-.932h1.684a.833.833,0,0,1,.932.932v2.043a9.919,9.919,0,0,1,7.347-2.974h.574c.359,0,.573.322.573.932" transform="translate(-586.386 -28.351)" fill="#1c1d1d"/><path d="M831.412,52.686a18.053,18.053,0,0,1-5.089.753c-6.092,0-9.174-3.3-9.174-9.425,0-6.307,3.082-9.425,8.458-9.425,5.268,0,7.741,3.19,7.741,9.174,0,0-.358.717-.932.717H820.732c.072,5.089,2.114,7.383,5.841,7.383a11.612,11.612,0,0,0,4.48-1c.681-.251,1.111,0,1.111.717v.072a.98.98,0,0,1-.752,1.039m-5.806-16.521c-2.974,0-4.659,2.079-4.874,6.7h9.1c0-4.587-1.577-6.7-4.229-6.7" transform="translate(-639.347 -27.062)" fill="#1c1d1d"/></g></svg>