<svg xmlns="http://www.w3.org/2000/svg" xmlns:xlink="http://www.w3.org/1999/xlink" width="286.182" height="50.012" viewBox="0 0 286.182 50.012"><defs><clipPath id="a"><rect width="286.182" height="50.012" fill="none"/></clipPath><clipPath id="c"><rect width="22.175" height="22.044" fill="none"/></clipPath><clipPath id="d"><rect width="22.677" height="22.546" fill="none"/></clipPath><clipPath id="e"><rect width="5.741" height="5.614" fill="none"/></clipPath></defs><g clip-path="url(#a)"><g clip-path="url(#a)"><g transform="translate(22.663 22.835)" style="mix-blend-mode:screen;isolation:isolate"><g clip-path="url(#c)"><path d="M92.7,93.185,70.6,93.1l.081-21.962,22.093.082Zm-1.142-.993.073-19.985L71.8,72.134l-.074,19.985Zm-.1-17.644-3.9,15.729-2.928-.011L81.642,77.932,78.657,90.244l-2.89-.011L71.924,74.475l3.1.011,2.392,11.408,2.773-11.388,3.123.013,2.624,11.446,2.594-11.426Z" transform="translate(-70.605 -71.141)" fill="#fff"/></g></g><g transform="translate(0 0.154)" style="mix-blend-mode:screen;isolation:isolate"><g clip-path="url(#d)"><path d="M22.594,23.028,0,22.945.082.482l22.6.083Zm-1.168-1.015L21.5,1.573,1.222,1.5,1.148,21.936ZM18.22,14.948A4.458,4.458,0,0,1,16.3,18.68a8.275,8.275,0,0,1-5.075,1.4,15.386,15.386,0,0,1-6-1.248l.011-3.247.185,0a9.16,9.16,0,0,0,5.875,2.19,5.236,5.236,0,0,0,2.37-.47,1.842,1.842,0,0,0,1.123-1.7q.008-1.529-2.2-2.07-1.222-.243-3.444-.772-3.8-1.118-3.789-4.512A4.191,4.191,0,0,1,7.231,4.746a7.9,7.9,0,0,1,4.8-1.345,14.637,14.637,0,0,1,5.572,1.085l-.011,3.087H17.42A8.239,8.239,0,0,0,12.145,5.7a4.809,4.809,0,0,0-2.277.484A1.737,1.737,0,0,0,8.783,7.765q0,1.559,2.389,2.127,1.247.227,3.59.812,3.47,1.116,3.459,4.243" transform="translate(0 -0.482)" fill="#fff"/></g></g><g transform="translate(19.793 19.265)" style="mix-blend-mode:multiply;isolation:isolate"><g clip-path="url(#e)"><path d="M67.384,65.633l-5.719-.022.021-5.591,5.72.019Z" transform="translate(-61.665 -60.019)" fill="#fff"/></g></g><path d="M170.021,33.307a14.05,14.05,0,0,0,8.406,2.8c4.864,0,7.4-2.22,7.4-7.4,0-4.282-2.221-6.767-7.031-8.459-7.56-2.7-11.049-6.45-11.049-11.208C167.748,3.6,171.819,0,178.9,0A26.441,26.441,0,0,1,189,1.9a1.563,1.563,0,0,1,1,1.586v.793c0,1.057-.687,1.427-1.639.9A18.938,18.938,0,0,0,179.22,2.7c-3.648,0-6.133,1.8-6.133,6.344,0,3.859,2.379,6.555,6.238,7.877,8.987,3.119,11.948,6.344,11.948,11.789,0,6.45-4.229,10.2-12.582,10.2a20.583,20.583,0,0,1-9.41-2.167,1.636,1.636,0,0,1-.952-1.639v-.952c0-1.163.74-1.48,1.692-.846" transform="translate(-113.905 -0.001)" fill="#fff"/><path d="M279.757,37.821,265.483,73.558a1.541,1.541,0,0,1-1.586,1.058h-2.221c-1.057,0-1.48-.635-1.057-1.586L264.8,63.2l-9.2-25.376c-.37-.952.106-1.586,1.11-1.586h2.485a1.484,1.484,0,0,1,1.533,1.11l6.714,19.666,7.4-19.666a1.544,1.544,0,0,1,1.586-1.11H278.7c1,0,1.427.634,1.057,1.586" transform="translate(-173.471 -24.604)" fill="#fff"/><path d="M362.072,34.588c6.82,0,9.516,3.383,9.516,11.261V60.493a1.229,1.229,0,0,1-1.375,1.374h-2.432a1.229,1.229,0,0,1-1.374-1.374V46.377c0-7.3-1.745-9.357-5.392-9.357-2.96,0-6.978,4.124-6.978,8.194V60.493a1.229,1.229,0,0,1-1.374,1.374h-2.538a1.229,1.229,0,0,1-1.374-1.374v-24a1.229,1.229,0,0,1,1.374-1.374H352.4a1.229,1.229,0,0,1,1.375,1.374v1.427a11.889,11.889,0,0,1,8.3-3.33" transform="translate(-236.809 -23.486)" fill="#fff"/><path d="M454.435,61.444a23.586,23.586,0,0,1-6.661.952c-8.67,0-13.217-5.022-13.217-13.9s4.494-13.9,12.741-13.9a30.98,30.98,0,0,1,6.82.74,1.406,1.406,0,0,1,1.163,1.533v.159c0,1.057-.634,1.427-1.586,1.11a19.1,19.1,0,0,0-6.133-1c-4.916,0-7.56,3.595-7.56,11.366,0,8.036,2.749,11.366,8.036,11.366a15.311,15.311,0,0,0,5.921-1.163c.951-.37,1.586,0,1.586,1.057v.159a1.446,1.446,0,0,1-1.11,1.533" transform="translate(-295.074 -23.486)" fill="#fff"/><path d="M558.484,3.181l-7.454,35.1A1.414,1.414,0,0,1,549.5,39.5h-4.071a1.413,1.413,0,0,1-1.533-1.216L537.972,8.2l-5.921,30.081a1.414,1.414,0,0,1-1.533,1.216h-4.071a1.414,1.414,0,0,1-1.533-1.216l-7.454-35.1a1.131,1.131,0,0,1,1.215-1.533h2.7a1.363,1.363,0,0,1,1.48,1.216L528.509,33.9,534.43,2.864a1.362,1.362,0,0,1,1.48-1.216h4.229a1.363,1.363,0,0,1,1.48,1.216L547.593,33.9,553.25,2.864a1.363,1.363,0,0,1,1.48-1.216h2.538a1.131,1.131,0,0,1,1.216,1.533" transform="translate(-351.333 -1.119)" fill="#fff"/><path d="M661.526,36.068a27.783,27.783,0,0,1,8.934-1.48c8.406,0,11.1,2.643,11.1,9.833V60.493a1.229,1.229,0,0,1-1.374,1.374h-2.326a1.229,1.229,0,0,1-1.374-1.374V58.8A11.586,11.586,0,0,1,667.6,62.4c-5.233,0-8.564-3.383-8.564-7.93,0-5.286,4.546-9.3,14.855-9.3h2.379v-1.8c0-4.758-1.533-6.185-5.815-6.185a23.388,23.388,0,0,0-8.352,1.745c-.952.37-1.586-.053-1.586-1.057V37.6a1.419,1.419,0,0,1,1-1.533m2.8,18.08c0,3.595,1.8,5.657,4.071,5.657,4.388,0,7.877-3.6,7.877-9.622V47.329H673.9c-6.292,0-9.569,2.221-9.569,6.82" transform="translate(-447.503 -23.486)" fill="#fff"/><path d="M767.222,37.609v.053a1.229,1.229,0,0,1-1.374,1.375h-.317c-6.555,0-10.626,3.859-10.626,11.313V61.611a1.23,1.23,0,0,1-1.375,1.375h-2.7a1.229,1.229,0,0,1-1.374-1.375v-24a1.229,1.229,0,0,1,1.374-1.374h2.485a1.229,1.229,0,0,1,1.374,1.374v3.013c2.273-2.591,6.344-4.388,10.838-4.388h.846c.529,0,.846.476.846,1.374" transform="translate(-508.899 -24.604)" fill="#fff"/><path d="M838.189,61.285a26.631,26.631,0,0,1-7.507,1.11c-8.987,0-13.534-4.864-13.534-13.9,0-9.3,4.547-13.9,12.476-13.9,7.772,0,11.419,4.705,11.419,13.534,0,0-.529,1.057-1.374,1.057H822.435c.106,7.507,3.119,10.89,8.617,10.89a17.13,17.13,0,0,0,6.608-1.48c1-.37,1.639,0,1.639,1.058v.106a1.446,1.446,0,0,1-1.11,1.533m-8.565-24.371c-4.388,0-6.872,3.066-7.19,9.886h13.428c0-6.767-2.326-9.886-6.239-9.886" transform="translate(-554.862 -23.486)" fill="#fff"/></g></g></svg>